<svg xmlns="http://www.w3.org/2000/svg" xmlns:xlink="http://www.w3.org/1999/xlink" width="428" zoomAndPan="magnify" viewBox="0 0 321 317.999988" height="424" preserveAspectRatio="xMidYMid meet" version="1.0"><defs><g/><clipPath id="5973de3825"><path d="M 57 87 L 247 87 L 247 247 L 57 247 Z M 57 87 " clip-rule="nonzero"/></clipPath><clipPath id="c66bae1391"><path d="M 201.710938 37.570312 L 283.457031 195.410156 L 119.625 280.257812 L 37.878906 122.417969 Z M 201.710938 37.570312 " clip-rule="nonzero"/></clipPath><clipPath id="45f9d3ee64"><path d="M 201.710938 37.570312 L 283.457031 195.410156 L 119.625 280.257812 L 37.878906 122.417969 Z M 201.710938 37.570312 " clip-rule="nonzero"/></clipPath></defs><g fill="#000000" fill-opacity="1"><g transform="translate(84.638188, 178.97327)"><g><path d="M 0.59375 -3.984375 C 0.59375 -4.222656 0.726562 -4.441406 1 -4.640625 C 1.28125 -4.835938 1.609375 -5.015625 1.984375 -5.171875 C 2.367188 -5.335938 2.75 -5.476562 3.125 -5.59375 C 3.5 -5.71875 3.785156 -5.816406 3.984375 -5.890625 C 5.890625 -5.660156 7.796875 -5.460938 9.703125 -5.296875 C 11.609375 -5.140625 13.515625 -5.0625 15.421875 -5.0625 C 16.140625 -5.0625 17.132812 -5.070312 18.40625 -5.09375 C 19.675781 -5.113281 21.066406 -5.179688 22.578125 -5.296875 C 24.085938 -5.421875 25.613281 -5.609375 27.15625 -5.859375 C 28.707031 -6.117188 30.117188 -6.488281 31.390625 -6.96875 C 32.660156 -7.445312 33.691406 -8.039062 34.484375 -8.75 C 35.273438 -9.46875 35.671875 -10.363281 35.671875 -11.4375 C 35.671875 -12.3125 35.484375 -13.09375 35.109375 -13.78125 C 34.734375 -14.476562 34.238281 -15.09375 33.625 -15.625 C 33.007812 -16.164062 32.320312 -16.613281 31.5625 -16.96875 C 31.289062 -17.132812 30.992188 -17.273438 30.671875 -17.390625 C 30.992188 -17.234375 31.289062 -17.078125 31.5625 -16.921875 C 32.28125 -16.515625 32.925781 -16.023438 33.5 -15.453125 C 34.082031 -14.878906 34.550781 -14.242188 34.90625 -13.546875 C 35.257812 -12.859375 35.4375 -12.078125 35.4375 -11.203125 C 35.4375 -10.242188 35.085938 -9.4375 34.390625 -8.78125 C 33.703125 -8.125 32.8125 -7.578125 31.71875 -7.140625 C 30.625 -6.710938 29.410156 -6.378906 28.078125 -6.140625 C 26.753906 -5.898438 25.4375 -5.71875 24.125 -5.59375 C 22.8125 -5.476562 21.597656 -5.410156 20.484375 -5.390625 C 19.378906 -5.367188 18.507812 -5.359375 17.875 -5.359375 C 15.84375 -5.359375 13.804688 -5.425781 11.765625 -5.5625 C 9.722656 -5.707031 7.6875 -5.878906 5.65625 -6.078125 C 6.375 -6.273438 7.097656 -6.421875 7.828125 -6.515625 C 8.566406 -6.617188 9.3125 -6.671875 10.0625 -6.671875 C 11.332031 -6.671875 12.582031 -6.660156 13.8125 -6.640625 C 15.050781 -6.617188 16.285156 -6.609375 17.515625 -6.609375 C 18.984375 -6.609375 20.429688 -6.640625 21.859375 -6.703125 C 23.285156 -6.765625 24.753906 -6.910156 26.265625 -7.140625 L 26.453125 -6.4375 C 27.046875 -6.550781 27.796875 -6.738281 28.703125 -7 C 29.617188 -7.257812 30.503906 -7.585938 31.359375 -7.984375 C 32.210938 -8.378906 32.945312 -8.875 33.5625 -9.46875 C 34.175781 -10.0625 34.484375 -10.757812 34.484375 -11.5625 C 34.484375 -12.707031 34.066406 -13.71875 33.234375 -14.59375 C 32.398438 -15.46875 31.335938 -16.25 30.046875 -16.9375 C 28.753906 -17.632812 27.296875 -18.238281 25.671875 -18.75 C 24.046875 -19.269531 22.445312 -19.726562 20.875 -20.125 C 19.3125 -20.53125 17.832031 -20.890625 16.4375 -21.203125 C 15.050781 -21.523438 13.941406 -21.820312 13.109375 -22.09375 L 13.109375 -21.734375 C 13.941406 -21.421875 15.03125 -21.09375 16.375 -20.75 C 17.726562 -20.414062 19.1875 -20.050781 20.75 -19.65625 C 22.320312 -19.257812 23.898438 -18.8125 25.484375 -18.3125 C 27.078125 -17.820312 28.519531 -17.238281 29.8125 -16.5625 C 31.101562 -15.882812 32.15625 -15.109375 32.96875 -14.234375 C 33.78125 -13.359375 34.1875 -12.363281 34.1875 -11.25 C 34.1875 -10.613281 33.890625 -10.054688 33.296875 -9.578125 C 32.703125 -9.109375 31.992188 -8.703125 31.171875 -8.359375 C 30.359375 -8.023438 29.535156 -7.757812 28.703125 -7.5625 C 27.867188 -7.363281 27.234375 -7.222656 26.796875 -7.140625 C 27.316406 -7.265625 27.984375 -7.4375 28.796875 -7.65625 C 29.609375 -7.875 30.398438 -8.160156 31.171875 -8.515625 C 31.953125 -8.867188 32.617188 -9.296875 33.171875 -9.796875 C 33.734375 -10.296875 34.015625 -10.882812 34.015625 -11.5625 C 34.015625 -12.664062 33.578125 -13.59375 32.703125 -14.34375 C 31.828125 -15.101562 30.671875 -15.78125 29.234375 -16.375 C 27.804688 -16.96875 26.179688 -17.503906 24.359375 -17.984375 C 22.535156 -18.460938 20.660156 -18.976562 18.734375 -19.53125 C 16.804688 -20.09375 14.925781 -20.726562 13.09375 -21.4375 C 11.269531 -22.15625 9.644531 -23.050781 8.21875 -24.125 C 6.789062 -25.195312 5.640625 -26.46875 4.765625 -27.9375 C 3.890625 -29.40625 3.453125 -31.171875 3.453125 -33.234375 C 3.453125 -35.265625 3.9375 -36.984375 4.90625 -38.390625 C 5.882812 -39.796875 7.132812 -40.945312 8.65625 -41.84375 C 10.1875 -42.738281 11.863281 -43.382812 13.6875 -43.78125 C 15.519531 -44.175781 17.289062 -44.375 19 -44.375 C 21.5 -44.375 23.945312 -44.015625 26.34375 -43.296875 C 28.75 -42.585938 31.023438 -41.597656 33.171875 -40.328125 C 32.929688 -40.242188 32.789062 -40.128906 32.75 -39.984375 C 32.71875 -39.847656 32.691406 -39.703125 32.671875 -39.546875 C 32.648438 -39.390625 32.609375 -39.25 32.546875 -39.125 C 32.492188 -39.007812 32.363281 -38.953125 32.15625 -38.953125 C 32 -38.953125 31.691406 -39.019531 31.234375 -39.15625 C 30.785156 -39.300781 30.300781 -39.460938 29.78125 -39.640625 C 29.257812 -39.816406 28.757812 -39.984375 28.28125 -40.140625 C 27.8125 -40.304688 27.5 -40.425781 27.34375 -40.5 L 27.15625 -39.96875 C 27.519531 -39.8125 27.988281 -39.582031 28.5625 -39.28125 C 29.132812 -38.976562 29.6875 -38.617188 30.21875 -38.203125 C 30.757812 -37.785156 31.21875 -37.335938 31.59375 -36.859375 C 31.96875 -36.390625 32.15625 -35.914062 32.15625 -35.4375 C 32.15625 -34.925781 31.921875 -34.671875 31.453125 -34.671875 C 30.859375 -34.671875 30.148438 -34.828125 29.328125 -35.140625 C 28.515625 -35.460938 27.613281 -35.8125 26.625 -36.1875 C 25.632812 -36.5625 24.570312 -36.90625 23.4375 -37.21875 C 22.300781 -37.539062 21.160156 -37.703125 20.015625 -37.703125 C 19.253906 -37.703125 18.367188 -37.628906 17.359375 -37.484375 C 16.347656 -37.347656 15.375 -37.09375 14.4375 -36.71875 C 13.507812 -36.34375 12.726562 -35.828125 12.09375 -35.171875 C 11.457031 -34.515625 11.140625 -33.691406 11.140625 -32.703125 C 11.140625 -31.785156 11.566406 -31.007812 12.421875 -30.375 C 13.273438 -29.738281 14.40625 -29.160156 15.8125 -28.640625 C 17.21875 -28.128906 18.8125 -27.632812 20.59375 -27.15625 C 22.382812 -26.6875 24.222656 -26.160156 26.109375 -25.578125 C 28.003906 -25.003906 29.84375 -24.335938 31.625 -23.578125 C 33.414062 -22.828125 35.015625 -21.914062 36.421875 -20.84375 C 37.828125 -19.769531 38.957031 -18.5 39.8125 -17.03125 C 40.664062 -15.5625 41.09375 -13.835938 41.09375 -11.859375 C 41.09375 -9.910156 40.695312 -8.257812 39.90625 -6.90625 C 39.113281 -5.5625 38.0625 -4.441406 36.75 -3.546875 C 35.4375 -2.648438 33.945312 -1.953125 32.28125 -1.453125 C 30.613281 -0.960938 28.894531 -0.585938 27.125 -0.328125 C 25.363281 -0.0664062 23.617188 0.0859375 21.890625 0.140625 C 20.160156 0.203125 18.601562 0.234375 17.21875 0.234375 L 11.25 0.234375 C 10.894531 0.234375 10.410156 0.222656 9.796875 0.203125 C 9.179688 0.179688 8.578125 0.140625 7.984375 0.078125 C 7.390625 0.0234375 6.875 -0.078125 6.4375 -0.234375 C 6 -0.390625 5.78125 -0.585938 5.78125 -0.828125 L 5.84375 -1.125 C 7.46875 -1.050781 9.070312 -0.984375 10.65625 -0.921875 C 12.25 -0.859375 13.859375 -0.828125 15.484375 -0.828125 C 16.992188 -0.828125 18.503906 -0.828125 20.015625 -0.828125 C 21.359375 -0.867188 22.707031 -0.953125 24.0625 -1.078125 C 23.382812 -1.035156 22.707031 -0.992188 22.03125 -0.953125 C 21.195312 -0.953125 20.382812 -0.953125 19.59375 -0.953125 L 17.21875 -0.953125 C 13.476562 -0.953125 9.800781 -1.070312 6.1875 -1.3125 C 6.269531 -1.625 6.3125 -1.84375 6.3125 -1.96875 C 6.3125 -2.125 6.269531 -2.28125 6.1875 -2.4375 C 6.113281 -2.4375 6.003906 -2.425781 5.859375 -2.40625 C 5.722656 -2.382812 5.554688 -2.375 5.359375 -2.375 C 4.921875 -2.375 4.429688 -2.394531 3.890625 -2.4375 C 3.359375 -2.476562 2.84375 -2.554688 2.34375 -2.671875 C 1.851562 -2.796875 1.4375 -2.96875 1.09375 -3.1875 C 0.757812 -3.40625 0.59375 -3.671875 0.59375 -3.984375 Z M 37.171875 -5.546875 C 36.492188 -4.941406 35.773438 -4.441406 35.015625 -4.046875 C 34.347656 -3.691406 33.65625 -3.351562 32.9375 -3.03125 C 33.65625 -3.269531 34.347656 -3.550781 35.015625 -3.875 C 35.773438 -4.1875 36.492188 -4.742188 37.171875 -5.546875 Z M 37.171875 -5.546875 "/></g></g></g><g fill="#000000" fill-opacity="1"><g transform="translate(126.918392, 178.97327)"><g><path d="M 23.890625 -15.609375 C 22.816406 -15.609375 22.007812 -15.625 21.46875 -15.65625 C 20.9375 -15.695312 20.453125 -15.71875 20.015625 -15.71875 C 18.816406 -15.71875 17.757812 -15.65625 16.84375 -15.53125 C 15.9375 -15.414062 15.164062 -15.179688 14.53125 -14.828125 C 13.894531 -14.472656 13.414062 -13.957031 13.09375 -13.28125 C 12.78125 -12.601562 12.625 -11.710938 12.625 -10.609375 C 12.625 -8.972656 12.8125 -7.769531 13.1875 -7 C 13.570312 -6.226562 14.109375 -5.671875 14.796875 -5.328125 C 15.492188 -4.992188 16.335938 -4.785156 17.328125 -4.703125 C 18.328125 -4.628906 19.441406 -4.453125 20.671875 -4.171875 C 21.378906 -4.085938 22.09375 -4.035156 22.8125 -4.015625 C 23.53125 -3.992188 24.242188 -3.984375 24.953125 -3.984375 L 29.25 -3.984375 C 27.257812 -4.109375 25.28125 -4.179688 23.3125 -4.203125 C 21.351562 -4.222656 19.585938 -4.390625 18.015625 -4.703125 C 16.453125 -5.023438 15.179688 -5.582031 14.203125 -6.375 C 13.234375 -7.164062 12.75 -8.375 12.75 -10 C 12.75 -11.3125 12.914062 -12.316406 13.25 -13.015625 C 13.59375 -13.710938 14.050781 -14.226562 14.625 -14.5625 C 15.195312 -14.894531 15.878906 -15.09375 16.671875 -15.15625 C 17.472656 -15.21875 18.328125 -15.25 19.234375 -15.25 C 20.347656 -15.25 21.484375 -15.1875 22.640625 -15.0625 C 21.722656 -14.789062 20.796875 -14.582031 19.859375 -14.4375 C 18.929688 -14.300781 18.066406 -14.160156 17.265625 -14.015625 C 16.472656 -13.878906 15.789062 -13.703125 15.21875 -13.484375 C 14.644531 -13.265625 14.257812 -12.957031 14.0625 -12.5625 L 14.0625 -9.890625 L 13.578125 -9.65625 C 13.734375 -8.65625 13.878906 -7.90625 14.015625 -7.40625 C 14.160156 -6.914062 14.550781 -6.539062 15.1875 -6.28125 C 15.820312 -6.019531 16.84375 -5.8125 18.25 -5.65625 C 19.664062 -5.5 21.722656 -5.242188 24.421875 -4.890625 L 28.703125 -4.890625 C 29.460938 -4.890625 29.910156 -4.914062 30.046875 -4.96875 C 30.179688 -5.03125 30.269531 -5.0625 30.3125 -5.0625 L 29.78125 -8.28125 C 29.695312 -9.070312 29.597656 -9.785156 29.484375 -10.421875 C 29.367188 -11.054688 29.207031 -11.734375 29 -12.453125 C 28.96875 -12.328125 28.851562 -12.265625 28.65625 -12.265625 C 28.851562 -11.585938 29.019531 -10.875 29.15625 -10.125 C 29.289062 -9.375 29.40625 -8.660156 29.5 -7.984375 C 29.601562 -7.304688 29.6875 -6.726562 29.75 -6.25 C 29.8125 -5.78125 29.878906 -5.503906 29.953125 -5.421875 L 29.609375 -5.296875 C 29.523438 -5.253906 29.40625 -5.234375 29.25 -5.234375 L 28.890625 -5.234375 C 28.609375 -5.234375 28.289062 -5.265625 27.9375 -5.328125 C 27.582031 -5.390625 27.125 -5.421875 26.5625 -5.421875 L 24.59375 -5.421875 C 23.050781 -5.421875 21.625 -5.5 20.3125 -5.65625 C 19.082031 -5.8125 18.007812 -6.007812 17.09375 -6.25 C 18.007812 -6.050781 19.125 -5.894531 20.4375 -5.78125 C 21.820312 -5.625 23.109375 -5.546875 24.296875 -5.546875 C 24.816406 -5.546875 25.363281 -5.550781 25.9375 -5.5625 C 26.507812 -5.582031 27.132812 -5.59375 27.8125 -5.59375 L 29.78125 -5.59375 C 29.664062 -5.71875 29.523438 -5.78125 29.359375 -5.78125 L 29.25 -5.78125 C 29.082031 -8.519531 28.722656 -11.140625 28.171875 -13.640625 C 27.617188 -16.140625 26.722656 -18.332031 25.484375 -20.21875 C 24.253906 -22.101562 22.644531 -23.613281 20.65625 -24.75 C 18.675781 -25.882812 16.195312 -26.453125 13.21875 -26.453125 C 12.382812 -26.453125 11.550781 -26.390625 10.71875 -26.265625 C 9.882812 -26.148438 9.03125 -25.992188 8.15625 -25.796875 C 8.238281 -25.867188 8.28125 -25.945312 8.28125 -26.03125 C 8.28125 -26.226562 8.195312 -26.414062 8.03125 -26.59375 C 7.875 -26.769531 7.796875 -26.957031 7.796875 -27.15625 C 7.796875 -27.394531 8.046875 -27.625 8.546875 -27.84375 C 9.046875 -28.0625 10.109375 -28.269531 11.734375 -28.46875 C 11.648438 -28.550781 11.597656 -28.671875 11.578125 -28.828125 C 11.566406 -28.984375 11.5625 -29.101562 11.5625 -29.1875 C 9.414062 -29.1875 7.742188 -29.234375 6.546875 -29.328125 C 5.359375 -29.429688 4.765625 -29.722656 4.765625 -30.203125 C 4.765625 -30.398438 5.007812 -30.675781 5.5 -31.03125 C 6 -31.382812 6.707031 -31.726562 7.625 -32.0625 C 8.539062 -32.40625 9.640625 -32.707031 10.921875 -32.96875 C 12.210938 -33.226562 13.65625 -33.359375 15.25 -33.359375 C 18.300781 -33.359375 20.921875 -32.890625 23.109375 -31.953125 C 25.296875 -31.023438 27.132812 -29.796875 28.625 -28.265625 C 30.113281 -26.734375 31.320312 -24.992188 32.25 -23.046875 C 33.1875 -21.097656 33.941406 -19.140625 34.515625 -17.171875 C 35.085938 -15.210938 35.515625 -13.3125 35.796875 -11.46875 C 36.078125 -9.625 36.335938 -8.023438 36.578125 -6.671875 C 36.578125 -6.429688 36.582031 -6.191406 36.59375 -5.953125 C 36.613281 -5.710938 36.625 -5.4375 36.625 -5.125 C 36.625 -3.96875 36.414062 -2.960938 36 -2.109375 C 35.582031 -1.253906 35.003906 -0.539062 34.265625 0.03125 C 33.535156 0.601562 32.679688 1.035156 31.703125 1.328125 C 30.734375 1.628906 29.695312 1.78125 28.59375 1.78125 C 27.71875 1.78125 26.582031 1.757812 25.1875 1.71875 C 23.800781 1.6875 22.472656 1.570312 21.203125 1.375 C 20.367188 1.175781 19.453125 1.023438 18.453125 0.921875 C 17.460938 0.828125 16.453125 0.660156 15.421875 0.421875 C 14.390625 0.179688 13.382812 -0.15625 12.40625 -0.59375 C 11.4375 -1.03125 10.566406 -1.695312 9.796875 -2.59375 C 9.023438 -3.488281 8.410156 -4.648438 7.953125 -6.078125 C 7.492188 -7.503906 7.265625 -9.3125 7.265625 -11.5 C 7.265625 -13.5625 7.738281 -15.21875 8.6875 -16.46875 C 9.644531 -17.71875 10.785156 -18.691406 12.109375 -19.390625 C 13.441406 -20.085938 14.800781 -20.539062 16.1875 -20.75 C 17.582031 -20.96875 18.71875 -21.078125 19.59375 -21.078125 C 20.707031 -21.078125 21.441406 -21 21.796875 -20.84375 C 22.148438 -20.6875 22.328125 -20.53125 22.328125 -20.375 C 22.328125 -20.25 22.3125 -20.148438 22.28125 -20.078125 C 21.28125 -20.078125 20.003906 -20.035156 18.453125 -19.953125 C 16.910156 -19.867188 15.414062 -19.609375 13.96875 -19.171875 C 12.519531 -18.742188 11.28125 -18.082031 10.25 -17.1875 C 9.21875 -16.289062 8.703125 -15.03125 8.703125 -13.40625 C 9.054688 -14.875 9.660156 -16.035156 10.515625 -16.890625 C 11.367188 -17.742188 12.347656 -18.378906 13.453125 -18.796875 C 14.566406 -19.210938 15.707031 -19.46875 16.875 -19.5625 C 18.050781 -19.664062 19.117188 -19.71875 20.078125 -19.71875 L 22.09375 -19.71875 C 21.9375 -19.5625 21.859375 -19.398438 21.859375 -19.234375 C 21.859375 -19.078125 21.9375 -18.941406 22.09375 -18.828125 L 24.421875 -18.828125 C 25.054688 -18.703125 25.507812 -18.488281 25.78125 -18.1875 C 26.0625 -17.894531 26.203125 -17.628906 26.203125 -17.390625 C 26.203125 -17.035156 26.023438 -16.71875 25.671875 -16.4375 C 25.316406 -16.15625 24.722656 -15.878906 23.890625 -15.609375 Z M 13.875 -1.1875 C 14.988281 -0.75 16.128906 -0.410156 17.296875 -0.171875 C 18.472656 0.0546875 19.632812 0.210938 20.78125 0.296875 C 21.9375 0.410156 23.007812 0.46875 24 0.46875 C 23.207031 0.394531 22.414062 0.257812 21.625 0.0625 C 20.789062 -0.132812 20.054688 -0.3125 19.421875 -0.46875 C 18.742188 -0.632812 18.078125 -0.742188 17.421875 -0.796875 C 16.765625 -0.859375 16.085938 -0.945312 15.390625 -1.0625 C 14.703125 -1.1875 14 -1.378906 13.28125 -1.640625 C 12.5625 -1.898438 11.847656 -2.285156 11.140625 -2.796875 C 11.890625 -2.117188 12.800781 -1.582031 13.875 -1.1875 Z M 14.46875 -7.4375 C 14.4375 -7.476562 14.554688 -7.363281 14.828125 -7.09375 C 15.066406 -6.851562 15.382812 -6.671875 15.78125 -6.546875 C 15.582031 -6.628906 15.285156 -6.726562 14.890625 -6.84375 C 14.453125 -7.007812 14.234375 -7.25 14.234375 -7.5625 Z M 15.96875 -6.546875 C 15.925781 -6.546875 15.863281 -6.546875 15.78125 -6.546875 C 15.820312 -6.546875 15.882812 -6.546875 15.96875 -6.546875 Z M 15.96875 -6.546875 "/></g></g></g><g fill="#000000" fill-opacity="1"><g transform="translate(167.41211, 178.97327)"><g><path d="M 4.53125 -3.09375 C 4.6875 -4.207031 4.832031 -5.507812 4.96875 -7 C 5.113281 -8.488281 5.242188 -9.988281 5.359375 -11.5 C 5.484375 -13.007812 5.601562 -14.488281 5.71875 -15.9375 C 5.832031 -17.382812 5.953125 -18.644531 6.078125 -19.71875 C 5.878906 -18.644531 5.695312 -17.410156 5.53125 -16.015625 C 5.375 -14.628906 5.21875 -13.203125 5.0625 -11.734375 C 4.90625 -10.265625 4.742188 -8.804688 4.578125 -7.359375 C 4.421875 -5.910156 4.285156 -4.609375 4.171875 -3.453125 C 3.578125 -3.847656 3.28125 -4.382812 3.28125 -5.0625 C 3.28125 -5.851562 3.296875 -6.515625 3.328125 -7.046875 C 3.367188 -7.585938 3.429688 -8.21875 3.515625 -8.9375 L 4.171875 -9.53125 C 4.128906 -9.726562 4.109375 -9.90625 4.109375 -10.0625 L 4.109375 -10.65625 C 4.109375 -11.570312 4.207031 -12.613281 4.40625 -13.78125 C 4.601562 -14.957031 4.832031 -16.148438 5.09375 -17.359375 C 5.351562 -18.566406 5.582031 -19.738281 5.78125 -20.875 C 5.976562 -22.007812 6.078125 -22.992188 6.078125 -23.828125 L 5.359375 -24 C 5.273438 -23.050781 5.15625 -21.96875 5 -20.75 C 4.84375 -19.539062 4.675781 -18.289062 4.5 -17 C 4.320312 -15.707031 4.148438 -14.425781 3.984375 -13.15625 C 3.910156 -12.488281 3.832031 -11.851562 3.75 -11.25 C 3.832031 -12.363281 3.929688 -13.554688 4.046875 -14.828125 C 4.242188 -16.660156 4.453125 -18.476562 4.671875 -20.28125 C 4.890625 -22.082031 5.097656 -23.859375 5.296875 -25.609375 C 5.492188 -27.359375 5.691406 -28.96875 5.890625 -30.4375 C 5.890625 -31.03125 6.039062 -31.675781 6.34375 -32.375 C 6.644531 -33.070312 6.851562 -33.796875 6.96875 -34.546875 C 7.207031 -34.460938 7.40625 -34.421875 7.5625 -34.421875 L 7.984375 -34.421875 C 8.378906 -34.421875 8.632812 -34.332031 8.75 -34.15625 C 8.875 -33.976562 8.9375 -33.734375 8.9375 -33.421875 L 8.9375 -33.109375 L 9.46875 -32.9375 C 9.789062 -33.53125 10.164062 -34.003906 10.59375 -34.359375 C 11.03125 -34.722656 11.46875 -34.90625 11.90625 -34.90625 C 12.863281 -34.90625 13.34375 -33.890625 13.34375 -31.859375 C 13.34375 -30.785156 13.234375 -29.644531 13.015625 -28.4375 C 12.796875 -27.226562 12.6875 -26.046875 12.6875 -24.890625 L 12.6875 -24.125 C 12.6875 -22.851562 12.546875 -21.472656 12.265625 -19.984375 C 11.992188 -18.492188 11.6875 -16.984375 11.34375 -15.453125 C 11.007812 -13.921875 10.703125 -12.441406 10.421875 -11.015625 C 10.140625 -9.585938 10 -8.28125 10 -7.09375 C 10 -6.8125 10.019531 -6.507812 10.0625 -6.1875 C 10.101562 -5.875 10.125 -5.578125 10.125 -5.296875 C 10.125 -4.703125 10.015625 -4.332031 9.796875 -4.1875 C 9.578125 -4.050781 9.3125 -3.984375 9 -3.984375 C 9 -4.503906 8.976562 -5.140625 8.9375 -5.890625 C 8.894531 -6.648438 8.875 -7.328125 8.875 -7.921875 C 8.789062 -7.484375 8.75 -6.882812 8.75 -6.125 C 8.75 -5.375 8.710938 -4.660156 8.640625 -3.984375 L 7.75 -3.984375 L 7.75 -3.28125 C 7.382812 -2.644531 6.90625 -2.328125 6.3125 -2.328125 C 6.03125 -2.328125 5.710938 -2.40625 5.359375 -2.5625 C 5.003906 -2.71875 4.726562 -2.894531 4.53125 -3.09375 Z M 16.796875 -48.84375 C 16.117188 -48.445312 15.5 -47.929688 14.9375 -47.296875 C 14.382812 -46.660156 13.8125 -46.046875 13.21875 -45.453125 C 13.582031 -45.679688 13.898438 -45.9375 14.171875 -46.21875 C 14.453125 -46.5 14.738281 -46.773438 15.03125 -47.046875 C 15.332031 -47.328125 15.648438 -47.609375 15.984375 -47.890625 C 16.328125 -48.171875 16.71875 -48.425781 17.15625 -48.65625 C 17.269531 -48.5 17.375 -48.359375 17.46875 -48.234375 C 17.570312 -48.117188 17.625 -48.003906 17.625 -47.890625 L 16.265625 -46.515625 C 16.265625 -46.597656 16.191406 -46.675781 16.046875 -46.75 C 15.910156 -46.832031 15.800781 -46.875 15.71875 -46.875 C 15.601562 -46.476562 15.40625 -46.160156 15.125 -45.921875 C 14.851562 -45.679688 14.578125 -45.460938 14.296875 -45.265625 C 14.015625 -45.066406 13.734375 -44.847656 13.453125 -44.609375 C 13.179688 -44.367188 12.984375 -44.050781 12.859375 -43.65625 L 12.859375 -43.546875 C 12.859375 -43.503906 12.921875 -43.484375 13.046875 -43.484375 L 16.015625 -46.28125 L 14.890625 -45.140625 C 14.335938 -44.585938 13.75 -44.023438 13.125 -43.453125 C 12.507812 -42.878906 11.9375 -42.375 11.40625 -41.9375 C 10.875 -41.5 10.546875 -41.28125 10.421875 -41.28125 L 10.359375 -41.34375 C 10.085938 -41.414062 9.800781 -41.453125 9.5 -41.453125 C 9.195312 -41.453125 8.890625 -41.472656 8.578125 -41.515625 C 8.578125 -41.828125 8.523438 -42.160156 8.421875 -42.515625 C 8.328125 -42.878906 8.28125 -43.160156 8.28125 -43.359375 C 8.28125 -43.554688 8.378906 -43.65625 8.578125 -43.65625 C 8.578125 -43.78125 8.503906 -43.96875 8.359375 -44.21875 C 8.222656 -44.476562 8.078125 -44.773438 7.921875 -45.109375 C 7.765625 -45.453125 7.613281 -45.8125 7.46875 -46.1875 C 7.332031 -46.5625 7.265625 -46.953125 7.265625 -47.359375 C 7.265625 -47.753906 7.429688 -48.140625 7.765625 -48.515625 C 8.109375 -48.890625 8.507812 -49.210938 8.96875 -49.484375 C 9.425781 -49.765625 9.867188 -50.003906 10.296875 -50.203125 C 10.734375 -50.410156 11.050781 -50.550781 11.25 -50.625 C 11.414062 -50.625 11.476562 -50.710938 11.4375 -50.890625 C 11.394531 -51.078125 11.453125 -51.171875 11.609375 -51.171875 L 12.6875 -50.8125 C 12.601562 -50.613281 12.351562 -50.285156 11.9375 -49.828125 C 11.519531 -49.367188 11.210938 -49.039062 11.015625 -48.84375 C 11.296875 -49.039062 11.625 -49.335938 12 -49.734375 C 12.375 -50.128906 12.660156 -50.425781 12.859375 -50.625 C 13.054688 -50.550781 13.234375 -50.472656 13.390625 -50.390625 C 13.554688 -50.304688 13.679688 -50.265625 13.765625 -50.265625 L 13.9375 -50.453125 C 14.21875 -50.453125 14.523438 -50.390625 14.859375 -50.265625 C 15.191406 -50.148438 15.5 -50.007812 15.78125 -49.84375 C 16.0625 -49.6875 16.300781 -49.507812 16.5 -49.3125 C 16.695312 -49.113281 16.796875 -48.957031 16.796875 -48.84375 Z M 3.640625 -9.828125 C 3.671875 -10.265625 3.707031 -10.703125 3.75 -11.140625 C 3.707031 -10.660156 3.671875 -10.222656 3.640625 -9.828125 Z M 3.640625 -9.828125 "/></g></g></g><g fill="#000000" fill-opacity="1"><g transform="translate(186.825272, 178.97327)"><g><path d="M 13.28125 0.65625 C 12.882812 0.738281 12.445312 0.78125 11.96875 0.78125 L 10.25 0.78125 C 9.21875 0.78125 8.488281 0.894531 8.0625 1.125 C 7.644531 1.363281 7.398438 1.484375 7.328125 1.484375 L 7.09375 0.421875 L 7.09375 -0.65625 L 6.796875 -6.25 C 6.710938 -7.320312 6.488281 -8.472656 6.125 -9.703125 C 5.769531 -10.941406 5.492188 -12.195312 5.296875 -13.46875 C 5.179688 -14.300781 5.082031 -15.09375 5 -15.84375 L 4.765625 -18.171875 C 4.679688 -18.960938 4.585938 -19.773438 4.484375 -20.609375 C 4.390625 -21.441406 4.242188 -22.332031 4.046875 -23.28125 C 4.046875 -23.519531 4.054688 -23.757812 4.078125 -24 C 4.097656 -24.238281 4.109375 -24.476562 4.109375 -24.71875 C 4.109375 -25.945312 4.007812 -27.15625 3.8125 -28.34375 C 3.613281 -29.539062 3.335938 -30.710938 2.984375 -31.859375 C 3.253906 -31.984375 3.507812 -32.09375 3.75 -32.1875 C 3.988281 -32.289062 4.207031 -32.34375 4.40625 -32.34375 C 4.601562 -32.34375 4.820312 -32.113281 5.0625 -31.65625 C 5.300781 -31.195312 5.5625 -30.253906 5.84375 -28.828125 C 5.914062 -28.828125 6.03125 -28.851562 6.1875 -28.90625 C 6.351562 -28.96875 6.472656 -29 6.546875 -29 C 6.515625 -29.675781 6.414062 -30.398438 6.25 -31.171875 C 6.09375 -31.953125 5.9375 -32.695312 5.78125 -33.40625 C 5.625 -34.125 5.472656 -34.769531 5.328125 -35.34375 C 5.191406 -35.925781 5.125 -36.394531 5.125 -36.75 C 5.125 -36.832031 5.132812 -36.929688 5.15625 -37.046875 C 5.175781 -37.160156 5.265625 -37.21875 5.421875 -37.21875 C 5.617188 -37.21875 5.875 -37 6.1875 -36.5625 C 6.507812 -36.132812 6.847656 -35.582031 7.203125 -34.90625 C 7.566406 -34.226562 7.914062 -33.5 8.25 -32.71875 C 8.582031 -31.945312 8.890625 -31.226562 9.171875 -30.5625 C 10.242188 -32.582031 11.460938 -34.117188 12.828125 -35.171875 C 14.203125 -36.222656 16 -36.75 18.21875 -36.75 C 19.851562 -36.75 21.1875 -36.5625 22.21875 -36.1875 C 23.25 -35.8125 24.050781 -35.394531 24.625 -34.9375 C 25.207031 -34.476562 25.597656 -34.050781 25.796875 -33.65625 L 26.140625 -33.0625 C 26.140625 -32.820312 26.023438 -32.660156 25.796875 -32.578125 C 24.753906 -33.566406 23.578125 -34.320312 22.265625 -34.84375 C 20.960938 -35.363281 19.613281 -35.625 18.21875 -35.625 C 16.875 -35.625 15.863281 -35.441406 15.1875 -35.078125 C 14.550781 -34.765625 13.875 -34.367188 13.15625 -33.890625 C 13.914062 -34.367188 14.613281 -34.742188 15.25 -35.015625 C 15.925781 -35.296875 16.898438 -35.4375 18.171875 -35.4375 C 19.554688 -35.4375 20.882812 -35.164062 22.15625 -34.625 C 23.425781 -34.09375 24.519531 -33.410156 25.4375 -32.578125 C 25.238281 -32.503906 25.066406 -32.414062 24.921875 -32.3125 C 24.785156 -32.207031 24.71875 -32.054688 24.71875 -31.859375 C 24.914062 -31.859375 25.132812 -31.726562 25.375 -31.46875 C 25.613281 -31.21875 25.832031 -30.910156 26.03125 -30.546875 C 26.226562 -30.191406 26.394531 -29.828125 26.53125 -29.453125 C 26.675781 -29.078125 26.75 -28.769531 26.75 -28.53125 C 26.75 -27.851562 26.488281 -27.515625 25.96875 -27.515625 C 25.570312 -27.515625 25.097656 -27.65625 24.546875 -27.9375 C 24.421875 -27.976562 24.171875 -28.195312 23.796875 -28.59375 C 23.421875 -28.988281 22.953125 -29.394531 22.390625 -29.8125 C 21.835938 -30.226562 21.203125 -30.613281 20.484375 -30.96875 C 19.773438 -31.332031 18.984375 -31.515625 18.109375 -31.515625 C 17.390625 -31.515625 16.757812 -31.363281 16.21875 -31.0625 C 15.6875 -30.757812 15.203125 -30.359375 14.765625 -29.859375 C 14.328125 -29.367188 13.929688 -28.804688 13.578125 -28.171875 L 12.8125 -26.75 C 13.40625 -27.820312 14.054688 -28.789062 14.765625 -29.65625 C 15.566406 -30.6875 16.5625 -31.203125 17.75 -31.203125 C 18.78125 -31.203125 19.734375 -30.972656 20.609375 -30.515625 C 21.484375 -30.066406 22.195312 -29.503906 22.75 -28.828125 C 22.070312 -29.109375 21.273438 -29.382812 20.359375 -29.65625 C 19.453125 -29.9375 18.582031 -30.078125 17.75 -30.078125 C 17.3125 -30.078125 16.929688 -29.976562 16.609375 -29.78125 C 16.296875 -29.582031 16.03125 -29.332031 15.8125 -29.03125 C 15.59375 -28.738281 15.394531 -28.410156 15.21875 -28.046875 C 15.039062 -27.691406 14.851562 -27.359375 14.65625 -27.046875 L 13.875 -26.921875 C 13.195312 -25.765625 12.648438 -24.421875 12.234375 -22.890625 C 11.816406 -21.367188 11.609375 -19.773438 11.609375 -18.109375 C 11.609375 -17.117188 11.65625 -16.222656 11.75 -15.421875 C 11.851562 -14.628906 12.003906 -13.816406 12.203125 -12.984375 L 12.921875 -11.140625 L 12.8125 -12.859375 C 12.726562 -14.210938 12.644531 -15.414062 12.5625 -16.46875 C 12.488281 -17.519531 12.453125 -18.679688 12.453125 -19.953125 C 12.523438 -21.109375 12.679688 -22.203125 12.921875 -23.234375 C 13.117188 -24.109375 13.414062 -24.921875 13.8125 -25.671875 C 13.34375 -24.710938 13.023438 -23.617188 12.859375 -22.390625 C 12.660156 -21.046875 12.5625 -19.617188 12.5625 -18.109375 C 12.5625 -16.910156 12.617188 -15.773438 12.734375 -14.703125 C 12.859375 -13.640625 13.007812 -12.570312 13.1875 -11.5 C 13.375 -10.425781 13.566406 -9.320312 13.765625 -8.1875 C 13.960938 -7.0625 14.117188 -5.820312 14.234375 -4.46875 L 14.421875 -3.328125 L 14.765625 0.0625 Z M 14 -25.96875 L 13.8125 -25.671875 Z M 14 -25.96875 "/></g></g></g><g clip-path="url(#5973de3825)"><g clip-path="url(#c66bae1391)"><g clip-path="url(#45f9d3ee64)"><path fill="#fbc532" d="M 204.453125 233.921875 C 219.175781 222.359375 228.820312 205.882812 236.1875 188.933594 C 242.671875 173.96875 247.101562 157.917969 246.695312 141.507812 C 246.519531 133.558594 245.660156 124.925781 242.378906 117.632812 C 239.117188 110.371094 234.019531 103.976562 227.824219 98.980469 C 221.574219 93.886719 214.027344 90.210938 206.144531 88.613281 C 197.222656 86.769531 188.1875 87.84375 179.1875 88.734375 C 158.75 90.78125 138.21875 88.316406 117.710938 90.234375 C 99.574219 91.917969 80.953125 97.792969 68.65625 112.035156 C 56.945312 125.640625 55.613281 143.90625 60.621094 160.625 C 66.402344 179.71875 79.261719 195.894531 94.363281 208.628906 C 101.914062 215.039062 110.101562 220.664062 118.511719 225.921875 C 126.835938 231.101562 135.277344 236.261719 144.070312 240.578125 C 152.03125 244.492188 160.441406 247.183594 169.386719 246.984375 C 177.886719 246.8125 186.308594 244.480469 193.902344 240.628906 C 197.679688 238.714844 201.175781 236.40625 204.453125 233.921875 " fill-opacity="1" fill-rule="nonzero"/></g></g></g></svg>