<svg xmlns="http://www.w3.org/2000/svg" xmlns:xlink="http://www.w3.org/1999/xlink" width="641" zoomAndPan="magnify" viewBox="0 0 480.75 478.499986" height="638" preserveAspectRatio="xMidYMid meet" version="1.0"><defs><g/><clipPath id="d5fc5070b3"><path d="M 73 116 L 373 116 L 373 376 L 73 376 Z M 73 116 " clip-rule="nonzero"/></clipPath><clipPath id="30e7964e0c"><path d="M 268.777344 37.871094 L 442.582031 260.707031 L 212.0625 440.503906 L 38.257812 217.667969 Z M 268.777344 37.871094 " clip-rule="nonzero"/></clipPath><clipPath id="6dbe17ce03"><path d="M 268.777344 37.871094 L 442.582031 260.707031 L 212.0625 440.503906 L 38.257812 217.667969 Z M 268.777344 37.871094 " clip-rule="nonzero"/></clipPath></defs><g fill="#000000" fill-opacity="1"><g transform="translate(82.719108, 244.479391)"><g><path d="M 38.34375 -41.203125 C 38.65625 -41.203125 38.84375 -41.007812 38.90625 -40.625 C 38.96875 -40.25 39 -39.882812 39 -39.53125 L 38.9375 -39.109375 C 38.894531 -38.867188 38.832031 -38.5625 38.75 -38.1875 C 38.675781 -37.8125 38.585938 -37.40625 38.484375 -36.96875 C 38.390625 -36.53125 38.257812 -36.132812 38.09375 -35.78125 C 37.539062 -34.03125 37.09375 -32.300781 36.75 -30.59375 C 36.414062 -28.894531 36.148438 -27.179688 35.953125 -25.453125 C 35.753906 -23.722656 35.59375 -21.984375 35.46875 -20.234375 C 35.351562 -18.492188 35.238281 -16.726562 35.125 -14.9375 C 35.28125 -16.570312 35.425781 -18.28125 35.5625 -20.0625 C 35.707031 -21.84375 35.898438 -23.632812 36.140625 -25.4375 C 36.378906 -27.25 36.6875 -29.019531 37.0625 -30.75 C 37.4375 -32.476562 37.960938 -34.09375 38.640625 -35.59375 C 38.046875 -31.789062 37.554688 -28.003906 37.171875 -24.234375 C 36.796875 -20.460938 36.488281 -16.648438 36.25 -12.796875 L 35.546875 -12.4375 C 35.546875 -10.019531 35.304688 -7.707031 34.828125 -5.5 C 34.347656 -3.300781 33.8125 -1.03125 33.21875 1.3125 C 33.019531 1.3125 32.789062 1.320312 32.53125 1.34375 C 32.269531 1.363281 32.023438 1.375 31.796875 1.375 C 31.585938 1.375 31.304688 1.3125 30.953125 1.1875 C 30.597656 1.070312 30.222656 0.921875 29.828125 0.734375 C 29.429688 0.554688 29.023438 0.359375 28.609375 0.140625 C 28.191406 -0.0664062 27.84375 -0.269531 27.5625 -0.46875 C 25.851562 -1.582031 24.320312 -2.960938 22.96875 -4.609375 C 21.625 -6.253906 20.414062 -8.066406 19.34375 -10.046875 C 18.269531 -12.035156 17.316406 -14.128906 16.484375 -16.328125 C 15.648438 -18.535156 14.863281 -20.75 14.125 -22.96875 C 13.394531 -25.195312 12.691406 -27.375 12.015625 -29.5 C 11.347656 -31.625 10.675781 -33.578125 10 -35.359375 L 9.640625 -35.0625 C 10.316406 -33.082031 10.984375 -30.929688 11.640625 -28.609375 C 12.296875 -26.285156 12.988281 -23.921875 13.71875 -21.515625 C 14.457031 -19.117188 15.289062 -16.75 16.21875 -14.40625 C 17.15625 -12.0625 18.25 -9.878906 19.5 -7.859375 C 20.75 -5.835938 22.207031 -4.039062 23.875 -2.46875 C 25.539062 -0.90625 27.484375 0.3125 29.703125 1.1875 C 27.796875 0.675781 26.097656 -0.203125 24.609375 -1.453125 C 23.128906 -2.703125 21.78125 -4.179688 20.5625 -5.890625 C 19.351562 -7.597656 18.28125 -9.453125 17.34375 -11.453125 C 16.414062 -13.460938 15.570312 -15.5 14.8125 -17.5625 C 14.0625 -19.625 13.390625 -21.644531 12.796875 -23.625 C 12.203125 -25.613281 11.644531 -27.421875 11.125 -29.046875 C 11.125 -27.378906 11.210938 -25.75 11.390625 -24.15625 C 11.578125 -22.570312 11.671875 -20.96875 11.671875 -19.34375 C 11.671875 -16.601562 11.75 -13.851562 11.90625 -11.09375 C 12.0625 -8.34375 12.21875 -5.597656 12.375 -2.859375 L 11.078125 -2.625 C 10.753906 -2.625 10.515625 -2.890625 10.359375 -3.421875 C 10.203125 -3.960938 10.082031 -4.566406 10 -5.234375 C 9.914062 -5.910156 9.863281 -6.554688 9.84375 -7.171875 C 9.832031 -7.785156 9.828125 -8.171875 9.828125 -8.328125 L 9.109375 -8.328125 C 9.109375 -8.015625 9.097656 -7.390625 9.078125 -6.453125 C 9.054688 -5.523438 8.984375 -4.5625 8.859375 -3.5625 C 8.742188 -2.570312 8.554688 -1.679688 8.296875 -0.890625 C 8.046875 -0.0976562 7.679688 0.296875 7.203125 0.296875 C 6.890625 0.296875 6.59375 -0.226562 6.3125 -1.28125 C 6.03125 -2.332031 5.75 -3.71875 5.46875 -5.4375 C 5.195312 -7.164062 4.941406 -9.128906 4.703125 -11.328125 C 4.460938 -13.535156 4.265625 -15.769531 4.109375 -18.03125 C 3.953125 -20.300781 3.820312 -22.503906 3.71875 -24.640625 C 3.625 -26.785156 3.578125 -28.671875 3.578125 -30.296875 C 3.578125 -32.398438 3.722656 -34.484375 4.015625 -36.546875 C 4.316406 -38.609375 4.804688 -40.65625 5.484375 -42.6875 L 12.03125 -43.9375 C 12.226562 -43.65625 12.40625 -43.40625 12.5625 -43.1875 C 12.71875 -42.96875 12.894531 -42.738281 13.09375 -42.5 C 14.25 -40.832031 15.242188 -39.015625 16.078125 -37.046875 C 16.910156 -35.085938 17.660156 -33.046875 18.328125 -30.921875 C 19.003906 -28.796875 19.648438 -26.648438 20.265625 -24.484375 C 20.878906 -22.328125 21.5625 -20.226562 22.3125 -18.1875 C 23.070312 -16.144531 23.945312 -14.207031 24.9375 -12.375 C 25.9375 -10.550781 27.148438 -8.925781 28.578125 -7.5 C 28.734375 -8.65625 28.878906 -10.179688 29.015625 -12.078125 C 29.160156 -13.984375 29.320312 -16.023438 29.5 -18.203125 C 29.675781 -20.390625 29.863281 -22.582031 30.0625 -24.78125 C 30.257812 -26.988281 30.503906 -28.992188 30.796875 -30.796875 C 31.097656 -32.609375 31.457031 -34.078125 31.875 -35.203125 C 32.289062 -36.335938 32.78125 -36.90625 33.34375 -36.90625 L 33.6875 -36.671875 C 32.851562 -34.210938 32.285156 -31.734375 31.984375 -29.234375 C 31.691406 -26.734375 31.476562 -24.210938 31.34375 -21.671875 C 31.207031 -19.128906 31.046875 -16.597656 30.859375 -14.078125 C 30.679688 -11.554688 30.296875 -9.066406 29.703125 -6.609375 L 30.0625 -6.421875 C 30.101562 -6.785156 30.140625 -7.15625 30.171875 -7.53125 C 30.210938 -7.90625 30.273438 -8.269531 30.359375 -8.625 C 30.679688 -10.925781 30.910156 -13.238281 31.046875 -15.5625 C 31.179688 -17.882812 31.335938 -20.21875 31.515625 -22.5625 C 31.703125 -24.90625 31.960938 -27.226562 32.296875 -29.53125 C 32.628906 -31.832031 33.15625 -34.09375 33.875 -36.3125 L 34.46875 -35.890625 C 34.707031 -36.054688 34.925781 -36.425781 35.125 -37 C 35.320312 -37.570312 35.554688 -38.164062 35.828125 -38.78125 C 36.109375 -39.394531 36.445312 -39.953125 36.84375 -40.453125 C 37.238281 -40.953125 37.738281 -41.203125 38.34375 -41.203125 Z M 32.265625 0.828125 C 32.703125 -0.597656 33.097656 -2.023438 33.453125 -3.453125 C 33.816406 -4.878906 34.097656 -6.347656 34.296875 -7.859375 C 34.054688 -6.429688 33.742188 -5.03125 33.359375 -3.65625 C 32.984375 -2.289062 32.617188 -0.914062 32.265625 0.46875 C 29.878906 -0.363281 27.941406 -1.273438 26.453125 -2.265625 C 24.972656 -3.253906 23.722656 -4.382812 22.703125 -5.65625 C 21.691406 -6.925781 20.789062 -8.351562 20 -9.9375 C 19.363281 -11.164062 18.671875 -12.535156 17.921875 -14.046875 C 18.398438 -13.054688 18.816406 -12.144531 19.171875 -11.3125 C 19.722656 -10.15625 20.265625 -9.09375 20.796875 -8.125 C 21.335938 -7.15625 21.90625 -6.28125 22.5 -5.5 C 23.09375 -4.726562 23.828125 -3.992188 24.703125 -3.296875 C 25.578125 -2.609375 26.617188 -1.9375 27.828125 -1.28125 C 29.035156 -0.625 30.515625 0.078125 32.265625 0.828125 Z M 29.53125 -5.125 C 29.132812 -5.394531 28.628906 -5.925781 28.015625 -6.71875 C 27.398438 -7.519531 26.78125 -8.347656 26.15625 -9.203125 C 25.539062 -10.054688 24.992188 -10.816406 24.515625 -11.484375 C 24.046875 -12.160156 23.769531 -12.519531 23.6875 -12.5625 C 24.320312 -11.09375 25.144531 -9.753906 26.15625 -8.546875 C 27.175781 -7.335938 28.238281 -6.195312 29.34375 -5.125 Z M 29.53125 -5.125 "/></g></g></g><g fill="#000000" fill-opacity="1"><g transform="translate(125.274732, 244.479391)"><g><path d="M 23.875 -15.59375 C 22.800781 -15.59375 21.992188 -15.613281 21.453125 -15.65625 C 20.921875 -15.695312 20.4375 -15.71875 20 -15.71875 C 18.8125 -15.71875 17.757812 -15.65625 16.84375 -15.53125 C 15.9375 -15.414062 15.164062 -15.175781 14.53125 -14.8125 C 13.894531 -14.457031 13.414062 -13.941406 13.09375 -13.265625 C 12.78125 -12.597656 12.625 -11.707031 12.625 -10.59375 C 12.625 -8.96875 12.8125 -7.765625 13.1875 -6.984375 C 13.5625 -6.210938 14.09375 -5.660156 14.78125 -5.328125 C 15.476562 -4.992188 16.320312 -4.785156 17.3125 -4.703125 C 18.3125 -4.617188 19.425781 -4.441406 20.65625 -4.171875 C 21.375 -4.085938 22.085938 -4.035156 22.796875 -4.015625 C 23.515625 -3.992188 24.226562 -3.984375 24.9375 -3.984375 L 29.234375 -3.984375 C 27.242188 -4.109375 25.265625 -4.179688 23.296875 -4.203125 C 21.335938 -4.222656 19.570312 -4.390625 18 -4.703125 C 16.4375 -5.015625 15.164062 -5.566406 14.1875 -6.359375 C 13.21875 -7.160156 12.734375 -8.375 12.734375 -10 C 12.734375 -11.3125 12.898438 -12.3125 13.234375 -13 C 13.578125 -13.695312 14.035156 -14.210938 14.609375 -14.546875 C 15.191406 -14.890625 15.878906 -15.085938 16.671875 -15.140625 C 17.460938 -15.203125 18.316406 -15.234375 19.234375 -15.234375 C 20.335938 -15.234375 21.46875 -15.175781 22.625 -15.0625 C 21.707031 -14.78125 20.78125 -14.570312 19.84375 -14.4375 C 18.914062 -14.300781 18.054688 -14.160156 17.265625 -14.015625 C 16.472656 -13.878906 15.785156 -13.703125 15.203125 -13.484375 C 14.628906 -13.265625 14.242188 -12.957031 14.046875 -12.5625 L 14.046875 -9.875 L 13.578125 -9.640625 C 13.734375 -8.648438 13.878906 -7.90625 14.015625 -7.40625 C 14.160156 -6.914062 14.550781 -6.539062 15.1875 -6.28125 C 15.820312 -6.019531 16.84375 -5.8125 18.25 -5.65625 C 19.65625 -5.5 21.707031 -5.238281 24.40625 -4.875 L 28.6875 -4.875 C 29.445312 -4.875 29.894531 -4.90625 30.03125 -4.96875 C 30.164062 -5.03125 30.253906 -5.0625 30.296875 -5.0625 L 29.765625 -8.28125 C 29.679688 -9.070312 29.582031 -9.785156 29.46875 -10.421875 C 29.351562 -11.054688 29.191406 -11.726562 28.984375 -12.4375 C 28.953125 -12.320312 28.835938 -12.265625 28.640625 -12.265625 C 28.835938 -11.585938 29.003906 -10.867188 29.140625 -10.109375 C 29.273438 -9.359375 29.390625 -8.644531 29.484375 -7.96875 C 29.585938 -7.300781 29.671875 -6.726562 29.734375 -6.25 C 29.796875 -5.769531 29.863281 -5.492188 29.9375 -5.421875 L 29.59375 -5.296875 C 29.507812 -5.253906 29.390625 -5.234375 29.234375 -5.234375 L 28.875 -5.234375 C 28.59375 -5.234375 28.273438 -5.265625 27.921875 -5.328125 C 27.566406 -5.390625 27.109375 -5.421875 26.546875 -5.421875 L 24.59375 -5.421875 C 23.039062 -5.421875 21.609375 -5.5 20.296875 -5.65625 C 19.066406 -5.8125 17.992188 -6.007812 17.078125 -6.25 C 17.992188 -6.050781 19.109375 -5.894531 20.421875 -5.78125 C 21.804688 -5.613281 23.09375 -5.53125 24.28125 -5.53125 C 24.800781 -5.53125 25.347656 -5.539062 25.921875 -5.5625 C 26.492188 -5.582031 27.117188 -5.59375 27.796875 -5.59375 L 29.765625 -5.59375 C 29.648438 -5.71875 29.507812 -5.78125 29.34375 -5.78125 L 29.234375 -5.78125 C 29.066406 -8.507812 28.707031 -11.125 28.15625 -13.625 C 27.601562 -16.132812 26.710938 -18.328125 25.484375 -20.203125 C 24.253906 -22.085938 22.644531 -23.597656 20.65625 -24.734375 C 18.675781 -25.867188 16.195312 -26.4375 13.21875 -26.4375 C 12.382812 -26.4375 11.550781 -26.375 10.71875 -26.25 C 9.882812 -26.132812 9.03125 -25.976562 8.15625 -25.78125 C 8.238281 -25.851562 8.28125 -25.929688 8.28125 -26.015625 C 8.28125 -26.210938 8.195312 -26.398438 8.03125 -26.578125 C 7.875 -26.753906 7.796875 -26.941406 7.796875 -27.140625 C 7.796875 -27.378906 8.039062 -27.609375 8.53125 -27.828125 C 9.03125 -28.046875 10.097656 -28.253906 11.734375 -28.453125 C 11.648438 -28.535156 11.597656 -28.65625 11.578125 -28.8125 C 11.554688 -28.96875 11.546875 -29.085938 11.546875 -29.171875 C 9.398438 -29.171875 7.734375 -29.21875 6.546875 -29.3125 C 5.359375 -29.414062 4.765625 -29.707031 4.765625 -30.1875 C 4.765625 -30.382812 5.007812 -30.660156 5.5 -31.015625 C 6 -31.367188 6.703125 -31.710938 7.609375 -32.046875 C 8.523438 -32.390625 9.628906 -32.691406 10.921875 -32.953125 C 12.210938 -33.210938 13.648438 -33.34375 15.234375 -33.34375 C 18.296875 -33.34375 20.914062 -32.875 23.09375 -31.9375 C 25.28125 -31.007812 27.117188 -29.78125 28.609375 -28.25 C 30.097656 -26.71875 31.304688 -24.976562 32.234375 -23.03125 C 33.171875 -21.09375 33.925781 -19.140625 34.5 -17.171875 C 35.070312 -15.210938 35.492188 -13.304688 35.765625 -11.453125 C 36.046875 -9.609375 36.304688 -8.015625 36.546875 -6.671875 C 36.546875 -6.429688 36.554688 -6.191406 36.578125 -5.953125 C 36.597656 -5.710938 36.609375 -5.4375 36.609375 -5.125 C 36.609375 -3.96875 36.398438 -2.960938 35.984375 -2.109375 C 35.566406 -1.253906 34.988281 -0.539062 34.25 0.03125 C 33.519531 0.601562 32.664062 1.035156 31.6875 1.328125 C 30.71875 1.628906 29.679688 1.78125 28.578125 1.78125 C 27.703125 1.78125 26.566406 1.757812 25.171875 1.71875 C 23.785156 1.6875 22.457031 1.570312 21.1875 1.375 C 20.351562 1.175781 19.441406 1.023438 18.453125 0.921875 C 17.460938 0.828125 16.453125 0.660156 15.421875 0.421875 C 14.390625 0.179688 13.382812 -0.15625 12.40625 -0.59375 C 11.4375 -1.03125 10.5625 -1.691406 9.78125 -2.578125 C 9.007812 -3.472656 8.394531 -4.632812 7.9375 -6.0625 C 7.488281 -7.5 7.265625 -9.304688 7.265625 -11.484375 C 7.265625 -13.546875 7.738281 -15.203125 8.6875 -16.453125 C 9.644531 -17.703125 10.785156 -18.675781 12.109375 -19.375 C 13.441406 -20.070312 14.800781 -20.53125 16.1875 -20.75 C 17.582031 -20.96875 18.710938 -21.078125 19.578125 -21.078125 C 20.691406 -21.078125 21.425781 -20.992188 21.78125 -20.828125 C 22.144531 -20.671875 22.328125 -20.515625 22.328125 -20.359375 C 22.328125 -20.242188 22.304688 -20.144531 22.265625 -20.0625 C 21.273438 -20.0625 20.003906 -20.019531 18.453125 -19.9375 C 16.910156 -19.863281 15.410156 -19.609375 13.953125 -19.171875 C 12.503906 -18.734375 11.265625 -18.066406 10.234375 -17.171875 C 9.203125 -16.273438 8.6875 -15.015625 8.6875 -13.390625 C 9.050781 -14.859375 9.65625 -16.019531 10.5 -16.875 C 11.351562 -17.726562 12.335938 -18.363281 13.453125 -18.78125 C 14.566406 -19.195312 15.707031 -19.453125 16.875 -19.546875 C 18.050781 -19.648438 19.113281 -19.703125 20.0625 -19.703125 L 22.09375 -19.703125 C 21.925781 -19.546875 21.84375 -19.390625 21.84375 -19.234375 C 21.84375 -19.066406 21.925781 -18.925781 22.09375 -18.8125 L 24.40625 -18.8125 C 25.039062 -18.695312 25.492188 -18.488281 25.765625 -18.1875 C 26.046875 -17.882812 26.1875 -17.617188 26.1875 -17.390625 C 26.1875 -17.023438 26.007812 -16.703125 25.65625 -16.421875 C 25.300781 -16.148438 24.707031 -15.875 23.875 -15.59375 Z M 13.875 -1.1875 C 14.976562 -0.75 16.113281 -0.410156 17.28125 -0.171875 C 18.457031 0.0546875 19.625 0.210938 20.78125 0.296875 C 21.925781 0.410156 22.992188 0.46875 23.984375 0.46875 C 23.191406 0.394531 22.398438 0.257812 21.609375 0.0625 C 20.773438 -0.132812 20.039062 -0.3125 19.40625 -0.46875 C 18.726562 -0.632812 18.0625 -0.742188 17.40625 -0.796875 C 16.757812 -0.859375 16.085938 -0.945312 15.390625 -1.0625 C 14.691406 -1.1875 13.984375 -1.378906 13.265625 -1.640625 C 12.554688 -1.898438 11.84375 -2.285156 11.125 -2.796875 C 11.882812 -2.117188 12.800781 -1.582031 13.875 -1.1875 Z M 14.46875 -7.4375 C 14.425781 -7.476562 14.546875 -7.359375 14.828125 -7.078125 C 15.066406 -6.847656 15.382812 -6.671875 15.78125 -6.546875 C 15.582031 -6.628906 15.28125 -6.726562 14.875 -6.84375 C 14.445312 -7 14.234375 -7.238281 14.234375 -7.5625 Z M 15.953125 -6.546875 C 15.910156 -6.546875 15.851562 -6.546875 15.78125 -6.546875 C 15.8125 -6.546875 15.867188 -6.546875 15.953125 -6.546875 Z M 15.953125 -6.546875 "/></g></g></g><g fill="#000000" fill-opacity="1"><g transform="translate(165.747212, 244.479391)"><g><path d="M 13.28125 0.65625 C 12.882812 0.738281 12.445312 0.78125 11.96875 0.78125 L 10.234375 0.78125 C 9.203125 0.78125 8.476562 0.894531 8.0625 1.125 C 7.644531 1.363281 7.398438 1.484375 7.328125 1.484375 L 7.078125 0.421875 L 7.078125 -0.65625 L 6.78125 -6.25 C 6.707031 -7.320312 6.488281 -8.472656 6.125 -9.703125 C 5.769531 -10.929688 5.492188 -12.179688 5.296875 -13.453125 C 5.179688 -14.285156 5.082031 -15.078125 5 -15.828125 L 4.765625 -18.15625 C 4.679688 -18.945312 4.585938 -19.757812 4.484375 -20.59375 C 4.390625 -21.425781 4.242188 -22.320312 4.046875 -23.28125 C 4.046875 -23.519531 4.054688 -23.753906 4.078125 -23.984375 C 4.097656 -24.222656 4.109375 -24.460938 4.109375 -24.703125 C 4.109375 -25.929688 4.007812 -27.140625 3.8125 -28.328125 C 3.613281 -29.523438 3.332031 -30.695312 2.96875 -31.84375 C 3.25 -31.96875 3.507812 -32.078125 3.75 -32.171875 C 3.988281 -32.273438 4.207031 -32.328125 4.40625 -32.328125 C 4.601562 -32.328125 4.820312 -32.097656 5.0625 -31.640625 C 5.300781 -31.179688 5.554688 -30.238281 5.828125 -28.8125 C 5.910156 -28.8125 6.03125 -28.835938 6.1875 -28.890625 C 6.34375 -28.953125 6.460938 -28.984375 6.546875 -28.984375 C 6.503906 -29.660156 6.40625 -30.382812 6.25 -31.15625 C 6.09375 -31.9375 5.929688 -32.679688 5.765625 -33.390625 C 5.609375 -34.109375 5.460938 -34.753906 5.328125 -35.328125 C 5.191406 -35.898438 5.125 -36.367188 5.125 -36.734375 C 5.125 -36.804688 5.128906 -36.898438 5.140625 -37.015625 C 5.160156 -37.140625 5.253906 -37.203125 5.421875 -37.203125 C 5.617188 -37.203125 5.875 -36.984375 6.1875 -36.546875 C 6.507812 -36.109375 6.847656 -35.550781 7.203125 -34.875 C 7.554688 -34.207031 7.898438 -33.484375 8.234375 -32.703125 C 8.578125 -31.929688 8.890625 -31.210938 9.171875 -30.546875 C 10.242188 -32.566406 11.460938 -34.101562 12.828125 -35.15625 C 14.191406 -36.207031 15.988281 -36.734375 18.21875 -36.734375 C 19.84375 -36.734375 21.171875 -36.539062 22.203125 -36.15625 C 23.234375 -35.78125 24.035156 -35.363281 24.609375 -34.90625 C 25.191406 -34.457031 25.582031 -34.035156 25.78125 -33.640625 L 26.140625 -33.046875 C 26.140625 -32.804688 26.019531 -32.644531 25.78125 -32.5625 C 24.75 -33.550781 23.578125 -34.300781 22.265625 -34.8125 C 20.953125 -35.332031 19.601562 -35.59375 18.21875 -35.59375 C 16.863281 -35.59375 15.851562 -35.414062 15.1875 -35.0625 C 14.550781 -34.75 13.875 -34.351562 13.15625 -33.875 C 13.90625 -34.351562 14.597656 -34.726562 15.234375 -35 C 15.910156 -35.28125 16.882812 -35.421875 18.15625 -35.421875 C 19.539062 -35.421875 20.867188 -35.148438 22.140625 -34.609375 C 23.410156 -34.078125 24.503906 -33.394531 25.421875 -32.5625 C 25.222656 -32.476562 25.050781 -32.382812 24.90625 -32.28125 C 24.769531 -32.1875 24.703125 -32.039062 24.703125 -31.84375 C 24.898438 -31.84375 25.117188 -31.710938 25.359375 -31.453125 C 25.597656 -31.203125 25.816406 -30.894531 26.015625 -30.53125 C 26.210938 -30.175781 26.378906 -29.8125 26.515625 -29.4375 C 26.660156 -29.0625 26.734375 -28.753906 26.734375 -28.515625 C 26.734375 -27.835938 26.472656 -27.5 25.953125 -27.5 C 25.554688 -27.5 25.082031 -27.640625 24.53125 -27.921875 C 24.40625 -27.960938 24.15625 -28.179688 23.78125 -28.578125 C 23.40625 -28.972656 22.9375 -29.378906 22.375 -29.796875 C 21.820312 -30.210938 21.1875 -30.597656 20.46875 -30.953125 C 19.757812 -31.304688 18.96875 -31.484375 18.09375 -31.484375 C 17.382812 -31.484375 16.757812 -31.332031 16.21875 -31.03125 C 15.6875 -30.738281 15.203125 -30.34375 14.765625 -29.84375 C 14.328125 -29.351562 13.929688 -28.789062 13.578125 -28.15625 L 12.796875 -26.734375 C 13.390625 -27.804688 14.046875 -28.773438 14.765625 -29.640625 C 15.554688 -30.671875 16.546875 -31.1875 17.734375 -31.1875 C 18.765625 -31.1875 19.71875 -30.957031 20.59375 -30.5 C 21.46875 -30.050781 22.179688 -29.488281 22.734375 -28.8125 C 22.066406 -29.09375 21.273438 -29.367188 20.359375 -29.640625 C 19.441406 -29.921875 18.566406 -30.0625 17.734375 -30.0625 C 17.296875 -30.0625 16.921875 -29.960938 16.609375 -29.765625 C 16.296875 -29.566406 16.03125 -29.316406 15.8125 -29.015625 C 15.59375 -28.722656 15.390625 -28.394531 15.203125 -28.03125 C 15.023438 -27.675781 14.835938 -27.34375 14.640625 -27.03125 L 13.875 -26.90625 C 13.195312 -25.757812 12.648438 -24.421875 12.234375 -22.890625 C 11.816406 -21.359375 11.609375 -19.757812 11.609375 -18.09375 C 11.609375 -17.101562 11.65625 -16.210938 11.75 -15.421875 C 11.851562 -14.628906 12.003906 -13.816406 12.203125 -12.984375 L 12.921875 -11.125 L 12.796875 -12.859375 C 12.722656 -14.203125 12.644531 -15.398438 12.5625 -16.453125 C 12.476562 -17.503906 12.4375 -18.664062 12.4375 -19.9375 C 12.519531 -21.09375 12.679688 -22.1875 12.921875 -23.21875 C 13.117188 -24.09375 13.414062 -24.90625 13.8125 -25.65625 C 13.332031 -24.707031 13.015625 -23.617188 12.859375 -22.390625 C 12.660156 -21.035156 12.5625 -19.601562 12.5625 -18.09375 C 12.5625 -16.90625 12.617188 -15.773438 12.734375 -14.703125 C 12.859375 -13.628906 13.007812 -12.554688 13.1875 -11.484375 C 13.363281 -10.410156 13.550781 -9.304688 13.75 -8.171875 C 13.945312 -7.046875 14.109375 -5.8125 14.234375 -4.46875 L 14.40625 -3.328125 L 14.765625 0.0625 Z M 13.984375 -25.953125 L 13.8125 -25.65625 Z M 13.984375 -25.953125 "/></g></g></g><g fill="#000000" fill-opacity="1"><g transform="translate(192.470955, 244.479391)"><g><path d="M 13.28125 0.65625 C 12.882812 0.738281 12.445312 0.78125 11.96875 0.78125 L 10.234375 0.78125 C 9.203125 0.78125 8.476562 0.894531 8.0625 1.125 C 7.644531 1.363281 7.398438 1.484375 7.328125 1.484375 L 7.078125 0.421875 L 7.078125 -0.65625 L 6.78125 -6.25 C 6.707031 -7.320312 6.488281 -8.472656 6.125 -9.703125 C 5.769531 -10.929688 5.492188 -12.179688 5.296875 -13.453125 C 5.179688 -14.285156 5.082031 -15.078125 5 -15.828125 L 4.765625 -18.15625 C 4.679688 -18.945312 4.585938 -19.757812 4.484375 -20.59375 C 4.390625 -21.425781 4.242188 -22.320312 4.046875 -23.28125 C 4.046875 -23.519531 4.054688 -23.753906 4.078125 -23.984375 C 4.097656 -24.222656 4.109375 -24.460938 4.109375 -24.703125 C 4.109375 -25.929688 4.007812 -27.140625 3.8125 -28.328125 C 3.613281 -29.523438 3.332031 -30.695312 2.96875 -31.84375 C 3.25 -31.96875 3.507812 -32.078125 3.75 -32.171875 C 3.988281 -32.273438 4.207031 -32.328125 4.40625 -32.328125 C 4.601562 -32.328125 4.820312 -32.097656 5.0625 -31.640625 C 5.300781 -31.179688 5.554688 -30.238281 5.828125 -28.8125 C 5.910156 -28.8125 6.03125 -28.835938 6.1875 -28.890625 C 6.34375 -28.953125 6.460938 -28.984375 6.546875 -28.984375 C 6.503906 -29.660156 6.40625 -30.382812 6.25 -31.15625 C 6.09375 -31.9375 5.929688 -32.679688 5.765625 -33.390625 C 5.609375 -34.109375 5.460938 -34.753906 5.328125 -35.328125 C 5.191406 -35.898438 5.125 -36.367188 5.125 -36.734375 C 5.125 -36.804688 5.128906 -36.898438 5.140625 -37.015625 C 5.160156 -37.140625 5.253906 -37.203125 5.421875 -37.203125 C 5.617188 -37.203125 5.875 -36.984375 6.1875 -36.546875 C 6.507812 -36.109375 6.847656 -35.550781 7.203125 -34.875 C 7.554688 -34.207031 7.898438 -33.484375 8.234375 -32.703125 C 8.578125 -31.929688 8.890625 -31.210938 9.171875 -30.546875 C 10.242188 -32.566406 11.460938 -34.101562 12.828125 -35.15625 C 14.191406 -36.207031 15.988281 -36.734375 18.21875 -36.734375 C 19.84375 -36.734375 21.171875 -36.539062 22.203125 -36.15625 C 23.234375 -35.78125 24.035156 -35.363281 24.609375 -34.90625 C 25.191406 -34.457031 25.582031 -34.035156 25.78125 -33.640625 L 26.140625 -33.046875 C 26.140625 -32.804688 26.019531 -32.644531 25.78125 -32.5625 C 24.75 -33.550781 23.578125 -34.300781 22.265625 -34.8125 C 20.953125 -35.332031 19.601562 -35.59375 18.21875 -35.59375 C 16.863281 -35.59375 15.851562 -35.414062 15.1875 -35.0625 C 14.550781 -34.75 13.875 -34.351562 13.15625 -33.875 C 13.90625 -34.351562 14.597656 -34.726562 15.234375 -35 C 15.910156 -35.28125 16.882812 -35.421875 18.15625 -35.421875 C 19.539062 -35.421875 20.867188 -35.148438 22.140625 -34.609375 C 23.410156 -34.078125 24.503906 -33.394531 25.421875 -32.5625 C 25.222656 -32.476562 25.050781 -32.382812 24.90625 -32.28125 C 24.769531 -32.1875 24.703125 -32.039062 24.703125 -31.84375 C 24.898438 -31.84375 25.117188 -31.710938 25.359375 -31.453125 C 25.597656 -31.203125 25.816406 -30.894531 26.015625 -30.53125 C 26.210938 -30.175781 26.378906 -29.8125 26.515625 -29.4375 C 26.660156 -29.0625 26.734375 -28.753906 26.734375 -28.515625 C 26.734375 -27.835938 26.472656 -27.5 25.953125 -27.5 C 25.554688 -27.5 25.082031 -27.640625 24.53125 -27.921875 C 24.40625 -27.960938 24.15625 -28.179688 23.78125 -28.578125 C 23.40625 -28.972656 22.9375 -29.378906 22.375 -29.796875 C 21.820312 -30.210938 21.1875 -30.597656 20.46875 -30.953125 C 19.757812 -31.304688 18.96875 -31.484375 18.09375 -31.484375 C 17.382812 -31.484375 16.757812 -31.332031 16.21875 -31.03125 C 15.6875 -30.738281 15.203125 -30.34375 14.765625 -29.84375 C 14.328125 -29.351562 13.929688 -28.789062 13.578125 -28.15625 L 12.796875 -26.734375 C 13.390625 -27.804688 14.046875 -28.773438 14.765625 -29.640625 C 15.554688 -30.671875 16.546875 -31.1875 17.734375 -31.1875 C 18.765625 -31.1875 19.71875 -30.957031 20.59375 -30.5 C 21.46875 -30.050781 22.179688 -29.488281 22.734375 -28.8125 C 22.066406 -29.09375 21.273438 -29.367188 20.359375 -29.640625 C 19.441406 -29.921875 18.566406 -30.0625 17.734375 -30.0625 C 17.296875 -30.0625 16.921875 -29.960938 16.609375 -29.765625 C 16.296875 -29.566406 16.03125 -29.316406 15.8125 -29.015625 C 15.59375 -28.722656 15.390625 -28.394531 15.203125 -28.03125 C 15.023438 -27.675781 14.835938 -27.34375 14.640625 -27.03125 L 13.875 -26.90625 C 13.195312 -25.757812 12.648438 -24.421875 12.234375 -22.890625 C 11.816406 -21.359375 11.609375 -19.757812 11.609375 -18.09375 C 11.609375 -17.101562 11.65625 -16.210938 11.75 -15.421875 C 11.851562 -14.628906 12.003906 -13.816406 12.203125 -12.984375 L 12.921875 -11.125 L 12.796875 -12.859375 C 12.722656 -14.203125 12.644531 -15.398438 12.5625 -16.453125 C 12.476562 -17.503906 12.4375 -18.664062 12.4375 -19.9375 C 12.519531 -21.09375 12.679688 -22.1875 12.921875 -23.21875 C 13.117188 -24.09375 13.414062 -24.90625 13.8125 -25.65625 C 13.332031 -24.707031 13.015625 -23.617188 12.859375 -22.390625 C 12.660156 -21.035156 12.5625 -19.601562 12.5625 -18.09375 C 12.5625 -16.90625 12.617188 -15.773438 12.734375 -14.703125 C 12.859375 -13.628906 13.007812 -12.554688 13.1875 -11.484375 C 13.363281 -10.410156 13.550781 -9.304688 13.75 -8.171875 C 13.945312 -7.046875 14.109375 -5.8125 14.234375 -4.46875 L 14.40625 -3.328125 L 14.765625 0.0625 Z M 13.984375 -25.953125 L 13.8125 -25.65625 Z M 13.984375 -25.953125 "/></g></g></g><g fill="#000000" fill-opacity="1"><g transform="translate(219.19469, 244.479391)"><g><path d="M 23.875 -15.59375 C 22.800781 -15.59375 21.992188 -15.613281 21.453125 -15.65625 C 20.921875 -15.695312 20.4375 -15.71875 20 -15.71875 C 18.8125 -15.71875 17.757812 -15.65625 16.84375 -15.53125 C 15.9375 -15.414062 15.164062 -15.175781 14.53125 -14.8125 C 13.894531 -14.457031 13.414062 -13.941406 13.09375 -13.265625 C 12.78125 -12.597656 12.625 -11.707031 12.625 -10.59375 C 12.625 -8.96875 12.8125 -7.765625 13.1875 -6.984375 C 13.5625 -6.210938 14.09375 -5.660156 14.78125 -5.328125 C 15.476562 -4.992188 16.320312 -4.785156 17.3125 -4.703125 C 18.3125 -4.617188 19.425781 -4.441406 20.65625 -4.171875 C 21.375 -4.085938 22.085938 -4.035156 22.796875 -4.015625 C 23.515625 -3.992188 24.226562 -3.984375 24.9375 -3.984375 L 29.234375 -3.984375 C 27.242188 -4.109375 25.265625 -4.179688 23.296875 -4.203125 C 21.335938 -4.222656 19.570312 -4.390625 18 -4.703125 C 16.4375 -5.015625 15.164062 -5.566406 14.1875 -6.359375 C 13.21875 -7.160156 12.734375 -8.375 12.734375 -10 C 12.734375 -11.3125 12.898438 -12.3125 13.234375 -13 C 13.578125 -13.695312 14.035156 -14.210938 14.609375 -14.546875 C 15.191406 -14.890625 15.878906 -15.085938 16.671875 -15.140625 C 17.460938 -15.203125 18.316406 -15.234375 19.234375 -15.234375 C 20.335938 -15.234375 21.46875 -15.175781 22.625 -15.0625 C 21.707031 -14.78125 20.78125 -14.570312 19.84375 -14.4375 C 18.914062 -14.300781 18.054688 -14.160156 17.265625 -14.015625 C 16.472656 -13.878906 15.785156 -13.703125 15.203125 -13.484375 C 14.628906 -13.265625 14.242188 -12.957031 14.046875 -12.5625 L 14.046875 -9.875 L 13.578125 -9.640625 C 13.734375 -8.648438 13.878906 -7.90625 14.015625 -7.40625 C 14.160156 -6.914062 14.550781 -6.539062 15.1875 -6.28125 C 15.820312 -6.019531 16.84375 -5.8125 18.25 -5.65625 C 19.65625 -5.5 21.707031 -5.238281 24.40625 -4.875 L 28.6875 -4.875 C 29.445312 -4.875 29.894531 -4.90625 30.03125 -4.96875 C 30.164062 -5.03125 30.253906 -5.0625 30.296875 -5.0625 L 29.765625 -8.28125 C 29.679688 -9.070312 29.582031 -9.785156 29.46875 -10.421875 C 29.351562 -11.054688 29.191406 -11.726562 28.984375 -12.4375 C 28.953125 -12.320312 28.835938 -12.265625 28.640625 -12.265625 C 28.835938 -11.585938 29.003906 -10.867188 29.140625 -10.109375 C 29.273438 -9.359375 29.390625 -8.644531 29.484375 -7.96875 C 29.585938 -7.300781 29.671875 -6.726562 29.734375 -6.25 C 29.796875 -5.769531 29.863281 -5.492188 29.9375 -5.421875 L 29.59375 -5.296875 C 29.507812 -5.253906 29.390625 -5.234375 29.234375 -5.234375 L 28.875 -5.234375 C 28.59375 -5.234375 28.273438 -5.265625 27.921875 -5.328125 C 27.566406 -5.390625 27.109375 -5.421875 26.546875 -5.421875 L 24.59375 -5.421875 C 23.039062 -5.421875 21.609375 -5.5 20.296875 -5.65625 C 19.066406 -5.8125 17.992188 -6.007812 17.078125 -6.25 C 17.992188 -6.050781 19.109375 -5.894531 20.421875 -5.78125 C 21.804688 -5.613281 23.09375 -5.53125 24.28125 -5.53125 C 24.800781 -5.53125 25.347656 -5.539062 25.921875 -5.5625 C 26.492188 -5.582031 27.117188 -5.59375 27.796875 -5.59375 L 29.765625 -5.59375 C 29.648438 -5.71875 29.507812 -5.78125 29.34375 -5.78125 L 29.234375 -5.78125 C 29.066406 -8.507812 28.707031 -11.125 28.15625 -13.625 C 27.601562 -16.132812 26.710938 -18.328125 25.484375 -20.203125 C 24.253906 -22.085938 22.644531 -23.597656 20.65625 -24.734375 C 18.675781 -25.867188 16.195312 -26.4375 13.21875 -26.4375 C 12.382812 -26.4375 11.550781 -26.375 10.71875 -26.25 C 9.882812 -26.132812 9.03125 -25.976562 8.15625 -25.78125 C 8.238281 -25.851562 8.28125 -25.929688 8.28125 -26.015625 C 8.28125 -26.210938 8.195312 -26.398438 8.03125 -26.578125 C 7.875 -26.753906 7.796875 -26.941406 7.796875 -27.140625 C 7.796875 -27.378906 8.039062 -27.609375 8.53125 -27.828125 C 9.03125 -28.046875 10.097656 -28.253906 11.734375 -28.453125 C 11.648438 -28.535156 11.597656 -28.65625 11.578125 -28.8125 C 11.554688 -28.96875 11.546875 -29.085938 11.546875 -29.171875 C 9.398438 -29.171875 7.734375 -29.21875 6.546875 -29.3125 C 5.359375 -29.414062 4.765625 -29.707031 4.765625 -30.1875 C 4.765625 -30.382812 5.007812 -30.660156 5.5 -31.015625 C 6 -31.367188 6.703125 -31.710938 7.609375 -32.046875 C 8.523438 -32.390625 9.628906 -32.691406 10.921875 -32.953125 C 12.210938 -33.210938 13.648438 -33.34375 15.234375 -33.34375 C 18.296875 -33.34375 20.914062 -32.875 23.09375 -31.9375 C 25.28125 -31.007812 27.117188 -29.78125 28.609375 -28.25 C 30.097656 -26.71875 31.304688 -24.976562 32.234375 -23.03125 C 33.171875 -21.09375 33.925781 -19.140625 34.5 -17.171875 C 35.070312 -15.210938 35.492188 -13.304688 35.765625 -11.453125 C 36.046875 -9.609375 36.304688 -8.015625 36.546875 -6.671875 C 36.546875 -6.429688 36.554688 -6.191406 36.578125 -5.953125 C 36.597656 -5.710938 36.609375 -5.4375 36.609375 -5.125 C 36.609375 -3.96875 36.398438 -2.960938 35.984375 -2.109375 C 35.566406 -1.253906 34.988281 -0.539062 34.25 0.03125 C 33.519531 0.601562 32.664062 1.035156 31.6875 1.328125 C 30.71875 1.628906 29.679688 1.78125 28.578125 1.78125 C 27.703125 1.78125 26.566406 1.757812 25.171875 1.71875 C 23.785156 1.6875 22.457031 1.570312 21.1875 1.375 C 20.351562 1.175781 19.441406 1.023438 18.453125 0.921875 C 17.460938 0.828125 16.453125 0.660156 15.421875 0.421875 C 14.390625 0.179688 13.382812 -0.15625 12.40625 -0.59375 C 11.4375 -1.03125 10.5625 -1.691406 9.78125 -2.578125 C 9.007812 -3.472656 8.394531 -4.632812 7.9375 -6.0625 C 7.488281 -7.5 7.265625 -9.304688 7.265625 -11.484375 C 7.265625 -13.546875 7.738281 -15.203125 8.6875 -16.453125 C 9.644531 -17.703125 10.785156 -18.675781 12.109375 -19.375 C 13.441406 -20.070312 14.800781 -20.53125 16.1875 -20.75 C 17.582031 -20.96875 18.710938 -21.078125 19.578125 -21.078125 C 20.691406 -21.078125 21.425781 -20.992188 21.78125 -20.828125 C 22.144531 -20.671875 22.328125 -20.515625 22.328125 -20.359375 C 22.328125 -20.242188 22.304688 -20.144531 22.265625 -20.0625 C 21.273438 -20.0625 20.003906 -20.019531 18.453125 -19.9375 C 16.910156 -19.863281 15.410156 -19.609375 13.953125 -19.171875 C 12.503906 -18.734375 11.265625 -18.066406 10.234375 -17.171875 C 9.203125 -16.273438 8.6875 -15.015625 8.6875 -13.390625 C 9.050781 -14.859375 9.65625 -16.019531 10.5 -16.875 C 11.351562 -17.726562 12.335938 -18.363281 13.453125 -18.78125 C 14.566406 -19.195312 15.707031 -19.453125 16.875 -19.546875 C 18.050781 -19.648438 19.113281 -19.703125 20.0625 -19.703125 L 22.09375 -19.703125 C 21.925781 -19.546875 21.84375 -19.390625 21.84375 -19.234375 C 21.84375 -19.066406 21.925781 -18.925781 22.09375 -18.8125 L 24.40625 -18.8125 C 25.039062 -18.695312 25.492188 -18.488281 25.765625 -18.1875 C 26.046875 -17.882812 26.1875 -17.617188 26.1875 -17.390625 C 26.1875 -17.023438 26.007812 -16.703125 25.65625 -16.421875 C 25.300781 -16.148438 24.707031 -15.875 23.875 -15.59375 Z M 13.875 -1.1875 C 14.976562 -0.75 16.113281 -0.410156 17.28125 -0.171875 C 18.457031 0.0546875 19.625 0.210938 20.78125 0.296875 C 21.925781 0.410156 22.992188 0.46875 23.984375 0.46875 C 23.191406 0.394531 22.398438 0.257812 21.609375 0.0625 C 20.773438 -0.132812 20.039062 -0.3125 19.40625 -0.46875 C 18.726562 -0.632812 18.0625 -0.742188 17.40625 -0.796875 C 16.757812 -0.859375 16.085938 -0.945312 15.390625 -1.0625 C 14.691406 -1.1875 13.984375 -1.378906 13.265625 -1.640625 C 12.554688 -1.898438 11.84375 -2.285156 11.125 -2.796875 C 11.882812 -2.117188 12.800781 -1.582031 13.875 -1.1875 Z M 14.46875 -7.4375 C 14.425781 -7.476562 14.546875 -7.359375 14.828125 -7.078125 C 15.066406 -6.847656 15.382812 -6.671875 15.78125 -6.546875 C 15.582031 -6.628906 15.28125 -6.726562 14.875 -6.84375 C 14.445312 -7 14.234375 -7.238281 14.234375 -7.5625 Z M 15.953125 -6.546875 C 15.910156 -6.546875 15.851562 -6.546875 15.78125 -6.546875 C 15.8125 -6.546875 15.867188 -6.546875 15.953125 -6.546875 Z M 15.953125 -6.546875 "/></g></g></g><g fill="#000000" fill-opacity="1"><g transform="translate(259.66717, 244.479391)"><g><path d="M 31.25 -3.15625 C 29.507812 -2.4375 27.710938 -1.878906 25.859375 -1.484375 C 24.015625 -1.085938 22.140625 -0.890625 20.234375 -0.890625 C 18.492188 -0.890625 16.789062 -1.085938 15.125 -1.484375 C 13.457031 -1.878906 11.925781 -2.515625 10.53125 -3.390625 C 9.144531 -4.265625 7.925781 -5.40625 6.875 -6.8125 C 5.820312 -8.21875 5.019531 -9.914062 4.46875 -11.90625 C 4.582031 -10.15625 5.054688 -8.65625 5.890625 -7.40625 C 6.722656 -6.15625 7.765625 -5.082031 9.015625 -4.1875 C 10.265625 -3.300781 11.644531 -2.578125 13.15625 -2.015625 C 14.664062 -1.460938 16.113281 -1.007812 17.5 -0.65625 C 17.695312 -0.613281 17.972656 -0.59375 18.328125 -0.59375 C 20.671875 -0.59375 22.796875 -0.789062 24.703125 -1.1875 C 26.609375 -1.582031 28.554688 -2 30.546875 -2.4375 C 29.910156 -1.925781 29.144531 -1.476562 28.25 -1.09375 C 27.351562 -0.71875 26.378906 -0.398438 25.328125 -0.140625 C 24.273438 0.109375 23.171875 0.300781 22.015625 0.4375 C 20.867188 0.582031 19.722656 0.65625 18.578125 0.65625 L 17.921875 0.65625 C 17.722656 0.65625 17.523438 0.632812 17.328125 0.59375 L 16.90625 -0.171875 C 15.476562 -0.335938 13.988281 -0.695312 12.4375 -1.25 C 10.894531 -1.800781 9.476562 -2.582031 8.1875 -3.59375 C 6.894531 -4.613281 5.820312 -5.859375 4.96875 -7.328125 C 4.113281 -8.796875 3.6875 -10.5 3.6875 -12.4375 C 3.6875 -14.0625 3.90625 -15.648438 4.34375 -17.203125 C 4.78125 -18.753906 5.359375 -20.265625 6.078125 -21.734375 C 6.035156 -21.691406 5.972656 -21.671875 5.890625 -21.671875 C 5.773438 -21.671875 5.71875 -21.75 5.71875 -21.90625 C 5 -20.476562 4.390625 -19 3.890625 -17.46875 C 3.398438 -15.945312 3.15625 -14.289062 3.15625 -12.5 C 3.15625 -10.59375 3.59375 -8.90625 4.46875 -7.4375 C 5.34375 -5.96875 6.382812 -4.726562 7.59375 -3.71875 C 8.800781 -2.707031 10.039062 -1.882812 11.3125 -1.25 C 12.457031 -0.695312 13.410156 -0.300781 14.171875 -0.0625 C 12.941406 -0.414062 11.691406 -0.929688 10.421875 -1.609375 C 9.066406 -2.316406 7.84375 -3.21875 6.75 -4.3125 C 5.664062 -5.40625 4.765625 -6.675781 4.046875 -8.125 C 3.328125 -9.570312 2.96875 -11.171875 2.96875 -12.921875 C 2.96875 -15.421875 3.425781 -17.757812 4.34375 -19.9375 C 5.257812 -22.125 6.46875 -24.019531 7.96875 -25.625 C 9.476562 -27.238281 11.21875 -28.507812 13.1875 -29.4375 C 15.15625 -30.375 17.1875 -30.84375 19.28125 -30.84375 C 19.644531 -30.914062 20.09375 -30.960938 20.625 -30.984375 C 21.164062 -31.003906 21.613281 -31.015625 21.96875 -31.015625 C 23.238281 -30.734375 24.515625 -30.394531 25.796875 -30 C 27.085938 -29.601562 28.367188 -29.050781 29.640625 -28.34375 C 29.484375 -28.257812 29.375 -28.144531 29.3125 -28 C 29.257812 -27.863281 29.210938 -27.707031 29.171875 -27.53125 C 29.128906 -27.351562 29.054688 -27.203125 28.953125 -27.078125 C 28.859375 -26.960938 28.691406 -26.90625 28.453125 -26.90625 C 28.253906 -26.90625 27.957031 -26.960938 27.5625 -27.078125 C 27.164062 -27.203125 26.609375 -27.382812 25.890625 -27.625 C 25.773438 -27.5 25.71875 -27.320312 25.71875 -27.09375 C 26.664062 -26.613281 27.316406 -26.066406 27.671875 -25.453125 C 28.035156 -24.835938 28.21875 -24.25 28.21875 -23.6875 C 28.21875 -23.414062 27.921875 -23.179688 27.328125 -22.984375 C 26.804688 -22.984375 26 -23.082031 24.90625 -23.28125 C 23.820312 -23.476562 22.601562 -23.578125 21.25 -23.578125 C 20.65625 -23.578125 20 -23.546875 19.28125 -23.484375 C 18.570312 -23.421875 17.859375 -23.300781 17.140625 -23.125 C 16.429688 -22.945312 15.757812 -22.6875 15.125 -22.34375 C 14.488281 -22.007812 13.972656 -21.566406 13.578125 -21.015625 C 13.097656 -20.378906 12.660156 -19.664062 12.265625 -18.875 C 11.867188 -18.082031 11.507812 -17.273438 11.1875 -16.453125 C 10.875 -15.640625 10.628906 -14.859375 10.453125 -14.109375 C 10.273438 -13.359375 10.1875 -12.679688 10.1875 -12.078125 C 10.1875 -11.523438 10.441406 -10.898438 10.953125 -10.203125 C 11.472656 -9.515625 12.140625 -8.863281 12.953125 -8.25 C 13.765625 -7.632812 14.695312 -7.109375 15.75 -6.671875 C 16.800781 -6.234375 17.863281 -6.015625 18.9375 -6.015625 C 19.445312 -6.015625 20.066406 -6.09375 20.796875 -6.25 C 21.535156 -6.40625 22.289062 -6.59375 23.0625 -6.8125 C 23.84375 -7.03125 24.609375 -7.21875 25.359375 -7.375 C 26.109375 -7.539062 26.742188 -7.625 27.265625 -7.625 C 27.742188 -7.625 28.050781 -7.570312 28.1875 -7.46875 C 28.320312 -7.375 28.390625 -7.1875 28.390625 -6.90625 C 27.523438 -6.582031 26.632812 -6.265625 25.71875 -5.953125 C 25.039062 -5.753906 24.347656 -5.554688 23.640625 -5.359375 C 25.265625 -5.710938 26.847656 -6.171875 28.390625 -6.734375 C 28.390625 -6.523438 28.398438 -6.34375 28.421875 -6.1875 C 28.441406 -6.03125 28.550781 -5.851562 28.75 -5.65625 L 29.34375 -5.890625 C 29.664062 -6.015625 30.003906 -6.175781 30.359375 -6.375 C 31.148438 -6.375 31.691406 -6.289062 31.984375 -6.125 C 32.285156 -5.96875 32.4375 -5.734375 32.4375 -5.421875 C 32.4375 -5.222656 32.40625 -5.050781 32.34375 -4.90625 C 32.289062 -4.769531 32.210938 -4.628906 32.109375 -4.484375 C 32.015625 -4.347656 31.882812 -4.179688 31.71875 -3.984375 C 31.5625 -3.785156 31.40625 -3.507812 31.25 -3.15625 Z M 26.484375 5.53125 C 26.679688 5.925781 26.800781 6.332031 26.84375 6.75 C 26.882812 7.164062 26.90625 7.65625 26.90625 8.21875 C 26.90625 10.082031 26.546875 11.585938 25.828125 12.734375 C 25.117188 13.890625 24.226562 14.796875 23.15625 15.453125 C 22.082031 16.109375 20.898438 16.550781 19.609375 16.78125 C 18.328125 17.019531 17.109375 17.140625 15.953125 17.140625 C 15.078125 17.140625 14.171875 17.097656 13.234375 17.015625 C 12.304688 16.941406 11.445312 16.828125 10.65625 16.671875 C 9.863281 16.515625 9.207031 16.328125 8.6875 16.109375 C 8.175781 15.890625 7.921875 15.640625 7.921875 15.359375 C 7.921875 15.242188 7.976562 15.082031 8.09375 14.875 C 8.882812 15.113281 9.566406 15.300781 10.140625 15.4375 C 10.722656 15.582031 11.28125 15.691406 11.8125 15.765625 C 12.351562 15.847656 12.910156 15.898438 13.484375 15.921875 C 14.054688 15.941406 14.738281 15.953125 15.53125 15.953125 C 14.863281 15.910156 14.226562 15.867188 13.625 15.828125 C 13.03125 15.796875 12.457031 15.726562 11.90625 15.625 C 11.351562 15.53125 10.773438 15.398438 10.171875 15.234375 C 9.578125 15.078125 8.925781 14.859375 8.21875 14.578125 C 8.289062 14.421875 8.367188 14.273438 8.453125 14.140625 C 8.535156 14.003906 8.578125 13.851562 8.578125 13.6875 C 8.378906 13.6875 8.117188 13.578125 7.796875 13.359375 C 7.484375 13.140625 7.328125 12.832031 7.328125 12.4375 C 7.328125 11.882812 7.898438 11.191406 9.046875 10.359375 C 9.597656 10.910156 10.429688 11.296875 11.546875 11.515625 C 12.660156 11.734375 14.171875 11.84375 16.078125 11.84375 C 16.742188 11.84375 17.238281 11.765625 17.5625 11.609375 C 17.84375 11.492188 18.179688 11.351562 18.578125 11.1875 C 17.859375 11.382812 17.179688 11.503906 16.546875 11.546875 C 15.867188 11.628906 15.054688 11.671875 14.109375 11.671875 C 13.359375 11.671875 12.601562 11.578125 11.84375 11.390625 C 11.09375 11.210938 10.320312 10.789062 9.53125 10.125 C 9.925781 9.925781 10.28125 9.828125 10.59375 9.828125 C 11.226562 9.828125 11.664062 9.863281 11.90625 9.9375 C 12.144531 10.019531 12.382812 10.082031 12.625 10.125 L 12.859375 10.78125 L 14.34375 10.78125 C 14.976562 10.78125 15.632812 10.757812 16.3125 10.71875 C 16.988281 10.675781 17.601562 10.59375 18.15625 10.46875 C 18.707031 10.351562 19.160156 10.164062 19.515625 9.90625 C 19.878906 9.65625 20.0625 9.289062 20.0625 8.8125 C 20.0625 8.769531 19.960938 8.691406 19.765625 8.578125 C 19.765625 9.128906 19.457031 9.5625 18.84375 9.875 C 18.226562 10.195312 17.304688 10.359375 16.078125 10.359375 L 15.125 10.359375 C 14.84375 10.359375 14.546875 10.335938 14.234375 10.296875 L 15.234375 10.296875 C 16.390625 10.296875 17.253906 10.21875 17.828125 10.0625 C 18.398438 9.90625 18.804688 9.726562 19.046875 9.53125 C 19.285156 9.332031 19.414062 9.113281 19.4375 8.875 C 19.457031 8.632812 19.503906 8.453125 19.578125 8.328125 C 19.503906 7.421875 19.304688 6.71875 18.984375 6.21875 C 18.671875 5.726562 18.332031 5.332031 17.96875 5.03125 C 17.613281 4.726562 17.285156 4.46875 16.984375 4.25 C 16.691406 4.03125 16.546875 3.742188 16.546875 3.390625 L 16.546875 3.28125 L 20 1.015625 C 21.226562 1.054688 22.457031 1.484375 23.6875 2.296875 C 24.914062 3.109375 25.847656 4.1875 26.484375 5.53125 Z M 9.640625 -10.296875 C 9.960938 -9.585938 10.441406 -8.90625 11.078125 -8.25 C 11.710938 -7.59375 12.4375 -7.015625 13.25 -6.515625 C 14.0625 -6.023438 14.921875 -5.617188 15.828125 -5.296875 C 16.703125 -4.984375 17.578125 -4.804688 18.453125 -4.765625 C 17.660156 -4.835938 16.828125 -5.035156 15.953125 -5.359375 C 15.035156 -5.671875 14.171875 -6.078125 13.359375 -6.578125 C 12.546875 -7.078125 11.8125 -7.644531 11.15625 -8.28125 C 10.507812 -8.914062 10.003906 -9.585938 9.640625 -10.296875 Z M 14.40625 0 C 14.320312 0 14.242188 -0.0195312 14.171875 -0.0625 C 14.242188 -0.0195312 14.320312 0 14.40625 0 Z M 14.40625 0 "/></g></g></g><g fill="#000000" fill-opacity="1"><g transform="translate(293.890224, 244.479391)"><g><path d="M 20.59375 -15.59375 C 19.519531 -15.59375 18.71875 -15.613281 18.1875 -15.65625 C 17.65625 -15.695312 17.171875 -15.71875 16.734375 -15.71875 C 15.535156 -15.71875 14.476562 -15.65625 13.5625 -15.53125 C 12.65625 -15.414062 11.882812 -15.175781 11.25 -14.8125 C 10.613281 -14.457031 10.132812 -13.941406 9.8125 -13.265625 C 9.5 -12.597656 9.34375 -11.707031 9.34375 -10.59375 C 9.34375 -8.96875 9.53125 -7.765625 9.90625 -6.984375 C 10.289062 -6.210938 10.828125 -5.660156 11.515625 -5.328125 C 12.210938 -4.992188 13.054688 -4.785156 14.046875 -4.703125 C 15.035156 -4.617188 16.148438 -4.441406 17.390625 -4.171875 C 18.097656 -4.085938 18.804688 -4.035156 19.515625 -4.015625 C 20.234375 -3.992188 20.953125 -3.984375 21.671875 -3.984375 L 25.953125 -3.984375 C 23.972656 -4.109375 22 -4.179688 20.03125 -4.203125 C 18.0625 -4.222656 16.289062 -4.390625 14.71875 -4.703125 C 13.15625 -5.015625 11.890625 -5.566406 10.921875 -6.359375 C 9.953125 -7.160156 9.46875 -8.375 9.46875 -10 C 9.46875 -11.3125 9.632812 -12.3125 9.96875 -13 C 10.3125 -13.695312 10.769531 -14.210938 11.34375 -14.546875 C 11.914062 -14.890625 12.597656 -15.085938 13.390625 -15.140625 C 14.179688 -15.203125 15.035156 -15.234375 15.953125 -15.234375 C 17.066406 -15.234375 18.195312 -15.175781 19.34375 -15.0625 C 18.4375 -14.78125 17.515625 -14.570312 16.578125 -14.4375 C 15.648438 -14.300781 14.785156 -14.160156 13.984375 -14.015625 C 13.191406 -13.878906 12.507812 -13.703125 11.9375 -13.484375 C 11.363281 -13.265625 10.976562 -12.957031 10.78125 -12.5625 L 10.78125 -9.875 L 10.296875 -9.640625 C 10.453125 -8.648438 10.597656 -7.90625 10.734375 -7.40625 C 10.878906 -6.914062 11.269531 -6.539062 11.90625 -6.28125 C 12.539062 -6.019531 13.5625 -5.8125 14.96875 -5.65625 C 16.375 -5.5 18.429688 -5.238281 21.140625 -4.875 L 25.421875 -4.875 C 26.171875 -4.875 26.613281 -4.90625 26.75 -4.96875 C 26.894531 -5.03125 26.988281 -5.0625 27.03125 -5.0625 L 26.484375 -8.28125 C 26.410156 -9.070312 26.3125 -9.785156 26.1875 -10.421875 C 26.070312 -11.054688 25.914062 -11.726562 25.71875 -12.4375 C 25.675781 -12.320312 25.554688 -12.265625 25.359375 -12.265625 C 25.554688 -11.585938 25.722656 -10.867188 25.859375 -10.109375 C 26.003906 -9.359375 26.125 -8.644531 26.21875 -7.96875 C 26.320312 -7.300781 26.398438 -6.726562 26.453125 -6.25 C 26.515625 -5.769531 26.585938 -5.492188 26.671875 -5.421875 L 26.3125 -5.296875 C 26.226562 -5.253906 26.109375 -5.234375 25.953125 -5.234375 L 25.59375 -5.234375 C 25.320312 -5.234375 25.003906 -5.265625 24.640625 -5.328125 C 24.285156 -5.390625 23.832031 -5.421875 23.28125 -5.421875 L 21.3125 -5.421875 C 19.757812 -5.421875 18.332031 -5.5 17.03125 -5.65625 C 15.800781 -5.8125 14.726562 -6.007812 13.8125 -6.25 C 14.726562 -6.050781 15.835938 -5.894531 17.140625 -5.78125 C 18.535156 -5.613281 19.828125 -5.53125 21.015625 -5.53125 C 21.523438 -5.53125 22.066406 -5.539062 22.640625 -5.5625 C 23.222656 -5.582031 23.851562 -5.59375 24.53125 -5.59375 L 26.484375 -5.59375 C 26.367188 -5.71875 26.234375 -5.78125 26.078125 -5.78125 L 25.953125 -5.78125 C 25.796875 -8.507812 25.4375 -11.125 24.875 -13.625 C 24.320312 -16.132812 23.429688 -18.328125 22.203125 -20.203125 C 20.972656 -22.085938 19.363281 -23.597656 17.375 -24.734375 C 15.394531 -25.867188 12.914062 -26.4375 9.9375 -26.4375 C 9.101562 -26.4375 8.269531 -26.375 7.4375 -26.25 C 6.601562 -26.132812 5.75 -25.976562 4.875 -25.78125 C 4.957031 -25.851562 5 -25.929688 5 -26.015625 C 5 -26.210938 4.921875 -26.398438 4.765625 -26.578125 C 4.609375 -26.753906 4.53125 -26.941406 4.53125 -27.140625 C 4.53125 -27.378906 4.773438 -27.609375 5.265625 -27.828125 C 5.765625 -28.046875 6.828125 -28.253906 8.453125 -28.453125 C 8.367188 -28.535156 8.316406 -28.65625 8.296875 -28.8125 C 8.285156 -28.96875 8.28125 -29.085938 8.28125 -29.171875 C 6.132812 -29.171875 4.460938 -29.21875 3.265625 -29.3125 C 2.078125 -29.414062 1.484375 -29.707031 1.484375 -30.1875 C 1.484375 -30.382812 1.726562 -30.660156 2.21875 -31.015625 C 2.71875 -31.367188 3.425781 -31.710938 4.34375 -32.046875 C 5.257812 -32.390625 6.359375 -32.691406 7.640625 -32.953125 C 8.929688 -33.210938 10.375 -33.34375 11.96875 -33.34375 C 15.019531 -33.34375 17.632812 -32.875 19.8125 -31.9375 C 22 -31.007812 23.835938 -29.78125 25.328125 -28.25 C 26.816406 -26.71875 28.023438 -24.976562 28.953125 -23.03125 C 29.890625 -21.09375 30.644531 -19.140625 31.21875 -17.171875 C 31.800781 -15.210938 32.226562 -13.304688 32.5 -11.453125 C 32.78125 -9.609375 33.039062 -8.015625 33.28125 -6.671875 C 33.28125 -6.429688 33.289062 -6.191406 33.3125 -5.953125 C 33.332031 -5.710938 33.34375 -5.4375 33.34375 -5.125 C 33.34375 -3.96875 33.132812 -2.960938 32.71875 -2.109375 C 32.300781 -1.253906 31.722656 -0.539062 30.984375 0.03125 C 30.253906 0.601562 29.398438 1.035156 28.421875 1.328125 C 27.453125 1.628906 26.410156 1.78125 25.296875 1.78125 C 24.421875 1.78125 23.289062 1.757812 21.90625 1.71875 C 20.519531 1.6875 19.191406 1.570312 17.921875 1.375 C 17.085938 1.175781 16.171875 1.023438 15.171875 0.921875 C 14.179688 0.828125 13.171875 0.660156 12.140625 0.421875 C 11.109375 0.179688 10.101562 -0.15625 9.125 -0.59375 C 8.15625 -1.03125 7.285156 -1.691406 6.515625 -2.578125 C 5.742188 -3.472656 5.128906 -4.632812 4.671875 -6.0625 C 4.210938 -7.5 3.984375 -9.304688 3.984375 -11.484375 C 3.984375 -13.546875 4.457031 -15.203125 5.40625 -16.453125 C 6.363281 -17.703125 7.503906 -18.675781 8.828125 -19.375 C 10.160156 -20.070312 11.519531 -20.53125 12.90625 -20.75 C 14.300781 -20.96875 15.4375 -21.078125 16.3125 -21.078125 C 17.425781 -21.078125 18.160156 -20.992188 18.515625 -20.828125 C 18.867188 -20.671875 19.046875 -20.515625 19.046875 -20.359375 C 19.046875 -20.242188 19.023438 -20.144531 18.984375 -20.0625 C 17.992188 -20.0625 16.722656 -20.019531 15.171875 -19.9375 C 13.628906 -19.863281 12.132812 -19.609375 10.6875 -19.171875 C 9.238281 -18.734375 8 -18.066406 6.96875 -17.171875 C 5.9375 -16.273438 5.421875 -15.015625 5.421875 -13.390625 C 5.773438 -14.859375 6.378906 -16.019531 7.234375 -16.875 C 8.085938 -17.726562 9.066406 -18.363281 10.171875 -18.78125 C 11.285156 -19.195312 12.425781 -19.453125 13.59375 -19.546875 C 14.769531 -19.648438 15.832031 -19.703125 16.78125 -19.703125 L 18.8125 -19.703125 C 18.65625 -19.546875 18.578125 -19.390625 18.578125 -19.234375 C 18.578125 -19.066406 18.65625 -18.925781 18.8125 -18.8125 L 21.140625 -18.8125 C 21.773438 -18.695312 22.226562 -18.488281 22.5 -18.1875 C 22.78125 -17.882812 22.921875 -17.617188 22.921875 -17.390625 C 22.921875 -17.023438 22.738281 -16.703125 22.375 -16.421875 C 22.019531 -16.148438 21.425781 -15.875 20.59375 -15.59375 Z M 10.59375 -1.1875 C 11.707031 -0.75 12.847656 -0.410156 14.015625 -0.171875 C 15.191406 0.0546875 16.351562 0.210938 17.5 0.296875 C 18.65625 0.410156 19.726562 0.46875 20.71875 0.46875 C 19.925781 0.394531 19.128906 0.257812 18.328125 0.0625 C 17.492188 -0.132812 16.765625 -0.3125 16.140625 -0.46875 C 15.460938 -0.632812 14.796875 -0.742188 14.140625 -0.796875 C 13.484375 -0.859375 12.804688 -0.945312 12.109375 -1.0625 C 11.421875 -1.1875 10.71875 -1.378906 10 -1.640625 C 9.28125 -1.898438 8.566406 -2.285156 7.859375 -2.796875 C 8.609375 -2.117188 9.519531 -1.582031 10.59375 -1.1875 Z M 11.1875 -7.4375 C 11.144531 -7.476562 11.265625 -7.359375 11.546875 -7.078125 C 11.785156 -6.847656 12.101562 -6.671875 12.5 -6.546875 C 12.300781 -6.628906 12.003906 -6.726562 11.609375 -6.84375 C 11.171875 -7 10.953125 -7.238281 10.953125 -7.5625 Z M 12.6875 -6.546875 C 12.644531 -6.546875 12.582031 -6.546875 12.5 -6.546875 C 12.539062 -6.546875 12.601562 -6.546875 12.6875 -6.546875 Z M 29.46875 -48.515625 C 29.75 -47.878906 29.890625 -47.304688 29.890625 -46.796875 C 29.890625 -45.835938 29.640625 -44.832031 29.140625 -43.78125 C 28.640625 -42.726562 28.132812 -41.75 27.625 -40.84375 L 26.90625 -40.78125 C 26.75 -40.425781 26.507812 -40.039062 26.1875 -39.625 C 25.875 -39.207031 25.46875 -38.816406 24.96875 -38.453125 C 24.476562 -38.097656 23.875 -37.800781 23.15625 -37.5625 C 22.445312 -37.320312 21.613281 -37.203125 20.65625 -37.203125 C 19.3125 -37.203125 18.210938 -37.378906 17.359375 -37.734375 C 16.503906 -38.097656 15.859375 -38.535156 15.421875 -39.046875 L 15.125 -39.53125 C 14.601562 -40.039062 14.289062 -40.644531 14.1875 -41.34375 C 14.09375 -42.039062 14.046875 -42.609375 14.046875 -43.046875 L 14.046875 -44.34375 C 14.046875 -44.78125 14.023438 -45.097656 13.984375 -45.296875 C 13.785156 -44.984375 13.644531 -44.65625 13.5625 -44.3125 C 13.488281 -43.976562 13.453125 -43.375 13.453125 -42.5 C 13.453125 -42.101562 13.519531 -41.644531 13.65625 -41.125 C 13.800781 -40.613281 14.109375 -40.003906 14.578125 -39.296875 L 15 -38.8125 C 15.675781 -38.019531 16.488281 -37.492188 17.4375 -37.234375 C 18.394531 -36.972656 19.488281 -36.84375 20.71875 -36.84375 C 21.15625 -36.84375 21.59375 -36.882812 22.03125 -36.96875 C 22.46875 -37.050781 22.820312 -37.109375 23.09375 -37.140625 C 22.78125 -37.023438 22.441406 -36.9375 22.078125 -36.875 C 21.722656 -36.820312 21.328125 -36.773438 20.890625 -36.734375 C 20.015625 -36.734375 19.257812 -36.78125 18.625 -36.875 C 18 -36.976562 17.445312 -37.117188 16.96875 -37.296875 C 16.488281 -37.472656 16.070312 -37.691406 15.71875 -37.953125 C 15.363281 -38.210938 15.003906 -38.519531 14.640625 -38.875 L 14.34375 -39.234375 C 13.832031 -39.742188 13.515625 -40.351562 13.390625 -41.0625 C 13.273438 -41.78125 13.21875 -42.378906 13.21875 -42.859375 C 13.21875 -43.253906 13.226562 -43.597656 13.25 -43.890625 C 13.269531 -44.191406 13.28125 -44.484375 13.28125 -44.765625 C 12.800781 -44.453125 12.363281 -44.125 11.96875 -43.78125 C 11.570312 -43.445312 11.191406 -43.039062 10.828125 -42.5625 L 9.46875 -43.875 C 9.46875 -44.226562 9.722656 -44.644531 10.234375 -45.125 L 9.765625 -45.546875 C 9.410156 -45.347656 9.0625 -45.175781 8.71875 -45.03125 C 8.382812 -44.894531 8.054688 -44.828125 7.734375 -44.828125 C 7.222656 -44.828125 6.816406 -44.992188 6.515625 -45.328125 C 6.222656 -45.671875 6.078125 -46 6.078125 -46.3125 L 6.421875 -47.390625 C 6.660156 -48.097656 7.097656 -48.878906 7.734375 -49.734375 C 8.367188 -50.585938 9.242188 -51.367188 10.359375 -52.078125 C 11.472656 -52.796875 12.898438 -53.15625 14.640625 -53.15625 C 15.992188 -53.15625 17.085938 -52.835938 17.921875 -52.203125 C 18.753906 -51.566406 19.390625 -50.84375 19.828125 -50.03125 C 20.265625 -49.21875 20.550781 -48.414062 20.6875 -47.625 C 20.820312 -46.832031 20.890625 -46.257812 20.890625 -45.90625 C 20.890625 -45.300781 20.859375 -44.710938 20.796875 -44.140625 C 20.742188 -43.566406 20.695312 -43.140625 20.65625 -42.859375 C 20.65625 -42.703125 20.753906 -42.625 20.953125 -42.625 C 21.472656 -42.625 21.890625 -42.941406 22.203125 -43.578125 C 22.523438 -44.210938 22.796875 -44.914062 23.015625 -45.6875 C 23.234375 -46.457031 23.421875 -47.171875 23.578125 -47.828125 C 23.734375 -48.484375 23.910156 -48.8125 24.109375 -48.8125 L 24.53125 -48.75 C 24.40625 -48 24.203125 -47.195312 23.921875 -46.34375 C 23.648438 -45.488281 23.328125 -44.691406 22.953125 -43.953125 C 22.578125 -43.222656 22.1875 -42.609375 21.78125 -42.109375 C 21.382812 -41.617188 21.03125 -41.375 20.71875 -41.375 L 20.1875 -41.90625 C 20.21875 -41.789062 20.289062 -41.660156 20.40625 -41.515625 C 20.53125 -41.378906 20.632812 -41.3125 20.71875 -41.3125 C 21.070312 -41.3125 21.445312 -41.539062 21.84375 -42 C 22.238281 -42.457031 22.632812 -43.039062 23.03125 -43.75 C 23.4375 -44.46875 23.796875 -45.265625 24.109375 -46.140625 C 24.429688 -47.015625 24.671875 -47.867188 24.828125 -48.703125 L 25.484375 -48.515625 C 25.515625 -48.515625 25.582031 -48.613281 25.6875 -48.8125 C 25.789062 -49.007812 25.921875 -49.226562 26.078125 -49.46875 C 26.234375 -49.707031 26.421875 -49.925781 26.640625 -50.125 C 26.859375 -50.320312 27.085938 -50.421875 27.328125 -50.421875 C 27.679688 -50.421875 27.992188 -50.28125 28.265625 -50 C 28.546875 -49.726562 28.828125 -49.429688 29.109375 -49.109375 C 28.796875 -48.117188 28.546875 -47.242188 28.359375 -46.484375 C 28.179688 -45.734375 27.914062 -44.84375 27.5625 -43.8125 C 27.445312 -43.613281 27.25 -43.21875 26.96875 -42.625 C 26.6875 -42.03125 26.269531 -41.414062 25.71875 -40.78125 C 25.164062 -40.144531 24.460938 -39.566406 23.609375 -39.046875 C 22.753906 -38.535156 21.710938 -38.28125 20.484375 -38.28125 C 19.484375 -38.28125 18.632812 -38.347656 17.9375 -38.484375 C 17.25 -38.617188 16.664062 -38.925781 16.1875 -39.40625 L 15.828125 -39.828125 C 16.265625 -38.992188 16.96875 -38.492188 17.9375 -38.328125 C 18.914062 -38.171875 19.863281 -38.09375 20.78125 -38.09375 C 21.851562 -38.09375 22.820312 -38.359375 23.6875 -38.890625 C 24.5625 -39.429688 25.328125 -40.117188 25.984375 -40.953125 C 26.640625 -41.785156 27.195312 -42.675781 27.65625 -43.625 C 28.113281 -44.582031 28.476562 -45.476562 28.75 -46.3125 Z M 24.640625 -37.75 C 25.117188 -38.144531 25.554688 -38.476562 25.953125 -38.75 C 26.347656 -39.03125 26.664062 -39.328125 26.90625 -39.640625 C 26.394531 -38.972656 25.640625 -38.34375 24.640625 -37.75 Z M 24.640625 -37.75 "/></g></g></g><g fill="#000000" fill-opacity="1"><g transform="translate(329.898819, 244.479391)"><g><path d="M 15.59375 -35.84375 C 15.632812 -35.644531 15.851562 -35.546875 16.25 -35.546875 L 16.375 -35.546875 C 16.613281 -35.546875 16.769531 -35.523438 16.84375 -35.484375 C 18.90625 -34.847656 20.957031 -33.921875 23 -32.703125 C 25.050781 -31.492188 26.898438 -30.046875 28.546875 -28.359375 C 30.191406 -26.679688 31.519531 -24.769531 32.53125 -22.625 C 33.539062 -20.476562 34.046875 -18.175781 34.046875 -15.71875 C 34.046875 -13.570312 33.628906 -11.503906 32.796875 -9.515625 C 31.960938 -7.535156 30.8125 -5.8125 29.34375 -4.34375 C 30.851562 -5.65625 32.054688 -7.289062 32.953125 -9.25 C 33.847656 -11.21875 34.296875 -13.332031 34.296875 -15.59375 C 34.296875 -18.132812 33.757812 -20.503906 32.6875 -22.703125 C 31.613281 -24.910156 30.242188 -26.882812 28.578125 -28.625 C 26.910156 -30.375 25.050781 -31.875 23 -33.125 C 20.957031 -34.375 18.96875 -35.335938 17.03125 -36.015625 C 18.53125 -36.015625 20.0625 -35.675781 21.625 -35 C 23.195312 -34.332031 24.695312 -33.453125 26.125 -32.359375 C 27.5625 -31.265625 28.882812 -30.007812 30.09375 -28.59375 C 31.300781 -27.1875 32.320312 -25.75 33.15625 -24.28125 L 32.734375 -23.6875 C 33.535156 -22.5 34.144531 -21.207031 34.5625 -19.8125 C 34.976562 -18.425781 35.1875 -17 35.1875 -15.53125 C 35.1875 -12.71875 34.578125 -10.25 33.359375 -8.125 C 32.148438 -6 30.625 -4.234375 28.78125 -2.828125 C 26.9375 -1.421875 24.910156 -0.363281 22.703125 0.34375 C 20.503906 1.0625 18.429688 1.421875 16.484375 1.421875 C 15.378906 1.421875 14.257812 1.300781 13.125 1.0625 C 12 0.832031 10.859375 0.4375 9.703125 -0.125 L 9.703125 0.234375 C 10.816406 0.867188 11.957031 1.304688 13.125 1.546875 C 14.289062 1.785156 15.453125 1.90625 16.609375 1.90625 C 19.460938 1.90625 22.269531 1.28125 25.03125 0.03125 C 27.789062 -1.21875 30.125 -2.972656 32.03125 -5.234375 C 30.207031 -2.890625 27.9375 -1.066406 25.21875 0.234375 C 22.5 1.546875 19.671875 2.203125 16.734375 2.203125 C 13.710938 2.203125 11.269531 1.613281 9.40625 0.4375 C 7.539062 -0.726562 6.082031 -2.160156 5.03125 -3.859375 C 3.976562 -5.566406 3.269531 -7.375 2.90625 -9.28125 C 2.550781 -11.1875 2.375 -12.894531 2.375 -14.40625 C 2.375 -16.425781 2.640625 -18.410156 3.171875 -20.359375 C 3.710938 -22.304688 4.539062 -24.09375 5.65625 -25.71875 C 6.769531 -27.34375 8.195312 -28.738281 9.9375 -29.90625 C 11.6875 -31.082031 13.789062 -31.910156 16.25 -32.390625 L 14.53125 -32.796875 C 13.695312 -32.992188 13.097656 -33.234375 12.734375 -33.515625 C 12.378906 -33.796875 12.203125 -34.035156 12.203125 -34.234375 C 12.203125 -34.546875 12.546875 -34.890625 13.234375 -35.265625 C 13.929688 -35.648438 14.71875 -35.84375 15.59375 -35.84375 Z M 12.921875 -28.34375 C 13.992188 -28.738281 15.023438 -28.9375 16.015625 -28.9375 C 17.003906 -28.9375 17.765625 -28.785156 18.296875 -28.484375 C 18.835938 -28.191406 19.109375 -27.882812 19.109375 -27.5625 C 19.109375 -27.363281 18.878906 -27.144531 18.421875 -26.90625 C 17.960938 -26.664062 17.382812 -26.335938 16.6875 -25.921875 C 16 -25.503906 15.25 -24.976562 14.4375 -24.34375 C 13.625 -23.707031 12.867188 -22.90625 12.171875 -21.9375 C 11.472656 -20.96875 10.894531 -19.785156 10.4375 -18.390625 C 9.988281 -17.003906 9.765625 -15.378906 9.765625 -13.515625 C 9.765625 -10.773438 10.378906 -8.707031 11.609375 -7.3125 C 12.835938 -5.925781 14.546875 -5.234375 16.734375 -5.234375 C 18.117188 -5.234375 19.535156 -5.472656 20.984375 -5.953125 C 22.429688 -6.429688 23.738281 -7.101562 24.90625 -7.96875 C 26.082031 -8.84375 27.035156 -9.914062 27.765625 -11.1875 C 28.503906 -12.457031 28.875 -13.890625 28.875 -15.484375 C 28.875 -16.671875 28.664062 -17.859375 28.25 -19.046875 C 27.832031 -20.234375 27.253906 -21.375 26.515625 -22.46875 C 25.785156 -23.5625 24.914062 -24.582031 23.90625 -25.53125 C 22.894531 -26.488281 21.789062 -27.304688 20.59375 -27.984375 C 19.445312 -28.617188 18.503906 -29.101562 17.765625 -29.4375 C 17.035156 -29.769531 16.507812 -30.097656 16.1875 -30.421875 C 15.875 -30.265625 15.425781 -30.078125 14.84375 -29.859375 C 14.269531 -29.640625 13.507812 -29.3125 12.5625 -28.875 Z M 16.90625 -31.140625 C 18.726562 -30.535156 20.472656 -29.640625 22.140625 -28.453125 C 23.566406 -27.378906 24.878906 -26.207031 26.078125 -24.9375 C 24.921875 -26.289062 23.671875 -27.503906 22.328125 -28.578125 C 20.773438 -29.847656 19.046875 -30.835938 17.140625 -31.546875 Z M 28.453125 -10.828125 C 27.859375 -9.554688 27.023438 -8.425781 25.953125 -7.4375 C 26.671875 -7.914062 27.273438 -8.492188 27.765625 -9.171875 C 28.265625 -9.847656 28.671875 -10.519531 28.984375 -11.1875 C 29.304688 -11.863281 29.546875 -12.476562 29.703125 -13.03125 C 29.828125 -13.550781 29.925781 -13.96875 30 -14.28125 C 29.5625 -13.25 29.046875 -12.097656 28.453125 -10.828125 Z M 32.4375 -5.71875 C 32.40625 -5.632812 32.347656 -5.554688 32.265625 -5.484375 C 32.222656 -5.441406 32.179688 -5.421875 32.140625 -5.421875 C 32.109375 -5.421875 32.207031 -5.628906 32.4375 -6.046875 C 32.675781 -6.460938 32.960938 -6.957031 33.296875 -7.53125 C 33.640625 -8.101562 33.972656 -8.707031 34.296875 -9.34375 C 34.566406 -9.820312 34.765625 -10.238281 34.890625 -10.59375 C 34.328125 -8.882812 33.507812 -7.257812 32.4375 -5.71875 Z M 35.78125 -15.359375 C 35.78125 -14.722656 35.738281 -14.097656 35.65625 -13.484375 C 35.582031 -12.867188 35.445312 -12.300781 35.25 -11.78125 C 35.519531 -12.78125 35.65625 -13.894531 35.65625 -15.125 C 35.65625 -16.03125 35.578125 -16.921875 35.421875 -17.796875 C 35.304688 -18.554688 35.144531 -19.289062 34.9375 -20 C 35.144531 -19.289062 35.328125 -18.578125 35.484375 -17.859375 C 35.679688 -17.066406 35.78125 -16.234375 35.78125 -15.359375 Z M 16.90625 -32.09375 L 16.375 -32.328125 C 16.332031 -32.242188 16.269531 -32.160156 16.1875 -32.078125 C 16.113281 -32.003906 16.078125 -31.925781 16.078125 -31.84375 C 16.078125 -31.769531 16.125 -31.660156 16.21875 -31.515625 C 16.320312 -31.378906 16.410156 -31.269531 16.484375 -31.1875 Z M 26.4375 -24.53125 C 26.3125 -24.6875 26.191406 -24.820312 26.078125 -24.9375 C 26.191406 -24.78125 26.3125 -24.644531 26.4375 -24.53125 Z M 34.890625 -10.59375 C 34.921875 -10.675781 34.9375 -10.753906 34.9375 -10.828125 C 34.9375 -10.753906 34.921875 -10.675781 34.890625 -10.59375 Z M 35 -10.953125 C 34.957031 -10.910156 34.9375 -10.867188 34.9375 -10.828125 C 34.9375 -10.867188 34.957031 -10.910156 35 -10.953125 Z M 35 -10.953125 "/></g></g></g><g clip-path="url(#d5fc5070b3)"><g clip-path="url(#30e7964e0c)"><g clip-path="url(#6dbe17ce03)"><path fill="#efbc30" d="M 330.714844 343.65625 C 350.273438 321.351562 360.476562 292.84375 366.980469 264.246094 C 372.699219 239.007812 374.890625 212.664062 369.4375 187.160156 C 366.832031 174.800781 362.957031 161.570312 355.703125 151.128906 C 348.484375 140.730469 338.65625 132.21875 327.527344 126.207031 C 316.289062 120.058594 303.441406 116.5 290.683594 116.285156 C 276.226562 115.984375 262.460938 120.265625 248.6875 124.257812 C 217.421875 133.359375 184.683594 135.445312 153.273438 144.359375 C 125.492188 152.226562 98.179688 166.777344 83.191406 192.566406 C 68.925781 217.199219 72.210938 246.097656 84.925781 270.757812 C 99.546875 298.902344 124.347656 320.445312 151.636719 335.964844 C 165.292969 343.789062 179.703125 350.210938 194.363281 355.992188 C 208.863281 361.671875 223.542969 367.292969 238.519531 371.492188 C 252.082031 375.304688 265.984375 377.078125 279.871094 374.183594 C 293.074219 371.457031 305.519531 365.386719 316.230469 357.179688 C 321.5625 353.097656 326.332031 348.484375 330.714844 343.65625 " fill-opacity="1" fill-rule="nonzero"/></g></g></g></svg>