<svg xmlns="http://www.w3.org/2000/svg" xmlns:xlink="http://www.w3.org/1999/xlink" width="509" zoomAndPan="magnify" viewBox="0 0 381.75 377.249997" height="503" preserveAspectRatio="xMidYMid meet" version="1.0"><defs><g/><clipPath id="ea282395ca"><path d="M 78 74 L 322 74 L 322 283 L 78 283 Z M 78 74 " clip-rule="nonzero"/></clipPath><clipPath id="0e5059ccb7"><path d="M 123.171875 339.1875 L 37.957031 126.425781 L 259.0625 37.867188 L 344.28125 250.628906 Z M 123.171875 339.1875 " clip-rule="nonzero"/></clipPath><clipPath id="b4e610ed3f"><path d="M 123.171875 339.1875 L 37.957031 126.425781 L 259.0625 37.867188 L 344.28125 250.628906 Z M 123.171875 339.1875 " clip-rule="nonzero"/></clipPath></defs><g fill="#000000" fill-opacity="1"><g transform="translate(85.877214, 209.444221)"><g><path d="M 16.828125 3.6875 C 18.578125 4.238281 20.363281 4.515625 22.1875 4.515625 C 24.25 4.515625 26.171875 4.195312 27.953125 3.5625 C 29.734375 2.925781 31.359375 2.050781 32.828125 0.9375 C 34.296875 -0.164062 35.582031 -1.445312 36.6875 -2.90625 C 37.476562 -3.9375 38.175781 -5.050781 38.78125 -6.25 C 38.257812 -5.132812 37.660156 -4.039062 36.984375 -2.96875 C 36.035156 -1.46875 34.859375 -0.144531 33.453125 1 C 32.046875 2.15625 30.429688 3.078125 28.609375 3.765625 C 26.785156 4.460938 24.722656 4.8125 22.421875 4.8125 L 21.640625 4.8125 C 18.347656 4.8125 15.492188 4.078125 13.078125 2.609375 C 10.660156 1.148438 8.660156 -0.71875 7.078125 -3 C 5.492188 -5.28125 4.3125 -7.828125 3.53125 -10.640625 C 2.757812 -13.453125 2.375 -16.226562 2.375 -18.96875 C 2.375 -20.113281 2.429688 -21.332031 2.546875 -22.625 C 2.671875 -23.914062 2.929688 -25.210938 3.328125 -26.515625 C 3.722656 -27.828125 4.285156 -29.109375 5.015625 -30.359375 C 5.753906 -31.609375 6.757812 -32.75 8.03125 -33.78125 C 9.0625 -34.613281 10.179688 -35.316406 11.390625 -35.890625 C 12.597656 -36.460938 13.796875 -36.789062 14.984375 -36.875 C 14.867188 -36.789062 14.8125 -36.707031 14.8125 -36.625 C 14.8125 -36.46875 14.898438 -36.300781 15.078125 -36.125 C 15.253906 -35.945312 15.34375 -35.757812 15.34375 -35.5625 L 15.34375 -35.4375 C 15.34375 -35.28125 15.253906 -35.160156 15.078125 -35.078125 C 14.898438 -35.003906 14.613281 -34.894531 14.21875 -34.75 C 13.820312 -34.613281 13.304688 -34.40625 12.671875 -34.125 C 12.035156 -33.851562 11.28125 -33.441406 10.40625 -32.890625 C 10.644531 -32.648438 10.765625 -32.46875 10.765625 -32.34375 C 11.515625 -32.75 12.207031 -33.03125 12.84375 -33.1875 C 13.476562 -33.34375 14.070312 -33.421875 14.625 -33.421875 C 15.78125 -33.421875 16.613281 -33.222656 17.125 -32.828125 C 17.644531 -32.429688 17.90625 -32.132812 17.90625 -31.9375 C 17.90625 -31.613281 17.65625 -31.351562 17.15625 -31.15625 C 16.65625 -30.957031 16.078125 -30.707031 15.421875 -30.40625 C 14.773438 -30.113281 14.09375 -29.71875 13.375 -29.21875 C 12.664062 -28.726562 12.113281 -28.007812 11.71875 -27.0625 C 11.082031 -26.101562 10.59375 -24.910156 10.25 -23.484375 C 9.914062 -22.054688 9.75 -20.613281 9.75 -19.15625 C 9.75 -16.65625 10.046875 -14.375 10.640625 -12.3125 C 11.234375 -10.25 12.078125 -8.460938 13.171875 -6.953125 C 14.265625 -5.453125 15.59375 -4.285156 17.15625 -3.453125 C 18.71875 -2.617188 20.492188 -2.203125 22.484375 -2.203125 C 24.378906 -2.203125 26.085938 -2.675781 27.609375 -3.625 C 29.140625 -4.582031 30.441406 -5.878906 31.515625 -7.515625 C 32.585938 -9.160156 33.398438 -11.0625 33.953125 -13.21875 C 34.515625 -15.382812 34.796875 -17.695312 34.796875 -20.15625 C 34.796875 -21.34375 34.722656 -22.519531 34.578125 -23.6875 C 34.441406 -24.863281 34.164062 -25.984375 33.75 -27.046875 C 33.332031 -28.117188 32.753906 -29.128906 32.015625 -30.078125 C 31.285156 -31.035156 30.328125 -31.910156 29.140625 -32.703125 C 27.628906 -33.492188 26.398438 -34.054688 25.453125 -34.390625 C 24.503906 -34.734375 24.03125 -35.066406 24.03125 -35.390625 C 24.03125 -35.503906 24.109375 -35.640625 24.265625 -35.796875 C 26.242188 -35.359375 28.023438 -34.644531 29.609375 -33.65625 C 31.078125 -32.75 32.304688 -31.5625 33.296875 -30.09375 C 32.234375 -31.71875 31.023438 -32.96875 29.671875 -33.84375 C 28.203125 -34.832031 26.457031 -35.601562 24.4375 -36.15625 C 24.632812 -36.351562 24.734375 -36.53125 24.734375 -36.6875 C 24.734375 -36.851562 24.445312 -36.992188 23.875 -37.109375 C 23.300781 -37.222656 22.675781 -37.359375 22 -37.515625 C 21.332031 -37.679688 20.707031 -37.878906 20.125 -38.109375 C 19.550781 -38.347656 19.265625 -38.648438 19.265625 -39.015625 C 19.265625 -39.453125 19.617188 -39.769531 20.328125 -39.96875 C 21.046875 -40.164062 21.921875 -40.398438 22.953125 -40.671875 C 23.234375 -40.671875 23.5 -40.628906 23.75 -40.546875 C 24.007812 -40.472656 24.238281 -40.394531 24.4375 -40.3125 C 26.382812 -39.957031 28.238281 -39.320312 30 -38.40625 C 31.757812 -37.5 33.34375 -36.332031 34.75 -34.90625 C 36.164062 -33.476562 37.347656 -31.78125 38.296875 -29.8125 C 39.242188 -27.851562 39.859375 -25.644531 40.140625 -23.1875 C 39.941406 -25.53125 39.414062 -27.660156 38.5625 -29.578125 C 37.707031 -31.503906 36.597656 -33.21875 35.234375 -34.71875 C 33.867188 -36.226562 32.273438 -37.5 30.453125 -38.53125 C 28.628906 -39.5625 26.6875 -40.359375 24.625 -40.921875 C 26.445312 -40.921875 28.257812 -40.550781 30.0625 -39.8125 C 31.863281 -39.082031 33.515625 -38.007812 35.015625 -36.59375 C 36.523438 -35.1875 37.832031 -33.453125 38.9375 -31.390625 C 40.050781 -29.335938 40.847656 -26.984375 41.328125 -24.328125 C 41.253906 -24.328125 41.132812 -24.296875 40.96875 -24.234375 C 40.8125 -24.171875 40.691406 -24.140625 40.609375 -24.140625 C 40.972656 -22.117188 41.15625 -20.15625 41.15625 -18.25 C 41.15625 -15.476562 40.726562 -12.765625 39.875 -10.109375 C 39.019531 -7.453125 37.789062 -5.082031 36.1875 -3 C 34.582031 -0.914062 32.609375 0.765625 30.265625 2.046875 C 27.929688 3.335938 25.253906 3.984375 22.234375 3.984375 C 20.453125 3.984375 18.707031 3.722656 17 3.203125 C 15.300781 2.691406 13.71875 2 12.25 1.125 C 12.332031 1.207031 12.375 1.289062 12.375 1.375 C 12.375 1.445312 12.273438 1.484375 12.078125 1.484375 C 13.535156 2.429688 15.117188 3.164062 16.828125 3.6875 Z M 40.265625 -17.609375 C 40.066406 -16.054688 39.773438 -14.457031 39.390625 -12.8125 C 39.015625 -11.164062 38.5 -9.550781 37.84375 -7.96875 C 37.195312 -6.382812 36.378906 -4.898438 35.390625 -3.515625 C 34.390625 -2.160156 33.21875 -0.988281 31.875 0 C 33.21875 -0.945312 34.40625 -2.078125 35.4375 -3.390625 C 36.46875 -4.734375 37.332031 -6.195312 38.03125 -7.78125 C 38.726562 -9.375 39.265625 -11.050781 39.640625 -12.8125 C 40.015625 -14.582031 40.238281 -16.335938 40.3125 -18.078125 C 40.28125 -17.960938 40.265625 -17.804688 40.265625 -17.609375 Z M 35.5 -14.15625 C 35.1875 -12.644531 34.710938 -11.1875 34.078125 -9.78125 C 33.441406 -8.375 32.628906 -7.113281 31.640625 -6 C 32.671875 -7.070312 33.503906 -8.300781 34.140625 -9.6875 C 34.773438 -11.082031 35.226562 -12.570312 35.5 -14.15625 Z M 41.625 -19.390625 C 41.625 -18.710938 41.585938 -18.019531 41.515625 -17.3125 C 41.472656 -16.632812 41.410156 -15.9375 41.328125 -15.21875 C 41.328125 -15.894531 41.367188 -16.648438 41.453125 -17.484375 C 41.523438 -18.359375 41.5625 -19.3125 41.5625 -20.34375 L 41.5625 -21.40625 C 41.601562 -21.09375 41.625 -20.753906 41.625 -20.390625 Z M 35.5 -14.15625 C 35.695312 -15.03125 35.84375 -15.910156 35.9375 -16.796875 C 36.039062 -17.691406 36.09375 -18.59375 36.09375 -19.5 C 36.09375 -20.5 36.035156 -21.507812 35.921875 -22.53125 C 35.960938 -22.101562 35.988281 -21.6875 36 -21.28125 C 36.019531 -20.882812 36.03125 -20.472656 36.03125 -20.046875 C 36.03125 -18.023438 35.851562 -16.0625 35.5 -14.15625 Z M 41.328125 -14.859375 L 40.796875 -11.953125 C 40.597656 -11.234375 40.398438 -10.523438 40.203125 -9.828125 C 40.003906 -9.140625 39.765625 -8.460938 39.484375 -7.796875 C 39.921875 -9.023438 40.285156 -10.253906 40.578125 -11.484375 C 40.878906 -12.710938 41.128906 -13.921875 41.328125 -15.109375 Z M 12.125 1.609375 C 12.125 1.566406 12.109375 1.523438 12.078125 1.484375 C 12.078125 1.523438 12.09375 1.566406 12.125 1.609375 Z M 39.484375 -7.796875 C 39.410156 -7.628906 39.351562 -7.488281 39.3125 -7.375 C 39.351562 -7.488281 39.410156 -7.628906 39.484375 -7.796875 Z M 38.828125 -6.359375 C 38.910156 -6.484375 38.972656 -6.601562 39.015625 -6.71875 C 38.972656 -6.601562 38.910156 -6.484375 38.828125 -6.359375 Z M 33.65625 -29.609375 C 33.613281 -29.691406 33.554688 -29.773438 33.484375 -29.859375 C 33.523438 -29.773438 33.582031 -29.691406 33.65625 -29.609375 Z M 39.3125 -7.375 C 39.226562 -7.175781 39.148438 -6.976562 39.078125 -6.78125 C 39.148438 -6.976562 39.226562 -7.175781 39.3125 -7.375 Z M 39.3125 -7.375 "/></g></g></g><g fill="#000000" fill-opacity="1"><g transform="translate(129.885278, 209.444221)"><g><path d="M 8.4375 17.25 C 8.519531 15.03125 8.582031 12.835938 8.625 10.671875 C 8.664062 8.515625 8.6875 6.226562 8.6875 3.8125 C 8.6875 2.78125 8.664062 1.757812 8.625 0.75 C 8.582031 -0.257812 8.519531 -1.242188 8.4375 -2.203125 L 8.4375 4.34375 C 8.4375 6.519531 8.40625 8.6875 8.34375 10.84375 C 8.289062 13.007812 8.144531 15.144531 7.90625 17.25 C 7.707031 16.882812 7.53125 16.515625 7.375 16.140625 C 7.21875 15.765625 7.097656 15.359375 7.015625 14.921875 C 7.097656 13.859375 7.148438 12.878906 7.171875 11.984375 C 7.191406 11.085938 7.203125 10.109375 7.203125 9.046875 L 7.90625 8.6875 C 7.789062 7.851562 7.710938 7.007812 7.671875 6.15625 C 7.628906 5.300781 7.609375 4.457031 7.609375 3.625 C 7.609375 2.71875 7.617188 1.835938 7.640625 0.984375 C 7.660156 0.128906 7.671875 -0.753906 7.671875 -1.671875 C 7.671875 -2.773438 7.640625 -3.867188 7.578125 -4.953125 C 7.523438 -6.046875 7.398438 -7.148438 7.203125 -8.265625 L 7.015625 -8.265625 C 7.097656 -6.597656 7.164062 -4.953125 7.21875 -3.328125 C 7.28125 -1.703125 7.3125 -0.078125 7.3125 1.546875 C 7.3125 2.253906 7.289062 2.96875 7.25 3.6875 L 7.203125 5.234375 C 7.117188 1.429688 6.976562 -2.296875 6.78125 -5.953125 C 6.625 -9.835938 6.347656 -13.820312 5.953125 -17.90625 L 6.1875 -22.84375 C 5.75 -22.875 5.289062 -22.890625 4.8125 -22.890625 L 3.453125 -22.890625 L 3.265625 -24.265625 C 3.265625 -24.460938 3.40625 -24.640625 3.6875 -24.796875 C 3.96875 -24.953125 4.523438 -25.03125 5.359375 -25.03125 L 5.953125 -25.03125 L 5.953125 -25.75 C 4.640625 -25.90625 3.613281 -26.179688 2.875 -26.578125 C 2.144531 -26.972656 1.78125 -27.390625 1.78125 -27.828125 C 1.78125 -28.222656 2.132812 -28.566406 2.84375 -28.859375 C 3.5625 -29.160156 4.484375 -29.398438 5.609375 -29.578125 C 6.742188 -29.765625 7.984375 -29.894531 9.328125 -29.96875 C 10.679688 -30.050781 11.992188 -30.09375 13.265625 -30.09375 C 14.648438 -30.09375 16.144531 -30.050781 17.75 -29.96875 C 19.351562 -29.894531 20.96875 -29.695312 22.59375 -29.375 C 24.21875 -29.0625 25.789062 -28.578125 27.3125 -27.921875 C 28.84375 -27.265625 30.222656 -26.351562 31.453125 -25.1875 C 32.679688 -24.019531 33.703125 -22.550781 34.515625 -20.78125 C 35.328125 -19.019531 35.851562 -16.867188 36.09375 -14.328125 C 36.09375 -12.191406 35.625 -10.4375 34.6875 -9.0625 C 33.757812 -7.695312 32.640625 -6.597656 31.328125 -5.765625 C 30.023438 -4.929688 28.671875 -4.335938 27.265625 -3.984375 C 25.859375 -3.628906 24.695312 -3.390625 23.78125 -3.265625 C 22.875 -3.066406 21.828125 -2.835938 20.640625 -2.578125 C 19.453125 -2.328125 18.441406 -2.203125 17.609375 -2.203125 C 16.691406 -2.203125 16.15625 -2.300781 16 -2.5 C 15.84375 -2.695312 15.765625 -2.953125 15.765625 -3.265625 C 17.546875 -3.347656 19.328125 -3.5 21.109375 -3.71875 C 22.890625 -3.9375 24.675781 -4.320312 26.46875 -4.875 C 24.675781 -4.4375 22.890625 -4.109375 21.109375 -3.890625 C 19.328125 -3.671875 17.546875 -3.523438 15.765625 -3.453125 C 15.765625 -3.691406 15.742188 -3.9375 15.703125 -4.1875 C 15.660156 -4.445312 15.539062 -4.578125 15.34375 -4.578125 C 14.945312 -4.578125 14.640625 -3.941406 14.421875 -2.671875 C 14.203125 -1.398438 14.039062 0.113281 13.9375 1.875 C 13.84375 3.632812 13.785156 5.445312 13.765625 7.3125 C 13.742188 9.175781 13.734375 10.722656 13.734375 11.953125 C 13.734375 12.503906 13.765625 13.085938 13.828125 13.703125 C 13.890625 14.316406 13.921875 14.84375 13.921875 15.28125 C 13.921875 15.675781 13.859375 16.007812 13.734375 16.28125 C 13.617188 16.5625 13.28125 16.703125 12.71875 16.703125 L 12.71875 9.21875 C 12.644531 10.488281 12.597656 11.738281 12.578125 12.96875 C 12.554688 14.195312 12.546875 15.441406 12.546875 16.703125 L 11.484375 16.703125 L 11.484375 17.1875 C 11.484375 17.539062 11.539062 17.796875 11.65625 17.953125 C 11.21875 18.710938 10.722656 19.09375 10.171875 19.09375 C 9.734375 19.09375 9.40625 18.972656 9.1875 18.734375 C 8.96875 18.492188 8.660156 18.175781 8.265625 17.78125 Z M 14.21875 -7.546875 L 15.046875 -7.546875 C 16.429688 -7.546875 18.023438 -7.625 19.828125 -7.78125 C 21.628906 -7.945312 23.320312 -8.25 24.90625 -8.6875 C 26.5 -9.125 27.835938 -9.738281 28.921875 -10.53125 C 30.015625 -11.320312 30.5625 -12.351562 30.5625 -13.625 L 30.5625 -14.09375 C 30.5625 -14.488281 30.53125 -14.921875 30.46875 -15.390625 C 30.414062 -15.867188 30.25 -16.328125 29.96875 -16.765625 C 30.007812 -16.566406 30.109375 -16.171875 30.265625 -15.578125 C 30.421875 -14.984375 30.5 -14.488281 30.5 -14.09375 C 30.5 -12.863281 30.070312 -11.863281 29.21875 -11.09375 C 28.375 -10.320312 27.304688 -9.707031 26.015625 -9.25 C 24.722656 -8.789062 23.3125 -8.472656 21.78125 -8.296875 C 20.257812 -8.117188 18.804688 -8.03125 17.421875 -8.03125 L 16.234375 -8.03125 C 15.835938 -8.03125 15.441406 -8.050781 15.046875 -8.09375 C 15.597656 -8.519531 16.316406 -8.820312 17.203125 -9 C 18.097656 -9.1875 19.039062 -9.335938 20.03125 -9.453125 C 21.03125 -9.578125 22.003906 -9.695312 22.953125 -9.8125 C 23.898438 -9.925781 24.710938 -10.125 25.390625 -10.40625 L 25.75 -9.6875 C 27.132812 -10.363281 28.113281 -11.03125 28.6875 -11.6875 C 29.269531 -12.34375 29.5625 -13.242188 29.5625 -14.390625 C 29.5625 -16.210938 29.050781 -17.816406 28.03125 -19.203125 C 27.019531 -20.597656 25.664062 -21.53125 23.96875 -22 L 23.78125 -21.640625 C 25.25 -21.085938 26.519531 -20.175781 27.59375 -18.90625 C 28.664062 -17.644531 29.203125 -16.117188 29.203125 -14.328125 C 29.203125 -13.378906 28.984375 -12.628906 28.546875 -12.078125 C 28.148438 -11.597656 27.515625 -11.160156 26.640625 -10.765625 C 27.359375 -11.078125 27.894531 -11.472656 28.25 -11.953125 C 28.6875 -12.503906 28.984375 -13.117188 29.140625 -13.796875 C 29.140625 -15.460938 28.742188 -16.867188 27.953125 -18.015625 C 27.160156 -19.171875 26.050781 -20.09375 24.625 -20.78125 C 23.195312 -21.476562 21.476562 -21.972656 19.46875 -22.265625 C 17.46875 -22.566406 15.257812 -22.71875 12.84375 -22.71875 C 13.164062 -21.007812 13.351562 -19.15625 13.40625 -17.15625 C 13.46875 -15.15625 13.597656 -13.203125 13.796875 -11.296875 Z M 8.203125 -16.65625 C 8.285156 -16.726562 8.363281 -17.0625 8.4375 -17.65625 C 8.519531 -18.25 8.585938 -18.894531 8.640625 -19.59375 C 8.703125 -20.289062 8.765625 -20.945312 8.828125 -21.5625 C 8.890625 -22.175781 8.960938 -22.539062 9.046875 -22.65625 L 8.265625 -22.71875 Z M 26.34375 -10.640625 L 26.640625 -10.765625 Z M 26.34375 -10.640625 "/></g></g></g><g fill="#000000" fill-opacity="1"><g transform="translate(168.957297, 209.444221)"><g><path d="M 31.21875 -3.15625 C 29.476562 -2.4375 27.6875 -1.878906 25.84375 -1.484375 C 24 -1.085938 22.125 -0.890625 20.21875 -0.890625 C 18.476562 -0.890625 16.773438 -1.085938 15.109375 -1.484375 C 13.441406 -1.878906 11.910156 -2.515625 10.515625 -3.390625 C 9.128906 -4.265625 7.910156 -5.40625 6.859375 -6.8125 C 5.816406 -8.21875 5.015625 -9.910156 4.453125 -11.890625 C 4.578125 -10.148438 5.054688 -8.65625 5.890625 -7.40625 C 6.722656 -6.15625 7.757812 -5.082031 9 -4.1875 C 10.25 -3.300781 11.628906 -2.578125 13.140625 -2.015625 C 14.648438 -1.460938 16.097656 -1.007812 17.484375 -0.65625 C 17.679688 -0.613281 17.957031 -0.59375 18.3125 -0.59375 C 20.65625 -0.59375 22.773438 -0.789062 24.671875 -1.1875 C 26.578125 -1.582031 28.519531 -2 30.5 -2.4375 C 29.875 -1.925781 29.113281 -1.476562 28.21875 -1.09375 C 27.320312 -0.71875 26.347656 -0.398438 25.296875 -0.140625 C 24.253906 0.109375 23.15625 0.300781 22 0.4375 C 20.851562 0.582031 19.703125 0.65625 18.546875 0.65625 L 17.90625 0.65625 C 17.707031 0.65625 17.507812 0.632812 17.3125 0.59375 L 16.890625 -0.171875 C 15.460938 -0.335938 13.972656 -0.695312 12.421875 -1.25 C 10.878906 -1.800781 9.460938 -2.582031 8.171875 -3.59375 C 6.890625 -4.601562 5.820312 -5.84375 4.96875 -7.3125 C 4.113281 -8.78125 3.6875 -10.484375 3.6875 -12.421875 C 3.6875 -14.046875 3.90625 -15.628906 4.34375 -17.171875 C 4.78125 -18.722656 5.351562 -20.234375 6.0625 -21.703125 C 6.019531 -21.660156 5.960938 -21.640625 5.890625 -21.640625 C 5.765625 -21.640625 5.703125 -21.722656 5.703125 -21.890625 C 4.992188 -20.460938 4.390625 -18.984375 3.890625 -17.453125 C 3.398438 -15.929688 3.15625 -14.273438 3.15625 -12.484375 C 3.15625 -10.585938 3.585938 -8.90625 4.453125 -7.4375 C 5.328125 -5.96875 6.367188 -4.726562 7.578125 -3.71875 C 8.785156 -2.707031 10.023438 -1.882812 11.296875 -1.25 C 12.453125 -0.695312 13.40625 -0.300781 14.15625 -0.0625 C 12.925781 -0.414062 11.675781 -0.929688 10.40625 -1.609375 C 9.0625 -2.316406 7.84375 -3.21875 6.75 -4.3125 C 5.65625 -5.40625 4.75 -6.671875 4.03125 -8.109375 C 3.320312 -9.554688 2.96875 -11.15625 2.96875 -12.90625 C 2.96875 -15.40625 3.421875 -17.742188 4.328125 -19.921875 C 5.242188 -22.097656 6.457031 -23.988281 7.96875 -25.59375 C 9.476562 -27.207031 11.210938 -28.476562 13.171875 -29.40625 C 15.128906 -30.34375 17.160156 -30.8125 19.265625 -30.8125 C 19.617188 -30.882812 20.0625 -30.929688 20.59375 -30.953125 C 21.132812 -30.972656 21.582031 -30.984375 21.9375 -30.984375 C 23.207031 -30.703125 24.488281 -30.363281 25.78125 -29.96875 C 27.070312 -29.570312 28.347656 -29.019531 29.609375 -28.3125 C 29.453125 -28.226562 29.34375 -28.113281 29.28125 -27.96875 C 29.226562 -27.832031 29.179688 -27.675781 29.140625 -27.5 C 29.097656 -27.320312 29.023438 -27.171875 28.921875 -27.046875 C 28.828125 -26.929688 28.660156 -26.875 28.421875 -26.875 C 28.222656 -26.875 27.925781 -26.929688 27.53125 -27.046875 C 27.132812 -27.171875 26.582031 -27.351562 25.875 -27.59375 C 25.75 -27.476562 25.6875 -27.300781 25.6875 -27.0625 C 26.644531 -26.582031 27.300781 -26.035156 27.65625 -25.421875 C 28.007812 -24.804688 28.1875 -24.222656 28.1875 -23.671875 C 28.1875 -23.390625 27.890625 -23.148438 27.296875 -22.953125 C 26.773438 -22.953125 25.96875 -23.050781 24.875 -23.25 C 23.789062 -23.445312 22.578125 -23.546875 21.234375 -23.546875 C 20.640625 -23.546875 19.984375 -23.515625 19.265625 -23.453125 C 18.554688 -23.398438 17.84375 -23.285156 17.125 -23.109375 C 16.414062 -22.929688 15.742188 -22.671875 15.109375 -22.328125 C 14.472656 -21.992188 13.957031 -21.550781 13.5625 -21 C 13.082031 -20.363281 12.644531 -19.644531 12.25 -18.84375 C 11.851562 -18.050781 11.492188 -17.25 11.171875 -16.4375 C 10.859375 -15.625 10.613281 -14.84375 10.4375 -14.09375 C 10.257812 -13.34375 10.171875 -12.671875 10.171875 -12.078125 C 10.171875 -11.515625 10.425781 -10.882812 10.9375 -10.1875 C 11.457031 -9.5 12.125 -8.847656 12.9375 -8.234375 C 13.75 -7.617188 14.679688 -7.09375 15.734375 -6.65625 C 16.785156 -6.21875 17.84375 -6 18.90625 -6 C 19.425781 -6 20.050781 -6.078125 20.78125 -6.234375 C 21.519531 -6.398438 22.273438 -6.59375 23.046875 -6.8125 C 23.816406 -7.03125 24.578125 -7.21875 25.328125 -7.375 C 26.085938 -7.53125 26.722656 -7.609375 27.234375 -7.609375 C 27.710938 -7.609375 28.019531 -7.554688 28.15625 -7.453125 C 28.289062 -7.359375 28.359375 -7.171875 28.359375 -6.890625 C 27.492188 -6.578125 26.601562 -6.265625 25.6875 -5.953125 C 25.007812 -5.753906 24.316406 -5.554688 23.609375 -5.359375 C 25.234375 -5.710938 26.816406 -6.164062 28.359375 -6.71875 C 28.359375 -6.519531 28.367188 -6.34375 28.390625 -6.1875 C 28.410156 -6.03125 28.519531 -5.851562 28.71875 -5.65625 L 29.3125 -5.890625 C 29.632812 -6.003906 29.972656 -6.160156 30.328125 -6.359375 C 31.117188 -6.359375 31.660156 -6.28125 31.953125 -6.125 C 32.253906 -5.96875 32.40625 -5.726562 32.40625 -5.40625 C 32.40625 -5.207031 32.375 -5.039062 32.3125 -4.90625 C 32.257812 -4.769531 32.179688 -4.628906 32.078125 -4.484375 C 31.984375 -4.347656 31.851562 -4.179688 31.6875 -3.984375 C 31.53125 -3.785156 31.375 -3.507812 31.21875 -3.15625 Z M 26.46875 5.53125 C 26.664062 5.925781 26.78125 6.332031 26.8125 6.75 C 26.851562 7.164062 26.875 7.648438 26.875 8.203125 C 26.875 10.066406 26.515625 11.570312 25.796875 12.71875 C 25.085938 13.875 24.195312 14.773438 23.125 15.421875 C 22.0625 16.078125 20.882812 16.523438 19.59375 16.765625 C 18.300781 17.003906 17.082031 17.125 15.9375 17.125 C 15.0625 17.125 14.15625 17.082031 13.21875 17 C 12.289062 16.925781 11.429688 16.804688 10.640625 16.640625 C 9.847656 16.484375 9.191406 16.296875 8.671875 16.078125 C 8.160156 15.867188 7.90625 15.625 7.90625 15.34375 C 7.90625 15.226562 7.96875 15.066406 8.09375 14.859375 C 8.882812 15.097656 9.566406 15.285156 10.140625 15.421875 C 10.710938 15.566406 11.265625 15.675781 11.796875 15.75 C 12.335938 15.832031 12.894531 15.882812 13.46875 15.90625 C 14.039062 15.925781 14.722656 15.9375 15.515625 15.9375 C 14.847656 15.894531 14.210938 15.851562 13.609375 15.8125 C 13.015625 15.78125 12.441406 15.710938 11.890625 15.609375 C 11.335938 15.515625 10.765625 15.382812 10.171875 15.21875 C 9.578125 15.0625 8.921875 14.84375 8.203125 14.5625 C 8.285156 14.40625 8.363281 14.257812 8.4375 14.125 C 8.519531 13.988281 8.5625 13.835938 8.5625 13.671875 C 8.363281 13.671875 8.101562 13.5625 7.78125 13.34375 C 7.46875 13.132812 7.3125 12.828125 7.3125 12.421875 C 7.3125 11.867188 7.890625 11.175781 9.046875 10.34375 C 9.597656 10.90625 10.425781 11.289062 11.53125 11.5 C 12.644531 11.71875 14.15625 11.828125 16.0625 11.828125 C 16.726562 11.828125 17.222656 11.75 17.546875 11.59375 C 17.816406 11.476562 18.148438 11.34375 18.546875 11.1875 C 17.835938 11.382812 17.164062 11.5 16.53125 11.53125 C 15.851562 11.613281 15.039062 11.65625 14.09375 11.65625 C 13.34375 11.65625 12.585938 11.566406 11.828125 11.390625 C 11.078125 11.210938 10.304688 10.785156 9.515625 10.109375 C 9.910156 9.910156 10.265625 9.8125 10.578125 9.8125 C 11.210938 9.8125 11.648438 9.847656 11.890625 9.921875 C 12.128906 10.003906 12.367188 10.066406 12.609375 10.109375 L 12.84375 10.765625 L 14.328125 10.765625 C 14.960938 10.765625 15.617188 10.742188 16.296875 10.703125 C 16.972656 10.660156 17.585938 10.578125 18.140625 10.453125 C 18.691406 10.335938 19.144531 10.148438 19.5 9.890625 C 19.863281 9.640625 20.046875 9.273438 20.046875 8.796875 C 20.046875 8.753906 19.945312 8.675781 19.75 8.5625 C 19.75 9.113281 19.441406 9.546875 18.828125 9.859375 C 18.210938 10.179688 17.289062 10.34375 16.0625 10.34375 L 15.109375 10.34375 C 14.828125 10.34375 14.53125 10.320312 14.21875 10.28125 L 15.21875 10.28125 C 16.375 10.28125 17.238281 10.203125 17.8125 10.046875 C 18.382812 9.890625 18.789062 9.710938 19.03125 9.515625 C 19.269531 9.316406 19.398438 9.097656 19.421875 8.859375 C 19.441406 8.617188 19.488281 8.441406 19.5625 8.328125 C 19.488281 7.410156 19.289062 6.703125 18.96875 6.203125 C 18.65625 5.710938 18.316406 5.316406 17.953125 5.015625 C 17.597656 4.722656 17.269531 4.46875 16.96875 4.25 C 16.675781 4.03125 16.53125 3.742188 16.53125 3.390625 L 16.53125 3.265625 L 19.984375 1.015625 C 21.210938 1.054688 22.441406 1.484375 23.671875 2.296875 C 24.898438 3.109375 25.832031 4.1875 26.46875 5.53125 Z M 9.640625 -10.28125 C 9.953125 -9.570312 10.425781 -8.890625 11.0625 -8.234375 C 11.695312 -7.578125 12.421875 -7 13.234375 -6.5 C 14.046875 -6.007812 14.90625 -5.609375 15.8125 -5.296875 C 16.6875 -4.972656 17.5625 -4.789062 18.4375 -4.75 C 17.644531 -4.832031 16.8125 -5.035156 15.9375 -5.359375 C 15.019531 -5.671875 14.15625 -6.070312 13.34375 -6.5625 C 12.53125 -7.0625 11.796875 -7.628906 11.140625 -8.265625 C 10.492188 -8.898438 9.992188 -9.570312 9.640625 -10.28125 Z M 14.390625 0 C 14.304688 0 14.226562 -0.0195312 14.15625 -0.0625 C 14.226562 -0.0195312 14.304688 0 14.390625 0 Z M 14.390625 0 "/></g></g></g><g fill="#000000" fill-opacity="1"><g transform="translate(203.15275, 209.444221)"><g><path d="M 15.578125 -35.796875 C 15.617188 -35.597656 15.835938 -35.5 16.234375 -35.5 L 16.359375 -35.5 C 16.585938 -35.5 16.742188 -35.476562 16.828125 -35.4375 C 18.890625 -34.800781 20.941406 -33.878906 22.984375 -32.671875 C 25.023438 -31.460938 26.867188 -30.015625 28.515625 -28.328125 C 30.160156 -26.648438 31.488281 -24.738281 32.5 -22.59375 C 33.507812 -20.457031 34.015625 -18.160156 34.015625 -15.703125 C 34.015625 -13.554688 33.597656 -11.492188 32.765625 -9.515625 C 31.929688 -7.535156 30.78125 -5.8125 29.3125 -4.34375 C 30.820312 -5.644531 32.019531 -7.273438 32.90625 -9.234375 C 33.800781 -11.203125 34.25 -13.316406 34.25 -15.578125 C 34.25 -18.117188 33.710938 -20.488281 32.640625 -22.6875 C 31.578125 -24.882812 30.210938 -26.851562 28.546875 -28.59375 C 26.878906 -30.34375 25.023438 -31.84375 22.984375 -33.09375 C 20.941406 -34.34375 18.953125 -35.304688 17.015625 -35.984375 C 18.515625 -35.984375 20.046875 -35.644531 21.609375 -34.96875 C 23.179688 -34.289062 24.679688 -33.40625 26.109375 -32.3125 C 27.535156 -31.226562 28.851562 -29.984375 30.0625 -28.578125 C 31.269531 -27.171875 32.289062 -25.734375 33.125 -24.265625 L 32.703125 -23.671875 C 33.492188 -22.484375 34.097656 -21.191406 34.515625 -19.796875 C 34.929688 -18.410156 35.140625 -16.984375 35.140625 -15.515625 C 35.140625 -12.703125 34.535156 -10.234375 33.328125 -8.109375 C 32.117188 -5.992188 30.59375 -4.234375 28.75 -2.828125 C 26.90625 -1.421875 24.882812 -0.363281 22.6875 0.34375 C 20.488281 1.0625 18.414062 1.421875 16.46875 1.421875 C 15.363281 1.421875 14.242188 1.300781 13.109375 1.0625 C 11.984375 0.832031 10.84375 0.4375 9.6875 -0.125 L 9.6875 0.234375 C 10.800781 0.867188 11.941406 1.304688 13.109375 1.546875 C 14.273438 1.785156 15.4375 1.90625 16.59375 1.90625 C 19.445312 1.90625 22.25 1.28125 25 0.03125 C 27.757812 -1.21875 30.09375 -2.972656 32 -5.234375 C 30.175781 -2.890625 27.90625 -1.066406 25.1875 0.234375 C 22.46875 1.546875 19.640625 2.203125 16.703125 2.203125 C 13.691406 2.203125 11.253906 1.613281 9.390625 0.4375 C 7.523438 -0.726562 6.066406 -2.160156 5.015625 -3.859375 C 3.972656 -5.566406 3.269531 -7.367188 2.90625 -9.265625 C 2.550781 -11.171875 2.375 -12.878906 2.375 -14.390625 C 2.375 -16.410156 2.640625 -18.390625 3.171875 -20.328125 C 3.710938 -22.273438 4.535156 -24.0625 5.640625 -25.6875 C 6.753906 -27.3125 8.179688 -28.707031 9.921875 -29.875 C 11.671875 -31.050781 13.773438 -31.875 16.234375 -32.34375 L 14.515625 -32.765625 C 13.679688 -32.960938 13.082031 -33.195312 12.71875 -33.46875 C 12.363281 -33.75 12.1875 -33.988281 12.1875 -34.1875 C 12.1875 -34.507812 12.53125 -34.859375 13.21875 -35.234375 C 13.914062 -35.609375 14.703125 -35.796875 15.578125 -35.796875 Z M 12.90625 -28.3125 C 13.976562 -28.707031 15.007812 -28.90625 16 -28.90625 C 16.988281 -28.90625 17.75 -28.753906 18.28125 -28.453125 C 18.820312 -28.160156 19.09375 -27.851562 19.09375 -27.53125 C 19.09375 -27.332031 18.863281 -27.113281 18.40625 -26.875 C 17.945312 -26.632812 17.367188 -26.304688 16.671875 -25.890625 C 15.984375 -25.484375 15.234375 -24.960938 14.421875 -24.328125 C 13.609375 -23.691406 12.851562 -22.882812 12.15625 -21.90625 C 11.46875 -20.9375 10.894531 -19.757812 10.4375 -18.375 C 9.976562 -16.988281 9.75 -15.363281 9.75 -13.5 C 9.75 -10.757812 10.363281 -8.695312 11.59375 -7.3125 C 12.820312 -5.925781 14.523438 -5.234375 16.703125 -5.234375 C 18.097656 -5.234375 19.519531 -5.46875 20.96875 -5.9375 C 22.414062 -6.414062 23.722656 -7.09375 24.890625 -7.96875 C 26.054688 -8.84375 27.003906 -9.910156 27.734375 -11.171875 C 28.472656 -12.441406 28.84375 -13.875 28.84375 -15.46875 C 28.84375 -16.65625 28.632812 -17.84375 28.21875 -19.03125 C 27.800781 -20.21875 27.222656 -21.351562 26.484375 -22.4375 C 25.753906 -23.53125 24.882812 -24.550781 23.875 -25.5 C 22.863281 -26.457031 21.765625 -27.273438 20.578125 -27.953125 C 19.429688 -28.585938 18.488281 -29.070312 17.75 -29.40625 C 17.019531 -29.738281 16.492188 -30.066406 16.171875 -30.390625 C 15.859375 -30.234375 15.410156 -30.046875 14.828125 -29.828125 C 14.253906 -29.609375 13.492188 -29.28125 12.546875 -28.84375 Z M 16.890625 -31.109375 C 18.710938 -30.503906 20.457031 -29.609375 22.125 -28.421875 C 23.550781 -27.359375 24.859375 -26.191406 26.046875 -24.921875 C 24.898438 -26.265625 23.648438 -27.472656 22.296875 -28.546875 C 20.753906 -29.816406 19.03125 -30.804688 17.125 -31.515625 Z M 28.421875 -10.828125 C 27.828125 -9.554688 26.992188 -8.425781 25.921875 -7.4375 C 26.640625 -7.90625 27.242188 -8.476562 27.734375 -9.15625 C 28.234375 -9.832031 28.640625 -10.503906 28.953125 -11.171875 C 29.273438 -11.847656 29.515625 -12.46875 29.671875 -13.03125 C 29.796875 -13.539062 29.894531 -13.953125 29.96875 -14.265625 C 29.53125 -13.234375 29.015625 -12.085938 28.421875 -10.828125 Z M 32.40625 -5.703125 C 32.363281 -5.628906 32.304688 -5.550781 32.234375 -5.46875 C 32.191406 -5.425781 32.148438 -5.40625 32.109375 -5.40625 C 32.066406 -5.40625 32.164062 -5.613281 32.40625 -6.03125 C 32.644531 -6.445312 32.929688 -6.941406 33.265625 -7.515625 C 33.609375 -8.097656 33.9375 -8.707031 34.25 -9.34375 C 34.53125 -9.8125 34.726562 -10.222656 34.84375 -10.578125 C 34.289062 -8.878906 33.476562 -7.253906 32.40625 -5.703125 Z M 35.734375 -15.34375 C 35.734375 -14.707031 35.691406 -14.082031 35.609375 -13.46875 C 35.535156 -12.851562 35.398438 -12.289062 35.203125 -11.78125 C 35.484375 -12.769531 35.625 -13.878906 35.625 -15.109375 C 35.625 -16.015625 35.546875 -16.90625 35.390625 -17.78125 C 35.265625 -18.53125 35.101562 -19.265625 34.90625 -19.984375 C 35.101562 -19.265625 35.28125 -18.550781 35.4375 -17.84375 C 35.632812 -17.050781 35.734375 -16.21875 35.734375 -15.34375 Z M 16.890625 -32.046875 L 16.359375 -32.296875 C 16.316406 -32.210938 16.253906 -32.128906 16.171875 -32.046875 C 16.097656 -31.972656 16.0625 -31.894531 16.0625 -31.8125 C 16.0625 -31.738281 16.109375 -31.628906 16.203125 -31.484375 C 16.304688 -31.347656 16.394531 -31.238281 16.46875 -31.15625 Z M 26.40625 -24.5 C 26.28125 -24.65625 26.160156 -24.796875 26.046875 -24.921875 C 26.160156 -24.753906 26.28125 -24.613281 26.40625 -24.5 Z M 34.84375 -10.578125 C 34.882812 -10.660156 34.90625 -10.742188 34.90625 -10.828125 C 34.90625 -10.742188 34.882812 -10.660156 34.84375 -10.578125 Z M 34.96875 -10.9375 C 34.925781 -10.894531 34.90625 -10.859375 34.90625 -10.828125 C 34.90625 -10.859375 34.925781 -10.894531 34.96875 -10.9375 Z M 30.515625 -48.46875 C 30.796875 -47.832031 30.9375 -47.257812 30.9375 -46.75 C 30.9375 -45.789062 30.6875 -44.785156 30.1875 -43.734375 C 29.6875 -42.679688 29.179688 -41.703125 28.671875 -40.796875 L 27.953125 -40.734375 C 27.796875 -40.378906 27.554688 -39.992188 27.234375 -39.578125 C 26.921875 -39.160156 26.515625 -38.769531 26.015625 -38.40625 C 25.523438 -38.050781 24.921875 -37.753906 24.203125 -37.515625 C 23.492188 -37.285156 22.664062 -37.171875 21.71875 -37.171875 C 20.363281 -37.171875 19.257812 -37.347656 18.40625 -37.703125 C 17.5625 -38.054688 16.921875 -38.492188 16.484375 -39.015625 L 16.1875 -39.484375 C 15.664062 -40.003906 15.351562 -40.609375 15.25 -41.296875 C 15.15625 -41.992188 15.109375 -42.5625 15.109375 -43 L 15.109375 -44.296875 C 15.109375 -44.734375 15.085938 -45.050781 15.046875 -45.25 C 14.847656 -44.9375 14.707031 -44.609375 14.625 -44.265625 C 14.550781 -43.929688 14.515625 -43.328125 14.515625 -42.453125 C 14.515625 -42.054688 14.582031 -41.597656 14.71875 -41.078125 C 14.863281 -40.566406 15.171875 -39.957031 15.640625 -39.25 L 16.0625 -38.78125 C 16.738281 -37.976562 17.550781 -37.445312 18.5 -37.1875 C 19.445312 -36.9375 20.535156 -36.8125 21.765625 -36.8125 C 22.203125 -36.8125 22.640625 -36.847656 23.078125 -36.921875 C 23.515625 -37.003906 23.875 -37.066406 24.15625 -37.109375 C 23.832031 -36.992188 23.492188 -36.90625 23.140625 -36.84375 C 22.785156 -36.78125 22.390625 -36.726562 21.953125 -36.6875 C 21.078125 -36.6875 20.320312 -36.734375 19.6875 -36.828125 C 19.050781 -36.929688 18.492188 -37.070312 18.015625 -37.25 C 17.546875 -37.4375 17.128906 -37.65625 16.765625 -37.90625 C 16.410156 -38.164062 16.054688 -38.472656 15.703125 -38.828125 L 15.40625 -39.1875 C 14.894531 -39.707031 14.578125 -40.320312 14.453125 -41.03125 C 14.335938 -41.75 14.28125 -42.34375 14.28125 -42.8125 C 14.28125 -43.207031 14.289062 -43.550781 14.3125 -43.84375 C 14.332031 -44.144531 14.34375 -44.4375 14.34375 -44.71875 C 13.863281 -44.40625 13.425781 -44.078125 13.03125 -43.734375 C 12.632812 -43.398438 12.257812 -42.992188 11.90625 -42.515625 L 10.53125 -43.828125 C 10.53125 -44.179688 10.789062 -44.597656 11.3125 -45.078125 L 10.828125 -45.5 C 10.472656 -45.300781 10.125 -45.128906 9.78125 -44.984375 C 9.445312 -44.847656 9.125 -44.78125 8.8125 -44.78125 C 8.289062 -44.78125 7.878906 -44.945312 7.578125 -45.28125 C 7.285156 -45.625 7.140625 -45.953125 7.140625 -46.265625 L 7.5 -47.34375 C 7.738281 -48.050781 8.175781 -48.832031 8.8125 -49.6875 C 9.445312 -50.539062 10.316406 -51.320312 11.421875 -52.03125 C 12.535156 -52.75 13.960938 -53.109375 15.703125 -53.109375 C 17.054688 -53.109375 18.144531 -52.789062 18.96875 -52.15625 C 19.800781 -51.519531 20.4375 -50.796875 20.875 -49.984375 C 21.3125 -49.171875 21.597656 -48.367188 21.734375 -47.578125 C 21.878906 -46.785156 21.953125 -46.207031 21.953125 -45.84375 C 21.953125 -45.25 21.921875 -44.664062 21.859375 -44.09375 C 21.796875 -43.519531 21.75 -43.09375 21.71875 -42.8125 C 21.71875 -42.65625 21.816406 -42.578125 22.015625 -42.578125 C 22.523438 -42.578125 22.9375 -42.894531 23.25 -43.53125 C 23.570312 -44.164062 23.84375 -44.867188 24.0625 -45.640625 C 24.28125 -46.410156 24.46875 -47.125 24.625 -47.78125 C 24.78125 -48.4375 24.957031 -48.765625 25.15625 -48.765625 L 25.578125 -48.703125 C 25.460938 -47.953125 25.265625 -47.148438 24.984375 -46.296875 C 24.703125 -45.441406 24.375 -44.644531 24 -43.90625 C 23.625 -43.175781 23.238281 -42.5625 22.84375 -42.0625 C 22.445312 -41.570312 22.085938 -41.328125 21.765625 -41.328125 L 21.234375 -41.859375 C 21.273438 -41.742188 21.351562 -41.613281 21.46875 -41.46875 C 21.59375 -41.332031 21.691406 -41.265625 21.765625 -41.265625 C 22.128906 -41.265625 22.507812 -41.492188 22.90625 -41.953125 C 23.300781 -42.410156 23.695312 -42.992188 24.09375 -43.703125 C 24.488281 -44.421875 24.84375 -45.210938 25.15625 -46.078125 C 25.476562 -46.953125 25.71875 -47.804688 25.875 -48.640625 L 26.53125 -48.46875 C 26.570312 -48.46875 26.640625 -48.566406 26.734375 -48.765625 C 26.835938 -48.960938 26.96875 -49.179688 27.125 -49.421875 C 27.28125 -49.660156 27.46875 -49.878906 27.6875 -50.078125 C 27.90625 -50.273438 28.132812 -50.375 28.375 -50.375 C 28.726562 -50.375 29.039062 -50.234375 29.3125 -49.953125 C 29.59375 -49.671875 29.875 -49.375 30.15625 -49.0625 C 29.84375 -48.070312 29.59375 -47.195312 29.40625 -46.4375 C 29.226562 -45.6875 28.960938 -44.796875 28.609375 -43.765625 C 28.492188 -43.566406 28.296875 -43.171875 28.015625 -42.578125 C 27.734375 -41.984375 27.316406 -41.367188 26.765625 -40.734375 C 26.210938 -40.097656 25.507812 -39.519531 24.65625 -39 C 23.800781 -38.488281 22.757812 -38.234375 21.53125 -38.234375 C 20.539062 -38.234375 19.695312 -38.300781 19 -38.4375 C 18.3125 -38.582031 17.726562 -38.894531 17.25 -39.375 L 16.890625 -39.78125 C 17.328125 -38.945312 18.03125 -38.453125 19 -38.296875 C 19.976562 -38.140625 20.921875 -38.0625 21.828125 -38.0625 C 22.898438 -38.0625 23.867188 -38.328125 24.734375 -38.859375 C 25.609375 -39.398438 26.375 -40.082031 27.03125 -40.90625 C 27.6875 -41.738281 28.242188 -42.628906 28.703125 -43.578125 C 29.160156 -44.535156 29.523438 -45.429688 29.796875 -46.265625 Z M 25.703125 -37.703125 C 26.171875 -38.097656 26.601562 -38.4375 27 -38.71875 C 27.394531 -38.988281 27.710938 -39.285156 27.953125 -39.609375 C 27.441406 -38.929688 26.691406 -38.296875 25.703125 -37.703125 Z M 25.703125 -37.703125 "/></g></g></g><g fill="#000000" fill-opacity="1"><g transform="translate(241.273255, 209.444221)"><g><path d="M 24.625 1.078125 C 23.113281 1.585938 21.960938 1.867188 21.171875 1.921875 C 20.378906 1.984375 19.6875 2.035156 19.09375 2.078125 C 16.875 2.078125 14.867188 1.660156 13.078125 0.828125 C 11.296875 -0.00390625 9.769531 -1.132812 8.5 -2.5625 C 7.226562 -3.988281 6.242188 -5.660156 5.546875 -7.578125 C 4.859375 -9.503906 4.515625 -11.554688 4.515625 -13.734375 C 4.515625 -15.003906 4.632812 -16.320312 4.875 -17.6875 C 5.113281 -19.0625 5.46875 -20.410156 5.9375 -21.734375 C 6.414062 -23.066406 7.035156 -24.304688 7.796875 -25.453125 C 8.503906 -26.597656 9.351562 -27.628906 10.34375 -28.546875 C 9.3125 -27.710938 8.441406 -26.722656 7.734375 -25.578125 C 6.972656 -24.421875 6.335938 -23.175781 5.828125 -21.84375 C 5.316406 -20.519531 4.941406 -19.15625 4.703125 -17.75 C 4.460938 -16.34375 4.34375 -14.984375 4.34375 -13.671875 C 4.34375 -12.015625 4.609375 -10.242188 5.140625 -8.359375 C 5.679688 -6.472656 6.546875 -4.726562 7.734375 -3.125 C 8.921875 -1.519531 10.457031 -0.179688 12.34375 0.890625 C 14.226562 1.960938 16.515625 2.5 19.203125 2.5 C 20.472656 2.5 21.800781 2.320312 23.1875 1.96875 C 21.6875 2.957031 20.003906 3.453125 18.140625 3.453125 C 16.628906 3.453125 15.207031 3.222656 13.875 2.765625 C 12.550781 2.304688 11.320312 1.671875 10.1875 0.859375 C 9.0625 0.046875 8.039062 -0.910156 7.125 -2.015625 C 6.21875 -3.128906 5.445312 -4.320312 4.8125 -5.59375 L 5.359375 -6.0625 C 4.679688 -7.414062 4.191406 -8.765625 3.890625 -10.109375 C 3.597656 -11.453125 3.453125 -12.820312 3.453125 -14.21875 C 3.453125 -16.238281 3.738281 -18.179688 4.3125 -20.046875 C 4.882812 -21.910156 5.644531 -23.671875 6.59375 -25.328125 L 8.03125 -27.296875 C 8.269531 -27.734375 8.613281 -28.171875 9.0625 -28.609375 C 9.519531 -29.046875 10.023438 -29.46875 10.578125 -29.875 C 11.140625 -30.289062 11.726562 -30.664062 12.34375 -31 C 12.957031 -31.34375 13.539062 -31.65625 14.09375 -31.9375 C 15.519531 -32.644531 16.945312 -33.285156 18.375 -33.859375 C 19.800781 -34.441406 21.46875 -34.867188 23.375 -35.140625 L 23.140625 -35.328125 C 19.484375 -34.972656 16.382812 -34.085938 13.84375 -32.671875 C 11.3125 -31.265625 9.253906 -29.550781 7.671875 -27.53125 C 6.085938 -25.507812 4.9375 -23.300781 4.21875 -20.90625 C 3.507812 -18.507812 3.15625 -16.160156 3.15625 -13.859375 C 3.15625 -12.628906 3.265625 -11.390625 3.484375 -10.140625 C 3.703125 -8.890625 4.023438 -7.648438 4.453125 -6.421875 C 3.460938 -8.796875 2.96875 -11.3125 2.96875 -13.96875 C 2.96875 -16.59375 3.40625 -19.191406 4.28125 -21.765625 C 5.15625 -24.335938 6.523438 -26.71875 8.390625 -28.90625 C 10.765625 -31.082031 13.359375 -32.753906 16.171875 -33.921875 C 18.984375 -35.097656 21.703125 -35.6875 24.328125 -35.6875 C 25.160156 -35.6875 26.007812 -35.546875 26.875 -35.265625 C 27.75 -34.984375 28.539062 -34.554688 29.25 -33.984375 C 29.96875 -33.410156 30.554688 -32.664062 31.015625 -31.75 C 31.472656 -30.84375 31.703125 -29.734375 31.703125 -28.421875 C 31.703125 -27.359375 31.441406 -26.050781 30.921875 -24.5 C 30.410156 -22.957031 29.648438 -21.460938 28.640625 -20.015625 C 27.628906 -18.566406 26.367188 -17.335938 24.859375 -16.328125 C 23.347656 -15.316406 21.601562 -14.8125 19.625 -14.8125 L 17.65625 -14.8125 C 16.195312 -15.125 14.859375 -15.488281 13.640625 -15.90625 C 12.429688 -16.320312 11.296875 -16.648438 10.234375 -16.890625 C 10.066406 -16.253906 9.972656 -15.648438 9.953125 -15.078125 C 9.941406 -14.503906 9.9375 -13.9375 9.9375 -13.375 C 9.9375 -12.226562 10.0625 -11.109375 10.3125 -10.015625 C 10.570312 -8.929688 10.976562 -7.929688 11.53125 -7.015625 C 12.09375 -6.109375 12.796875 -5.347656 13.640625 -4.734375 C 14.492188 -4.117188 15.535156 -3.726562 16.765625 -3.5625 C 17.523438 -3.40625 18.179688 -3.316406 18.734375 -3.296875 C 19.285156 -3.273438 19.75 -3.253906 20.125 -3.234375 C 20.5 -3.222656 20.773438 -3.164062 20.953125 -3.0625 C 21.140625 -2.957031 21.234375 -2.769531 21.234375 -2.5 C 20.835938 -2.375 20.429688 -2.289062 20.015625 -2.25 C 19.597656 -2.21875 19.171875 -2.203125 18.734375 -2.203125 C 17.347656 -2.203125 16.097656 -2.425781 14.984375 -2.875 C 13.878906 -3.332031 12.925781 -3.859375 12.125 -4.453125 C 13.039062 -3.546875 14.132812 -2.90625 15.40625 -2.53125 C 16.675781 -2.15625 17.925781 -1.96875 19.15625 -1.96875 C 19.820312 -1.96875 20.515625 -2.023438 21.234375 -2.140625 C 21.148438 -1.898438 21.109375 -1.757812 21.109375 -1.71875 C 21.109375 -1.488281 21.207031 -1.332031 21.40625 -1.25 C 21.5625 -1.289062 21.835938 -1.398438 22.234375 -1.578125 C 22.640625 -1.753906 23.046875 -1.929688 23.453125 -2.109375 C 23.867188 -2.285156 24.273438 -2.441406 24.671875 -2.578125 C 25.078125 -2.722656 25.359375 -2.796875 25.515625 -2.796875 C 25.710938 -2.796875 25.890625 -2.765625 26.046875 -2.703125 C 26.203125 -2.640625 26.28125 -2.410156 26.28125 -2.015625 C 26.28125 -1.617188 26.140625 -1.144531 25.859375 -0.59375 C 25.585938 -0.0390625 25.175781 0.515625 24.625 1.078125 Z M 16.40625 -22.484375 L 17.71875 -22.234375 C 18.15625 -22.160156 18.550781 -22.125 18.90625 -22.125 C 19.300781 -22.125 19.765625 -22.25 20.296875 -22.5 C 20.835938 -22.757812 21.375 -23.128906 21.90625 -23.609375 C 22.445312 -24.085938 22.925781 -24.679688 23.34375 -25.390625 C 23.757812 -26.109375 24.066406 -26.921875 24.265625 -27.828125 L 24.375 -28.1875 C 23.820312 -28.1875 22.988281 -28.046875 21.875 -27.765625 C 20.769531 -27.492188 19.625 -27.128906 18.4375 -26.671875 C 17.25 -26.210938 16.140625 -25.675781 15.109375 -25.0625 C 14.078125 -24.445312 13.363281 -23.785156 12.96875 -23.078125 C 13.5625 -22.953125 14.144531 -22.835938 14.71875 -22.734375 C 15.289062 -22.640625 15.851562 -22.554688 16.40625 -22.484375 Z M 13.671875 -18.078125 C 13.753906 -18.160156 13.804688 -18.28125 13.828125 -18.4375 C 13.847656 -18.59375 13.859375 -18.710938 13.859375 -18.796875 L 11.0625 -19.796875 L 10.765625 -18.96875 Z M 12.015625 -4.578125 C 11.734375 -4.898438 11.457031 -5.21875 11.1875 -5.53125 C 10.945312 -5.8125 10.742188 -6.085938 10.578125 -6.359375 C 10.941406 -5.691406 11.421875 -5.097656 12.015625 -4.578125 Z M 12.015625 -4.578125 "/></g></g></g><g fill="#000000" fill-opacity="1"><g transform="translate(275.349765, 209.444221)"><g><path d="M 7.90625 -9.578125 C 8.539062 -9.378906 9.300781 -9.019531 10.1875 -8.5 C 11.082031 -7.988281 12.082031 -7.453125 13.1875 -6.890625 C 14.300781 -6.335938 15.523438 -5.84375 16.859375 -5.40625 C 18.191406 -4.96875 19.609375 -4.75 21.109375 -4.75 L 21.765625 -4.75 C 22.003906 -4.75 22.28125 -4.789062 22.59375 -4.875 L 23.25 -4.40625 C 24.800781 -4.875 26.070312 -5.769531 27.0625 -7.09375 C 28.050781 -8.425781 28.546875 -10.222656 28.546875 -12.484375 C 28.546875 -14.109375 28.15625 -15.226562 27.375 -15.84375 C 26.601562 -16.457031 25.191406 -16.765625 23.140625 -16.765625 C 21.867188 -16.765625 20.546875 -16.675781 19.171875 -16.5 C 17.804688 -16.320312 16.367188 -16.234375 14.859375 -16.234375 C 14.191406 -16.234375 13.5 -16.257812 12.78125 -16.3125 C 12.070312 -16.375 11.335938 -16.503906 10.578125 -16.703125 L 10.578125 -16.359375 C 12.171875 -15.960938 13.738281 -15.765625 15.28125 -15.765625 C 16.789062 -15.765625 18.226562 -15.851562 19.59375 -16.03125 C 20.957031 -16.207031 22.273438 -16.296875 23.546875 -16.296875 C 24.617188 -16.296875 25.460938 -16.1875 26.078125 -15.96875 C 26.691406 -15.75 27.15625 -15.457031 27.46875 -15.09375 C 27.789062 -14.738281 28 -14.3125 28.09375 -13.8125 C 28.195312 -13.320312 28.25 -12.78125 28.25 -12.1875 C 28.25 -10.320312 27.753906 -8.738281 26.765625 -7.4375 C 25.804688 -6.207031 24.675781 -5.429688 23.375 -5.109375 C 24.84375 -5.628906 25.992188 -6.523438 26.828125 -7.796875 C 27.691406 -9.140625 28.125 -10.644531 28.125 -12.3125 C 28.125 -13.5 27.816406 -14.410156 27.203125 -15.046875 C 26.585938 -15.679688 25.53125 -16 24.03125 -16 C 22.800781 -16 21.410156 -15.914062 19.859375 -15.75 C 18.316406 -15.59375 16.671875 -15.515625 14.921875 -15.515625 C 13.859375 -15.515625 12.617188 -15.65625 11.203125 -15.9375 C 9.796875 -16.21875 8.457031 -16.734375 7.1875 -17.484375 C 5.925781 -18.234375 4.859375 -19.269531 3.984375 -20.59375 C 3.109375 -21.925781 2.671875 -23.664062 2.671875 -25.8125 C 2.671875 -27.507812 3.015625 -29.082031 3.703125 -30.53125 C 4.398438 -31.976562 5.320312 -33.25 6.46875 -34.34375 C 7.625 -35.4375 8.945312 -36.296875 10.4375 -36.921875 C 11.925781 -37.554688 13.460938 -37.894531 15.046875 -37.9375 C 16.554688 -37.9375 17.992188 -37.726562 19.359375 -37.3125 C 20.722656 -36.894531 22.019531 -36.359375 23.25 -35.703125 C 24.476562 -35.054688 25.644531 -34.332031 26.75 -33.53125 C 27.863281 -32.738281 28.898438 -31.945312 29.859375 -31.15625 L 28.65625 -29.96875 C 28.382812 -29.96875 27.96875 -30.132812 27.40625 -30.46875 C 26.851562 -30.8125 26.003906 -31.398438 24.859375 -32.234375 L 24.5 -31.703125 C 25.925781 -30.546875 26.96875 -29.472656 27.625 -28.484375 C 28.28125 -27.492188 28.609375 -26.722656 28.609375 -26.171875 C 28.523438 -25.847656 28.328125 -25.6875 28.015625 -25.6875 C 27.691406 -25.6875 27.050781 -25.941406 26.09375 -26.453125 C 25.144531 -26.972656 24.066406 -27.550781 22.859375 -28.1875 C 21.648438 -28.820312 20.375 -29.394531 19.03125 -29.90625 C 17.6875 -30.425781 16.457031 -30.6875 15.34375 -30.6875 C 14.707031 -30.6875 14.070312 -30.566406 13.4375 -30.328125 C 12.800781 -30.085938 12.222656 -29.757812 11.703125 -29.34375 C 11.191406 -28.925781 10.769531 -28.421875 10.4375 -27.828125 C 10.101562 -27.234375 9.9375 -26.582031 9.9375 -25.875 C 9.9375 -24.71875 10.46875 -23.941406 11.53125 -23.546875 C 12.601562 -23.148438 14.015625 -22.953125 15.765625 -22.953125 C 16.117188 -22.953125 16.503906 -22.960938 16.921875 -22.984375 C 17.335938 -23.003906 17.722656 -23.054688 18.078125 -23.140625 C 18.992188 -23.140625 19.597656 -23.164062 19.890625 -23.21875 C 20.191406 -23.28125 20.476562 -23.3125 20.75 -23.3125 C 22.457031 -23.3125 24.160156 -23.191406 25.859375 -22.953125 C 27.566406 -22.710938 29.09375 -22.195312 30.4375 -21.40625 C 31.789062 -20.613281 32.882812 -19.484375 33.71875 -18.015625 C 34.550781 -16.546875 34.96875 -14.582031 34.96875 -12.125 C 34.96875 -10.425781 34.679688 -8.734375 34.109375 -7.046875 C 33.535156 -5.359375 32.671875 -3.847656 31.515625 -2.515625 C 30.367188 -1.191406 28.941406 -0.125 27.234375 0.6875 C 25.523438 1.5 23.523438 1.90625 21.234375 1.90625 C 19.847656 1.90625 18.210938 1.632812 16.328125 1.09375 C 14.441406 0.5625 12.65625 -0.0664062 10.96875 -0.796875 C 9.28125 -1.535156 7.851562 -2.300781 6.6875 -3.09375 C 5.519531 -3.882812 4.9375 -4.554688 4.9375 -5.109375 C 4.9375 -5.273438 5.035156 -5.394531 5.234375 -5.46875 C 7.648438 -3.6875 10.109375 -2.222656 12.609375 -1.078125 C 15.066406 -0.00390625 17.582031 0.59375 20.15625 0.71875 C 18.882812 0.632812 17.617188 0.414062 16.359375 0.0625 C 15.046875 -0.332031 13.742188 -0.816406 12.453125 -1.390625 C 11.171875 -1.972656 9.941406 -2.628906 8.765625 -3.359375 C 7.597656 -4.085938 6.476562 -4.832031 5.40625 -5.59375 L 6.296875 -6.359375 C 6.179688 -6.398438 5.960938 -6.539062 5.640625 -6.78125 C 5.328125 -7.019531 5.019531 -7.316406 4.71875 -7.671875 C 4.425781 -8.023438 4.160156 -8.398438 3.921875 -8.796875 C 3.679688 -9.191406 3.5625 -9.570312 3.5625 -9.9375 C 3.5625 -10.332031 3.640625 -10.585938 3.796875 -10.703125 C 3.960938 -10.816406 4.144531 -10.875 4.34375 -10.875 C 4.539062 -10.875 4.957031 -10.734375 5.59375 -10.453125 C 6.226562 -10.179688 7 -9.890625 7.90625 -9.578125 Z M 21.046875 -3.515625 C 19.660156 -3.515625 18.125 -3.800781 16.4375 -4.375 C 14.757812 -4.945312 13.164062 -5.6875 11.65625 -6.59375 C 12.882812 -5.769531 14.25 -5.03125 15.75 -4.375 C 17.257812 -3.71875 19.007812 -3.390625 21 -3.390625 C 23.65625 -3.390625 25.765625 -4.203125 27.328125 -5.828125 C 28.890625 -7.453125 29.671875 -9.632812 29.671875 -12.375 L 29.671875 -12.96875 C 29.472656 -14.226562 29.046875 -15.265625 28.390625 -16.078125 C 27.742188 -16.898438 26.742188 -17.347656 25.390625 -17.421875 C 26.222656 -17.265625 26.90625 -17.003906 27.4375 -16.640625 C 27.976562 -16.285156 28.394531 -15.859375 28.6875 -15.359375 C 28.988281 -14.867188 29.195312 -14.328125 29.3125 -13.734375 C 29.4375 -13.140625 29.5 -12.523438 29.5 -11.890625 C 29.34375 -9.273438 28.507812 -7.222656 27 -5.734375 C 25.488281 -4.253906 23.503906 -3.515625 21.046875 -3.515625 Z M 28.609375 -1.1875 C 29.597656 -1.820312 30.390625 -2.59375 30.984375 -3.5 C 31.578125 -4.414062 32.09375 -5.367188 32.53125 -6.359375 C 31.695312 -4.691406 30.554688 -3.222656 29.109375 -1.953125 C 27.660156 -0.691406 25.945312 0.0976562 23.96875 0.421875 C 24.71875 0.296875 25.5 0.125 26.3125 -0.09375 C 27.125 -0.3125 27.890625 -0.675781 28.609375 -1.1875 Z M 34.25 -12.375 C 34.25 -12.8125 34.171875 -13.226562 34.015625 -13.625 C 33.898438 -13.9375 33.800781 -14.269531 33.71875 -14.625 L 33.78125 -13.859375 C 33.820312 -13.535156 33.84375 -13.097656 33.84375 -12.546875 C 33.84375 -11.472656 33.722656 -10.441406 33.484375 -9.453125 C 33.242188 -8.460938 32.945312 -7.492188 32.59375 -6.546875 C 32.945312 -7.410156 33.289062 -8.328125 33.625 -9.296875 C 33.96875 -10.273438 34.175781 -11.300781 34.25 -12.375 Z M 33.71875 -14.8125 C 33.71875 -14.769531 33.71875 -14.707031 33.71875 -14.625 C 33.71875 -14.707031 33.71875 -14.769531 33.71875 -14.8125 Z M 23.3125 -5.0625 C 23.269531 -5.0625 23.226562 -5.0625 23.1875 -5.0625 C 23.226562 -5.0625 23.269531 -5.0625 23.3125 -5.0625 Z M 23.3125 -5.0625 "/></g></g></g><g clip-path="url(#ea282395ca)"><g clip-path="url(#0e5059ccb7)"><g clip-path="url(#b4e610ed3f)"><path fill="#fbc532" d="M 144.277344 86.804688 C 123.914062 99.816406 109.457031 119.769531 97.867188 140.613281 C 87.660156 159.015625 79.957031 179.070312 78.417969 200.183594 C 77.644531 210.410156 77.667969 221.597656 80.964844 231.367188 C 84.246094 241.09375 89.992188 249.9375 97.328125 257.121094 C 104.714844 264.4375 113.953125 270.089844 123.878906 273.117188 C 135.109375 276.59375 146.847656 276.339844 158.523438 276.316406 C 185.035156 276.226562 211.105469 281.9375 237.691406 282.023438 C 261.199219 282.117188 285.859375 276.890625 303.445312 260.136719 C 320.195312 244.125 324.199219 220.847656 319.863281 198.761719 C 314.832031 173.53125 300.34375 151.171875 282.535156 132.949219 C 273.640625 123.785156 263.832031 115.546875 253.6875 107.75 C 243.640625 100.070312 233.441406 92.394531 222.6875 85.765625 C 212.949219 79.75 202.484375 75.25 190.96875 74.390625 C 180.027344 73.5625 168.914062 75.507812 158.675781 79.503906 C 153.582031 81.496094 148.800781 84.023438 144.277344 86.804688 " fill-opacity="1" fill-rule="nonzero"/></g></g></g></svg>