<svg xmlns="http://www.w3.org/2000/svg" xmlns:xlink="http://www.w3.org/1999/xlink" width="329" zoomAndPan="magnify" viewBox="0 0 246.75 237.75" height="317" preserveAspectRatio="xMidYMid meet" version="1.0"><defs><clipPath id="a5019cb729"><path d="M 79.8125 82.503906 L 96 82.503906 L 96 94 L 79.8125 94 Z M 79.8125 82.503906 " clip-rule="nonzero"/></clipPath><clipPath id="284ab9ef83"><path d="M 107 82.503906 L 123.3125 82.503906 L 123.3125 94 L 107 94 Z M 107 82.503906 " clip-rule="nonzero"/></clipPath><clipPath id="a01e26f960"><path d="M 101 93 L 123.3125 93 L 123.3125 119.25 L 101 119.25 Z M 101 93 " clip-rule="nonzero"/></clipPath><clipPath id="1d4d96c6ba"><path d="M 79.8125 82.503906 L 112 82.503906 L 112 119.25 L 79.8125 119.25 Z M 79.8125 82.503906 " clip-rule="nonzero"/></clipPath><clipPath id="12fdbb8b6a"><path d="M 91 93 L 112 93 L 112 119.25 L 91 119.25 Z M 91 93 " clip-rule="nonzero"/></clipPath><clipPath id="616551718c"><path d="M 48.695312 37.984375 L 209.113281 37.984375 L 209.113281 199.972656 L 48.695312 199.972656 Z M 48.695312 37.984375 " clip-rule="nonzero"/></clipPath><clipPath id="e587fbc9c3"><path d="M 38.136719 37.984375 L 181 37.984375 L 181 129 L 38.136719 129 Z M 38.136719 37.984375 " clip-rule="nonzero"/></clipPath><clipPath id="f316b89363"><path d="M 38.136719 127 L 52 127 L 52 156 L 38.136719 156 Z M 38.136719 127 " clip-rule="nonzero"/></clipPath><clipPath id="f6478cf9ff"><path d="M 46.273438 99.660156 L 193 99.660156 L 193 199.972656 L 46.273438 199.972656 Z M 46.273438 99.660156 " clip-rule="nonzero"/></clipPath></defs><g clip-path="url(#a5019cb729)"><path fill="#bdddf4" d="M 95.527344 82.503906 L 88.28125 82.503906 L 79.828125 93.527344 L 91.902344 93.527344 Z M 95.527344 82.503906 " fill-opacity="1" fill-rule="nonzero"/></g><g clip-path="url(#284ab9ef83)"><path fill="#5dadec" d="M 123.296875 93.527344 L 114.847656 82.503906 L 107.601562 82.503906 L 111.222656 93.527344 Z M 123.296875 93.527344 " fill-opacity="1" fill-rule="nonzero"/></g><g clip-path="url(#a01e26f960)"><path fill="#4289c1" d="M 111.222656 93.527344 L 123.296875 93.527344 L 101.5625 119.25 Z M 111.222656 93.527344 " fill-opacity="1" fill-rule="nonzero"/></g><g clip-path="url(#1d4d96c6ba)"><path fill="#8ccaf7" d="M 91.902344 93.527344 L 79.828125 93.527344 L 101.5625 119.25 Z M 95.527344 82.503906 L 91.902344 93.527344 L 111.222656 93.527344 L 107.601562 82.503906 Z M 95.527344 82.503906 " fill-opacity="1" fill-rule="nonzero"/></g><g clip-path="url(#12fdbb8b6a)"><path fill="#5dadec" d="M 101.5625 119.25 L 91.902344 93.527344 L 111.222656 93.527344 Z M 101.5625 119.25 " fill-opacity="1" fill-rule="nonzero"/></g><g clip-path="url(#616551718c)"><path fill="#ce7d55" d="M 128.960938 37.984375 C 84.761719 37.984375 48.800781 74.324219 48.800781 118.980469 C 48.800781 163.640625 84.761719 199.972656 128.960938 199.972656 C 173.160156 199.972656 209.113281 163.640625 209.113281 118.980469 C 209.113281 74.324219 173.160156 37.984375 128.960938 37.984375 " fill-opacity="1" fill-rule="nonzero"/></g><path fill="#eab18b" d="M 205.117188 119.730469 C 205.117188 163.007812 171.582031 198.09375 130.214844 198.09375 C 88.84375 198.09375 55.3125 163.007812 55.3125 119.730469 C 55.3125 76.453125 88.84375 41.367188 130.214844 41.367188 C 171.582031 41.367188 205.117188 76.453125 205.117188 119.730469 " fill-opacity="1" fill-rule="nonzero"/><path fill="#b76342" d="M 84.878906 182.097656 C 97.464844 192.128906 113.167969 198.09375 130.214844 198.09375 C 145.976562 198.09375 160.597656 193 172.664062 184.300781 C 143.476562 184.664062 114.386719 184.878906 84.878906 182.097656 " fill-opacity="1" fill-rule="nonzero"/><path fill="#c4734e" d="M 199.785156 148.820312 L 60.644531 148.820312 C 65.722656 162.09375 74.171875 173.5625 84.878906 182.097656 C 114.386719 184.878906 143.476562 184.664062 172.664062 184.300781 C 184.746094 175.59375 194.257812 163.265625 199.785156 148.820312 " fill-opacity="1" fill-rule="nonzero"/><path fill="#ce7d55" d="M 55.3125 119.730469 C 55.3125 130.011719 57.207031 139.824219 60.644531 148.820312 L 199.785156 148.820312 C 203.21875 139.824219 205.117188 130.011719 205.117188 119.730469 C 205.117188 115.542969 204.800781 111.433594 204.191406 107.425781 L 56.234375 107.425781 C 55.628906 111.433594 55.3125 115.542969 55.3125 119.730469 " fill-opacity="1" fill-rule="nonzero"/><path fill="#d69e78" d="M 56.234375 107.425781 L 204.191406 107.425781 C 202.679688 92.738281 194.867188 77.914062 186.296875 67.792969 L 74.136719 67.792969 C 65.5625 77.914062 58.027344 90.785156 56.234375 107.425781 " fill-opacity="1" fill-rule="nonzero"/><path fill="#db9667" d="M 190.472656 118.980469 C 190.472656 162.261719 156.9375 197.34375 115.570312 197.34375 C 74.203125 197.34375 40.667969 162.261719 40.667969 118.980469 C 40.667969 75.699219 74.203125 40.617188 115.570312 40.617188 C 156.9375 40.617188 190.472656 75.699219 190.472656 118.980469 " fill-opacity="1" fill-rule="nonzero"/><path fill="#e0a780" d="M 190.1875 116.707031 C 190.1875 97.246094 183.402344 79.445312 172.175781 65.746094 C 138.859375 80.660156 73.578125 111.152344 40.957031 126.433594 C 43.316406 146.386719 52.851562 164.011719 66.765625 176.40625 L 189.277344 128.929688 C 189.871094 124.945312 190.1875 120.863281 190.1875 116.707031 " fill-opacity="1" fill-rule="nonzero"/><g clip-path="url(#e587fbc9c3)"><path fill="#d89c73" d="M 43.183594 118.980469 C 43.183594 77.21875 75.65625 43.246094 115.570312 43.246094 C 140.132812 43.246094 161.871094 56.113281 174.964844 75.738281 C 176.871094 75.597656 178.765625 75.410156 180.65625 75.175781 C 166.863281 52.820312 142.839844 37.984375 115.570312 37.984375 C 72.882812 37.984375 38.152344 74.324219 38.152344 118.980469 C 38.152344 122.289062 38.351562 125.554688 38.71875 128.765625 C 40.363281 128.375 42.007812 127.960938 43.644531 127.527344 C 43.339844 124.722656 43.183594 121.867188 43.183594 118.980469 " fill-opacity="1" fill-rule="nonzero"/></g><g clip-path="url(#f316b89363)"><path fill="#eab18b" d="M 43.644531 127.527344 C 42.007812 127.960938 40.363281 128.375 38.71875 128.765625 C 39.800781 138.105469 42.40625 146.964844 46.273438 155.054688 C 47.921875 154.542969 49.570312 154.054688 51.21875 153.625 C 47.273438 145.640625 44.648438 136.835938 43.644531 127.527344 " fill-opacity="1" fill-rule="nonzero"/></g><g clip-path="url(#f6478cf9ff)"><path fill="#d39266" d="M 190.761719 99.730469 C 189.046875 99.820312 187.335938 99.90625 185.636719 99.976562 C 187.144531 106.054688 187.960938 112.414062 187.960938 118.980469 C 187.960938 160.742188 155.488281 194.714844 115.570312 194.714844 C 87.582031 194.714844 63.253906 178.007812 51.21875 153.625 C 49.570312 154.054688 47.921875 154.542969 46.273438 155.054688 C 58.972656 181.65625 85.261719 199.972656 115.570312 199.972656 C 158.257812 199.972656 192.984375 163.640625 192.984375 118.980469 C 192.984375 112.347656 192.207031 105.90625 190.761719 99.730469 " fill-opacity="1" fill-rule="nonzero"/></g><path fill="#eab18b" d="M 174.964844 75.738281 C 179.808594 82.996094 183.453125 91.179688 185.636719 99.976562 C 187.335938 99.90625 189.046875 99.820312 190.761719 99.730469 C 188.695312 90.894531 185.246094 82.613281 180.65625 75.175781 C 178.765625 75.410156 176.871094 75.597656 174.964844 75.738281 " fill-opacity="1" fill-rule="nonzero"/><path fill="#ce7d55" d="M 113.53125 61.40625 L 119.5625 61.40625 L 119.5625 70.496094 C 125.609375 70.914062 130.742188 72.105469 134.953125 74.0625 C 138.640625 75.785156 141.515625 78.054688 143.570312 80.878906 C 145.625 83.699219 146.65625 86.785156 146.65625 90.140625 C 146.65625 93.308594 145.625 95.871094 143.570312 97.828125 C 141.515625 99.789062 138.828125 100.769531 135.519531 100.769531 C 132.542969 100.769531 130.058594 99.8125 128.070312 97.898438 C 126.085938 95.988281 125.09375 93.589844 125.09375 90.699219 C 125.09375 88.652344 125.585938 86.828125 126.582031 85.246094 L 128.070312 82.871094 C 128.546875 82.125 128.757812 81.589844 128.710938 81.257812 C 128.613281 80.332031 127.644531 79.503906 125.804688 78.78125 C 123.957031 78.054688 121.875 77.699219 119.5625 77.699219 L 119.5625 97.128906 L 113.53125 93.914062 L 113.53125 78.183594 C 111.589844 78.605469 110.03125 79.28125 108.847656 80.214844 C 106.296875 82.214844 105.019531 84.828125 105.019531 88.042969 C 105.019531 91.492188 106.742188 94.5 110.199219 97.0625 C 112.515625 98.835938 117.453125 101.441406 125.019531 104.890625 C 130.460938 107.363281 134.398438 109.34375 136.832031 110.835938 C 139.265625 112.328125 141.382812 114.050781 143.179688 116.007812 C 145.40625 118.339844 147.128906 121.242188 148.355469 124.714844 C 149.585938 128.1875 150.203125 131.925781 150.203125 135.933594 C 150.203125 140.828125 149.199219 145.316406 147.191406 149.390625 C 145.175781 153.46875 142.28125 156.90625 138.5 159.703125 C 133.769531 163.152344 127.457031 165.273438 119.5625 166.066406 L 119.5625 176.550781 L 113.53125 176.550781 L 113.53125 166.066406 C 107.097656 165.691406 101.542969 164.34375 96.859375 162.011719 C 93.035156 160.101562 90.027344 157.605469 87.851562 154.53125 C 85.675781 151.453125 84.59375 148.167969 84.59375 144.671875 C 84.59375 141.222656 85.726562 138.335938 87.996094 136.003906 C 90.265625 133.671875 93.078125 132.507812 96.433594 132.507812 C 99.417969 132.507812 101.980469 133.605469 104.132812 135.792969 C 106.285156 137.984375 107.359375 140.597656 107.359375 143.625 C 107.359375 145.488281 106.886719 147.269531 105.941406 148.972656 C 104.996094 150.671875 103.765625 151.921875 102.25 152.710938 C 101.070312 153.320312 100.503906 153.855469 100.550781 154.320312 C 100.59375 154.785156 101.136719 155.347656 102.183594 156 C 103.21875 156.652344 104.5 157.238281 106.011719 157.746094 C 108.609375 158.632812 111.117188 159.078125 113.53125 159.078125 L 113.53125 137.191406 L 119.5625 139.988281 L 119.5625 159.003906 C 122.207031 158.773438 124.40625 158.144531 126.15625 157.117188 C 128.046875 156.046875 129.535156 154.648438 130.628906 152.921875 C 131.714844 151.199219 132.257812 149.382812 132.257812 147.46875 C 132.257812 145.511719 131.804688 143.789062 130.910156 142.292969 C 130.007812 140.804688 128.59375 139.359375 126.652344 137.960938 C 125.519531 137.21875 124.136719 136.421875 122.503906 135.585938 C 120.871094 134.746094 117.789062 133.253906 113.246094 131.109375 C 107.617188 128.5 103.390625 126.265625 100.550781 124.398438 C 97.710938 122.535156 95.324219 120.414062 93.386719 118.035156 C 89.175781 112.953125 87.070312 106.964844 87.070312 100.070312 C 87.070312 94.890625 88.363281 90.070312 90.941406 85.597656 C 93.515625 81.121094 97.050781 77.558594 101.542969 74.902344 C 105.136719 72.753906 109.132812 71.355469 113.53125 70.707031 L 113.53125 61.40625 " fill-opacity="1" fill-rule="nonzero"/><path fill="#b76342" d="M 128.761719 81.257812 C 128.808594 81.589844 128.59375 82.125 128.125 82.871094 L 126.632812 85.246094 C 125.640625 86.828125 125.144531 88.652344 125.144531 90.699219 C 125.144531 93.589844 126.136719 95.988281 128.125 97.898438 C 130.109375 99.8125 132.589844 100.769531 135.570312 100.769531 C 136.1875 100.769531 136.777344 100.71875 137.355469 100.65625 C 135.089844 100.359375 133.148438 99.449219 131.535156 97.898438 C 129.550781 95.988281 128.5625 93.589844 128.5625 90.699219 C 128.5625 88.652344 129.054688 86.828125 130.046875 85.246094 L 131.535156 82.871094 C 132.011719 82.125 132.222656 81.589844 132.175781 81.257812 C 132.082031 80.332031 131.109375 79.503906 129.269531 78.78125 C 127.425781 78.054688 125.34375 77.699219 123.027344 77.699219 L 123.03125 77.996094 C 124.023438 78.171875 124.96875 78.433594 125.851562 78.78125 C 127.699219 79.503906 128.667969 80.332031 128.761719 81.257812 " fill-opacity="1" fill-rule="nonzero"/><path fill="#b76342" d="M 113.582031 79.40625 L 113.582031 93.914062 L 119.613281 97.128906 L 116.996094 93.914062 L 116.996094 78.1875 C 115.675781 78.46875 114.546875 78.882812 113.582031 79.40625 " fill-opacity="1" fill-rule="nonzero"/><path fill="#b76342" d="M 113.582031 158.78125 C 114.742188 158.96875 115.878906 159.078125 116.996094 159.078125 L 116.996094 138.777344 L 113.582031 137.191406 L 113.582031 158.78125 " fill-opacity="1" fill-rule="nonzero"/><path fill="#b76342" d="M 100.324219 162.011719 C 96.5 160.101562 93.492188 157.605469 91.320312 154.53125 C 89.140625 151.453125 88.058594 148.167969 88.058594 144.671875 C 88.058594 141.222656 89.191406 138.335938 91.460938 136.003906 C 93.316406 134.097656 95.542969 132.984375 98.121094 132.640625 C 97.59375 132.558594 97.050781 132.507812 96.488281 132.507812 C 93.128906 132.507812 90.316406 133.671875 88.042969 136.003906 C 85.777344 138.335938 84.640625 141.222656 84.640625 144.671875 C 84.640625 148.167969 85.730469 151.453125 87.90625 154.53125 C 90.078125 157.605469 93.082031 160.101562 96.914062 162.011719 C 101.597656 164.34375 107.152344 165.691406 113.582031 166.066406 L 113.582031 176.550781 L 116.996094 176.550781 L 116.996094 166.066406 C 110.5625 165.691406 105.007812 164.34375 100.324219 162.011719 " fill-opacity="1" fill-rule="nonzero"/><path fill="#b76342" d="M 100.597656 124.402344 C 103.4375 126.265625 107.667969 128.5 113.296875 131.109375 C 117.835938 133.253906 120.921875 134.746094 122.554688 135.582031 C 124.1875 136.421875 125.570312 137.21875 126.703125 137.960938 C 128.640625 139.359375 130.0625 140.804688 130.960938 142.292969 C 131.859375 143.789062 132.308594 145.511719 132.308594 147.46875 C 132.308594 149.382812 131.761719 151.199219 130.675781 152.917969 C 129.589844 154.648438 128.097656 156.046875 126.207031 157.117188 C 125.261719 157.671875 124.171875 158.101562 122.960938 158.421875 L 123.027344 159.003906 C 125.675781 158.773438 127.875 158.144531 129.625 157.117188 C 131.511719 156.046875 133.003906 154.648438 134.09375 152.917969 C 135.179688 151.199219 135.726562 149.382812 135.726562 147.46875 C 135.726562 145.511719 135.273438 143.789062 134.375 142.292969 C 133.472656 140.804688 132.058594 139.359375 130.121094 137.960938 C 128.984375 137.21875 127.601562 136.421875 125.96875 135.582031 C 124.335938 134.746094 121.253906 133.253906 116.710938 131.109375 C 111.085938 128.5 106.855469 126.265625 104.015625 124.402344 C 101.179688 122.535156 98.789062 120.414062 96.851562 118.035156 C 92.644531 112.953125 90.542969 106.964844 90.542969 100.070312 C 90.542969 94.890625 91.828125 90.070312 94.40625 85.597656 C 96.980469 81.121094 100.519531 77.558594 105.007812 74.902344 C 108.601562 72.753906 112.597656 71.355469 116.996094 70.707031 L 116.996094 61.40625 L 113.582031 61.40625 L 113.582031 70.707031 C 109.1875 71.355469 105.1875 72.753906 101.597656 74.902344 C 97.101562 77.558594 93.570312 81.121094 90.992188 85.597656 C 88.410156 90.070312 87.125 94.890625 87.125 100.070312 C 87.125 106.964844 89.226562 112.953125 93.433594 118.035156 C 95.375 120.414062 97.765625 122.535156 100.597656 124.402344 " fill-opacity="1" fill-rule="nonzero"/><path fill="#b76342" d="M 46.121094 123.105469 C 46.121094 80.792969 78.46875 46.492188 118.371094 46.492188 C 140.691406 46.492188 160.636719 57.226562 173.890625 74.089844 C 160.730469 55.21875 139.601562 42.980469 115.769531 42.980469 C 75.867188 42.980469 42.925781 77.71875 42.925781 120.03125 C 42.925781 138.679688 49.808594 155.332031 60.25 168.617188 C 51.375 155.894531 46.121094 140.152344 46.121094 123.105469 " fill-opacity="1" fill-rule="nonzero"/></svg>