<svg xmlns="http://www.w3.org/2000/svg" xmlns:xlink="http://www.w3.org/1999/xlink" width="369" zoomAndPan="magnify" viewBox="0 0 276.75 233.249991" height="311" preserveAspectRatio="xMidYMid meet" version="1.0"><defs><clipPath id="e672b76911"><path d="M 105.46875 77.828125 L 122 77.828125 L 122 89 L 105.46875 89 Z M 105.46875 77.828125 " clip-rule="nonzero"/></clipPath><clipPath id="16e8673dbb"><path d="M 133 77.828125 L 148.867188 77.828125 L 148.867188 89 L 133 89 Z M 133 77.828125 " clip-rule="nonzero"/></clipPath><clipPath id="a0c6f89f10"><path d="M 127 88 L 148.867188 88 L 148.867188 114.492188 L 127 114.492188 Z M 127 88 " clip-rule="nonzero"/></clipPath><clipPath id="ee46d9ec88"><path d="M 105.46875 77.828125 L 137 77.828125 L 137 114.492188 L 105.46875 114.492188 Z M 105.46875 77.828125 " clip-rule="nonzero"/></clipPath><clipPath id="267a534beb"><path d="M 117 88 L 137 88 L 137 114.492188 L 117 114.492188 Z M 117 88 " clip-rule="nonzero"/></clipPath><clipPath id="36130c21a0"><path d="M 38.207031 168.882812 L 86.324219 168.882812 L 86.324219 195.21875 L 38.207031 195.21875 Z M 38.207031 168.882812 " clip-rule="nonzero"/></clipPath><clipPath id="a696ecaaf0"><path d="M 63 182.140625 L 85.8125 182.140625 L 85.8125 195.21875 L 63 195.21875 Z M 63 182.140625 " clip-rule="nonzero"/></clipPath><clipPath id="369b3193bb"><path d="M 38.128906 180 L 42 180 L 42 188 L 38.128906 188 Z M 38.128906 180 " clip-rule="nonzero"/></clipPath><clipPath id="986c5d6c98"><path d="M 38.128906 180 L 47 180 L 47 195 L 38.128906 195 Z M 38.128906 180 " clip-rule="nonzero"/></clipPath><clipPath id="04aa4087c6"><path d="M 39.226562 183.671875 L 65.445312 183.671875 L 65.445312 195.21875 L 39.226562 195.21875 Z M 39.226562 183.671875 " clip-rule="nonzero"/></clipPath><clipPath id="721e67895a"><path d="M 49.410156 188.515625 L 65.445312 188.515625 L 65.445312 195.21875 L 49.410156 195.21875 Z M 49.410156 188.515625 " clip-rule="nonzero"/></clipPath><clipPath id="2bfc61c714"><path d="M 74.613281 184.691406 L 86.324219 184.691406 L 86.324219 195.21875 L 74.613281 195.21875 Z M 74.613281 184.691406 " clip-rule="nonzero"/></clipPath><clipPath id="bca3a27603"><path d="M 65 38.082031 L 215 38.082031 L 215 140 L 65 140 Z M 65 38.082031 " clip-rule="nonzero"/></clipPath><clipPath id="0bdd1ef079"><path d="M 69 38.082031 L 148 38.082031 L 148 140 L 69 140 Z M 69 38.082031 " clip-rule="nonzero"/></clipPath><clipPath id="30afa5610a"><path d="M 133 38.082031 L 137 38.082031 L 137 40 L 133 40 Z M 133 38.082031 " clip-rule="nonzero"/></clipPath><clipPath id="7199100b46"><path d="M 113 38.082031 L 148 38.082031 L 148 99 L 113 99 Z M 113 38.082031 " clip-rule="nonzero"/></clipPath><clipPath id="cf4af019c9"><path d="M 160 91.898438 L 238.59375 91.898438 L 238.59375 180 L 160 180 Z M 160 91.898438 " clip-rule="nonzero"/></clipPath><clipPath id="5eff3bf45b"><path d="M 201.648438 129.371094 L 238.59375 129.371094 L 238.59375 164 L 201.648438 164 Z M 201.648438 129.371094 " clip-rule="nonzero"/></clipPath><clipPath id="4dc3ec707e"><path d="M 224.8125 146.707031 L 238.59375 146.707031 L 238.59375 171.179688 L 224.8125 171.179688 Z M 224.8125 146.707031 " clip-rule="nonzero"/></clipPath></defs><g clip-path="url(#e672b76911)"><path fill="#bdddf4" d="M 121.144531 77.828125 L 113.914062 77.828125 L 105.484375 88.824219 L 117.53125 88.824219 Z M 121.144531 77.828125 " fill-opacity="1" fill-rule="nonzero"/></g><g clip-path="url(#16e8673dbb)"><path fill="#5dadec" d="M 148.855469 88.824219 L 140.421875 77.828125 L 133.191406 77.828125 L 136.804688 88.824219 Z M 148.855469 88.824219 " fill-opacity="1" fill-rule="nonzero"/></g><g clip-path="url(#a0c6f89f10)"><path fill="#4289c1" d="M 136.804688 88.824219 L 148.855469 88.824219 L 127.167969 114.492188 Z M 136.804688 88.824219 " fill-opacity="1" fill-rule="nonzero"/></g><g clip-path="url(#ee46d9ec88)"><path fill="#8ccaf7" d="M 117.53125 88.824219 L 105.484375 88.824219 L 127.167969 114.492188 Z M 121.144531 77.828125 L 117.53125 88.824219 L 136.804688 88.824219 L 133.191406 77.828125 Z M 121.144531 77.828125 " fill-opacity="1" fill-rule="nonzero"/></g><g clip-path="url(#267a534beb)"><path fill="#5dadec" d="M 127.167969 114.492188 L 117.53125 88.824219 L 136.804688 88.824219 Z M 127.167969 114.492188 " fill-opacity="1" fill-rule="nonzero"/></g><g clip-path="url(#36130c21a0)"><path fill="#474b51" d="M 70.941406 170.128906 C 64.195312 168.121094 59.90625 168.644531 55.640625 170.964844 C 51.375 173.289062 43.492188 178.582031 41.078125 180.996094 C 38.667969 183.410156 37.925781 187.125 38.296875 188.890625 C 38.667969 190.652344 42.65625 194.277344 43.585938 194.648438 C 44.511719 195.019531 61.855469 195.203125 63.058594 195.203125 C 64.265625 195.203125 79.289062 195.484375 81.421875 194.460938 C 83.554688 193.4375 85.226562 191.675781 85.78125 190.746094 C 86.339844 189.816406 86.523438 186.476562 85.78125 184.710938 C 85.039062 182.945312 72.953125 170.726562 70.941406 170.128906 " fill-opacity="1" fill-rule="nonzero"/></g><path fill="#cccdcd" d="M 81.421875 194.460938 C 81.425781 194.460938 81.429688 194.457031 81.4375 194.453125 C 81.429688 194.457031 81.425781 194.460938 81.421875 194.460938 M 81.4375 194.453125 C 81.441406 194.453125 81.445312 194.449219 81.449219 194.449219 C 81.445312 194.449219 81.441406 194.453125 81.4375 194.453125 M 81.449219 194.449219 C 81.453125 194.445312 81.457031 194.445312 81.460938 194.441406 C 81.457031 194.445312 81.453125 194.445312 81.449219 194.449219 M 81.460938 194.441406 C 81.980469 194.191406 82.46875 193.898438 82.921875 193.582031 C 82.46875 193.898438 81.980469 194.191406 81.460938 194.441406 M 41.085938 180.988281 C 41.085938 180.988281 41.089844 180.988281 41.089844 180.988281 C 41.089844 180.988281 41.085938 180.988281 41.085938 180.988281 M 41.09375 180.980469 L 41.09375 180.980469 M 41.101562 180.976562 C 41.101562 180.972656 41.101562 180.972656 41.101562 180.972656 C 41.101562 180.972656 41.101562 180.972656 41.101562 180.976562 M 41.121094 180.953125 C 41.121094 180.953125 41.121094 180.953125 41.125 180.953125 C 41.121094 180.953125 41.121094 180.953125 41.121094 180.953125 M 41.128906 180.945312 L 41.128906 180.945312 M 41.964844 180.183594 L 41.964844 180.183594 M 41.972656 180.175781 C 41.972656 180.175781 41.976562 180.175781 41.976562 180.175781 C 41.976562 180.175781 41.972656 180.175781 41.972656 180.175781 M 41.980469 180.171875 C 41.984375 180.167969 41.984375 180.167969 41.984375 180.167969 C 41.984375 180.167969 41.984375 180.167969 41.980469 180.171875 M 41.992188 180.160156 C 41.992188 180.160156 41.992188 180.160156 41.996094 180.160156 C 41.992188 180.160156 41.992188 180.160156 41.992188 180.160156 M 42 180.152344 C 42.003906 180.148438 42.007812 180.148438 42.007812 180.148438 C 42.007812 180.148438 42.003906 180.148438 42 180.152344 M 42.011719 180.144531 C 42.015625 180.140625 42.015625 180.140625 42.019531 180.140625 C 42.015625 180.140625 42.015625 180.140625 42.011719 180.144531 M 42.023438 180.136719 C 42.023438 180.132812 42.027344 180.132812 42.027344 180.128906 C 42.027344 180.132812 42.023438 180.132812 42.023438 180.136719 M 42.03125 180.128906 C 42.03125 180.125 42.035156 180.125 42.035156 180.121094 C 42.035156 180.125 42.03125 180.125 42.03125 180.128906 M 42.039062 180.121094 C 42.042969 180.117188 42.046875 180.113281 42.054688 180.109375 C 42.046875 180.113281 42.042969 180.117188 42.039062 180.121094 M 42.054688 180.109375 C 42.058594 180.101562 42.066406 180.097656 42.070312 180.09375 C 42.066406 180.097656 42.058594 180.101562 42.054688 180.109375 M 42.070312 180.09375 C 45.167969 177.464844 51.730469 173.105469 55.539062 171.019531 C 52.769531 172.539062 48.539062 175.261719 45.246094 177.644531 C 45.242188 177.644531 45.242188 177.644531 45.238281 177.648438 C 44.011719 178.535156 42.914062 179.378906 42.070312 180.09375 " fill-opacity="1" fill-rule="nonzero"/><path fill="#3b3f44" d="M 81.421875 194.460938 C 81.679688 194.335938 81.933594 194.203125 82.175781 194.058594 C 82.257812 194.011719 82.335938 193.957031 82.417969 193.90625 C 82.574219 193.808594 82.730469 193.710938 82.878906 193.609375 C 82.976562 193.542969 83.066406 193.476562 83.15625 193.40625 C 83.28125 193.316406 83.40625 193.226562 83.523438 193.132812 C 83.628906 193.050781 83.726562 192.96875 83.824219 192.882812 C 83.917969 192.804688 84.011719 192.726562 84.097656 192.648438 C 84.210938 192.550781 84.3125 192.453125 84.417969 192.355469 C 84.480469 192.296875 84.539062 192.238281 84.597656 192.175781 C 84.714844 192.0625 84.824219 191.949219 84.925781 191.835938 C 84.957031 191.800781 84.988281 191.765625 85.023438 191.734375 C 85.136719 191.605469 85.242188 191.480469 85.339844 191.359375 L 85.367188 191.324219 C 85.472656 191.191406 85.566406 191.066406 85.644531 190.953125 C 85.164062 191.65625 84.191406 192.699219 82.921875 193.582031 C 82.46875 193.898438 81.980469 194.191406 81.460938 194.441406 C 81.457031 194.445312 81.453125 194.445312 81.449219 194.449219 C 81.445312 194.449219 81.441406 194.453125 81.4375 194.453125 C 81.429688 194.457031 81.425781 194.460938 81.421875 194.460938 M 85.628906 190.9375 C 85.382812 190.691406 85.128906 190.433594 84.867188 190.167969 C 85.128906 190.433594 85.382812 190.691406 85.628906 190.9375 M 63.269531 188.609375 C 63.269531 188.609375 59.164062 177.464844 59.027344 177.117188 C 58.886719 176.769531 54.015625 175.933594 54.015625 175.933594 L 52.984375 172.507812 C 50.519531 174.003906 47.636719 175.914062 45.246094 177.644531 C 48.539062 175.261719 52.769531 172.539062 55.539062 171.019531 C 55.574219 171 55.605469 170.984375 55.640625 170.964844 C 58.105469 169.625 60.574219 168.882812 63.523438 168.882812 C 65.679688 168.882812 68.089844 169.28125 70.941406 170.128906 C 71.152344 170.191406 71.480469 170.386719 71.886719 170.679688 C 71.515625 173.105469 71.167969 176.21875 71.683594 176.839844 C 71.9375 177.144531 74.199219 179.429688 76.988281 182.238281 C 74.785156 183.261719 64.277344 188.359375 63.269531 188.609375 M 45.238281 177.648438 C 45.242188 177.644531 45.242188 177.644531 45.246094 177.644531 C 45.242188 177.644531 45.242188 177.644531 45.238281 177.648438 " fill-opacity="1" fill-rule="nonzero"/><path fill="#36393e" d="M 43.578125 194.644531 L 43.578125 194.644531 M 43.578125 194.644531 C 43.574219 194.644531 43.574219 194.644531 43.574219 194.644531 C 43.574219 194.644531 43.574219 194.644531 43.578125 194.644531 M 43.570312 194.640625 L 43.570312 194.640625 M 43.570312 194.640625 C 43.566406 194.640625 43.566406 194.640625 43.566406 194.640625 C 43.566406 194.640625 43.566406 194.640625 43.570312 194.640625 M 43.5625 194.640625 C 43.5625 194.636719 43.5625 194.636719 43.5625 194.636719 C 43.5625 194.636719 43.5625 194.636719 43.5625 194.640625 M 43.5625 194.636719 C 43.558594 194.636719 43.554688 194.636719 43.554688 194.632812 C 43.554688 194.636719 43.558594 194.636719 43.5625 194.636719 M 43.550781 194.632812 C 43.550781 194.632812 43.546875 194.632812 43.542969 194.628906 C 43.546875 194.632812 43.550781 194.632812 43.550781 194.632812 M 43.542969 194.628906 C 43.542969 194.628906 43.539062 194.628906 43.535156 194.625 C 43.539062 194.628906 43.542969 194.628906 43.542969 194.628906 M 43.535156 194.625 C 43.527344 194.621094 43.515625 194.617188 43.507812 194.613281 C 43.515625 194.617188 43.527344 194.621094 43.535156 194.625 M 43.507812 194.613281 C 43.507812 194.613281 43.503906 194.613281 43.503906 194.613281 C 43.503906 194.613281 43.507812 194.613281 43.507812 194.613281 M 43.503906 194.609375 C 43.5 194.609375 43.5 194.609375 43.5 194.609375 C 43.5 194.609375 43.5 194.609375 43.503906 194.609375 M 43.496094 194.605469 L 43.496094 194.605469 M 43.492188 194.605469 L 43.492188 194.605469 M 43.488281 194.601562 L 43.488281 194.601562 M 43.484375 194.601562 C 43.484375 194.597656 43.484375 194.597656 43.480469 194.597656 C 43.484375 194.597656 43.484375 194.597656 43.484375 194.601562 M 43.476562 194.597656 L 43.476562 194.597656 " fill-opacity="1" fill-rule="nonzero"/><path fill="#3b3f44" d="M 85.644531 190.953125 C 85.636719 190.945312 85.632812 190.941406 85.628906 190.9375 C 85.632812 190.941406 85.636719 190.945312 85.644531 190.953125 M 84.867188 190.167969 C 82.5625 187.84375 79.554688 184.824219 76.988281 182.238281 C 79.554688 184.824219 82.5625 187.84375 84.867188 190.167969 " fill-opacity="1" fill-rule="nonzero"/><g clip-path="url(#a696ecaaf0)"><path fill="#32353a" d="M 68.324219 195.238281 C 65.734375 195.238281 63.648438 195.207031 63.113281 195.203125 C 63.414062 195.207031 64.195312 195.214844 65.277344 195.226562 L 63.269531 188.609375 C 64.277344 188.359375 74.785156 183.261719 76.988281 182.238281 C 79.554688 184.824219 82.5625 187.84375 84.867188 190.167969 C 85.128906 190.433594 85.382812 190.691406 85.628906 190.9375 C 85.632812 190.941406 85.636719 190.945312 85.644531 190.953125 C 85.566406 191.066406 85.472656 191.191406 85.367188 191.324219 L 85.339844 191.359375 C 85.242188 191.480469 85.136719 191.605469 85.023438 191.734375 C 84.988281 191.765625 84.957031 191.800781 84.925781 191.835938 C 84.824219 191.949219 84.714844 192.0625 84.597656 192.175781 C 84.539062 192.238281 84.480469 192.296875 84.417969 192.355469 C 84.3125 192.453125 84.210938 192.550781 84.097656 192.648438 C 84.011719 192.726562 83.917969 192.804688 83.824219 192.882812 C 83.726562 192.96875 83.628906 193.050781 83.523438 193.132812 C 83.40625 193.226562 83.28125 193.316406 83.15625 193.40625 C 83.066406 193.476562 82.976562 193.542969 82.878906 193.609375 C 82.730469 193.710938 82.574219 193.808594 82.417969 193.90625 C 82.335938 193.957031 82.257812 194.011719 82.175781 194.058594 C 81.933594 194.203125 81.679688 194.335938 81.421875 194.460938 C 80.042969 195.121094 73.265625 195.238281 68.324219 195.238281 " fill-opacity="1" fill-rule="nonzero"/></g><path fill="#d9d9d9" d="M 41.078125 180.996094 C 41.082031 180.992188 41.082031 180.992188 41.085938 180.988281 C 41.082031 180.992188 41.082031 180.992188 41.078125 180.996094 M 41.089844 180.988281 C 41.089844 180.984375 41.09375 180.984375 41.09375 180.980469 C 41.09375 180.984375 41.089844 180.984375 41.089844 180.988281 M 41.09375 180.980469 C 41.097656 180.980469 41.097656 180.976562 41.101562 180.976562 C 41.097656 180.976562 41.097656 180.980469 41.09375 180.980469 M 41.101562 180.972656 C 41.109375 180.96875 41.117188 180.960938 41.121094 180.953125 C 41.117188 180.960938 41.109375 180.96875 41.101562 180.972656 M 41.125 180.953125 C 41.125 180.949219 41.128906 180.949219 41.128906 180.945312 C 41.128906 180.949219 41.125 180.949219 41.125 180.953125 M 41.128906 180.945312 C 41.359375 180.71875 41.632812 180.472656 41.945312 180.203125 C 41.632812 180.472656 41.359375 180.71875 41.128906 180.945312 M 41.945312 180.203125 C 41.949219 180.195312 41.957031 180.191406 41.964844 180.183594 C 41.957031 180.191406 41.949219 180.195312 41.945312 180.203125 M 41.964844 180.183594 C 41.96875 180.183594 41.972656 180.179688 41.972656 180.175781 C 41.972656 180.179688 41.96875 180.179688 41.964844 180.183594 M 41.976562 180.175781 C 41.976562 180.171875 41.980469 180.171875 41.980469 180.171875 C 41.980469 180.171875 41.976562 180.171875 41.976562 180.175781 M 41.984375 180.167969 C 41.988281 180.164062 41.988281 180.164062 41.992188 180.160156 C 41.988281 180.164062 41.988281 180.164062 41.984375 180.167969 M 41.996094 180.160156 C 41.996094 180.15625 42 180.152344 42 180.152344 C 42 180.152344 41.996094 180.15625 41.996094 180.160156 M 42.007812 180.148438 C 42.011719 180.144531 42.011719 180.144531 42.011719 180.144531 C 42.011719 180.144531 42.011719 180.144531 42.007812 180.148438 M 42.019531 180.140625 C 42.019531 180.136719 42.019531 180.136719 42.023438 180.136719 C 42.019531 180.136719 42.019531 180.136719 42.019531 180.140625 M 42.027344 180.128906 C 42.027344 180.128906 42.03125 180.128906 42.03125 180.128906 C 42.03125 180.128906 42.027344 180.128906 42.027344 180.128906 M 42.035156 180.121094 C 42.039062 180.121094 42.039062 180.121094 42.039062 180.121094 C 42.039062 180.121094 42.039062 180.121094 42.035156 180.121094 M 42.070312 180.09375 L 42.070312 180.09375 " fill-opacity="1" fill-rule="nonzero"/><path fill="#aeafaf" d="M 41.078125 180.996094 C 41.082031 180.992188 41.082031 180.992188 41.085938 180.988281 C 41.085938 180.988281 41.089844 180.988281 41.089844 180.988281 C 41.089844 180.984375 41.09375 180.984375 41.09375 180.980469 C 41.097656 180.980469 41.097656 180.976562 41.101562 180.976562 C 41.101562 180.972656 41.101562 180.972656 41.101562 180.972656 C 41.109375 180.96875 41.117188 180.960938 41.121094 180.953125 C 41.121094 180.953125 41.121094 180.953125 41.125 180.953125 C 41.125 180.949219 41.128906 180.949219 41.128906 180.945312 C 41.359375 180.71875 41.632812 180.472656 41.945312 180.203125 C 41.949219 180.195312 41.957031 180.191406 41.964844 180.183594 C 41.96875 180.179688 41.972656 180.179688 41.972656 180.175781 C 41.972656 180.175781 41.976562 180.175781 41.976562 180.175781 C 41.976562 180.171875 41.980469 180.171875 41.980469 180.171875 C 41.984375 180.167969 41.984375 180.167969 41.984375 180.167969 C 41.988281 180.164062 41.988281 180.164062 41.992188 180.160156 C 41.992188 180.160156 41.992188 180.160156 41.996094 180.160156 C 41.996094 180.15625 42 180.152344 42 180.152344 C 42.003906 180.148438 42.007812 180.148438 42.007812 180.148438 C 42.011719 180.144531 42.011719 180.144531 42.011719 180.144531 C 42.015625 180.140625 42.015625 180.140625 42.019531 180.140625 C 42.019531 180.136719 42.019531 180.136719 42.023438 180.136719 C 42.023438 180.132812 42.027344 180.132812 42.027344 180.128906 C 42.027344 180.128906 42.03125 180.128906 42.03125 180.128906 C 42.03125 180.125 42.035156 180.125 42.035156 180.121094 C 42.039062 180.121094 42.039062 180.121094 42.039062 180.121094 C 42.042969 180.117188 42.046875 180.113281 42.054688 180.109375 C 42.058594 180.101562 42.066406 180.097656 42.070312 180.09375 C 42.914062 179.378906 44.011719 178.535156 45.238281 177.648438 C 43.449219 178.941406 41.941406 180.136719 41.09375 180.980469 C 41.089844 180.988281 41.082031 180.992188 41.078125 180.996094 M 45.246094 177.644531 L 45.246094 177.644531 " fill-opacity="1" fill-rule="nonzero"/><path fill="#34383c" d="M 59.558594 188.75 C 56.664062 188.75 53.101562 188.652344 52.625 188.609375 C 51.859375 188.539062 46.503906 184.640625 46.226562 184.292969 C 45.96875 183.96875 44.183594 183.140625 41.1875 180.894531 C 41.160156 180.921875 41.121094 180.953125 41.09375 180.980469 C 41.941406 180.136719 43.449219 178.941406 45.238281 177.648438 C 45.242188 177.644531 45.242188 177.644531 45.246094 177.644531 C 47.636719 175.914062 50.519531 174.003906 52.984375 172.507812 L 54.015625 175.933594 C 54.015625 175.933594 58.886719 176.769531 59.027344 177.117188 C 59.164062 177.464844 63.269531 188.609375 63.269531 188.609375 C 63.246094 188.617188 63.21875 188.621094 63.191406 188.625 L 63.1875 188.625 C 62.695312 188.71875 61.238281 188.75 59.558594 188.75 " fill-opacity="1" fill-rule="nonzero"/><path fill="#2d2f34" d="M 43.585938 194.648438 C 43.582031 194.644531 43.582031 194.644531 43.578125 194.644531 C 43.582031 194.644531 43.582031 194.644531 43.585938 194.648438 " fill-opacity="1" fill-rule="nonzero"/><path fill="#2d2f34" d="M 43.574219 194.644531 C 43.574219 194.644531 43.574219 194.640625 43.570312 194.640625 C 43.574219 194.640625 43.574219 194.644531 43.574219 194.644531 " fill-opacity="1" fill-rule="nonzero"/><path fill="#2d2f34" d="M 43.5 194.609375 C 43.5 194.609375 43.496094 194.605469 43.496094 194.605469 C 43.496094 194.605469 43.5 194.609375 43.5 194.609375 " fill-opacity="1" fill-rule="nonzero"/><path fill="#2d2f34" d="M 43.492188 194.605469 C 43.488281 194.601562 43.488281 194.601562 43.488281 194.601562 C 43.488281 194.601562 43.488281 194.601562 43.492188 194.605469 " fill-opacity="1" fill-rule="nonzero"/><g clip-path="url(#369b3193bb)"><path fill="#8c8d8e" d="M 38.207031 187.90625 C 38.207031 185.96875 39.054688 183.023438 41.078125 180.996094 C 41.082031 180.992188 41.089844 180.988281 41.09375 180.980469 C 41.089844 180.988281 41.082031 180.992188 41.078125 180.996094 C 39.054688 183.023438 38.207031 185.96875 38.207031 187.90625 " fill-opacity="1" fill-rule="nonzero"/></g><g clip-path="url(#986c5d6c98)"><path fill="#2d2f34" d="M 43.476562 194.597656 C 42.398438 194.035156 38.761719 190.6875 38.3125 188.960938 C 38.308594 188.9375 38.300781 188.914062 38.296875 188.890625 C 38.277344 188.792969 38.257812 188.691406 38.246094 188.582031 C 38.222656 188.375 38.207031 188.148438 38.207031 187.90625 C 38.207031 185.96875 39.054688 183.023438 41.078125 180.996094 C 41.082031 180.992188 41.089844 180.988281 41.09375 180.980469 C 41.121094 180.953125 41.160156 180.921875 41.1875 180.894531 C 44.183594 183.140625 45.96875 183.96875 46.226562 184.292969 C 46.15625 184.203125 45.960938 184.074219 45.671875 183.890625 L 39.226562 190.582031 C 40.5 192.257812 42.683594 194.183594 43.476562 194.597656 " fill-opacity="1" fill-rule="nonzero"/></g><g clip-path="url(#04aa4087c6)"><path fill="#24262a" d="M 65.277344 195.226562 L 63.191406 188.625 C 63.21875 188.621094 63.246094 188.617188 63.269531 188.609375 L 65.277344 195.226562 M 65.277344 195.226562 C 64.195312 195.214844 63.414062 195.207031 63.113281 195.203125 C 63.113281 195.203125 63.113281 195.203125 63.109375 195.203125 C 63.105469 195.203125 63.101562 195.203125 63.097656 195.203125 C 63.097656 195.203125 63.09375 195.203125 63.09375 195.203125 C 63.089844 195.203125 63.089844 195.203125 63.089844 195.203125 C 63.085938 195.203125 63.082031 195.203125 63.078125 195.203125 C 63.070312 195.203125 63.066406 195.203125 63.058594 195.203125 C 61.855469 195.203125 44.511719 195.019531 43.585938 194.648438 C 43.582031 194.644531 43.582031 194.644531 43.578125 194.644531 C 43.574219 194.644531 43.574219 194.644531 43.574219 194.644531 C 43.574219 194.644531 43.574219 194.640625 43.570312 194.640625 C 43.566406 194.640625 43.566406 194.640625 43.566406 194.640625 C 43.566406 194.640625 43.5625 194.640625 43.5625 194.640625 C 43.5625 194.636719 43.5625 194.636719 43.5625 194.636719 C 43.558594 194.636719 43.554688 194.636719 43.554688 194.632812 C 43.554688 194.632812 43.554688 194.632812 43.550781 194.632812 C 43.550781 194.632812 43.546875 194.632812 43.542969 194.628906 C 43.542969 194.628906 43.539062 194.628906 43.535156 194.625 C 43.527344 194.621094 43.515625 194.617188 43.507812 194.613281 C 43.507812 194.613281 43.503906 194.613281 43.503906 194.613281 C 43.503906 194.609375 43.503906 194.609375 43.503906 194.609375 C 43.5 194.609375 43.5 194.609375 43.5 194.609375 C 43.5 194.609375 43.496094 194.605469 43.496094 194.605469 C 43.496094 194.605469 43.492188 194.605469 43.492188 194.605469 C 43.488281 194.601562 43.488281 194.601562 43.488281 194.601562 C 43.484375 194.601562 43.484375 194.601562 43.484375 194.601562 C 43.484375 194.597656 43.484375 194.597656 43.480469 194.597656 C 43.480469 194.597656 43.480469 194.597656 43.476562 194.597656 C 42.683594 194.183594 40.5 192.257812 39.226562 190.582031 L 45.671875 183.890625 C 45.960938 184.074219 46.15625 184.203125 46.226562 184.292969 C 46.503906 184.640625 51.859375 188.539062 52.625 188.609375 L 49.628906 194.980469 L 49.636719 194.980469 L 65.277344 195.226562 " fill-opacity="1" fill-rule="nonzero"/></g><path fill="#181a1c" d="M 59.582031 188.75 C 56.683594 188.75 53.101562 188.65625 52.625 188.609375 C 53.101562 188.652344 56.664062 188.75 59.558594 188.75 C 61.238281 188.75 62.695312 188.71875 63.1875 188.625 L 63.191406 188.625 C 62.683594 188.71875 61.242188 188.75 59.582031 188.75 " fill-opacity="1" fill-rule="nonzero"/><g clip-path="url(#721e67895a)"><path fill="#141618" d="M 65.277344 195.226562 L 49.636719 194.980469 L 49.628906 194.980469 L 52.625 188.609375 C 53.101562 188.65625 56.683594 188.75 59.582031 188.75 C 61.242188 188.75 62.683594 188.71875 63.191406 188.625 L 65.277344 195.226562 " fill-opacity="1" fill-rule="nonzero"/></g><g clip-path="url(#2bfc61c714)"><path fill="#101213" d="M 83.714844 189.007812 C 83.371094 189.097656 80.378906 193.347656 80.378906 193.347656 L 74.773438 195.152344 C 77.882812 195.054688 80.601562 194.851562 81.421875 194.460938 C 83.554688 193.4375 85.226562 191.675781 85.78125 190.746094 C 86.339844 189.816406 86.523438 186.476562 85.78125 184.710938 C 85.78125 184.710938 84.058594 188.914062 83.714844 189.007812 " fill-opacity="1" fill-rule="nonzero"/></g><g clip-path="url(#bca3a27603)"><path fill="#373b3f" d="M 148.105469 44.761719 C 143.945312 42.316406 135.066406 38.667969 133.328125 38.378906 C 131.589844 38.089844 83.199219 41.28125 81.171875 41.570312 C 79.140625 41.859375 70.449219 61.300781 69.578125 62.460938 C 68.710938 63.621094 65.523438 87.125 65.523438 90.609375 C 65.523438 94.089844 83.199219 137.902344 85.226562 138.773438 C 87.253906 139.644531 163.460938 139.933594 168.96875 139.933594 C 174.472656 139.933594 199.101562 137.324219 200.261719 136.453125 C 201.421875 135.582031 213.589844 113.238281 214.171875 112.078125 C 214.75 110.917969 208.664062 98.152344 208.664062 98.152344 C 208.664062 98.152344 212.511719 76.101562 214.210938 72.617188 C 215.910156 69.136719 201.132812 50.855469 199.683594 48.535156 C 198.234375 46.214844 149.65625 45.675781 148.105469 44.761719 " fill-opacity="1" fill-rule="nonzero"/></g><path fill="#d2d2d3" d="M 147.25 139.839844 C 147.246094 139.839844 147.246094 139.839844 147.246094 139.839844 L 147.25 139.839844 M 147.179688 139.839844 C 146.648438 139.835938 146.109375 139.832031 145.570312 139.828125 C 146.109375 139.832031 146.648438 139.835938 147.179688 139.839844 M 85.421875 138.824219 C 85.367188 138.8125 85.324219 138.804688 85.289062 138.792969 C 85.324219 138.804688 85.367188 138.8125 85.421875 138.824219 M 85.289062 138.792969 C 85.285156 138.792969 85.285156 138.792969 85.285156 138.792969 C 85.285156 138.792969 85.285156 138.792969 85.289062 138.792969 M 85.285156 138.792969 C 85.28125 138.792969 85.28125 138.792969 85.277344 138.792969 C 85.28125 138.792969 85.28125 138.792969 85.285156 138.792969 M 85.277344 138.792969 L 85.277344 138.792969 M 85.277344 138.792969 C 85.273438 138.792969 85.273438 138.789062 85.273438 138.789062 C 85.273438 138.789062 85.273438 138.792969 85.277344 138.792969 M 85.273438 138.789062 L 85.273438 138.789062 M 85.269531 138.789062 L 85.269531 138.789062 M 85.269531 138.789062 L 85.269531 138.789062 M 85.265625 138.789062 L 85.265625 138.789062 M 85.265625 138.789062 L 85.265625 138.789062 M 85.261719 138.789062 L 85.261719 138.789062 M 85.261719 138.785156 L 85.261719 138.785156 M 85.257812 138.785156 L 85.257812 138.785156 M 85.257812 138.785156 L 85.257812 138.785156 M 85.253906 138.785156 L 85.253906 138.785156 M 85.253906 138.785156 L 85.253906 138.785156 M 85.25 138.785156 L 85.25 138.785156 M 85.25 138.785156 C 85.25 138.78125 85.25 138.78125 85.25 138.78125 C 85.25 138.78125 85.25 138.78125 85.25 138.785156 M 85.246094 138.78125 L 85.246094 138.78125 M 85.246094 138.78125 L 85.246094 138.78125 M 85.246094 138.78125 C 85.246094 138.78125 85.242188 138.78125 85.242188 138.78125 C 85.242188 138.78125 85.246094 138.78125 85.246094 138.78125 M 85.242188 138.78125 L 85.242188 138.78125 M 85.242188 138.78125 C 85.242188 138.78125 85.242188 138.78125 85.238281 138.78125 C 85.242188 138.78125 85.242188 138.78125 85.242188 138.78125 M 85.238281 138.78125 C 85.238281 138.78125 85.238281 138.777344 85.238281 138.777344 C 85.238281 138.777344 85.238281 138.777344 85.238281 138.78125 M 85.238281 138.777344 L 85.238281 138.777344 M 85.234375 138.777344 L 85.234375 138.777344 M 85.234375 138.777344 L 85.234375 138.777344 M 85.234375 138.777344 C 85.234375 138.777344 85.234375 138.777344 85.230469 138.777344 C 85.234375 138.777344 85.234375 138.777344 85.234375 138.777344 M 85.230469 138.777344 L 85.230469 138.777344 M 85.226562 138.773438 C 85.222656 138.773438 85.222656 138.773438 85.222656 138.773438 C 85.222656 138.773438 85.222656 138.773438 85.226562 138.773438 M 85.222656 138.773438 L 85.222656 138.773438 M 85.21875 138.769531 L 85.21875 138.769531 M 85.21875 138.769531 C 85.21875 138.769531 85.21875 138.769531 85.214844 138.769531 C 85.21875 138.769531 85.21875 138.769531 85.21875 138.769531 M 85.214844 138.769531 L 85.214844 138.769531 M 85.214844 138.769531 L 85.214844 138.769531 M 85.214844 138.765625 C 85.210938 138.765625 85.210938 138.765625 85.210938 138.765625 C 85.210938 138.765625 85.210938 138.765625 85.214844 138.765625 M 85.210938 138.765625 L 85.210938 138.765625 M 85.210938 138.765625 L 85.210938 138.765625 M 85.207031 138.765625 L 85.207031 138.765625 M 85.207031 138.761719 L 85.203125 138.761719 L 85.207031 138.761719 M 85.203125 138.761719 L 85.203125 138.761719 M 80.894531 130.492188 C 76.539062 120.769531 70.175781 104.90625 67.191406 96.335938 C 67.792969 98.066406 68.535156 100.09375 69.367188 102.308594 C 72.207031 109.851562 76.128906 119.558594 79.386719 127.0625 C 79.910156 128.269531 80.414062 129.417969 80.894531 130.492188 M 67.1875 96.335938 C 67.1875 96.332031 67.1875 96.328125 67.183594 96.324219 C 67.1875 96.328125 67.1875 96.332031 67.1875 96.335938 M 65.527344 90.6875 L 65.527344 90.6875 M 65.523438 90.683594 C 65.523438 90.683594 65.523438 90.683594 65.523438 90.679688 C 65.523438 90.683594 65.523438 90.683594 65.523438 90.683594 M 65.523438 90.679688 C 65.523438 90.679688 65.523438 90.675781 65.523438 90.675781 C 65.523438 90.675781 65.523438 90.679688 65.523438 90.679688 M 65.523438 90.675781 C 65.523438 90.671875 65.523438 90.671875 65.523438 90.671875 C 65.523438 90.671875 65.523438 90.671875 65.523438 90.675781 M 65.523438 90.667969 L 65.523438 90.667969 M 65.523438 90.664062 C 65.523438 90.664062 65.523438 90.664062 65.523438 90.660156 C 65.523438 90.664062 65.523438 90.664062 65.523438 90.664062 M 65.523438 90.660156 C 65.523438 90.660156 65.523438 90.65625 65.523438 90.65625 C 65.523438 90.65625 65.523438 90.660156 65.523438 90.660156 M 65.523438 90.65625 C 65.523438 90.65625 65.523438 90.652344 65.523438 90.652344 C 65.523438 90.652344 65.523438 90.652344 65.523438 90.65625 M 65.523438 90.652344 C 65.523438 90.648438 65.523438 90.648438 65.523438 90.648438 C 65.523438 90.648438 65.523438 90.648438 65.523438 90.652344 M 65.523438 90.644531 L 65.523438 90.644531 M 65.523438 90.640625 L 65.523438 90.640625 M 65.523438 90.636719 C 65.523438 90.636719 65.523438 90.636719 65.523438 90.632812 C 65.523438 90.636719 65.523438 90.636719 65.523438 90.636719 M 65.523438 90.632812 C 65.523438 90.632812 65.523438 90.632812 65.523438 90.628906 C 65.523438 90.632812 65.523438 90.632812 65.523438 90.632812 M 65.523438 90.628906 C 65.523438 90.628906 65.523438 90.625 65.523438 90.625 C 65.523438 90.625 65.523438 90.628906 65.523438 90.628906 M 65.523438 90.625 C 65.523438 90.625 65.523438 90.621094 65.523438 90.621094 C 65.523438 90.621094 65.523438 90.625 65.523438 90.625 M 65.523438 90.621094 C 65.523438 90.617188 65.523438 90.617188 65.523438 90.617188 C 65.523438 90.617188 65.523438 90.617188 65.523438 90.621094 M 65.523438 90.617188 C 65.523438 90.613281 65.523438 90.613281 65.523438 90.613281 C 65.523438 90.613281 65.523438 90.613281 65.523438 90.617188 M 65.523438 90.613281 C 65.523438 90.609375 65.523438 90.609375 65.523438 90.609375 C 65.523438 90.609375 65.523438 90.609375 65.523438 90.613281 " fill-opacity="1" fill-rule="nonzero"/><g clip-path="url(#0bdd1ef079)"><path fill="#303337" d="M 147.253906 139.839844 C 147.253906 139.839844 147.253906 139.839844 147.25 139.839844 L 147.246094 139.839844 C 147.242188 139.839844 147.238281 139.839844 147.238281 139.839844 C 147.242188 139.839844 147.25 139.839844 147.253906 139.839844 M 147.1875 139.839844 C 147.183594 139.839844 147.183594 139.839844 147.179688 139.839844 C 146.648438 139.835938 146.109375 139.832031 145.570312 139.828125 C 146.113281 139.832031 146.652344 139.835938 147.1875 139.839844 M 79.386719 127.0625 C 76.128906 119.558594 72.207031 109.851562 69.367188 102.308594 C 70.800781 106.117188 72.511719 110.476562 74.273438 114.828125 C 76 119.09375 77.773438 123.347656 79.386719 127.0625 M 86 100.8125 L 94.304688 73.683594 C 93.835938 73.683594 77.546875 63.796875 70.945312 59.824219 C 77.546875 63.796875 93.835938 73.683594 94.304688 73.683594 C 94.761719 73.683594 107.835938 68.148438 113.722656 65.523438 L 131.480469 98.277344 L 86 100.8125 M 116.519531 64.203125 C 117.292969 63.621094 122.703125 44.667969 122.703125 44.667969 L 130.941406 38.410156 C 131.785156 38.378906 132.4375 38.359375 132.855469 38.359375 C 132.992188 38.359375 133.105469 38.363281 133.191406 38.367188 C 133.105469 38.363281 132.992188 38.359375 132.855469 38.359375 C 132.4375 38.359375 131.785156 38.378906 130.941406 38.410156 L 122.703125 44.667969 C 122.703125 44.667969 117.292969 63.621094 116.519531 64.203125 " fill-opacity="1" fill-rule="nonzero"/></g><path fill="#2a2d30" d="M 155.664062 121.5 L 152.144531 117.519531 L 141.246094 106.699219 L 124.886719 106.699219 C 127.65625 103.421875 131.109375 99.390625 131.78125 98.828125 C 131.855469 98.769531 131.917969 98.570312 131.972656 98.25 L 131.78125 98.261719 L 131.78125 61.6875 C 131.832031 62.027344 132.476562 63.839844 133.429688 66.390625 C 133.460938 66.492188 140.765625 91.023438 141.054688 91.300781 C 141.320312 91.554688 141.34375 100.652344 141.117188 102.496094 C 141.058594 102.703125 141.027344 102.816406 141.039062 102.816406 C 141.042969 102.816406 141.046875 102.808594 141.054688 102.792969 C 141.074219 102.75 141.097656 102.648438 141.117188 102.496094 C 141.332031 101.738281 141.957031 99.753906 142.621094 97.769531 C 143.460938 95.246094 144.355469 92.722656 144.523438 92.722656 C 144.527344 92.722656 144.527344 92.722656 144.53125 92.726562 C 144.820312 92.929688 163.367188 98.054688 163.753906 98.152344 C 164.027344 98.222656 169.769531 105.210938 173.035156 109.210938 L 171.546875 116.425781 L 155.664062 121.5 " fill-opacity="1" fill-rule="nonzero"/><path fill="#202325" d="M 167.875 129.269531 L 157.273438 123.316406 L 155.664062 121.5 L 171.546875 116.425781 L 169.699219 125.386719 C 168.960938 126.558594 168.503906 127.351562 168.441406 127.605469 C 168.410156 127.738281 168.335938 127.96875 168.226562 128.28125 C 168.132812 128.550781 168.015625 128.882812 167.875 129.269531 " fill-opacity="1" fill-rule="nonzero"/><path fill="#828384" d="M 85.230469 138.777344 L 85.230469 138.777344 M 85.226562 138.773438 L 85.226562 138.773438 M 85.226562 138.773438 L 85.226562 138.773438 M 85.222656 138.773438 L 85.222656 138.773438 M 85.222656 138.773438 L 85.222656 138.773438 M 85.222656 138.773438 C 85.222656 138.769531 85.21875 138.769531 85.21875 138.769531 C 85.222656 138.769531 85.222656 138.769531 85.222656 138.773438 M 85.21875 138.769531 L 85.21875 138.769531 M 85.21875 138.769531 L 85.21875 138.769531 M 85.214844 138.769531 L 85.214844 138.769531 M 85.214844 138.769531 C 85.214844 138.769531 85.214844 138.765625 85.214844 138.765625 C 85.214844 138.765625 85.214844 138.769531 85.214844 138.769531 M 85.210938 138.765625 L 85.210938 138.765625 M 85.210938 138.765625 L 85.210938 138.765625 M 85.210938 138.765625 C 85.210938 138.765625 85.207031 138.765625 85.207031 138.765625 C 85.207031 138.765625 85.210938 138.765625 85.210938 138.765625 M 85.207031 138.765625 L 85.207031 138.765625 M 85.207031 138.765625 C 85.207031 138.765625 85.207031 138.765625 85.207031 138.761719 C 85.207031 138.765625 85.207031 138.765625 85.207031 138.765625 M 85.203125 138.761719 L 85.203125 138.761719 M 85.203125 138.761719 L 85.203125 138.761719 M 85.203125 138.761719 C 85.203125 138.761719 85.199219 138.761719 85.199219 138.761719 C 85.199219 138.761719 85.203125 138.761719 85.203125 138.761719 M 85.199219 138.761719 C 84.632812 138.4375 82.996094 135.179688 80.894531 130.492188 C 82.996094 135.179688 84.632812 138.4375 85.199219 138.761719 " fill-opacity="1" fill-rule="nonzero"/><path fill="#6d6e6f" d="M 85.230469 138.777344 L 85.230469 138.777344 M 85.226562 138.773438 L 85.226562 138.773438 M 85.226562 138.773438 C 85.222656 138.773438 85.222656 138.773438 85.222656 138.773438 C 85.222656 138.769531 85.222656 138.769531 85.21875 138.769531 C 85.21875 138.769531 85.21875 138.769531 85.214844 138.769531 C 85.214844 138.769531 85.214844 138.765625 85.214844 138.765625 C 85.210938 138.765625 85.210938 138.765625 85.210938 138.765625 C 85.210938 138.765625 85.207031 138.765625 85.207031 138.765625 C 85.207031 138.765625 85.207031 138.765625 85.207031 138.761719 L 85.203125 138.761719 C 85.203125 138.761719 85.199219 138.761719 85.199219 138.761719 C 84.632812 138.4375 82.996094 135.179688 80.894531 130.492188 C 80.414062 129.417969 79.910156 128.269531 79.386719 127.0625 C 82.226562 133.617188 84.5625 138.488281 85.226562 138.773438 " fill-opacity="1" fill-rule="nonzero"/><path fill="#1f2224" d="M 85.226562 138.773438 C 84.5625 138.488281 82.226562 133.617188 79.386719 127.0625 C 77.773438 123.347656 76 119.09375 74.273438 114.828125 C 77.378906 122.5 80.644531 130.140625 82.828125 134.660156 L 85.226562 137.902344 L 86 100.8125 L 131.480469 98.277344 L 131.78125 98.828125 C 131.109375 99.390625 127.65625 103.421875 124.886719 106.699219 L 104.277344 106.699219 L 91.882812 116.753906 C 91.882812 116.753906 89.9375 123.894531 88.144531 130.25 C 87.546875 130.835938 87.101562 131.308594 86.925781 131.574219 C 86.617188 132.035156 86.035156 135.164062 85.4375 138.738281 L 85.226562 138.773438 " fill-opacity="1" fill-rule="nonzero"/><path fill="#1c1f21" d="M 124.886719 106.699219 C 127.65625 103.421875 131.109375 99.390625 131.78125 98.828125 C 131.109375 99.390625 127.65625 103.421875 124.886719 106.699219 M 131.78125 98.828125 L 131.78125 98.261719 L 131.972656 98.25 C 131.917969 98.570312 131.855469 98.769531 131.78125 98.828125 " fill-opacity="1" fill-rule="nonzero"/><path fill="#101213" d="M 85.226562 138.773438 C 87.253906 139.644531 163.460938 139.933594 168.96875 139.933594 L 121.253906 132.488281 L 85.226562 138.773438 " fill-opacity="1" fill-rule="nonzero"/><path fill="#101213" d="M 214.148438 70.757812 L 176.984375 114.691406 L 208.695312 98.214844 L 208.664062 98.152344 C 208.664062 98.152344 212.511719 76.101562 214.210938 72.617188 C 214.414062 72.199219 214.371094 71.554688 214.148438 70.757812 " fill-opacity="1" fill-rule="nonzero"/><path fill="#d2d2d3" d="M 67.191406 96.335938 L 67.1875 96.335938 C 67.191406 96.335938 67.1875 96.335938 67.191406 96.335938 M 67.183594 96.324219 C 66.191406 93.472656 65.570312 91.429688 65.527344 90.691406 C 65.570312 91.429688 66.191406 93.472656 67.183594 96.324219 M 65.527344 90.691406 C 65.527344 90.691406 65.527344 90.6875 65.527344 90.6875 C 65.527344 90.6875 65.527344 90.691406 65.527344 90.691406 M 65.527344 90.6875 C 65.527344 90.683594 65.523438 90.683594 65.523438 90.683594 C 65.523438 90.683594 65.527344 90.6875 65.527344 90.6875 M 65.523438 90.679688 L 65.523438 90.679688 M 65.523438 90.675781 L 65.523438 90.675781 M 65.523438 90.671875 C 65.523438 90.671875 65.523438 90.667969 65.523438 90.667969 C 65.523438 90.667969 65.523438 90.671875 65.523438 90.671875 M 65.523438 90.667969 C 65.523438 90.664062 65.523438 90.664062 65.523438 90.664062 C 65.523438 90.664062 65.523438 90.664062 65.523438 90.667969 M 65.523438 90.660156 L 65.523438 90.660156 M 65.523438 90.65625 L 65.523438 90.65625 M 65.523438 90.652344 L 65.523438 90.652344 M 65.523438 90.648438 C 65.523438 90.648438 65.523438 90.648438 65.523438 90.644531 C 65.523438 90.648438 65.523438 90.648438 65.523438 90.648438 M 65.523438 90.644531 L 65.523438 90.640625 C 65.523438 90.644531 65.523438 90.640625 65.523438 90.644531 M 65.523438 90.640625 C 65.523438 90.636719 65.523438 90.636719 65.523438 90.636719 C 65.523438 90.636719 65.523438 90.636719 65.523438 90.640625 M 65.523438 90.632812 L 65.523438 90.632812 M 65.523438 90.628906 L 65.523438 90.628906 M 65.523438 90.625 L 65.523438 90.625 M 65.523438 90.617188 L 65.523438 90.617188 " fill-opacity="1" fill-rule="nonzero"/><path fill="#adaeae" d="M 69.367188 102.308594 C 68.535156 100.09375 67.792969 98.066406 67.191406 96.335938 C 67.1875 96.335938 67.191406 96.335938 67.1875 96.335938 C 67.1875 96.332031 67.1875 96.328125 67.183594 96.324219 C 66.191406 93.472656 65.570312 91.429688 65.527344 90.691406 C 65.527344 90.691406 65.527344 90.6875 65.527344 90.6875 C 65.527344 90.6875 65.523438 90.683594 65.523438 90.683594 C 65.523438 90.683594 65.523438 90.683594 65.523438 90.679688 C 65.523438 90.679688 65.523438 90.675781 65.523438 90.675781 C 65.523438 90.671875 65.523438 90.671875 65.523438 90.671875 C 65.523438 90.671875 65.523438 90.667969 65.523438 90.667969 C 65.523438 90.664062 65.523438 90.664062 65.523438 90.664062 C 65.523438 90.664062 65.523438 90.664062 65.523438 90.660156 C 65.523438 90.660156 65.523438 90.65625 65.523438 90.65625 C 65.523438 90.652344 65.523438 90.652344 65.523438 90.652344 C 65.523438 90.648438 65.523438 90.648438 65.523438 90.648438 C 65.523438 90.648438 65.523438 90.648438 65.523438 90.644531 C 65.523438 90.640625 65.523438 90.644531 65.523438 90.640625 C 65.523438 90.636719 65.523438 90.636719 65.523438 90.636719 C 65.523438 90.636719 65.523438 90.636719 65.523438 90.632812 C 65.523438 90.632812 65.523438 90.632812 65.523438 90.628906 C 65.523438 90.628906 65.523438 90.625 65.523438 90.625 C 65.523438 90.625 65.523438 90.621094 65.523438 90.621094 C 65.523438 90.617188 65.523438 90.617188 65.523438 90.617188 C 65.523438 90.613281 65.523438 90.613281 65.523438 90.613281 C 65.523438 90.609375 65.523438 90.609375 65.523438 90.609375 C 65.523438 87.125 68.710938 63.621094 69.578125 62.460938 C 68.710938 63.621094 65.523438 87.125 65.523438 90.609375 C 65.523438 91.648438 67.101562 96.289062 69.367188 102.308594 M 69.597656 62.4375 C 69.785156 62.164062 70.277344 61.191406 70.945312 59.824219 C 70.273438 61.199219 69.785156 62.164062 69.597656 62.4375 " fill-opacity="1" fill-rule="nonzero"/><path fill="#2a2d30" d="M 74.273438 114.828125 C 72.511719 110.476562 70.800781 106.117188 69.367188 102.308594 C 67.101562 96.289062 65.523438 91.648438 65.523438 90.609375 C 65.523438 87.125 68.710938 63.621094 69.578125 62.460938 C 69.585938 62.457031 69.589844 62.449219 69.597656 62.441406 C 69.597656 62.441406 69.597656 62.4375 69.597656 62.4375 C 69.785156 62.164062 70.273438 61.199219 70.945312 59.824219 C 77.546875 63.796875 93.835938 73.683594 94.304688 73.683594 L 86 100.8125 C 86 100.8125 72.074219 94.222656 65.628906 91.300781 C 66.277344 94.320312 70.132812 104.601562 74.273438 114.828125 " fill-opacity="1" fill-rule="nonzero"/><path fill="#1c1f21" d="M 85.226562 137.902344 L 82.828125 134.660156 C 80.644531 130.140625 77.378906 122.5 74.273438 114.828125 C 70.132812 104.601562 66.277344 94.320312 65.628906 91.300781 C 72.074219 94.222656 86 100.8125 86 100.8125 L 85.226562 137.902344 " fill-opacity="1" fill-rule="nonzero"/><path fill="#212426" d="M 113.722656 65.523438 L 113.71875 65.523438 C 115.277344 64.828125 116.355469 64.328125 116.519531 64.203125 C 116.355469 64.328125 115.292969 64.820312 113.722656 65.523438 " fill-opacity="1" fill-rule="nonzero"/><g clip-path="url(#30afa5610a)"><path fill="#656767" d="M 136.515625 39.429688 C 136.515625 39.429688 136.511719 39.429688 136.511719 39.429688 C 136.515625 39.429688 136.515625 39.429688 136.515625 39.429688 M 136.511719 39.429688 C 135.019531 38.859375 133.851562 38.464844 133.328125 38.378906 C 133.296875 38.375 133.25 38.371094 133.191406 38.367188 C 133.25 38.371094 133.296875 38.375 133.328125 38.378906 C 133.851562 38.464844 135.019531 38.859375 136.511719 39.429688 " fill-opacity="1" fill-rule="nonzero"/></g><g clip-path="url(#7199100b46)"><path fill="#1e2023" d="M 131.480469 98.277344 L 113.722656 65.523438 C 115.292969 64.820312 116.355469 64.328125 116.519531 64.203125 C 117.292969 63.621094 122.703125 44.667969 122.703125 44.667969 L 130.941406 38.410156 C 131.785156 38.378906 132.4375 38.359375 132.855469 38.359375 C 132.992188 38.359375 133.105469 38.363281 133.191406 38.367188 C 133.25 38.371094 133.296875 38.375 133.328125 38.378906 C 133.851562 38.464844 135.019531 38.859375 136.511719 39.429688 C 136.511719 39.429688 136.515625 39.429688 136.515625 39.429688 C 139.9375 40.738281 145.0625 42.996094 147.988281 44.699219 C 141.636719 50.878906 131.777344 60.644531 131.78125 61.671875 C 131.78125 61.675781 131.78125 61.683594 131.78125 61.6875 L 131.78125 98.261719 L 131.480469 98.277344 " fill-opacity="1" fill-rule="nonzero"/></g><path fill="#17191a" d="M 131.78125 98.828125 L 131.480469 98.277344 L 131.78125 98.261719 L 131.78125 98.828125 " fill-opacity="1" fill-rule="nonzero"/><path fill="#5f656b" d="M 76.296875 63.050781 C 76.296875 63.050781 91.40625 71.167969 93.148438 71.457031 C 94.886719 71.746094 115.652344 64.394531 116.519531 64.203125 C 117.390625 64.011719 97.160156 74.9375 96.410156 75.035156 C 95.660156 75.132812 89.960938 87.878906 89.960938 87.871094 L 91.261719 75.460938 L 76.296875 63.050781 " fill-opacity="1" fill-rule="nonzero"/><path fill="#5f656b" d="M 133.429688 66.390625 C 133.429688 66.390625 140.765625 91.023438 141.054688 91.300781 C 141.34375 91.574219 141.34375 102.214844 141.054688 102.792969 C 140.90625 103.089844 141.734375 100.429688 142.621094 97.769531 C 143.476562 95.199219 144.390625 92.625 144.53125 92.726562 C 144.820312 92.929688 163.367188 98.054688 163.753906 98.152344 C 164.136719 98.246094 175.257812 111.941406 175.257812 111.941406 C 175.257812 111.941406 166.070312 96.410156 165.394531 95.832031 C 164.71875 95.25 144.820312 88.769531 144.433594 88.578125 C 144.046875 88.382812 133.429688 66.390625 133.429688 66.390625 " fill-opacity="1" fill-rule="nonzero"/><path fill="#212426" d="M 176.945312 114.578125 C 176.789062 114.242188 176.15625 113.261719 175.253906 111.933594 C 175.199219 111.839844 174.359375 110.417969 173.191406 108.460938 L 200.121094 81.660156 L 205.359375 81.148438 L 193.078125 95.667969 C 191.199219 96.355469 189.75 96.890625 189.519531 97.003906 C 189.140625 97.195312 182.632812 106.328125 176.945312 114.578125 " fill-opacity="1" fill-rule="nonzero"/><path fill="#1b1e20" d="M 171.546875 116.425781 L 173.035156 109.210938 C 174.347656 110.816406 175.257812 111.941406 175.257812 111.941406 C 175.257812 111.941406 175.257812 111.9375 175.253906 111.933594 C 176.15625 113.261719 176.789062 114.242188 176.945312 114.578125 C 176.910156 114.632812 176.875 114.683594 176.835938 114.738281 L 171.546875 116.425781 " fill-opacity="1" fill-rule="nonzero"/><path fill="#17191b" d="M 169.699219 125.386719 L 171.546875 116.425781 L 176.835938 114.738281 C 173.910156 118.988281 171.214844 122.984375 169.699219 125.386719 " fill-opacity="1" fill-rule="nonzero"/><path fill="#797a7b" d="M 209.34375 94.371094 C 210.007812 90.75 211.0625 85.15625 212.082031 80.492188 C 211.0625 85.15625 210.007812 90.75 209.34375 94.371094 " fill-opacity="1" fill-rule="nonzero"/><path fill="#101213" d="M 193.078125 95.667969 L 205.359375 81.148438 L 212.082031 80.492188 C 211.0625 85.15625 210.007812 90.75 209.34375 94.371094 L 203.015625 91.980469 C 201.839844 92.492188 196.671875 94.355469 193.078125 95.667969 " fill-opacity="1" fill-rule="nonzero"/><path fill="#33363a" d="M 175.257812 111.941406 C 175.257812 111.941406 174.347656 110.816406 173.035156 109.210938 L 173.191406 108.460938 C 174.359375 110.417969 175.199219 111.839844 175.253906 111.933594 C 175.257812 111.9375 175.257812 111.941406 175.257812 111.941406 " fill-opacity="1" fill-rule="nonzero"/><g clip-path="url(#cf4af019c9)"><path fill="#474b51" d="M 203.015625 91.980469 C 201.230469 92.761719 190.1875 96.667969 189.519531 97.003906 C 188.851562 97.339844 168.886719 125.816406 168.441406 127.605469 C 167.996094 129.390625 160.523438 148.039062 160.1875 149.046875 C 159.855469 150.050781 160.300781 167.808594 160.1875 168.253906 C 160.078125 168.703125 173.574219 179.980469 173.574219 179.980469 C 173.574219 179.980469 229.222656 171.382812 229.890625 171.046875 C 230.5625 170.710938 238.367188 147.257812 238.589844 146.925781 C 238.8125 146.589844 229.890625 129.503906 229.890625 129.503906 L 223.980469 99.90625 L 203.015625 91.980469 " fill-opacity="1" fill-rule="nonzero"/></g><path fill="#c3c4c4" d="M 161 146.9375 C 161.679688 145.210938 162.695312 142.636719 163.761719 139.921875 C 162.695312 142.636719 161.679688 145.210938 161 146.9375 " fill-opacity="1" fill-rule="nonzero"/><path fill="#393d41" d="M 176.582031 164.347656 C 175.988281 163.921875 166.789062 155.269531 162.4375 151.167969 C 162.839844 150.136719 163.078125 149.484375 163.078125 149.421875 C 163.078125 149.347656 162.128906 148.789062 160.609375 147.945312 C 160.71875 147.65625 160.851562 147.316406 161 146.9375 C 161.679688 145.210938 162.695312 142.636719 163.761719 139.921875 C 166.4375 139.929688 168.269531 139.933594 168.96875 139.933594 C 169.308594 139.933594 169.71875 139.925781 170.191406 139.90625 C 170.140625 142.285156 170.195312 146.800781 170.25 150.664062 L 170.25 150.683594 L 179.394531 139.332031 L 176.835938 134.824219 L 189.433594 144.398438 L 176.582031 164.347656 " fill-opacity="1" fill-rule="nonzero"/><path fill="#626464" d="M 178.179688 179.265625 C 183.621094 178.421875 193.128906 176.949219 202.515625 175.476562 C 193.128906 176.949219 183.621094 178.421875 178.179688 179.265625 M 160.089844 157.476562 C 160.085938 157.34375 160.085938 157.210938 160.085938 157.082031 C 160.085938 157.210938 160.089844 157.34375 160.089844 157.476562 " fill-opacity="1" fill-rule="nonzero"/><path fill="#232528" d="M 178.179688 179.265625 C 178.183594 179.261719 178.1875 179.253906 178.1875 179.246094 L 229.890625 171.046875 C 229.566406 171.210938 216.164062 173.339844 202.515625 175.476562 C 193.128906 176.949219 183.621094 178.421875 178.179688 179.265625 M 175.679688 169.039062 C 174.484375 166.894531 173.433594 165.078125 173.289062 165.007812 C 172.941406 164.832031 164.050781 158.3125 163.816406 158.140625 C 163.714844 158.0625 161.976562 157.773438 160.089844 157.476562 C 160.089844 157.34375 160.085938 157.210938 160.085938 157.082031 C 161.03125 154.738281 161.886719 152.589844 162.4375 151.167969 C 166.789062 155.269531 175.988281 163.921875 176.582031 164.347656 L 175.679688 169.039062 " fill-opacity="1" fill-rule="nonzero"/><path fill="#1c1f20" d="M 167.875 129.269531 C 168.015625 128.882812 168.132812 128.550781 168.226562 128.28125 C 168.132812 128.550781 168.015625 128.886719 167.875 129.269531 " fill-opacity="1" fill-rule="nonzero"/><path fill="#393d41" d="M 174.203125 132.824219 L 167.875 129.269531 C 168.015625 128.886719 168.132812 128.550781 168.226562 128.28125 L 174.203125 132.824219 " fill-opacity="1" fill-rule="nonzero"/><path fill="#222527" d="M 201.789062 146.367188 L 189.964844 144.800781 L 189.433594 144.398438 L 201.789062 146.367188 " fill-opacity="1" fill-rule="nonzero"/><path fill="#1e2022" d="M 182.585938 164.511719 C 179.058594 164.511719 176.75 164.464844 176.582031 164.347656 L 189.433594 144.398438 L 189.964844 144.800781 L 201.789062 146.367188 L 224.984375 163.789062 C 224.632812 163.875 195.476562 164.511719 182.585938 164.511719 " fill-opacity="1" fill-rule="nonzero"/><path fill="#16181a" d="M 178.1875 179.246094 C 178.242188 179.125 178.296875 179.007812 178.347656 178.890625 C 179.027344 177.363281 179.507812 176.238281 179.511719 176.078125 C 179.511719 176.070312 179.511719 176.066406 179.511719 176.0625 C 179.441406 175.890625 177.40625 172.128906 175.679688 169.039062 L 176.582031 164.347656 C 176.75 164.464844 179.058594 164.511719 182.585938 164.511719 C 195.476562 164.511719 224.632812 163.875 224.984375 163.789062 L 229.890625 171.046875 L 178.1875 179.246094 " fill-opacity="1" fill-rule="nonzero"/><path fill="#2d3034" d="M 201.789062 146.367188 L 196.433594 125.371094 L 223.980469 99.90625 L 229.890625 129.503906 L 201.789062 146.367188 " fill-opacity="1" fill-rule="nonzero"/><path fill="#6f7070" d="M 237.894531 145.246094 C 235.835938 140.886719 229.917969 129.558594 229.890625 129.503906 C 229.917969 129.558594 235.835938 140.886719 237.894531 145.246094 " fill-opacity="1" fill-rule="nonzero"/><g clip-path="url(#5eff3bf45b)"><path fill="#26292b" d="M 224.984375 163.789062 L 201.789062 146.367188 L 229.890625 129.503906 C 229.917969 129.558594 235.835938 140.886719 237.894531 145.246094 C 238.332031 146.167969 238.59375 146.777344 238.59375 146.902344 C 238.59375 146.914062 238.59375 146.921875 238.589844 146.925781 C 238.535156 147.007812 238.003906 148.535156 237.230469 150.789062 C 238.003906 148.535156 238.535156 147.007812 238.589844 146.925781 C 238.589844 146.925781 225.429688 163.675781 224.984375 163.789062 " fill-opacity="1" fill-rule="nonzero"/></g><path fill="#3c3e3f" d="M 229.890625 171.046875 C 230.394531 170.792969 234.910156 157.539062 237.230469 150.789062 C 234.910156 157.539062 230.394531 170.792969 229.890625 171.046875 " fill-opacity="1" fill-rule="nonzero"/><g clip-path="url(#4dc3ec707e)"><path fill="#1a1c1e" d="M 229.890625 171.046875 L 224.984375 163.789062 C 225.429688 163.675781 238.589844 146.925781 238.589844 146.925781 C 238.535156 147.007812 238.003906 148.535156 237.230469 150.789062 C 234.910156 157.539062 230.394531 170.792969 229.890625 171.046875 " fill-opacity="1" fill-rule="nonzero"/></g><path fill="#5f656b" d="M 191.636719 101.804688 C 191.863281 107.335938 194.539062 123.023438 195.320312 126.429688 C 196.101562 129.835938 201.925781 146.902344 201.789062 146.367188 C 201.652344 145.828125 197.492188 126.097656 197.492188 126.097656 C 197.492188 126.097656 208.050781 114.632812 207.953125 114.726562 C 207.851562 114.816406 197.046875 123.597656 196.714844 124.09375 C 196.378906 124.589844 191.636719 101.804688 191.636719 101.804688 " fill-opacity="1" fill-rule="nonzero"/><path fill="#5f656b" d="M 180.28125 137.441406 C 181.546875 139.050781 187.234375 144.160156 187.625 144.398438 C 188.015625 144.632812 178.945312 160.679688 179.046875 160.523438 C 179.148438 160.363281 189.632812 145.582031 189.632812 145.582031 L 194.4375 145.195312 L 189.464844 143.964844 L 180.28125 137.441406 " fill-opacity="1" fill-rule="nonzero"/><path fill="#1b1d1f" d="M 120.773438 123.960938 L 121.253906 111.015625 L 120.773438 123.960938 " fill-opacity="1" fill-rule="nonzero"/><path fill="#191b1d" d="M 133.375 128.617188 C 131.515625 126.195312 129.914062 124.109375 129.808594 123.96875 C 129.800781 123.960938 129.800781 123.960938 129.800781 123.960938 L 120.773438 123.960938 L 121.253906 111.015625 C 121.253906 111.015625 122.894531 109.050781 124.886719 106.699219 L 141.246094 106.699219 L 152.144531 117.519531 L 155.664062 121.5 L 133.375 128.617188 " fill-opacity="1" fill-rule="nonzero"/><path fill="#151819" d="M 164.058594 139.167969 L 138.390625 135.164062 C 137.246094 133.664062 135.1875 130.980469 133.375 128.617188 L 155.664062 121.5 L 157.273438 123.316406 L 167.875 129.269531 C 167.066406 131.472656 165.539062 135.394531 164.058594 139.167969 " fill-opacity="1" fill-rule="nonzero"/><path fill="#151719" d="M 88.144531 130.25 C 89.9375 123.894531 91.882812 116.753906 91.882812 116.753906 L 104.277344 106.699219 L 124.886719 106.699219 C 122.894531 109.050781 121.253906 111.015625 121.253906 111.015625 L 120.773438 123.960938 L 95.027344 123.960938 C 93.601562 125.292969 90.070312 128.367188 88.144531 130.25 " fill-opacity="1" fill-rule="nonzero"/><path fill="#101213" d="M 163.761719 139.921875 C 159.460938 139.902344 152.988281 139.875 145.570312 139.828125 C 142.0625 137.941406 139.398438 136.480469 139.273438 136.316406 C 139.210938 136.230469 138.886719 135.804688 138.390625 135.164062 L 164.058594 139.167969 C 163.960938 139.417969 163.859375 139.671875 163.761719 139.921875 " fill-opacity="1" fill-rule="nonzero"/><path fill="#222527" d="M 176.835938 134.824219 L 174.203125 132.824219 L 176.402344 134.058594 L 176.835938 134.824219 " fill-opacity="1" fill-rule="nonzero"/><path fill="#141617" d="M 164.058594 139.167969 C 165.539062 135.394531 167.066406 131.472656 167.875 129.269531 C 167.0625 131.476562 165.539062 135.398438 164.058594 139.167969 " fill-opacity="1" fill-rule="nonzero"/><path fill="#101213" d="M 163.761719 139.921875 C 163.859375 139.671875 163.960938 139.417969 164.058594 139.167969 C 163.960938 139.417969 163.859375 139.671875 163.761719 139.921875 " fill-opacity="1" fill-rule="nonzero"/><path fill="#1e2022" d="M 170.25 150.683594 L 170.25 150.664062 C 170.195312 146.800781 170.140625 142.285156 170.191406 139.90625 C 169.71875 139.925781 169.308594 139.933594 168.96875 139.933594 C 168.269531 139.933594 166.4375 139.929688 163.761719 139.921875 C 163.859375 139.671875 163.960938 139.417969 164.058594 139.167969 C 165.539062 135.398438 167.0625 131.476562 167.875 129.269531 L 174.203125 132.824219 L 176.835938 134.824219 L 179.394531 139.332031 L 170.25 150.683594 " fill-opacity="1" fill-rule="nonzero"/><path fill="#474b51" d="M 95.027344 123.960938 C 93.15625 125.707031 87.671875 130.449219 86.925781 131.574219 C 86.175781 132.695312 83.808594 149.546875 83.558594 150.292969 C 83.308594 151.042969 97.019531 172.886719 97.519531 173.257812 C 97.769531 173.445312 108.550781 173.351562 119.394531 173.257812 C 130.238281 173.164062 141.140625 173.070312 141.640625 173.257812 C 142.640625 173.632812 154.230469 169.890625 154.605469 169.890625 C 154.976562 169.890625 163.078125 149.796875 163.078125 149.421875 C 163.078125 149.046875 139.648438 136.816406 139.273438 136.316406 C 138.898438 135.816406 129.800781 123.960938 129.800781 123.960938 L 95.027344 123.960938 " fill-opacity="1" fill-rule="nonzero"/><path fill="#101213" d="M 139.8125 166.4375 L 123.316406 170.429688 L 102.171875 167.269531 L 83.558594 150.292969 C 83.308594 151.042969 97.019531 172.886719 97.519531 173.257812 C 97.769531 173.445312 108.550781 173.351562 119.394531 173.257812 C 130.238281 173.164062 141.144531 173.070312 141.640625 173.257812 C 142.636719 173.632812 154.230469 169.890625 154.605469 169.890625 L 142.140625 171.179688 L 139.8125 166.4375 " fill-opacity="1" fill-rule="nonzero"/><path fill="#323539" d="M 101.3125 166.484375 L 83.558594 150.292969 C 83.808594 149.546875 86.175781 132.695312 86.925781 131.574219 C 86.984375 131.484375 87.082031 131.363281 87.199219 131.230469 L 109.816406 149.421875 L 124.609375 154.371094 C 124.609375 154.371094 141.390625 154.371094 141.640625 154.371094 C 141.890625 154.371094 163.078125 149.421875 163.078125 149.421875 C 163.078125 149.421875 141.890625 154.371094 141.640625 154.371094 C 141.390625 154.371094 124.609375 154.371094 124.609375 154.371094 L 109.816406 149.421875 L 101.3125 166.484375 " fill-opacity="1" fill-rule="nonzero"/><path fill="#101213" d="M 102.6875 173.367188 C 99.609375 173.367188 97.625 173.339844 97.519531 173.257812 C 97.027344 172.890625 83.550781 151.425781 83.558594 150.320312 C 83.558594 150.308594 83.558594 150.300781 83.558594 150.292969 L 101.3125 166.484375 L 97.910156 173.304688 C 98.628906 173.351562 100.351562 173.367188 102.71875 173.367188 C 106.921875 173.367188 113.152344 173.3125 119.40625 173.257812 C 120.566406 173.25 121.730469 173.238281 122.882812 173.230469 C 127.054688 173.195312 131.0625 173.164062 134.296875 173.15625 C 130.898438 173.164062 126.636719 173.199219 122.238281 173.234375 C 121.292969 173.242188 120.34375 173.25 119.394531 173.257812 C 113.132812 173.3125 106.894531 173.367188 102.6875 173.367188 M 141.640625 173.257812 L 141.640625 173.257812 M 141.640625 173.257812 L 141.640625 173.257812 M 141.636719 173.257812 L 141.636719 173.257812 M 141.636719 173.257812 L 141.636719 173.257812 M 141.636719 173.257812 C 141.636719 173.257812 141.636719 173.257812 141.632812 173.257812 C 141.636719 173.257812 141.636719 173.257812 141.636719 173.257812 M 141.632812 173.257812 L 141.632812 173.257812 M 141.632812 173.257812 L 141.632812 173.257812 M 141.632812 173.257812 C 141.632812 173.257812 141.628906 173.257812 141.628906 173.257812 C 141.628906 173.257812 141.632812 173.257812 141.632812 173.257812 M 141.628906 173.257812 C 141.628906 173.253906 141.628906 173.253906 141.628906 173.253906 C 141.628906 173.253906 141.628906 173.253906 141.628906 173.257812 M 141.628906 173.253906 L 141.628906 173.253906 M 141.625 173.253906 L 141.625 173.253906 M 141.625 173.253906 L 141.625 173.253906 M 141.625 173.253906 C 141.621094 173.253906 141.621094 173.253906 141.621094 173.253906 C 141.621094 173.253906 141.621094 173.253906 141.625 173.253906 M 141.621094 173.253906 C 141.617188 173.253906 141.617188 173.253906 141.617188 173.253906 C 141.617188 173.253906 141.617188 173.253906 141.621094 173.253906 M 138.207031 173.15625 C 137.667969 173.152344 137.070312 173.152344 136.429688 173.152344 C 137.070312 173.152344 137.667969 173.152344 138.207031 173.15625 " fill-opacity="1" fill-rule="nonzero"/><path fill="#5d5e5f" d="M 159.933594 157.453125 C 159.984375 157.328125 160.035156 157.203125 160.085938 157.082031 C 160.035156 157.203125 159.984375 157.328125 159.933594 157.453125 " fill-opacity="1" fill-rule="nonzero"/><path fill="#16181a" d="M 160.085938 157.082031 C 161.03125 154.738281 161.886719 152.589844 162.4375 151.167969 C 161.886719 152.589844 161.03125 154.738281 160.085938 157.082031 " fill-opacity="1" fill-rule="nonzero"/><path fill="#222427" d="M 123.140625 170.402344 L 102.171875 167.269531 L 101.3125 166.484375 L 109.816406 149.421875 L 124.609375 154.371094 C 124.609375 154.371094 141.390625 154.371094 141.640625 154.371094 C 141.890625 154.371094 163.078125 149.421875 163.078125 149.421875 C 163.078125 149.484375 162.839844 150.136719 162.4375 151.167969 C 161.886719 152.589844 161.03125 154.738281 160.085938 157.082031 C 160.035156 157.203125 159.984375 157.328125 159.933594 157.453125 C 160.289062 156.582031 160.628906 155.730469 160.949219 154.929688 L 154.605469 153.621094 L 141.640625 157.527344 L 141.058594 158.226562 L 141.640625 154.371094 C 141.390625 154.371094 124.609375 154.371094 124.609375 154.371094 L 123.140625 170.402344 " fill-opacity="1" fill-rule="nonzero"/><path fill="#101213" d="M 102.71875 173.367188 C 100.351562 173.367188 98.628906 173.351562 97.910156 173.304688 L 101.3125 166.484375 L 102.171875 167.269531 L 123.140625 170.402344 L 122.882812 173.230469 C 121.730469 173.238281 120.566406 173.25 119.40625 173.257812 C 113.152344 173.3125 106.921875 173.367188 102.71875 173.367188 " fill-opacity="1" fill-rule="nonzero"/><path fill="#101213" d="M 141.679688 173.269531 C 141.667969 173.269531 141.652344 173.265625 141.640625 173.257812 C 141.652344 173.265625 141.667969 173.269531 141.679688 173.269531 " fill-opacity="1" fill-rule="nonzero"/><path fill="#101213" d="M 141.640625 173.257812 L 141.640625 173.257812 M 141.640625 173.257812 L 141.640625 173.257812 M 141.636719 173.257812 L 141.636719 173.257812 M 141.636719 173.257812 L 141.636719 173.257812 M 141.636719 173.257812 C 141.636719 173.257812 141.636719 173.257812 141.632812 173.257812 C 141.636719 173.257812 141.636719 173.257812 141.636719 173.257812 M 141.632812 173.257812 L 141.632812 173.257812 M 141.632812 173.257812 L 141.632812 173.257812 M 141.632812 173.257812 C 141.632812 173.257812 141.628906 173.257812 141.628906 173.257812 C 141.628906 173.257812 141.632812 173.257812 141.632812 173.257812 M 141.628906 173.257812 C 141.628906 173.253906 141.628906 173.253906 141.628906 173.253906 C 141.628906 173.253906 141.628906 173.253906 141.628906 173.257812 M 141.628906 173.253906 L 141.628906 173.253906 M 138.207031 173.15625 C 137.667969 173.152344 137.070312 173.152344 136.433594 173.152344 L 137.558594 170.914062 L 138.207031 173.15625 " fill-opacity="1" fill-rule="nonzero"/><path fill="#68696a" d="M 134.296875 173.15625 C 134.976562 173.152344 135.621094 173.152344 136.222656 173.152344 C 136.292969 173.152344 136.363281 173.152344 136.429688 173.152344 C 136.359375 173.152344 136.289062 173.152344 136.21875 173.152344 C 135.617188 173.152344 134.972656 173.152344 134.296875 173.15625 " fill-opacity="1" fill-rule="nonzero"/><path fill="#101213" d="M 122.882812 173.230469 C 127.921875 173.1875 132.726562 173.152344 136.214844 173.152344 C 136.289062 173.152344 136.359375 173.152344 136.433594 173.152344 L 136.429688 173.152344 C 136.363281 173.152344 136.292969 173.152344 136.222656 173.152344 C 135.621094 173.152344 134.976562 173.152344 134.296875 173.15625 C 131.0625 173.164062 127.054688 173.195312 122.882812 173.230469 " fill-opacity="1" fill-rule="nonzero"/><path fill="#17191a" d="M 123.316406 170.429688 L 123.140625 170.402344 L 124.609375 154.371094 C 124.609375 154.371094 141.390625 154.371094 141.640625 154.371094 L 141.058594 158.226562 L 135.730469 164.589844 L 136.496094 167.238281 L 123.316406 170.429688 " fill-opacity="1" fill-rule="nonzero"/><path fill="#101213" d="M 122.882812 173.230469 L 123.140625 170.402344 L 123.316406 170.429688 L 136.496094 167.238281 L 137.558594 170.914062 L 136.429688 173.152344 C 136.359375 173.152344 136.289062 173.152344 136.214844 173.152344 C 132.726562 173.152344 127.921875 173.1875 122.882812 173.230469 " fill-opacity="1" fill-rule="nonzero"/><path fill="#161819" d="M 133.375 128.617188 C 131.515625 126.195312 129.914062 124.109375 129.808594 123.96875 C 129.914062 124.109375 131.515625 126.195312 133.375 128.617188 " fill-opacity="1" fill-rule="nonzero"/><path fill="#131617" d="M 138.390625 135.164062 C 137.246094 133.664062 135.1875 130.980469 133.375 128.617188 C 135.1875 130.980469 137.246094 133.664062 138.390625 135.164062 " fill-opacity="1" fill-rule="nonzero"/><path fill="#101213" d="M 139.273438 136.316406 C 139.207031 136.230469 138.882812 135.804688 138.390625 135.164062 C 138.886719 135.804688 139.210938 136.230469 139.273438 136.316406 " fill-opacity="1" fill-rule="nonzero"/><path fill="#323539" d="M 117.960938 142.335938 C 117.75 142.335938 117.632812 142.300781 117.628906 142.222656 C 117.542969 141.140625 129.800781 123.960938 129.800781 123.960938 C 129.800781 123.960938 129.800781 123.960938 129.808594 123.96875 C 129.914062 124.109375 131.515625 126.195312 133.375 128.617188 C 135.1875 130.980469 137.246094 133.664062 138.390625 135.164062 C 138.882812 135.804688 139.207031 136.230469 139.273438 136.316406 C 139.21875 136.332031 120.691406 142.335938 117.960938 142.335938 " fill-opacity="1" fill-rule="nonzero"/><path fill="#101213" d="M 141.640625 157.527344 L 135.730469 164.589844 L 138.207031 173.15625 C 140.210938 173.167969 141.480469 173.199219 141.640625 173.257812 C 142.34375 173.523438 148.277344 171.75 151.871094 170.675781 C 152.964844 170.117188 154.046875 169.5625 155.078125 169.023438 C 156.191406 166.640625 158.980469 159.851562 160.949219 154.929688 L 154.605469 153.621094 L 141.640625 157.527344 " fill-opacity="1" fill-rule="nonzero"/><path fill="#474b51" d="M 155.21875 156.742188 C 153.878906 157.035156 144.40625 159.59375 143.824219 160.234375 C 143.246094 160.875 140.746094 165.765625 140.628906 165.996094 C 140.511719 166.230469 141.035156 171.410156 141.09375 171.640625 C 141.152344 171.875 146.152344 185.433594 146.382812 185.726562 C 146.613281 186.015625 148.359375 187.589844 148.417969 187.878906 C 148.476562 188.167969 158.121094 190.789062 158.121094 190.789062 C 158.121094 190.789062 165.734375 190.847656 165.910156 190.789062 C 166.085938 190.730469 173.757812 188.867188 173.757812 188.867188 C 173.757812 188.867188 179.625 176.355469 179.511719 176.0625 C 179.394531 175.773438 173.640625 165.179688 173.289062 165.007812 C 172.941406 164.832031 164.050781 158.3125 163.816406 158.140625 C 163.585938 157.964844 155.21875 156.742188 155.21875 156.742188 " fill-opacity="1" fill-rule="nonzero"/><path fill="#131516" d="M 178.347656 178.890625 C 179.027344 177.367188 179.507812 176.238281 179.511719 176.078125 C 179.507812 176.238281 179.027344 177.363281 178.347656 178.890625 " fill-opacity="1" fill-rule="nonzero"/><path fill="#292c2f" d="M 166.023438 190.425781 C 165.386719 190.425781 157.277344 186.496094 157.019531 186.496094 C 156.988281 186.496094 156.804688 186.476562 156.507812 186.441406 C 157.625 184.082031 158.570312 182.082031 158.585938 182.042969 L 157.105469 178.117188 C 157.109375 178.121094 157.113281 178.121094 157.121094 178.121094 C 157.253906 178.121094 158.058594 177.300781 158.863281 176.480469 C 158.921875 176.421875 158.980469 176.359375 159.039062 176.300781 L 160.59375 174.839844 C 160.617188 174.847656 160.6875 174.847656 160.789062 174.847656 C 161.019531 174.847656 161.417969 174.839844 161.863281 174.828125 C 162.304688 174.816406 162.796875 174.808594 163.222656 174.808594 C 163.773438 174.808594 164.207031 174.824219 164.253906 174.886719 C 164.382812 175.0625 171.054688 180.734375 171.054688 180.734375 L 170.3125 186.628906 C 170.3125 186.628906 166.519531 190.335938 166.042969 190.425781 C 166.035156 190.425781 166.03125 190.425781 166.023438 190.425781 " fill-opacity="1" fill-rule="nonzero"/><path fill="#101213" d="M 170.3125 186.628906 C 170.3125 186.628906 166.519531 190.335938 166.042969 190.425781 C 165.5625 190.511719 157.28125 186.496094 157.019531 186.496094 C 156.792969 186.496094 148.445312 185.457031 146.140625 185.171875 C 146.273438 185.496094 146.355469 185.691406 146.382812 185.726562 C 146.613281 186.015625 148.359375 187.589844 148.417969 187.878906 C 148.476562 188.167969 158.121094 190.789062 158.121094 190.789062 C 158.121094 190.789062 165.734375 190.847656 165.910156 190.789062 C 166.085938 190.730469 173.757812 188.867188 173.757812 188.867188 C 173.757812 188.867188 179.625 176.355469 179.511719 176.0625 L 171.054688 180.734375 L 170.3125 186.628906 " fill-opacity="1" fill-rule="nonzero"/><path fill="#8e8f90" d="M 152.121094 189.105469 C 150.167969 188.535156 148.476562 188.011719 148.417969 187.882812 C 148.417969 187.882812 148.417969 187.882812 148.417969 187.886719 C 148.417969 187.886719 148.421875 187.886719 148.421875 187.886719 C 148.480469 187.972656 149.128906 188.199219 150.070312 188.492188 C 150.074219 188.492188 150.074219 188.492188 150.074219 188.492188 C 150.667969 188.675781 151.375 188.886719 152.121094 189.105469 M 148.417969 187.882812 L 148.417969 187.882812 M 148.417969 187.882812 C 148.417969 187.878906 148.417969 187.878906 148.417969 187.878906 C 148.417969 187.878906 148.417969 187.878906 148.417969 187.882812 M 148.417969 187.878906 L 148.417969 187.878906 M 148.417969 187.878906 L 148.417969 187.878906 M 145.652344 183.921875 C 145.652344 183.921875 145.652344 183.917969 145.652344 183.917969 C 145.652344 183.917969 145.652344 183.917969 145.652344 183.921875 M 145.648438 183.914062 C 145.644531 183.90625 145.644531 183.898438 145.640625 183.890625 C 145.644531 183.898438 145.644531 183.90625 145.648438 183.914062 M 145.636719 183.875 L 145.636719 183.875 M 145.632812 183.871094 C 145.625 183.851562 145.621094 183.835938 145.613281 183.816406 C 145.621094 183.835938 145.625 183.851562 145.632812 183.871094 M 145.613281 183.816406 C 144.90625 181.96875 143.832031 179.101562 142.910156 176.609375 C 143.832031 179.101562 144.90625 181.96875 145.613281 183.816406 " fill-opacity="1" fill-rule="nonzero"/><path fill="#1d2022" d="M 156.507812 186.441406 C 156.507812 186.441406 156.503906 186.441406 156.503906 186.441406 L 158.585938 182.042969 C 158.570312 182.082031 157.625 184.082031 156.507812 186.441406 " fill-opacity="1" fill-rule="nonzero"/><path fill="#101213" d="M 154.882812 189.890625 C 154.878906 189.890625 154.871094 189.890625 154.867188 189.890625 L 156.503906 186.441406 C 156.503906 186.441406 156.507812 186.441406 156.507812 186.441406 C 155.976562 187.570312 155.40625 188.777344 154.882812 189.890625 M 154.355469 189.742188 C 153.621094 189.539062 152.851562 189.316406 152.121094 189.105469 C 151.375 188.886719 150.667969 188.675781 150.074219 188.492188 C 151.25 188.859375 152.871094 189.328125 154.355469 189.742188 M 150.074219 188.492188 C 150.074219 188.492188 150.074219 188.492188 150.070312 188.492188 C 150.074219 188.492188 150.074219 188.492188 150.074219 188.492188 M 148.417969 187.882812 L 148.417969 187.882812 M 148.417969 187.882812 C 148.417969 187.878906 148.417969 187.878906 148.417969 187.878906 C 148.417969 187.878906 148.417969 187.878906 148.417969 187.882812 " fill-opacity="1" fill-rule="nonzero"/><path fill="#101213" d="M 155.410156 156.773438 C 155.289062 156.753906 155.222656 156.742188 155.21875 156.742188 C 155.222656 156.742188 155.292969 156.753906 155.410156 156.773438 " fill-opacity="1" fill-rule="nonzero"/><path fill="#3b3e43" d="M 157.105469 178.117188 C 156.976562 177.941406 146.140625 174.230469 146.140625 174.230469 C 146.140625 174.230469 144.160156 167.507812 144.160156 167.378906 C 144.160156 167.246094 143.824219 160.234375 143.824219 160.234375 C 144.40625 159.59375 153.878906 157.035156 155.21875 156.742188 C 155.222656 156.742188 155.289062 156.753906 155.410156 156.773438 C 155.316406 159.625 155.066406 167.097656 155.101562 167.203125 C 155.144531 167.335938 160.59375 174.839844 160.59375 174.839844 C 160.589844 174.839844 160.589844 174.839844 160.585938 174.839844 C 160.472656 174.839844 159.777344 175.546875 159.039062 176.300781 L 157.105469 178.117188 " fill-opacity="1" fill-rule="nonzero"/><path fill="#101213" d="M 140.636719 165.980469 C 140.832031 165.59375 143.253906 160.863281 143.824219 160.234375 C 143.253906 160.863281 140.832031 165.59375 140.636719 165.980469 " fill-opacity="1" fill-rule="nonzero"/><path fill="#242629" d="M 146.382812 185.726562 L 146.382812 185.726562 M 146.382812 185.726562 L 146.382812 185.722656 C 146.382812 185.722656 146.382812 185.726562 146.382812 185.726562 M 146.382812 185.722656 L 146.382812 185.722656 M 146.382812 185.722656 C 146.382812 185.722656 146.378906 185.722656 146.378906 185.722656 C 146.378906 185.722656 146.382812 185.722656 146.382812 185.722656 M 146.378906 185.722656 L 146.378906 185.722656 M 146.378906 185.722656 C 146.378906 185.722656 146.378906 185.722656 146.378906 185.71875 C 146.378906 185.722656 146.378906 185.722656 146.378906 185.722656 M 146.378906 185.71875 L 146.378906 185.71875 M 146.378906 185.71875 L 146.378906 185.71875 M 146.378906 185.71875 L 146.378906 185.71875 M 146.378906 185.71875 C 146.378906 185.71875 146.378906 185.71875 146.375 185.714844 C 146.378906 185.71875 146.378906 185.71875 146.378906 185.71875 M 146.375 185.714844 C 146.375 185.714844 146.375 185.714844 146.375 185.710938 C 146.375 185.714844 146.375 185.714844 146.375 185.714844 M 146.375 185.710938 L 146.375 185.710938 M 146.375 185.710938 C 146.375 185.710938 146.371094 185.710938 146.371094 185.707031 C 146.371094 185.710938 146.375 185.710938 146.375 185.710938 M 146.371094 185.707031 C 146.371094 185.707031 146.371094 185.703125 146.367188 185.703125 C 146.371094 185.703125 146.371094 185.707031 146.371094 185.707031 M 146.367188 185.703125 C 146.332031 185.636719 146.261719 185.46875 146.160156 185.214844 C 146.160156 185.21875 146.160156 185.21875 146.164062 185.222656 C 146.261719 185.472656 146.335938 185.636719 146.367188 185.703125 M 146.140625 185.171875 C 146.015625 184.863281 145.851562 184.433594 145.652344 183.921875 C 145.851562 184.433594 146.015625 184.863281 146.140625 185.171875 M 145.652344 183.917969 C 145.652344 183.914062 145.648438 183.914062 145.648438 183.914062 C 145.648438 183.914062 145.652344 183.914062 145.652344 183.917969 M 145.640625 183.890625 C 145.640625 183.886719 145.636719 183.882812 145.636719 183.875 C 145.636719 183.878906 145.640625 183.886719 145.640625 183.890625 M 145.636719 183.875 C 145.632812 183.875 145.632812 183.871094 145.632812 183.871094 C 145.632812 183.871094 145.632812 183.871094 145.636719 183.875 M 145.613281 183.816406 L 145.613281 183.816406 M 157.105469 178.117188 L 146.140625 174.230469 L 142.910156 176.609375 C 141.929688 173.957031 141.117188 171.734375 141.09375 171.640625 C 141.042969 171.433594 140.613281 167.210938 140.613281 166.203125 C 140.613281 166.089844 140.617188 166.019531 140.628906 165.996094 C 140.632812 165.992188 140.632812 165.988281 140.636719 165.980469 C 140.832031 165.59375 143.253906 160.863281 143.824219 160.234375 C 143.824219 160.234375 144.160156 167.246094 144.160156 167.378906 C 144.160156 167.507812 146.140625 174.230469 146.140625 174.230469 C 146.140625 174.230469 156.976562 177.941406 157.105469 178.117188 M 159.039062 176.300781 C 159.777344 175.546875 160.472656 174.839844 160.585938 174.839844 C 160.589844 174.839844 160.589844 174.839844 160.59375 174.839844 L 159.039062 176.300781 " fill-opacity="1" fill-rule="nonzero"/><path fill="#101213" d="M 154.867188 189.890625 C 154.699219 189.839844 154.527344 189.792969 154.355469 189.742188 C 154.527344 189.792969 154.699219 189.839844 154.867188 189.890625 M 146.382812 185.726562 L 146.382812 185.726562 M 146.164062 185.222656 C 146.160156 185.21875 146.160156 185.21875 146.160156 185.214844 C 146.152344 185.199219 146.148438 185.1875 146.140625 185.171875 C 146.148438 185.191406 146.15625 185.207031 146.164062 185.222656 " fill-opacity="1" fill-rule="nonzero"/><path fill="#727474" d="M 150.074219 188.492188 L 150.074219 188.492188 M 150.070312 188.492188 C 149.128906 188.199219 148.480469 187.972656 148.421875 187.886719 C 148.480469 187.972656 149.132812 188.199219 150.070312 188.492188 M 148.421875 187.886719 C 148.421875 187.886719 148.417969 187.886719 148.417969 187.886719 C 148.417969 187.886719 148.421875 187.886719 148.421875 187.886719 M 148.417969 187.886719 C 148.417969 187.882812 148.417969 187.882812 148.417969 187.882812 C 148.417969 187.882812 148.417969 187.882812 148.417969 187.886719 M 148.417969 187.882812 L 148.417969 187.882812 M 148.417969 187.882812 L 148.417969 187.882812 M 148.417969 187.882812 L 148.417969 187.882812 M 148.417969 187.878906 L 148.417969 187.878906 M 148.417969 187.878906 L 148.417969 187.878906 " fill-opacity="1" fill-rule="nonzero"/><path fill="#1a1d1f" d="M 156.503906 186.441406 C 154.613281 186.226562 148.128906 185.421875 146.140625 185.171875 C 146.015625 184.863281 145.851562 184.433594 145.652344 183.921875 C 145.652344 183.917969 145.652344 183.917969 145.652344 183.917969 C 145.652344 183.914062 145.648438 183.914062 145.648438 183.914062 C 145.644531 183.90625 145.644531 183.898438 145.640625 183.890625 C 145.640625 183.886719 145.636719 183.878906 145.636719 183.875 C 145.632812 183.871094 145.632812 183.871094 145.632812 183.871094 C 145.625 183.851562 145.621094 183.835938 145.613281 183.816406 C 144.90625 181.96875 143.832031 179.101562 142.910156 176.609375 L 146.140625 174.230469 L 157.105469 178.117188 L 158.585938 182.042969 L 156.503906 186.441406 " fill-opacity="1" fill-rule="nonzero"/><path fill="#1a1d1f" d="M 146.382812 185.726562 C 146.382812 185.726562 146.382812 185.722656 146.382812 185.722656 C 146.382812 185.722656 146.378906 185.722656 146.378906 185.722656 C 146.378906 185.722656 146.378906 185.722656 146.378906 185.71875 C 146.378906 185.71875 146.378906 185.71875 146.375 185.714844 C 146.375 185.714844 146.375 185.714844 146.375 185.710938 C 146.375 185.710938 146.371094 185.710938 146.371094 185.707031 C 146.371094 185.707031 146.371094 185.703125 146.367188 185.703125 C 146.335938 185.636719 146.261719 185.472656 146.164062 185.222656 C 146.28125 185.515625 146.355469 185.691406 146.382812 185.726562 " fill-opacity="1" fill-rule="nonzero"/><path fill="#101213" d="M 154.867188 189.890625 C 154.699219 189.839844 154.527344 189.792969 154.355469 189.742188 C 152.871094 189.328125 151.25 188.859375 150.074219 188.492188 C 150.074219 188.492188 150.074219 188.492188 150.070312 188.492188 C 149.132812 188.199219 148.480469 187.972656 148.421875 187.886719 C 148.421875 187.886719 148.417969 187.886719 148.417969 187.886719 C 148.417969 187.882812 148.417969 187.882812 148.417969 187.882812 C 148.417969 187.878906 148.417969 187.878906 148.417969 187.878906 C 148.359375 187.589844 146.613281 186.015625 146.382812 185.726562 C 146.355469 185.691406 146.28125 185.515625 146.164062 185.222656 C 146.15625 185.207031 146.148438 185.191406 146.140625 185.171875 C 148.128906 185.421875 154.613281 186.226562 156.503906 186.441406 L 154.867188 189.890625 " fill-opacity="1" fill-rule="nonzero"/></svg>