<svg xmlns="http://www.w3.org/2000/svg" xmlns:xlink="http://www.w3.org/1999/xlink" width="331" zoomAndPan="magnify" viewBox="0 0 248.25 219" height="292" preserveAspectRatio="xMidYMid meet" version="1.0"><defs><clipPath id="969a33a228"><path d="M 102.164062 71.125 L 118 71.125 L 118 83 L 102.164062 83 Z M 102.164062 71.125 " clip-rule="nonzero"/></clipPath><clipPath id="db7acea821"><path d="M 129 71.125 L 145.53125 71.125 L 145.53125 83 L 129 83 Z M 129 71.125 " clip-rule="nonzero"/></clipPath><clipPath id="516d902c2b"><path d="M 123 82 L 145.53125 82 L 145.53125 107.765625 L 123 107.765625 Z M 123 82 " clip-rule="nonzero"/></clipPath><clipPath id="bebece63ec"><path d="M 102.164062 71.125 L 134 71.125 L 134 107.765625 L 102.164062 107.765625 Z M 102.164062 71.125 " clip-rule="nonzero"/></clipPath><clipPath id="234ba63b6a"><path d="M 114 82 L 134 82 L 134 107.765625 L 114 107.765625 Z M 114 82 " clip-rule="nonzero"/></clipPath><clipPath id="366b11326e"><path d="M 38.066406 37.953125 L 101 37.953125 L 101 81 L 38.066406 81 Z M 38.066406 37.953125 " clip-rule="nonzero"/></clipPath><clipPath id="aedf65c801"><path d="M 147 37.953125 L 210 37.953125 L 210 81 L 147 81 Z M 147 37.953125 " clip-rule="nonzero"/></clipPath><clipPath id="89a4ac86ac"><path d="M 124 80 L 210 80 L 210 180.773438 L 124 180.773438 Z M 124 80 " clip-rule="nonzero"/></clipPath><clipPath id="472dc6d4cb"><path d="M 38.066406 37.953125 L 163 37.953125 L 163 180.773438 L 38.066406 180.773438 Z M 38.066406 37.953125 " clip-rule="nonzero"/></clipPath><clipPath id="597539a945"><path d="M 85 80 L 163 80 L 163 180.773438 L 85 180.773438 Z M 85 80 " clip-rule="nonzero"/></clipPath></defs><g clip-path="url(#969a33a228)"><path fill="#bdddf4" d="M 117.828125 71.125 L 110.605469 71.125 L 102.175781 82.117188 L 114.214844 82.117188 Z M 117.828125 71.125 " fill-opacity="1" fill-rule="nonzero"/></g><g clip-path="url(#db7acea821)"><path fill="#5dadec" d="M 145.519531 82.117188 L 137.089844 71.125 L 129.867188 71.125 L 133.480469 82.117188 Z M 145.519531 82.117188 " fill-opacity="1" fill-rule="nonzero"/></g><g clip-path="url(#516d902c2b)"><path fill="#4289c1" d="M 133.480469 82.117188 L 145.519531 82.117188 L 123.847656 107.765625 Z M 133.480469 82.117188 " fill-opacity="1" fill-rule="nonzero"/></g><g clip-path="url(#bebece63ec)"><path fill="#8ccaf7" d="M 114.214844 82.117188 L 102.175781 82.117188 L 123.847656 107.765625 Z M 117.828125 71.125 L 114.214844 82.117188 L 133.480469 82.117188 L 129.867188 71.125 Z M 117.828125 71.125 " fill-opacity="1" fill-rule="nonzero"/></g><g clip-path="url(#234ba63b6a)"><path fill="#5dadec" d="M 123.847656 107.765625 L 114.214844 82.117188 L 133.480469 82.117188 Z M 123.847656 107.765625 " fill-opacity="1" fill-rule="nonzero"/></g><g clip-path="url(#366b11326e)"><path fill="#bdddf4" d="M 100.183594 37.953125 L 71.542969 37.953125 L 38.125 80.800781 L 85.863281 80.800781 Z M 100.183594 37.953125 " fill-opacity="1" fill-rule="nonzero"/></g><g clip-path="url(#aedf65c801)"><path fill="#5dadec" d="M 209.988281 80.800781 L 176.570312 37.953125 L 147.925781 37.953125 L 162.246094 80.800781 Z M 209.988281 80.800781 " fill-opacity="1" fill-rule="nonzero"/></g><g clip-path="url(#89a4ac86ac)"><path fill="#4289c1" d="M 162.246094 80.800781 L 209.988281 80.800781 L 124.054688 180.773438 Z M 162.246094 80.800781 " fill-opacity="1" fill-rule="nonzero"/></g><g clip-path="url(#472dc6d4cb)"><path fill="#8ccaf7" d="M 85.863281 80.800781 L 38.125 80.800781 L 124.054688 180.773438 Z M 100.183594 37.953125 L 85.863281 80.800781 L 162.246094 80.800781 L 147.925781 37.953125 Z M 100.183594 37.953125 " fill-opacity="1" fill-rule="nonzero"/></g><g clip-path="url(#597539a945)"><path fill="#5dadec" d="M 124.054688 180.773438 L 85.863281 80.800781 L 162.246094 80.800781 Z M 124.054688 180.773438 " fill-opacity="1" fill-rule="nonzero"/></g></svg>