<svg xmlns="http://www.w3.org/2000/svg" xmlns:xlink="http://www.w3.org/1999/xlink" width="455" zoomAndPan="magnify" viewBox="0 0 341.25 341.249987" height="455" preserveAspectRatio="xMidYMid meet" version="1.0"><defs><clipPath id="40dce41115"><path d="M 154.453125 37.964844 L 161 37.964844 L 161 43 L 154.453125 43 Z M 154.453125 37.964844 " clip-rule="nonzero"/></clipPath><clipPath id="a0e18263d0"><path d="M 164 37.964844 L 170.917969 37.964844 L 170.917969 43 L 164 43 Z M 164 37.964844 " clip-rule="nonzero"/></clipPath><clipPath id="d08b3ee482"><path d="M 162 42 L 170.917969 42 L 170.917969 52.183594 L 162 52.183594 Z M 162 42 " clip-rule="nonzero"/></clipPath><clipPath id="08e8c98967"><path d="M 154.453125 37.964844 L 167 37.964844 L 167 52.183594 L 154.453125 52.183594 Z M 154.453125 37.964844 " clip-rule="nonzero"/></clipPath><clipPath id="f9beb584ce"><path d="M 159 42 L 167 42 L 167 52.183594 L 159 52.183594 Z M 159 42 " clip-rule="nonzero"/></clipPath><clipPath id="f5f86595d6"><path d="M 37.574219 37.964844 L 302.488281 37.964844 L 302.488281 302.882812 L 37.574219 302.882812 Z M 37.574219 37.964844 " clip-rule="nonzero"/></clipPath></defs><g clip-path="url(#40dce41115)"><path fill="#bdddf4" d="M 160.398438 37.964844 L 157.65625 37.964844 L 154.457031 42.230469 L 159.027344 42.230469 Z M 160.398438 37.964844 " fill-opacity="1" fill-rule="nonzero"/></g><g clip-path="url(#a0e18263d0)"><path fill="#5dadec" d="M 170.914062 42.230469 L 167.710938 37.964844 L 164.96875 37.964844 L 166.339844 42.230469 Z M 170.914062 42.230469 " fill-opacity="1" fill-rule="nonzero"/></g><g clip-path="url(#d08b3ee482)"><path fill="#4289c1" d="M 166.339844 42.230469 L 170.914062 42.230469 L 162.683594 52.183594 Z M 166.339844 42.230469 " fill-opacity="1" fill-rule="nonzero"/></g><g clip-path="url(#08e8c98967)"><path fill="#8ccaf7" d="M 159.027344 42.230469 L 154.457031 42.230469 L 162.683594 52.183594 Z M 160.398438 37.964844 L 159.027344 42.230469 L 166.339844 42.230469 L 164.96875 37.964844 Z M 160.398438 37.964844 " fill-opacity="1" fill-rule="nonzero"/></g><g clip-path="url(#f9beb584ce)"><path fill="#5dadec" d="M 162.683594 52.183594 L 159.027344 42.230469 L 166.339844 42.230469 Z M 162.683594 52.183594 " fill-opacity="1" fill-rule="nonzero"/></g><g clip-path="url(#f5f86595d6)"><path fill="#231f20" d="M 281.914062 142.792969 L 276.246094 142.792969 C 273.101562 142.792969 270.332031 140.757812 269.34375 137.800781 C 267.679688 132.8125 265.710938 127.945312 263.308594 123.324219 C 261.890625 120.488281 262.382812 117.101562 264.664062 114.820312 L 268.726562 110.753906 C 276.738281 102.746094 276.738281 89.625 268.726562 81.613281 L 258.746094 71.757812 C 250.738281 63.75 237.675781 63.75 229.605469 71.757812 L 225.539062 75.824219 C 223.324219 78.042969 219.871094 78.597656 217.101562 77.179688 C 212.480469 74.839844 207.613281 72.804688 202.621094 71.140625 C 199.601562 70.15625 197.632812 67.382812 197.632812 64.242188 L 197.632812 58.574219 C 197.632812 47.238281 188.390625 37.996094 177.054688 37.996094 L 163.070312 37.996094 C 151.734375 37.996094 142.492188 47.238281 142.492188 58.574219 L 142.492188 64.242188 C 142.492188 67.382812 140.460938 70.15625 137.5 71.140625 C 132.511719 72.804688 127.644531 74.777344 123.023438 77.179688 C 120.191406 78.597656 116.800781 78.101562 114.523438 75.824219 L 110.457031 71.757812 C 102.445312 63.75 89.324219 63.75 81.316406 71.757812 L 71.394531 81.675781 C 63.386719 89.6875 63.386719 102.808594 71.394531 110.816406 L 75.460938 114.882812 C 77.679688 117.101562 78.234375 120.488281 76.816406 123.324219 C 74.476562 127.945312 72.441406 132.8125 70.78125 137.800781 C 69.792969 140.820312 67.019531 142.792969 63.878906 142.792969 L 58.210938 142.792969 C 46.8125 142.792969 37.574219 152.035156 37.574219 163.429688 L 37.574219 177.417969 C 37.574219 188.753906 46.8125 197.992188 58.148438 197.992188 L 63.816406 197.992188 C 66.960938 197.992188 69.730469 200.027344 70.71875 202.984375 C 72.382812 207.972656 74.351562 212.839844 76.753906 217.460938 C 78.171875 220.296875 77.679688 223.683594 75.398438 225.964844 L 71.332031 230.03125 C 63.324219 238.039062 63.324219 251.164062 71.332031 259.171875 L 81.316406 269.027344 C 89.324219 277.039062 102.386719 277.039062 110.457031 269.027344 L 114.523438 264.960938 C 116.738281 262.746094 120.191406 262.191406 122.960938 263.605469 C 127.582031 265.949219 132.449219 267.980469 137.441406 269.644531 C 140.460938 270.628906 142.429688 273.402344 142.429688 276.546875 L 142.429688 282.273438 C 142.429688 293.609375 151.671875 302.851562 163.007812 302.851562 L 176.992188 302.851562 C 188.328125 302.851562 197.570312 293.609375 197.570312 282.273438 L 197.570312 276.546875 C 197.570312 273.402344 199.601562 270.628906 202.5625 269.644531 C 207.550781 267.980469 212.417969 266.011719 217.039062 263.605469 C 219.871094 262.191406 223.261719 262.683594 225.539062 264.960938 L 229.605469 269.027344 C 237.617188 277.039062 250.738281 277.039062 258.746094 269.027344 L 268.667969 259.109375 C 276.675781 251.101562 276.675781 237.976562 268.667969 229.96875 L 264.601562 225.902344 C 262.382812 223.683594 261.828125 220.296875 263.246094 217.460938 C 265.585938 212.839844 267.621094 207.972656 269.28125 202.984375 C 270.269531 199.964844 273.042969 197.992188 276.183594 197.992188 L 281.851562 197.992188 C 293.1875 197.992188 302.429688 188.753906 302.429688 177.417969 L 302.429688 163.429688 C 302.488281 152.035156 293.25 142.792969 281.914062 142.792969 Z M 289.246094 177.355469 C 289.246094 181.421875 285.917969 184.6875 281.914062 184.6875 L 276.246094 184.6875 C 267.375 184.6875 259.546875 190.355469 256.777344 198.792969 C 255.359375 203.105469 253.574219 207.359375 251.539062 211.425781 C 247.535156 219.371094 249.015625 228.921875 255.296875 235.265625 L 259.363281 239.332031 C 262.257812 242.230469 262.257812 246.851562 259.363281 249.746094 L 249.445312 259.664062 C 246.550781 262.558594 241.867188 262.5 239.03125 259.664062 L 234.96875 255.597656 C 228.683594 249.3125 219.132812 247.773438 211.125 251.839844 C 207.058594 253.871094 202.867188 255.660156 198.496094 257.078125 C 190.054688 259.847656 184.386719 267.671875 184.386719 276.546875 L 184.386719 282.273438 C 184.386719 286.339844 181.058594 289.605469 177.054688 289.605469 L 163.070312 289.605469 C 159.003906 289.605469 155.738281 286.277344 155.738281 282.273438 L 155.738281 276.546875 C 155.738281 267.671875 150.070312 259.847656 141.628906 257.078125 C 137.316406 255.660156 133.066406 253.871094 129 251.839844 C 126.042969 250.359375 122.839844 249.621094 119.695312 249.621094 C 114.398438 249.621094 109.160156 251.714844 105.21875 255.660156 L 101.152344 259.726562 C 98.257812 262.558594 93.636719 262.621094 90.742188 259.726562 L 80.820312 249.808594 C 77.925781 246.910156 77.925781 242.289062 80.820312 239.394531 L 84.886719 235.328125 C 91.171875 229.042969 92.710938 219.496094 88.644531 211.484375 C 86.613281 207.421875 84.828125 203.230469 83.410156 198.855469 C 80.636719 190.414062 72.8125 184.746094 63.941406 184.746094 L 58.273438 184.746094 C 54.207031 184.746094 50.941406 181.421875 50.941406 177.417969 L 50.941406 163.429688 C 50.941406 159.363281 54.269531 156.101562 58.273438 156.101562 L 63.941406 156.101562 C 72.8125 156.101562 80.636719 150.433594 83.410156 141.992188 C 84.828125 137.679688 86.613281 133.429688 88.644531 129.363281 C 92.652344 121.414062 91.171875 111.863281 84.886719 105.519531 L 80.820312 101.453125 C 77.925781 98.558594 77.925781 93.9375 80.820312 91.039062 L 90.742188 81.121094 C 93.636719 78.226562 98.257812 78.226562 101.152344 81.121094 L 105.21875 85.1875 C 111.503906 91.472656 121.113281 93.011719 129.0625 88.945312 C 133.128906 86.914062 137.316406 85.125 141.691406 83.710938 C 150.132812 80.9375 155.800781 73.113281 155.800781 64.242188 L 155.800781 58.574219 C 155.800781 54.507812 159.125 51.242188 163.132812 51.242188 L 177.117188 51.242188 C 181.183594 51.242188 184.449219 54.570312 184.449219 58.574219 L 184.449219 64.242188 C 184.449219 73.113281 190.117188 80.9375 198.554688 83.710938 C 202.867188 85.125 207.121094 86.914062 211.1875 88.945312 C 219.132812 92.949219 228.683594 91.472656 235.027344 85.1875 L 239.09375 81.121094 C 241.929688 78.226562 246.609375 78.226562 249.507812 81.121094 L 259.425781 91.039062 C 262.320312 93.9375 262.320312 98.558594 259.425781 101.453125 L 255.359375 105.519531 C 249.074219 111.804688 247.535156 121.351562 251.601562 129.363281 C 253.632812 133.429688 255.421875 137.617188 256.839844 141.992188 C 259.609375 150.433594 267.433594 156.101562 276.304688 156.101562 L 281.972656 156.101562 C 286.039062 156.101562 289.304688 159.425781 289.304688 163.429688 L 289.304688 177.355469 Z M 289.246094 177.355469 " fill-opacity="1" fill-rule="nonzero"/></g><path fill="#231f20" d="M 170.03125 100.835938 C 131.710938 100.835938 100.476562 132.011719 100.476562 170.394531 C 100.476562 208.773438 131.710938 239.949219 170.03125 239.949219 C 208.351562 239.949219 239.585938 208.714844 239.585938 170.394531 C 239.585938 132.074219 208.351562 100.835938 170.03125 100.835938 Z M 170.03125 226.703125 C 138.980469 226.703125 113.722656 201.445312 113.722656 170.394531 C 113.722656 139.34375 138.980469 114.082031 170.03125 114.082031 C 201.082031 114.082031 226.339844 139.34375 226.339844 170.394531 C 226.339844 201.445312 201.082031 226.703125 170.03125 226.703125 Z M 170.03125 226.703125 " fill-opacity="1" fill-rule="nonzero"/></svg>