<svg xmlns="http://www.w3.org/2000/svg" xmlns:xlink="http://www.w3.org/1999/xlink" width="762" zoomAndPan="magnify" viewBox="0 0 571.5 573.000005" height="764" preserveAspectRatio="xMidYMid meet" version="1.0"><defs><clipPath id="4926e7255d"><path d="M 81 123 L 444 123 L 444 445 L 81 445 Z M 81 123 " clip-rule="nonzero"/></clipPath><clipPath id="2a35555a30"><path d="M 263.617188 37.710938 L 533.140625 254.988281 L 307.871094 534.429688 L 38.34375 317.15625 Z M 263.617188 37.710938 " clip-rule="nonzero"/></clipPath><clipPath id="8d5ab3be04"><path d="M 263.617188 37.710938 L 533.140625 254.988281 L 307.871094 534.429688 L 38.34375 317.15625 Z M 263.617188 37.710938 " clip-rule="nonzero"/></clipPath><clipPath id="aff69d2429"><path d="M 114 164 L 422 164 L 422 432 L 114 432 Z M 114 164 " clip-rule="nonzero"/></clipPath><clipPath id="2e9c4f34d3"><path d="M 312.15625 83.691406 L 494.292969 310.320312 L 259.484375 499.027344 L 77.351562 272.398438 Z M 312.15625 83.691406 " clip-rule="nonzero"/></clipPath><clipPath id="23c7808acb"><path d="M 312.15625 83.691406 L 494.292969 310.320312 L 259.484375 499.027344 L 77.351562 272.398438 Z M 312.15625 83.691406 " clip-rule="nonzero"/></clipPath></defs><g clip-path="url(#4926e7255d)"><g clip-path="url(#2a35555a30)"><g clip-path="url(#8d5ab3be04)"><path fill="#ed8227" d="M 422.625 385.457031 C 439.777344 353.332031 444.027344 316.421875 443.84375 280.449219 C 443.652344 248.707031 438.941406 216.636719 425.335938 187.710938 C 418.785156 173.683594 410.480469 158.976562 398.910156 148.542969 C 387.398438 138.15625 373.296875 130.75 358.335938 126.699219 C 343.203125 122.515625 326.871094 121.871094 311.578125 125.199219 C 294.234375 128.898438 278.984375 137.878906 263.644531 146.511719 C 228.84375 166.160156 190.328125 177.84375 155.304688 197.308594 C 124.316406 214.507812 95.75 239.550781 85.023438 274.554688 C 74.839844 307.972656 86.800781 341.558594 108.84375 367.433594 C 134.132812 396.9375 169.738281 415.695312 206.640625 426.566406 C 225.128906 432.074219 244.121094 435.691406 263.234375 438.480469 C 282.132812 441.191406 301.222656 443.777344 320.273438 444.585938 C 337.53125 445.332031 354.625 443.542969 370.402344 436.1875 C 385.410156 429.222656 398.582031 418.476562 409.089844 405.671875 C 414.320312 399.300781 418.734375 392.453125 422.625 385.457031 " fill-opacity="1" fill-rule="nonzero"/></g></g></g><g clip-path="url(#aff69d2429)"><g clip-path="url(#2e9c4f34d3)"><g clip-path="url(#23c7808acb)"><path fill="#fbc532" d="M 380.28125 397.46875 C 400.105469 374.199219 410.203125 344.695312 416.492188 315.15625 C 422.023438 289.089844 423.902344 261.941406 417.925781 235.773438 C 415.066406 223.089844 410.890625 209.535156 403.269531 198.902344 C 395.6875 188.3125 385.449219 179.707031 373.902344 173.695312 C 362.242188 167.542969 348.964844 164.082031 335.824219 164.0625 C 320.9375 163.980469 306.820312 168.605469 292.695312 172.929688 C 260.632812 182.789062 226.953125 185.453125 194.738281 195.125 C 166.242188 203.660156 138.328125 219.066406 123.261719 245.847656 C 108.925781 271.425781 112.71875 301.121094 126.164062 326.300781 C 141.621094 355.042969 167.460938 376.824219 195.78125 392.371094 C 209.953125 400.210938 224.886719 406.589844 240.058594 412.3125 C 255.074219 417.929688 270.265625 423.484375 285.746094 427.570312 C 299.769531 431.28125 314.105469 432.886719 328.367188 429.691406 C 341.921875 426.675781 354.648438 420.230469 365.558594 411.617188 C 370.992188 407.328125 375.839844 402.503906 380.28125 397.46875 " fill-opacity="1" fill-rule="nonzero"/></g></g></g></svg>