<svg xmlns="http://www.w3.org/2000/svg" xmlns:xlink="http://www.w3.org/1999/xlink" width="939" zoomAndPan="magnify" viewBox="0 0 704.25 704.250001" height="939" preserveAspectRatio="xMidYMid meet" version="1.0"><defs><clipPath id="28d8a8371f"><path d="M 91 173 L 628 173 L 628 571 L 91 571 Z M 91 173 " clip-rule="nonzero"/></clipPath><clipPath id="4dee70ca4a"><path d="M 665.832031 136.242188 L 567.058594 665.785156 L 37.515625 567.011719 L 136.289062 37.46875 Z M 665.832031 136.242188 " clip-rule="nonzero"/></clipPath><clipPath id="4c882eecdf"><path d="M 37.460938 567.050781 L 136.234375 37.507812 L 665.777344 136.277344 L 567.003906 665.824219 Z M 37.460938 567.050781 " clip-rule="nonzero"/></clipPath><clipPath id="841f8a1703"><path d="M 118 223 L 605 223 L 605 570 L 118 570 Z M 118 223 " clip-rule="nonzero"/></clipPath><clipPath id="bfa4da5b71"><path d="M 647.007812 199.414062 L 522.75 665.625 L 56.539062 541.367188 L 180.796875 75.15625 Z M 647.007812 199.414062 " clip-rule="nonzero"/></clipPath><clipPath id="a7d67c5e3b"><path d="M 56.28125 541.519531 L 180.535156 75.304688 L 646.75 199.5625 L 522.492188 665.773438 Z M 56.28125 541.519531 " clip-rule="nonzero"/></clipPath></defs><g clip-path="url(#28d8a8371f)"><g clip-path="url(#4dee70ca4a)"><g clip-path="url(#4c882eecdf)"><path fill="#ed8227" d="M 502.902344 521.804688 C 359.15625 666.726562 135.144531 449.921875 105.753906 399.507812 C 49.742188 303.796875 167.011719 202.707031 242.878906 250.722656 C 297.976562 285.546875 340.089844 329.457031 427.484375 228.714844 C 500.207031 144.960938 605.289062 167.957031 620.921875 218.109375 C 643.871094 291.324219 604.019531 419.785156 502.902344 521.804688 Z M 502.902344 521.804688 " fill-opacity="1" fill-rule="nonzero"/></g></g></g><g clip-path="url(#841f8a1703)"><g clip-path="url(#bfa4da5b71)"><g clip-path="url(#a7d67c5e3b)"><path fill="#fbc532" d="M 475.046875 532.789062 C 336.804688 652.433594 151.496094 443.5625 128.679688 396.535156 C 85.167969 307.242188 196.78125 224.941406 261.273438 272.988281 C 308.105469 307.839844 342.730469 349.921875 427.640625 265.898438 C 498.289062 196.042969 590.574219 223.738281 601.121094 269.589844 C 616.632812 336.539062 572.296875 448.558594 475.046875 532.789062 Z M 475.046875 532.789062 " fill-opacity="1" fill-rule="nonzero"/></g></g></g></svg>