<svg xmlns="http://www.w3.org/2000/svg" xmlns:xlink="http://www.w3.org/1999/xlink" width="374" zoomAndPan="magnify" viewBox="0 0 280.5 269.999989" height="360" preserveAspectRatio="xMidYMid meet" version="1.0"><defs><clipPath id="ccab61b5d0"><path d="M 140.398438 128.25 L 147 128.25 L 147 133 L 140.398438 133 Z M 140.398438 128.25 " clip-rule="nonzero"/></clipPath><clipPath id="c3676b3360"><path d="M 150 128.25 L 156.898438 128.25 L 156.898438 133 L 150 133 Z M 150 128.25 " clip-rule="nonzero"/></clipPath><clipPath id="4ff10646e9"><path d="M 148 132 L 156.898438 132 L 156.898438 142.5 L 148 142.5 Z M 148 132 " clip-rule="nonzero"/></clipPath><clipPath id="0fbf047975"><path d="M 140.398438 128.25 L 153 128.25 L 153 142.5 L 140.398438 142.5 Z M 140.398438 128.25 " clip-rule="nonzero"/></clipPath><clipPath id="925546a06f"><path d="M 144 132 L 153 132 L 153 142.5 L 144 142.5 Z M 144 132 " clip-rule="nonzero"/></clipPath><clipPath id="ab4d7bfc12"><path d="M 164 55 L 224 55 L 224 121 L 164 121 Z M 164 55 " clip-rule="nonzero"/></clipPath><clipPath id="e9ed08bcd6"><path d="M 187.617188 37.742188 L 242.832031 100.046875 L 92.96875 232.863281 L 37.75 170.558594 Z M 187.617188 37.742188 " clip-rule="nonzero"/></clipPath><clipPath id="fabbb2f895"><path d="M 187.617188 37.742188 L 242.832031 100.046875 L 92.96875 232.863281 L 37.75 170.558594 Z M 187.617188 37.742188 " clip-rule="nonzero"/></clipPath><clipPath id="6599dc0f03"><path d="M 187.617188 37.742188 L 242.832031 100.046875 L 92.96875 232.863281 L 37.75 170.558594 Z M 187.617188 37.742188 " clip-rule="nonzero"/></clipPath><clipPath id="75421794e9"><path d="M 168.050781 55.082031 L 223.707031 117.886719 L 219.714844 121.421875 L 164.058594 58.621094 Z M 168.050781 55.082031 " clip-rule="nonzero"/></clipPath><clipPath id="c7c6d76806"><path d="M 168.050781 55.082031 L 223.289062 117.410156 L 219.296875 120.949219 L 164.058594 58.621094 Z M 168.050781 55.082031 " clip-rule="nonzero"/></clipPath><clipPath id="f88f62fcb2"><path d="M 171 42 L 239 42 L 239 115 L 171 115 Z M 171 42 " clip-rule="nonzero"/></clipPath><clipPath id="d1b63e242b"><path d="M 187.617188 37.742188 L 242.832031 100.046875 L 92.96875 232.863281 L 37.75 170.558594 Z M 187.617188 37.742188 " clip-rule="nonzero"/></clipPath><clipPath id="cc66e6d4d2"><path d="M 187.617188 37.742188 L 242.832031 100.046875 L 92.96875 232.863281 L 37.75 170.558594 Z M 187.617188 37.742188 " clip-rule="nonzero"/></clipPath><clipPath id="2c8f1f3bf3"><path d="M 187.617188 37.742188 L 242.832031 100.046875 L 92.96875 232.863281 L 37.75 170.558594 Z M 187.617188 37.742188 " clip-rule="nonzero"/></clipPath><clipPath id="91f788558f"><path d="M 65 78 L 202 78 L 202 202 L 65 202 Z M 65 78 " clip-rule="nonzero"/></clipPath><clipPath id="9f9ee60d0a"><path d="M 187.617188 37.742188 L 242.832031 100.046875 L 92.96875 232.863281 L 37.75 170.558594 Z M 187.617188 37.742188 " clip-rule="nonzero"/></clipPath><clipPath id="cfdf9e86da"><path d="M 187.617188 37.742188 L 242.832031 100.046875 L 92.96875 232.863281 L 37.75 170.558594 Z M 187.617188 37.742188 " clip-rule="nonzero"/></clipPath><clipPath id="bfb71b683e"><path d="M 187.617188 37.742188 L 242.832031 100.046875 L 92.96875 232.863281 L 37.75 170.558594 Z M 187.617188 37.742188 " clip-rule="nonzero"/></clipPath><clipPath id="09eccf75f1"><path d="M 182.226562 78.117188 L 202.101562 100.546875 L 75.351562 212.878906 L 55.476562 190.449219 Z M 182.226562 78.117188 " clip-rule="nonzero"/></clipPath><clipPath id="da5d590579"><path d="M 182.226562 78.117188 L 202.101562 100.546875 L 75.390625 212.84375 L 55.515625 190.414062 Z M 182.226562 78.117188 " clip-rule="nonzero"/></clipPath><clipPath id="e8f78a8369"><path d="M 65 89 L 202 89 L 202 202 L 65 202 Z M 65 89 " clip-rule="nonzero"/></clipPath><clipPath id="16fb9bbb65"><path d="M 187.617188 37.742188 L 242.832031 100.046875 L 92.96875 232.863281 L 37.75 170.558594 Z M 187.617188 37.742188 " clip-rule="nonzero"/></clipPath><clipPath id="6ba5309973"><path d="M 187.617188 37.742188 L 242.832031 100.046875 L 92.96875 232.863281 L 37.75 170.558594 Z M 187.617188 37.742188 " clip-rule="nonzero"/></clipPath><clipPath id="73782873e1"><path d="M 187.617188 37.742188 L 242.832031 100.046875 L 92.96875 232.863281 L 37.75 170.558594 Z M 187.617188 37.742188 " clip-rule="nonzero"/></clipPath><clipPath id="993529cfc6"><path d="M 191.945312 89.082031 L 202.101562 100.546875 L 75.351562 212.878906 L 65.191406 201.414062 Z M 191.945312 89.082031 " clip-rule="nonzero"/></clipPath><clipPath id="494edc9e3d"><path d="M 191.945312 89.082031 L 202.101562 100.546875 L 75.390625 212.84375 L 65.230469 201.378906 Z M 191.945312 89.082031 " clip-rule="nonzero"/></clipPath><clipPath id="d8fad98286"><path d="M 155 89 L 202 89 L 202 112 L 155 112 Z M 155 89 " clip-rule="nonzero"/></clipPath><clipPath id="b753c071f6"><path d="M 187.617188 37.742188 L 242.832031 100.046875 L 92.96875 232.863281 L 37.75 170.558594 Z M 187.617188 37.742188 " clip-rule="nonzero"/></clipPath><clipPath id="4288f274c1"><path d="M 187.617188 37.742188 L 242.832031 100.046875 L 92.96875 232.863281 L 37.75 170.558594 Z M 187.617188 37.742188 " clip-rule="nonzero"/></clipPath><clipPath id="05d6f58590"><path d="M 187.617188 37.742188 L 242.832031 100.046875 L 92.96875 232.863281 L 37.75 170.558594 Z M 187.617188 37.742188 " clip-rule="nonzero"/></clipPath><clipPath id="c637327ad0"><path d="M 142 101 L 189 101 L 189 123 L 142 123 Z M 142 101 " clip-rule="nonzero"/></clipPath><clipPath id="aa734a8845"><path d="M 187.617188 37.742188 L 242.832031 100.046875 L 92.96875 232.863281 L 37.75 170.558594 Z M 187.617188 37.742188 " clip-rule="nonzero"/></clipPath><clipPath id="b80e3566de"><path d="M 187.617188 37.742188 L 242.832031 100.046875 L 92.96875 232.863281 L 37.75 170.558594 Z M 187.617188 37.742188 " clip-rule="nonzero"/></clipPath><clipPath id="2ad7c8b929"><path d="M 187.617188 37.742188 L 242.832031 100.046875 L 92.96875 232.863281 L 37.75 170.558594 Z M 187.617188 37.742188 " clip-rule="nonzero"/></clipPath><clipPath id="e5e0f3f954"><path d="M 129 112 L 176 112 L 176 134 L 129 134 Z M 129 112 " clip-rule="nonzero"/></clipPath><clipPath id="7d90e6550e"><path d="M 187.617188 37.742188 L 242.832031 100.046875 L 92.96875 232.863281 L 37.75 170.558594 Z M 187.617188 37.742188 " clip-rule="nonzero"/></clipPath><clipPath id="5f4169a56c"><path d="M 187.617188 37.742188 L 242.832031 100.046875 L 92.96875 232.863281 L 37.75 170.558594 Z M 187.617188 37.742188 " clip-rule="nonzero"/></clipPath><clipPath id="7b659f0aca"><path d="M 187.617188 37.742188 L 242.832031 100.046875 L 92.96875 232.863281 L 37.75 170.558594 Z M 187.617188 37.742188 " clip-rule="nonzero"/></clipPath><clipPath id="227277b705"><path d="M 116 123 L 163 123 L 163 146 L 116 146 Z M 116 123 " clip-rule="nonzero"/></clipPath><clipPath id="474f633a33"><path d="M 187.617188 37.742188 L 242.832031 100.046875 L 92.96875 232.863281 L 37.75 170.558594 Z M 187.617188 37.742188 " clip-rule="nonzero"/></clipPath><clipPath id="055c8acab2"><path d="M 187.617188 37.742188 L 242.832031 100.046875 L 92.96875 232.863281 L 37.75 170.558594 Z M 187.617188 37.742188 " clip-rule="nonzero"/></clipPath><clipPath id="6d7782fe91"><path d="M 187.617188 37.742188 L 242.832031 100.046875 L 92.96875 232.863281 L 37.75 170.558594 Z M 187.617188 37.742188 " clip-rule="nonzero"/></clipPath><clipPath id="110c3e1866"><path d="M 103 135 L 150 135 L 150 157 L 103 157 Z M 103 135 " clip-rule="nonzero"/></clipPath><clipPath id="26cb705542"><path d="M 187.617188 37.742188 L 242.832031 100.046875 L 92.96875 232.863281 L 37.75 170.558594 Z M 187.617188 37.742188 " clip-rule="nonzero"/></clipPath><clipPath id="eba4b18c25"><path d="M 187.617188 37.742188 L 242.832031 100.046875 L 92.96875 232.863281 L 37.75 170.558594 Z M 187.617188 37.742188 " clip-rule="nonzero"/></clipPath><clipPath id="a3cd2255bb"><path d="M 187.617188 37.742188 L 242.832031 100.046875 L 92.96875 232.863281 L 37.75 170.558594 Z M 187.617188 37.742188 " clip-rule="nonzero"/></clipPath><clipPath id="cb42d92833"><path d="M 91 146 L 138 146 L 138 168 L 91 168 Z M 91 146 " clip-rule="nonzero"/></clipPath><clipPath id="1c2b77991e"><path d="M 187.617188 37.742188 L 242.832031 100.046875 L 92.96875 232.863281 L 37.75 170.558594 Z M 187.617188 37.742188 " clip-rule="nonzero"/></clipPath><clipPath id="e444557faf"><path d="M 187.617188 37.742188 L 242.832031 100.046875 L 92.96875 232.863281 L 37.75 170.558594 Z M 187.617188 37.742188 " clip-rule="nonzero"/></clipPath><clipPath id="da24f9a0c7"><path d="M 187.617188 37.742188 L 242.832031 100.046875 L 92.96875 232.863281 L 37.75 170.558594 Z M 187.617188 37.742188 " clip-rule="nonzero"/></clipPath><clipPath id="1455aff7d5"><path d="M 78 157 L 125 157 L 125 180 L 78 180 Z M 78 157 " clip-rule="nonzero"/></clipPath><clipPath id="a9967dde86"><path d="M 187.617188 37.742188 L 242.832031 100.046875 L 92.96875 232.863281 L 37.75 170.558594 Z M 187.617188 37.742188 " clip-rule="nonzero"/></clipPath><clipPath id="28dc971186"><path d="M 187.617188 37.742188 L 242.832031 100.046875 L 92.96875 232.863281 L 37.75 170.558594 Z M 187.617188 37.742188 " clip-rule="nonzero"/></clipPath><clipPath id="e30f039e81"><path d="M 187.617188 37.742188 L 242.832031 100.046875 L 92.96875 232.863281 L 37.75 170.558594 Z M 187.617188 37.742188 " clip-rule="nonzero"/></clipPath><clipPath id="1a6797cf13"><path d="M 69 170 L 110 170 L 110 190 L 69 190 Z M 69 170 " clip-rule="nonzero"/></clipPath><clipPath id="e89be80dd9"><path d="M 187.617188 37.742188 L 242.832031 100.046875 L 92.96875 232.863281 L 37.75 170.558594 Z M 187.617188 37.742188 " clip-rule="nonzero"/></clipPath><clipPath id="a82a456351"><path d="M 187.617188 37.742188 L 242.832031 100.046875 L 92.96875 232.863281 L 37.75 170.558594 Z M 187.617188 37.742188 " clip-rule="nonzero"/></clipPath><clipPath id="294b9b6a5f"><path d="M 187.617188 37.742188 L 242.832031 100.046875 L 92.96875 232.863281 L 37.75 170.558594 Z M 187.617188 37.742188 " clip-rule="nonzero"/></clipPath><clipPath id="8d0cd4f2fc"><path d="M 196 49 L 206 49 L 206 59 L 196 59 Z M 196 49 " clip-rule="nonzero"/></clipPath><clipPath id="89d32535a3"><path d="M 187.617188 37.742188 L 242.832031 100.046875 L 92.96875 232.863281 L 37.75 170.558594 Z M 187.617188 37.742188 " clip-rule="nonzero"/></clipPath><clipPath id="76561c33a8"><path d="M 187.617188 37.742188 L 242.832031 100.046875 L 92.96875 232.863281 L 37.75 170.558594 Z M 187.617188 37.742188 " clip-rule="nonzero"/></clipPath><clipPath id="1be5970cd2"><path d="M 187.617188 37.742188 L 242.832031 100.046875 L 92.96875 232.863281 L 37.75 170.558594 Z M 187.617188 37.742188 " clip-rule="nonzero"/></clipPath><clipPath id="cd53ed2ec3"><path d="M 222 79 L 232 79 L 232 89 L 222 89 Z M 222 79 " clip-rule="nonzero"/></clipPath><clipPath id="9963d7edaa"><path d="M 187.617188 37.742188 L 242.832031 100.046875 L 92.96875 232.863281 L 37.75 170.558594 Z M 187.617188 37.742188 " clip-rule="nonzero"/></clipPath><clipPath id="ca93521d6d"><path d="M 187.617188 37.742188 L 242.832031 100.046875 L 92.96875 232.863281 L 37.75 170.558594 Z M 187.617188 37.742188 " clip-rule="nonzero"/></clipPath><clipPath id="5015e2dfc3"><path d="M 187.617188 37.742188 L 242.832031 100.046875 L 92.96875 232.863281 L 37.75 170.558594 Z M 187.617188 37.742188 " clip-rule="nonzero"/></clipPath></defs><g clip-path="url(#ccab61b5d0)"><path fill="#bdddf4" d="M 146.355469 128.25 L 143.609375 128.25 L 140.402344 132.523438 L 144.984375 132.523438 Z M 146.355469 128.25 " fill-opacity="1" fill-rule="nonzero"/></g><g clip-path="url(#c3676b3360)"><path fill="#5dadec" d="M 156.894531 132.523438 L 153.6875 128.25 L 150.9375 128.25 L 152.3125 132.523438 Z M 156.894531 132.523438 " fill-opacity="1" fill-rule="nonzero"/></g><g clip-path="url(#4ff10646e9)"><path fill="#4289c1" d="M 152.3125 132.523438 L 156.894531 132.523438 L 148.648438 142.5 Z M 152.3125 132.523438 " fill-opacity="1" fill-rule="nonzero"/></g><g clip-path="url(#0fbf047975)"><path fill="#8ccaf7" d="M 144.984375 132.523438 L 140.402344 132.523438 L 148.648438 142.5 Z M 146.355469 128.25 L 144.984375 132.523438 L 152.3125 132.523438 L 150.9375 128.25 Z M 146.355469 128.25 " fill-opacity="1" fill-rule="nonzero"/></g><g clip-path="url(#925546a06f)"><path fill="#5dadec" d="M 148.648438 142.5 L 144.984375 132.523438 L 152.3125 132.523438 Z M 148.648438 142.5 " fill-opacity="1" fill-rule="nonzero"/></g><g clip-path="url(#ab4d7bfc12)"><g clip-path="url(#e9ed08bcd6)"><g clip-path="url(#fabbb2f895)"><g clip-path="url(#6599dc0f03)"><g clip-path="url(#75421794e9)"><g clip-path="url(#c7c6d76806)"><path fill="#bdbcbc" d="M 223.246094 117.445312 L 168.011719 55.117188 L 164.109375 58.574219 L 219.347656 120.902344 L 223.246094 117.445312 " fill-opacity="1" fill-rule="nonzero"/></g></g></g></g></g></g><g clip-path="url(#f88f62fcb2)"><g clip-path="url(#d1b63e242b)"><g clip-path="url(#cc66e6d4d2)"><g clip-path="url(#2c8f1f3bf3)"><path fill="#a7a5a6" d="M 218.582031 72.894531 L 211.222656 79.417969 L 204.316406 71.625 L 211.675781 65.105469 L 191.394531 42.21875 L 180.226562 50.375 L 171.03125 58.527344 L 220.226562 114.039062 L 229.425781 105.886719 L 238.863281 95.78125 L 218.582031 72.894531 " fill-opacity="1" fill-rule="nonzero"/></g></g></g></g><g clip-path="url(#91f788558f)"><g clip-path="url(#9f9ee60d0a)"><g clip-path="url(#cfdf9e86da)"><g clip-path="url(#bfb71b683e)"><g clip-path="url(#09eccf75f1)"><g clip-path="url(#da5d590579)"><path fill="#918f8f" d="M 181.800781 78.535156 L 84.300781 164.949219 L 65.464844 201.640625 L 103.722656 186.859375 L 201.222656 100.449219 L 181.800781 78.535156 " fill-opacity="1" fill-rule="nonzero"/></g></g></g></g></g></g><g clip-path="url(#e8f78a8369)"><g clip-path="url(#16fb9bbb65)"><g clip-path="url(#6ba5309973)"><g clip-path="url(#73782873e1)"><g clip-path="url(#993529cfc6)"><g clip-path="url(#494edc9e3d)"><path fill="#7b7979" d="M 65.464844 201.640625 L 103.722656 186.859375 L 201.222656 100.449219 L 191.726562 89.738281 L 65.464844 201.640625 " fill-opacity="1" fill-rule="nonzero"/></g></g></g></g></g></g><g clip-path="url(#d8fad98286)"><g clip-path="url(#b753c071f6)"><g clip-path="url(#4288f274c1)"><g clip-path="url(#05d6f58590)"><path fill="#7b7979" d="M 155.03125 89.816406 L 166.316406 91.660156 L 194.183594 104.539062 L 201.074219 111.101562 L 155.03125 89.816406 " fill-opacity="1" fill-rule="nonzero"/><path fill="#656263" d="M 155.03125 89.816406 L 163.738281 97.21875 L 191.605469 110.101562 L 201.074219 111.101562 L 155.03125 89.816406 " fill-opacity="1" fill-rule="nonzero"/></g></g></g></g><g clip-path="url(#c637327ad0)"><g clip-path="url(#aa734a8845)"><g clip-path="url(#b80e3566de)"><g clip-path="url(#2ad7c8b929)"><path fill="#7b7979" d="M 142.230469 101.164062 L 153.511719 103.007812 L 181.378906 115.886719 L 188.269531 122.449219 L 142.230469 101.164062 " fill-opacity="1" fill-rule="nonzero"/><path fill="#656263" d="M 142.230469 101.164062 L 150.9375 108.566406 L 178.804688 121.449219 L 188.269531 122.449219 L 142.230469 101.164062 " fill-opacity="1" fill-rule="nonzero"/></g></g></g></g><g clip-path="url(#e5e0f3f954)"><g clip-path="url(#7d90e6550e)"><g clip-path="url(#5f4169a56c)"><g clip-path="url(#7b659f0aca)"><path fill="#7b7979" d="M 129.425781 112.511719 L 140.707031 114.355469 L 168.574219 127.234375 L 175.464844 133.796875 L 129.425781 112.511719 " fill-opacity="1" fill-rule="nonzero"/><path fill="#656263" d="M 129.425781 112.511719 L 138.132812 119.914062 L 166 132.796875 L 175.464844 133.796875 L 129.425781 112.511719 " fill-opacity="1" fill-rule="nonzero"/></g></g></g></g><g clip-path="url(#227277b705)"><g clip-path="url(#474f633a33)"><g clip-path="url(#055c8acab2)"><g clip-path="url(#6d7782fe91)"><path fill="#7b7979" d="M 116.621094 123.859375 L 127.90625 125.699219 L 155.769531 138.582031 L 162.664062 145.140625 L 116.621094 123.859375 " fill-opacity="1" fill-rule="nonzero"/><path fill="#656263" d="M 116.621094 123.859375 L 125.328125 131.257812 L 153.195312 144.144531 L 162.664062 145.140625 L 116.621094 123.859375 " fill-opacity="1" fill-rule="nonzero"/></g></g></g></g><g clip-path="url(#110c3e1866)"><g clip-path="url(#26cb705542)"><g clip-path="url(#eba4b18c25)"><g clip-path="url(#a3cd2255bb)"><path fill="#7b7979" d="M 103.816406 135.207031 L 115.101562 137.050781 L 142.96875 149.929688 L 149.859375 156.488281 L 103.816406 135.207031 " fill-opacity="1" fill-rule="nonzero"/><path fill="#656263" d="M 103.816406 135.207031 L 112.523438 142.609375 L 140.390625 155.492188 L 149.859375 156.488281 L 103.816406 135.207031 " fill-opacity="1" fill-rule="nonzero"/></g></g></g></g><g clip-path="url(#cb42d92833)"><g clip-path="url(#1c2b77991e)"><g clip-path="url(#e444557faf)"><g clip-path="url(#da24f9a0c7)"><path fill="#7b7979" d="M 91.011719 146.554688 L 102.296875 148.394531 L 130.164062 161.277344 L 137.054688 167.835938 L 91.011719 146.554688 " fill-opacity="1" fill-rule="nonzero"/><path fill="#656263" d="M 91.011719 146.554688 L 99.71875 153.953125 L 127.585938 166.839844 L 137.054688 167.835938 L 91.011719 146.554688 " fill-opacity="1" fill-rule="nonzero"/></g></g></g></g><g clip-path="url(#1455aff7d5)"><g clip-path="url(#a9967dde86)"><g clip-path="url(#28dc971186)"><g clip-path="url(#e30f039e81)"><path fill="#7b7979" d="M 78.207031 157.902344 L 89.492188 159.742188 L 117.359375 172.625 L 124.25 179.1875 L 78.207031 157.902344 " fill-opacity="1" fill-rule="nonzero"/><path fill="#656263" d="M 78.207031 157.902344 L 86.914062 165.300781 L 114.785156 178.183594 L 124.25 179.1875 L 78.207031 157.902344 " fill-opacity="1" fill-rule="nonzero"/></g></g></g></g><g clip-path="url(#1a6797cf13)"><g clip-path="url(#e89be80dd9)"><g clip-path="url(#a82a456351)"><g clip-path="url(#294b9b6a5f)"><path fill="#7b7979" d="M 69.746094 170.78125 L 79.460938 172.371094 L 103.460938 183.464844 L 109.390625 189.113281 L 69.746094 170.78125 " fill-opacity="1" fill-rule="nonzero"/><path fill="#656263" d="M 69.746094 170.78125 L 77.246094 177.160156 L 101.238281 188.25 L 109.390625 189.113281 L 69.746094 170.78125 " fill-opacity="1" fill-rule="nonzero"/></g></g></g></g><g clip-path="url(#8d0cd4f2fc)"><g clip-path="url(#89d32535a3)"><g clip-path="url(#76561c33a8)"><g clip-path="url(#1be5970cd2)"><path fill="#bdbcbc" d="M 198.261719 49.96875 L 196.015625 58.878906 L 205.128906 57.71875 Z M 198.261719 49.96875 " fill-opacity="1" fill-rule="nonzero"/></g></g></g></g><g clip-path="url(#cd53ed2ec3)"><g clip-path="url(#9963d7edaa)"><g clip-path="url(#ca93521d6d)"><g clip-path="url(#5015e2dfc3)"><path fill="#bdbcbc" d="M 224.800781 79.914062 L 222.554688 88.824219 L 231.667969 87.664062 Z M 224.800781 79.914062 " fill-opacity="1" fill-rule="nonzero"/></g></g></g></g></svg>