<svg xmlns="http://www.w3.org/2000/svg" xmlns:xlink="http://www.w3.org/1999/xlink" width="473" zoomAndPan="magnify" viewBox="0 0 354.75 197.249993" height="263" preserveAspectRatio="xMidYMid meet" version="1.0"><defs><clipPath id="f4f6109a2d"><path d="M 127.019531 69.421875 L 243.65625 69.421875 L 243.65625 134.472656 L 127.019531 134.472656 Z M 127.019531 69.421875 " clip-rule="nonzero"/></clipPath><clipPath id="4aa5d9699a"><path d="M 38.511719 37.75 L 316.722656 37.75 L 316.722656 158.875 L 38.511719 158.875 Z M 38.511719 37.75 " clip-rule="nonzero"/></clipPath><clipPath id="90b6dc26c1"><path d="M 256.113281 37.75 L 99.074219 37.75 L 38.511719 98.3125 L 99.074219 158.875 L 256.113281 158.875 L 316.675781 98.3125 L 256.113281 37.75 " clip-rule="nonzero"/></clipPath></defs><path fill="#ff5590" d="M 210.304688 90.003906 C 210.277344 90.753906 209.664062 91.335938 208.90625 91.335938 L 135.316406 91.632812 L 135.53125 106.15625 L 209.136719 102.03125 C 209.707031 102.003906 210.207031 102.300781 210.460938 102.785156 C 210.546875 102.941406 210.605469 103.109375 210.617188 103.308594 L 211.917969 117.351562 L 239.949219 96.25 L 210.988281 73.804688 Z M 210.304688 90.003906 " fill-opacity="1" fill-rule="nonzero"/><g clip-path="url(#f4f6109a2d)"><path fill="#231f20" d="M 243.527344 95.726562 C 243.515625 95.699219 243.515625 95.683594 243.5 95.65625 C 243.429688 95.5 243.328125 95.359375 243.1875 95.246094 C 243.171875 95.230469 243.144531 95.230469 243.128906 95.21875 C 243.117188 95.203125 243.117188 95.1875 243.101562 95.175781 L 210.5625 69.9375 C 210.148438 69.613281 209.59375 69.554688 209.109375 69.765625 C 208.636719 69.992188 208.324219 70.449219 208.292969 70.972656 L 207.554688 88.542969 L 133.890625 88.855469 C 133.863281 88.855469 133.847656 88.867188 133.835938 88.867188 C 133.707031 88.867188 133.578125 88.898438 133.464844 88.941406 C 133.421875 88.953125 133.378906 88.953125 133.347656 88.96875 C 133.191406 89.039062 133.050781 89.125 132.9375 89.25 C 132.9375 89.25 132.921875 89.265625 132.921875 89.265625 C 132.894531 89.292969 132.878906 89.335938 132.851562 89.363281 C 132.792969 89.433594 132.722656 89.507812 132.664062 89.605469 L 127.1875 100.175781 C 127.0625 100.390625 127.019531 100.628906 127.019531 100.855469 L 127.445312 117.691406 C 127.460938 117.960938 127.53125 118.214844 127.6875 118.425781 C 127.746094 118.511719 127.816406 118.597656 127.886719 118.667969 C 128.160156 118.921875 128.53125 119.066406 128.902344 119.050781 L 200.210938 116.429688 L 200.75 133.023438 C 200.765625 133.53125 201.066406 134 201.523438 134.226562 C 201.976562 134.453125 202.535156 134.410156 202.960938 134.128906 L 233.304688 112.984375 C 233.460938 112.871094 233.589844 112.746094 233.691406 112.574219 L 243.441406 97.015625 C 243.457031 96.988281 243.457031 96.972656 243.472656 96.945312 C 243.5 96.902344 243.515625 96.847656 243.527344 96.804688 C 243.585938 96.664062 243.613281 96.535156 243.628906 96.394531 C 243.628906 96.363281 243.65625 96.335938 243.65625 96.292969 C 243.65625 96.265625 243.644531 96.25 243.644531 96.222656 C 243.644531 96.039062 243.601562 95.882812 243.527344 95.726562 Z M 211.917969 117.351562 L 210.617188 103.308594 C 210.605469 103.125 210.546875 102.941406 210.460938 102.785156 C 210.21875 102.316406 209.707031 102.003906 209.136719 102.03125 L 135.53125 106.15625 L 135.316406 91.632812 L 208.90625 91.335938 C 209.664062 91.335938 210.277344 90.738281 210.304688 90.003906 L 210.988281 73.804688 L 239.949219 96.25 Z M 211.917969 117.351562 " fill-opacity="1" fill-rule="nonzero"/></g><g clip-path="url(#4aa5d9699a)"><g clip-path="url(#90b6dc26c1)"><path fill="#fbc532" d="M 38.511719 37.75 L 316.722656 37.75 L 316.722656 158.875 L 38.511719 158.875 Z M 38.511719 37.75 " fill-opacity="1" fill-rule="nonzero"/></g></g></svg>