<svg xmlns="http://www.w3.org/2000/svg" xmlns:xlink="http://www.w3.org/1999/xlink" width="1113" zoomAndPan="magnify" viewBox="0 0 834.75 831.749997" height="1109" preserveAspectRatio="xMidYMid meet" version="1.0"><defs><clipPath id="cb3a2b12d1"><path d="M 104 185 L 666 185 L 666 673 L 104 673 Z M 104 185 " clip-rule="nonzero"/></clipPath><clipPath id="cc242e5274"><path d="M 471.1875 38.039062 L 797.296875 456.152344 L 363.8125 794.253906 L 37.703125 376.140625 Z M 471.1875 38.039062 " clip-rule="nonzero"/></clipPath><clipPath id="bd203f56ff"><path d="M 471.1875 38.039062 L 797.296875 456.152344 L 363.8125 794.253906 L 37.703125 376.140625 Z M 471.1875 38.039062 " clip-rule="nonzero"/></clipPath></defs><g clip-path="url(#cb3a2b12d1)"><g clip-path="url(#cc242e5274)"><g clip-path="url(#bd203f56ff)"><path fill="#ed8227" d="M 586.941406 612.144531 C 623.734375 570.21875 642.960938 516.660156 655.238281 462.949219 C 666.035156 415.546875 670.199219 366.074219 660.011719 318.191406 C 655.136719 294.980469 647.886719 270.148438 634.273438 250.550781 C 620.726562 231.042969 602.285156 215.078125 581.382812 203.8125 C 560.28125 192.289062 536.148438 185.632812 512.179688 185.253906 C 485.019531 184.714844 459.144531 192.785156 433.257812 200.304688 C 374.496094 217.457031 312.984375 221.4375 253.953125 238.242188 C 201.738281 253.074219 150.394531 280.449219 122.179688 328.910156 C 95.332031 375.191406 101.445312 429.453125 125.289062 475.734375 C 152.703125 528.558594 199.257812 568.964844 250.496094 598.054688 C 276.140625 612.722656 303.207031 624.746094 330.730469 635.578125 C 357.96875 646.21875 385.535156 656.738281 413.664062 664.59375 C 439.144531 671.730469 465.257812 675.03125 491.355469 669.574219 C 516.167969 664.421875 539.5625 652.996094 559.703125 637.570312 C 569.726562 629.886719 578.699219 621.21875 586.941406 612.144531 " fill-opacity="1" fill-rule="nonzero"/><path fill="#ed8227" d="M 586.941406 612.144531 C 623.734375 570.21875 642.960938 516.660156 655.238281 462.949219 C 666.035156 415.546875 670.199219 366.074219 660.011719 318.191406 C 655.136719 294.980469 647.886719 270.148438 634.273438 250.550781 C 620.726562 231.042969 602.285156 215.078125 581.382812 203.8125 C 560.28125 192.289062 536.148438 185.632812 512.179688 185.253906 C 485.019531 184.714844 459.144531 192.785156 433.257812 200.304688 C 374.496094 217.457031 312.984375 221.4375 253.953125 238.242188 C 201.738281 253.074219 150.394531 280.449219 122.179688 328.910156 C 95.332031 375.191406 101.445312 429.453125 125.289062 475.734375 C 152.703125 528.558594 199.257812 568.964844 250.496094 598.054688 C 276.140625 612.722656 303.207031 624.746094 330.730469 635.578125 C 357.96875 646.21875 385.535156 656.738281 413.664062 664.59375 C 439.144531 671.730469 465.257812 675.03125 491.355469 669.574219 C 516.167969 664.421875 539.5625 652.996094 559.703125 637.570312 C 569.726562 629.886719 578.699219 621.21875 586.941406 612.144531 " fill-opacity="1" fill-rule="nonzero"/></g></g></g></svg>