<svg xmlns="http://www.w3.org/2000/svg" xmlns:xlink="http://www.w3.org/1999/xlink" width="869" zoomAndPan="magnify" viewBox="0 0 651.75 647.999998" height="864" preserveAspectRatio="xMidYMid meet" version="1.0"><defs><clipPath id="1cc9206127"><path d="M 305 41 L 327 41 L 327 609 L 305 609 Z M 305 41 " clip-rule="nonzero"/></clipPath><clipPath id="a9a99a1f4a"><path d="M 298.789062 605.222656 C 299.304688 582.984375 297.699219 560.675781 297.9375 538.429688 C 298.519531 484.019531 301.53125 429.523438 303.179688 375.125 C 303.835938 353.429688 305.4375 331.640625 304.085938 309.949219 C 302.304688 281.300781 297.367188 252.839844 296.316406 224.15625 C 294.851562 184.261719 296.984375 144.335938 296.078125 104.4375 C 295.765625 90.664062 289.691406 60.214844 292.261719 48.191406 C 294.394531 38.222656 351.421875 39.328125 355.777344 47.550781 C 362.046875 59.359375 358.898438 76.078125 358.484375 88.484375 C 357.621094 115.140625 356.632812 141.707031 356.632812 168.382812 C 356.632812 267.214844 356.914062 366.007812 355.523438 464.839844 C 355.367188 475.925781 355.089844 487 354.628906 498.085938 C 353.558594 523.925781 349.996094 549.621094 349.09375 575.476562 C 348.832031 583.097656 350.058594 599.859375 342.355469 605.75 C 337.242188 609.660156 324.734375 608.824219 318.367188 608.894531 " clip-rule="evenodd"/></clipPath><clipPath id="c8ec8b9022"><path d="M 308 511 L 335 511 L 335 609 L 308 609 Z M 308 511 " clip-rule="nonzero"/></clipPath><clipPath id="828f1d0da4"><path d="M 298.789062 605.222656 C 299.304688 582.984375 297.699219 560.675781 297.9375 538.429688 C 298.519531 484.019531 301.53125 429.523438 303.179688 375.125 C 303.835938 353.429688 305.4375 331.640625 304.085938 309.949219 C 302.304688 281.300781 297.367188 252.839844 296.316406 224.15625 C 294.851562 184.261719 296.984375 144.335938 296.078125 104.4375 C 295.765625 90.664062 289.691406 60.214844 292.261719 48.191406 C 294.394531 38.222656 351.421875 39.328125 355.777344 47.550781 C 362.046875 59.359375 358.898438 76.078125 358.484375 88.484375 C 357.621094 115.140625 356.632812 141.707031 356.632812 168.382812 C 356.632812 267.214844 356.914062 366.007812 355.523438 464.839844 C 355.367188 475.925781 355.089844 487 354.628906 498.085938 C 353.558594 523.925781 349.996094 549.621094 349.09375 575.476562 C 348.832031 583.097656 350.058594 599.859375 342.355469 605.75 C 337.242188 609.660156 324.734375 608.824219 318.367188 608.894531 " clip-rule="evenodd"/></clipPath><clipPath id="132594032b"><path d="M 297 168 L 321 168 L 321 443 L 297 443 Z M 297 168 " clip-rule="nonzero"/></clipPath><clipPath id="66f6ff032d"><path d="M 298.789062 605.222656 C 299.304688 582.984375 297.699219 560.675781 297.9375 538.429688 C 298.519531 484.019531 301.53125 429.523438 303.179688 375.125 C 303.835938 353.429688 305.4375 331.640625 304.085938 309.949219 C 302.304688 281.300781 297.367188 252.839844 296.316406 224.15625 C 294.851562 184.261719 296.984375 144.335938 296.078125 104.4375 C 295.765625 90.664062 289.691406 60.214844 292.261719 48.191406 C 294.394531 38.222656 351.421875 39.328125 355.777344 47.550781 C 362.046875 59.359375 358.898438 76.078125 358.484375 88.484375 C 357.621094 115.140625 356.632812 141.707031 356.632812 168.382812 C 356.632812 267.214844 356.914062 366.007812 355.523438 464.839844 C 355.367188 475.925781 355.089844 487 354.628906 498.085938 C 353.558594 523.925781 349.996094 549.621094 349.09375 575.476562 C 348.832031 583.097656 350.058594 599.859375 342.355469 605.75 C 337.242188 609.660156 324.734375 608.824219 318.367188 608.894531 " clip-rule="evenodd"/></clipPath><clipPath id="c51eceb5fe"><path d="M 297 310 L 311 310 L 311 411 L 297 411 Z M 297 310 " clip-rule="nonzero"/></clipPath><clipPath id="11d56dd18f"><path d="M 298.789062 605.222656 C 299.304688 582.984375 297.699219 560.675781 297.9375 538.429688 C 298.519531 484.019531 301.53125 429.523438 303.179688 375.125 C 303.835938 353.429688 305.4375 331.640625 304.085938 309.949219 C 302.304688 281.300781 297.367188 252.839844 296.316406 224.15625 C 294.851562 184.261719 296.984375 144.335938 296.078125 104.4375 C 295.765625 90.664062 289.691406 60.214844 292.261719 48.191406 C 294.394531 38.222656 351.421875 39.328125 355.777344 47.550781 C 362.046875 59.359375 358.898438 76.078125 358.484375 88.484375 C 357.621094 115.140625 356.632812 141.707031 356.632812 168.382812 C 356.632812 267.214844 356.914062 366.007812 355.523438 464.839844 C 355.367188 475.925781 355.089844 487 354.628906 498.085938 C 353.558594 523.925781 349.996094 549.621094 349.09375 575.476562 C 348.832031 583.097656 350.058594 599.859375 342.355469 605.75 C 337.242188 609.660156 324.734375 608.824219 318.367188 608.894531 " clip-rule="evenodd"/></clipPath><clipPath id="b34a5e2edd"><path d="M 325 41 L 335 41 L 335 480 L 325 480 Z M 325 41 " clip-rule="nonzero"/></clipPath><clipPath id="ff2877e177"><path d="M 298.789062 605.222656 C 299.304688 582.984375 297.699219 560.675781 297.9375 538.429688 C 298.519531 484.019531 301.53125 429.523438 303.179688 375.125 C 303.835938 353.429688 305.4375 331.640625 304.085938 309.949219 C 302.304688 281.300781 297.367188 252.839844 296.316406 224.15625 C 294.851562 184.261719 296.984375 144.335938 296.078125 104.4375 C 295.765625 90.664062 289.691406 60.214844 292.261719 48.191406 C 294.394531 38.222656 351.421875 39.328125 355.777344 47.550781 C 362.046875 59.359375 358.898438 76.078125 358.484375 88.484375 C 357.621094 115.140625 356.632812 141.707031 356.632812 168.382812 C 356.632812 267.214844 356.914062 366.007812 355.523438 464.839844 C 355.367188 475.925781 355.089844 487 354.628906 498.085938 C 353.558594 523.925781 349.996094 549.621094 349.09375 575.476562 C 348.832031 583.097656 350.058594 599.859375 342.355469 605.75 C 337.242188 609.660156 324.734375 608.824219 318.367188 608.894531 " clip-rule="evenodd"/></clipPath><clipPath id="d68eca63c5"><path d="M 331 269 L 359.683594 269 L 359.683594 609 L 331 609 Z M 331 269 " clip-rule="nonzero"/></clipPath><clipPath id="cff10d656a"><path d="M 298.789062 605.222656 C 299.304688 582.984375 297.699219 560.675781 297.9375 538.429688 C 298.519531 484.019531 301.53125 429.523438 303.179688 375.125 C 303.835938 353.429688 305.4375 331.640625 304.085938 309.949219 C 302.304688 281.300781 297.367188 252.839844 296.316406 224.15625 C 294.851562 184.261719 296.984375 144.335938 296.078125 104.4375 C 295.765625 90.664062 289.691406 60.214844 292.261719 48.191406 C 294.394531 38.222656 351.421875 39.328125 355.777344 47.550781 C 362.046875 59.359375 358.898438 76.078125 358.484375 88.484375 C 357.621094 115.140625 356.632812 141.707031 356.632812 168.382812 C 356.632812 267.214844 356.914062 366.007812 355.523438 464.839844 C 355.367188 475.925781 355.089844 487 354.628906 498.085938 C 353.558594 523.925781 349.996094 549.621094 349.09375 575.476562 C 348.832031 583.097656 350.058594 599.859375 342.355469 605.75 C 337.242188 609.660156 324.734375 608.824219 318.367188 608.894531 " clip-rule="evenodd"/></clipPath><clipPath id="04cc6eab18"><path d="M 332 367 L 343 367 L 343 512 L 332 512 Z M 332 367 " clip-rule="nonzero"/></clipPath><clipPath id="c4378c027d"><path d="M 298.789062 605.222656 C 299.304688 582.984375 297.699219 560.675781 297.9375 538.429688 C 298.519531 484.019531 301.53125 429.523438 303.179688 375.125 C 303.835938 353.429688 305.4375 331.640625 304.085938 309.949219 C 302.304688 281.300781 297.367188 252.839844 296.316406 224.15625 C 294.851562 184.261719 296.984375 144.335938 296.078125 104.4375 C 295.765625 90.664062 289.691406 60.214844 292.261719 48.191406 C 294.394531 38.222656 351.421875 39.328125 355.777344 47.550781 C 362.046875 59.359375 358.898438 76.078125 358.484375 88.484375 C 357.621094 115.140625 356.632812 141.707031 356.632812 168.382812 C 356.632812 267.214844 356.914062 366.007812 355.523438 464.839844 C 355.367188 475.925781 355.089844 487 354.628906 498.085938 C 353.558594 523.925781 349.996094 549.621094 349.09375 575.476562 C 348.832031 583.097656 350.058594 599.859375 342.355469 605.75 C 337.242188 609.660156 324.734375 608.824219 318.367188 608.894531 " clip-rule="evenodd"/></clipPath><clipPath id="112272ee7f"><path d="M 316 461 L 320 461 L 320 509 L 316 509 Z M 316 461 " clip-rule="nonzero"/></clipPath><clipPath id="0610fedc69"><path d="M 298.789062 605.222656 C 299.304688 582.984375 297.699219 560.675781 297.9375 538.429688 C 298.519531 484.019531 301.53125 429.523438 303.179688 375.125 C 303.835938 353.429688 305.4375 331.640625 304.085938 309.949219 C 302.304688 281.300781 297.367188 252.839844 296.316406 224.15625 C 294.851562 184.261719 296.984375 144.335938 296.078125 104.4375 C 295.765625 90.664062 289.691406 60.214844 292.261719 48.191406 C 294.394531 38.222656 351.421875 39.328125 355.777344 47.550781 C 362.046875 59.359375 358.898438 76.078125 358.484375 88.484375 C 357.621094 115.140625 356.632812 141.707031 356.632812 168.382812 C 356.632812 267.214844 356.914062 366.007812 355.523438 464.839844 C 355.367188 475.925781 355.089844 487 354.628906 498.085938 C 353.558594 523.925781 349.996094 549.621094 349.09375 575.476562 C 348.832031 583.097656 350.058594 599.859375 342.355469 605.75 C 337.242188 609.660156 324.734375 608.824219 318.367188 608.894531 " clip-rule="evenodd"/></clipPath><clipPath id="1c2996c15f"><path d="M 339 41 L 353 41 L 353 320 L 339 320 Z M 339 41 " clip-rule="nonzero"/></clipPath><clipPath id="0783298d49"><path d="M 298.789062 605.222656 C 299.304688 582.984375 297.699219 560.675781 297.9375 538.429688 C 298.519531 484.019531 301.53125 429.523438 303.179688 375.125 C 303.835938 353.429688 305.4375 331.640625 304.085938 309.949219 C 302.304688 281.300781 297.367188 252.839844 296.316406 224.15625 C 294.851562 184.261719 296.984375 144.335938 296.078125 104.4375 C 295.765625 90.664062 289.691406 60.214844 292.261719 48.191406 C 294.394531 38.222656 351.421875 39.328125 355.777344 47.550781 C 362.046875 59.359375 358.898438 76.078125 358.484375 88.484375 C 357.621094 115.140625 356.632812 141.707031 356.632812 168.382812 C 356.632812 267.214844 356.914062 366.007812 355.523438 464.839844 C 355.367188 475.925781 355.089844 487 354.628906 498.085938 C 353.558594 523.925781 349.996094 549.621094 349.09375 575.476562 C 348.832031 583.097656 350.058594 599.859375 342.355469 605.75 C 337.242188 609.660156 324.734375 608.824219 318.367188 608.894531 " clip-rule="evenodd"/></clipPath><clipPath id="0da27ea723"><path d="M 291 41 L 305 41 L 305 74 L 291 74 Z M 291 41 " clip-rule="nonzero"/></clipPath><clipPath id="4f5d97d046"><path d="M 298.789062 605.222656 C 299.304688 582.984375 297.699219 560.675781 297.9375 538.429688 C 298.519531 484.019531 301.53125 429.523438 303.179688 375.125 C 303.835938 353.429688 305.4375 331.640625 304.085938 309.949219 C 302.304688 281.300781 297.367188 252.839844 296.316406 224.15625 C 294.851562 184.261719 296.984375 144.335938 296.078125 104.4375 C 295.765625 90.664062 289.691406 60.214844 292.261719 48.191406 C 294.394531 38.222656 351.421875 39.328125 355.777344 47.550781 C 362.046875 59.359375 358.898438 76.078125 358.484375 88.484375 C 357.621094 115.140625 356.632812 141.707031 356.632812 168.382812 C 356.632812 267.214844 356.914062 366.007812 355.523438 464.839844 C 355.367188 475.925781 355.089844 487 354.628906 498.085938 C 353.558594 523.925781 349.996094 549.621094 349.09375 575.476562 C 348.832031 583.097656 350.058594 599.859375 342.355469 605.75 C 337.242188 609.660156 324.734375 608.824219 318.367188 608.894531 " clip-rule="evenodd"/></clipPath><clipPath id="6293b526d3"><path d="M 291 41 L 300 41 L 300 69 L 291 69 Z M 291 41 " clip-rule="nonzero"/></clipPath><clipPath id="a5a4aa4763"><path d="M 298.789062 605.222656 C 299.304688 582.984375 297.699219 560.675781 297.9375 538.429688 C 298.519531 484.019531 301.53125 429.523438 303.179688 375.125 C 303.835938 353.429688 305.4375 331.640625 304.085938 309.949219 C 302.304688 281.300781 297.367188 252.839844 296.316406 224.15625 C 294.851562 184.261719 296.984375 144.335938 296.078125 104.4375 C 295.765625 90.664062 289.691406 60.214844 292.261719 48.191406 C 294.394531 38.222656 351.421875 39.328125 355.777344 47.550781 C 362.046875 59.359375 358.898438 76.078125 358.484375 88.484375 C 357.621094 115.140625 356.632812 141.707031 356.632812 168.382812 C 356.632812 267.214844 356.914062 366.007812 355.523438 464.839844 C 355.367188 475.925781 355.089844 487 354.628906 498.085938 C 353.558594 523.925781 349.996094 549.621094 349.09375 575.476562 C 348.832031 583.097656 350.058594 599.859375 342.355469 605.75 C 337.242188 609.660156 324.734375 608.824219 318.367188 608.894531 " clip-rule="evenodd"/></clipPath><clipPath id="9abed6a406"><path d="M 350 178 L 354 178 L 354 259 L 350 259 Z M 350 178 " clip-rule="nonzero"/></clipPath><clipPath id="b1ab2437f7"><path d="M 298.789062 605.222656 C 299.304688 582.984375 297.699219 560.675781 297.9375 538.429688 C 298.519531 484.019531 301.53125 429.523438 303.179688 375.125 C 303.835938 353.429688 305.4375 331.640625 304.085938 309.949219 C 302.304688 281.300781 297.367188 252.839844 296.316406 224.15625 C 294.851562 184.261719 296.984375 144.335938 296.078125 104.4375 C 295.765625 90.664062 289.691406 60.214844 292.261719 48.191406 C 294.394531 38.222656 351.421875 39.328125 355.777344 47.550781 C 362.046875 59.359375 358.898438 76.078125 358.484375 88.484375 C 357.621094 115.140625 356.632812 141.707031 356.632812 168.382812 C 356.632812 267.214844 356.914062 366.007812 355.523438 464.839844 C 355.367188 475.925781 355.089844 487 354.628906 498.085938 C 353.558594 523.925781 349.996094 549.621094 349.09375 575.476562 C 348.832031 583.097656 350.058594 599.859375 342.355469 605.75 C 337.242188 609.660156 324.734375 608.824219 318.367188 608.894531 " clip-rule="evenodd"/></clipPath><clipPath id="76af1ab2ca"><path d="M 269.515625 118 L 458.265625 118 L 458.265625 223.878906 L 269.515625 223.878906 Z M 269.515625 118 " clip-rule="nonzero"/></clipPath><clipPath id="8018d65ebf"><path d="M 552.074219 98.214844 L 580.328125 98.214844 L 580.328125 255.089844 L 552.074219 255.089844 Z M 552.074219 98.214844 " clip-rule="nonzero"/></clipPath><clipPath id="1e978b6187"><path d="M 71.691406 98.214844 L 548 98.214844 L 548 255.089844 L 71.691406 255.089844 Z M 71.691406 98.214844 " clip-rule="nonzero"/></clipPath></defs><path fill="#fbc532" d="M 298.789062 605.222656 C 299.304688 582.984375 297.699219 560.675781 297.9375 538.429688 C 298.519531 484.019531 301.53125 429.523438 303.179688 375.125 C 303.835938 353.429688 305.4375 331.640625 304.085938 309.949219 C 302.304688 281.300781 297.367188 252.839844 296.316406 224.15625 C 294.851562 184.261719 296.984375 144.335938 296.078125 104.4375 C 295.765625 90.664062 289.691406 60.214844 292.261719 48.191406 C 294.394531 38.222656 351.421875 39.328125 355.777344 47.550781 C 362.046875 59.359375 358.898438 76.078125 358.484375 88.484375 C 357.621094 115.140625 356.632812 141.707031 356.632812 168.382812 C 356.632812 267.214844 356.914062 366.007812 355.523438 464.839844 C 355.367188 475.925781 355.089844 487 354.628906 498.085938 C 353.558594 523.925781 349.996094 549.621094 349.09375 575.476562 C 348.832031 583.097656 350.058594 599.859375 342.355469 605.75 C 337.242188 609.660156 324.734375 608.824219 318.367188 608.894531 " fill-opacity="1" fill-rule="evenodd"/><g clip-path="url(#1cc9206127)"><g clip-path="url(#a9a99a1f4a)"><path fill="#c55e2e" d="M 311.371094 36.449219 C 309.351562 70.941406 307.347656 105.261719 306.957031 139.644531 C 306.691406 162.558594 307.152344 185.496094 308.789062 208.53125 C 311.222656 242.625 317.40625 276.453125 321.046875 310.445312 C 322.597656 324.988281 323.695312 339.558594 323.804688 354.195312 C 323.941406 371.5 322.636719 388.660156 320.652344 405.75 C 316.023438 445.761719 307.710938 485.417969 305.503906 525.753906 C 304.992188 535.164062 305.328125 544.453125 306.117188 553.695312 C 307.945312 575.199219 312.226562 596.402344 313.773438 618.136719 C 313.8125 618.640625 314.246094 619.019531 314.746094 618.980469 C 315.257812 618.949219 315.628906 618.507812 315.601562 618.003906 C 314.097656 596.265625 309.878906 575.042969 308.105469 553.523438 C 307.347656 544.378906 307.035156 535.1875 307.574219 525.875 C 309.871094 485.578125 318.277344 445.992188 322.988281 406.019531 C 325.019531 388.839844 326.355469 371.585938 326.246094 354.179688 C 326.15625 339.460938 325.089844 324.804688 323.527344 310.175781 C 319.898438 276.214844 313.667969 242.417969 311.214844 208.359375 C 309.546875 185.390625 309.054688 162.519531 309.269531 139.671875 C 309.59375 105.320312 311.507812 71.03125 313.453125 36.570312 C 313.480469 35.996094 313.039062 35.5 312.46875 35.46875 C 311.890625 35.433594 311.402344 35.875 311.371094 36.449219 Z M 311.371094 36.449219 " fill-opacity="0.6118" fill-rule="evenodd"/></g></g><g clip-path="url(#c8ec8b9022)"><g clip-path="url(#828f1d0da4)"><path fill="#c55e2e" d="M 320.917969 530.304688 C 321.066406 530.554688 321.292969 530.960938 321.351562 531.261719 L 321.613281 532.992188 C 321.832031 534.929688 321.917969 536.945312 321.859375 538.949219 C 321.800781 540.941406 321.59375 542.933594 321.210938 544.84375 C 321.125 545.316406 320.878906 546.625 320.386719 547.71875 C 320.210938 548.117188 320.007812 548.5 319.730469 548.761719 C 319.582031 548.90625 319.417969 549.011719 319.203125 548.964844 C 318.621094 548.824219 318.199219 548.339844 317.847656 547.792969 C 317.132812 546.679688 316.730469 545.234375 316.464844 544.429688 C 315.542969 541.640625 315.160156 538.683594 315.21875 535.722656 C 315.285156 532.757812 315.816406 529.792969 316.730469 527.003906 C 316.984375 526.214844 317.679688 523.859375 318.839844 522.394531 C 319.339844 521.769531 319.917969 521.273438 320.664062 521.640625 C 321.546875 522.070312 322.175781 522.859375 322.675781 523.746094 C 323.578125 525.355469 324.058594 527.296875 324.488281 528.628906 C 325.765625 532.53125 326.539062 536.457031 326.648438 540.375 C 326.765625 544.273438 326.226562 548.175781 324.882812 552.058594 C 324.390625 553.441406 323.480469 556.554688 321.890625 558.660156 C 321.054688 559.757812 320.054688 560.609375 318.71875 560.40625 C 317.316406 560.195312 316.316406 559.367188 315.550781 558.316406 C 314.136719 556.375 313.511719 553.71875 313.03125 551.980469 C 311.703125 547.152344 310.859375 542.121094 310.761719 537.097656 C 310.664062 532.109375 311.300781 527.132812 312.960938 522.371094 C 313.65625 520.363281 315.238281 516.707031 317.671875 514.804688 C 318.996094 513.78125 320.59375 513.324219 322.457031 514.210938 C 323.785156 514.84375 324.882812 515.753906 325.796875 516.789062 C 326.816406 517.933594 327.621094 519.226562 328.277344 520.46875 C 329.847656 523.453125 330.820312 526.621094 331.328125 529.847656 C 331.859375 533.164062 331.90625 536.535156 331.652344 539.835938 C 331.378906 543.414062 330.886719 546.964844 330.257812 550.5 C 327.746094 564.738281 323.085938 578.742188 321.378906 593.09375 C 321.007812 596.257812 320.546875 599.582031 320.378906 602.871094 C 320.261719 605.125 320.269531 607.367188 320.535156 609.546875 C 320.605469 610.121094 321.125 610.527344 321.695312 610.464844 C 322.261719 610.398438 322.675781 609.878906 322.605469 609.300781 C 322.371094 607.246094 322.371094 605.125 322.5 602.984375 C 322.683594 599.742188 323.15625 596.476562 323.539062 593.363281 C 325.304688 579.050781 330.035156 565.105469 332.59375 550.914062 C 333.242188 547.304688 333.753906 543.679688 334.046875 540.03125 C 334.332031 536.535156 334.28125 532.96875 333.734375 529.464844 C 333.183594 525.972656 332.152344 522.550781 330.457031 519.324219 C 329.710938 517.902344 328.796875 516.4375 327.648438 515.144531 C 326.519531 513.871094 325.15625 512.75 323.519531 511.96875 C 320.644531 510.601562 318.171875 511.253906 316.148438 512.835938 C 313.3125 515.039062 311.410156 519.226562 310.605469 521.550781 C 308.847656 526.597656 308.164062 531.863281 308.28125 537.148438 C 308.386719 542.378906 309.28125 547.613281 310.675781 552.636719 C 311.214844 554.585938 312 557.5625 313.597656 559.742188 C 314.746094 561.300781 316.277344 562.480469 318.367188 562.789062 C 320.113281 563.046875 321.59375 562.390625 322.832031 561.203125 C 325.148438 558.953125 326.480469 554.621094 327.101562 552.824219 C 328.523438 548.664062 329.082031 544.476562 328.945312 540.300781 C 328.796875 536.171875 327.972656 532.035156 326.609375 527.929688 C 326.128906 526.492188 325.578125 524.394531 324.589844 522.664062 C 323.863281 521.371094 322.902344 520.28125 321.613281 519.664062 C 320.191406 518.980469 318.945312 519.324219 317.90625 520.234375 C 316.140625 521.761719 315.03125 525.273438 314.6875 526.34375 C 313.734375 529.328125 313.1875 532.507812 313.136719 535.683594 C 313.089844 538.878906 313.519531 542.070312 314.53125 545.078125 C 314.84375 545.988281 315.335938 547.621094 316.160156 548.890625 C 316.816406 549.890625 317.679688 550.664062 318.75 550.90625 C 319.828125 551.15625 320.730469 550.710938 321.417969 549.851562 C 322.488281 548.515625 322.988281 545.980469 323.136719 545.226562 C 323.527344 543.203125 323.734375 541.105469 323.785156 539 C 323.832031 536.902344 323.726562 534.804688 323.488281 532.78125 L 323.183594 530.871094 C 323.019531 530.125 322.65625 529.367188 322.234375 528.898438 C 321.851562 528.476562 321.410156 528.246094 320.996094 528.214844 C 320.367188 528.164062 319.515625 528.5 319.035156 530.027344 C 318.808594 530.773438 318.640625 531.554688 318.535156 532.335938 C 318.367188 533.472656 318.308594 534.628906 318.269531 535.75 C 318.257812 536.253906 318.652344 536.675781 319.152344 536.691406 C 319.652344 536.707031 320.074219 536.316406 320.09375 535.8125 C 320.132812 534.757812 320.183594 533.667969 320.347656 532.601562 C 320.449219 531.921875 320.59375 531.238281 320.800781 530.585938 C 320.832031 530.492188 320.871094 530.394531 320.917969 530.304688 Z M 320.917969 530.304688 " fill-opacity="0.6118" fill-rule="evenodd"/></g></g><g clip-path="url(#132594032b)"><g clip-path="url(#66f6ff032d)"><path fill="#c55e2e" d="M 300.640625 168.738281 C 298.957031 173.398438 298.09375 178.402344 297.675781 183.492188 C 297.058594 191.015625 297.414062 198.730469 297.476562 205.800781 C 297.574219 216.929688 298.347656 227.9375 299.589844 238.894531 C 301.449219 255.265625 304.351562 271.523438 307.542969 287.910156 C 311.683594 308.933594 316.265625 330.382812 318.015625 351.859375 C 319.183594 366.195312 319.082031 380.539062 316.710938 394.78125 C 315.660156 401.152344 313.960938 407.457031 311.890625 413.691406 C 308.800781 422.964844 304.878906 432.078125 300.949219 441.039062 C 300.746094 441.503906 300.957031 442.039062 301.414062 442.242188 C 301.875 442.445312 302.414062 442.242188 302.617188 441.78125 C 306.621094 432.785156 310.617188 423.640625 313.765625 414.328125 C 315.914062 408.003906 317.671875 401.605469 318.78125 395.128906 C 321.253906 380.722656 321.449219 366.195312 320.320312 351.675781 C 318.652344 330.105469 314.089844 308.550781 309.988281 287.429688 C 306.777344 271.113281 303.867188 254.921875 301.96875 238.617188 C 300.703125 227.746094 299.882812 216.824219 299.742188 205.777344 C 299.648438 198.765625 299.257812 191.121094 299.832031 183.664062 C 300.210938 178.761719 301.007812 173.941406 302.605469 169.445312 C 302.800781 168.902344 302.515625 168.304688 301.972656 168.109375 C 301.433594 167.914062 300.832031 168.195312 300.640625 168.738281 Z M 300.640625 168.738281 " fill-opacity="0.6118" fill-rule="evenodd"/></g></g><g clip-path="url(#c51eceb5fe)"><g clip-path="url(#11d56dd18f)"><path fill="#c55e2e" d="M 302.367188 312.027344 C 303.765625 315.574219 304.640625 319.339844 305.257812 323.167969 C 306.203125 329.023438 306.535156 335.03125 307.09375 340.648438 C 307.660156 346.242188 308.113281 351.929688 308.339844 357.636719 C 308.664062 366.117188 308.425781 374.640625 306.996094 382.980469 C 305.433594 392.050781 302.480469 400.898438 297.335938 409.214844 C 297.066406 409.636719 297.195312 410.199219 297.621094 410.464844 C 298.046875 410.734375 298.605469 410.613281 298.875 410.179688 C 304.292969 401.722656 307.484375 392.675781 309.203125 383.371094 C 310.773438 374.890625 311.136719 366.195312 310.820312 357.542969 C 310.625 351.78125 310.105469 346.042969 309.507812 340.394531 C 308.886719 334.738281 308.496094 328.6875 307.476562 322.796875 C 306.777344 318.820312 305.808594 314.914062 304.304688 311.25 C 304.089844 310.710938 303.480469 310.453125 302.945312 310.667969 C 302.414062 310.882812 302.152344 311.492188 302.367188 312.027344 Z M 302.367188 312.027344 " fill-opacity="0.6118" fill-rule="evenodd"/></g></g><g clip-path="url(#b34a5e2edd)"><g clip-path="url(#ff2877e177)"><path fill="#c55e2e" d="M 329.347656 27.539062 C 328.394531 39.007812 328.0625 50.546875 328.011719 62.105469 C 327.933594 79.390625 328.484375 96.710938 328.503906 113.882812 C 328.542969 135.128906 328.808594 156.371094 329.191406 177.605469 C 329.554688 197.425781 330.003906 217.242188 330.484375 237.058594 C 331.203125 266.773438 331.976562 296.488281 332.417969 326.214844 C 332.652344 341.46875 332.203125 356.667969 331.445312 371.839844 C 329.671875 407.378906 326.207031 442.773438 325.824219 478.378906 C 325.816406 478.882812 326.21875 479.296875 326.726562 479.304688 C 327.226562 479.3125 327.640625 478.90625 327.648438 478.402344 C 328.148438 442.820312 331.742188 407.457031 333.625 371.949219 C 334.429688 356.734375 334.929688 341.488281 334.734375 326.183594 C 334.351562 296.449219 333.675781 266.722656 332.976562 237 C 332.515625 217.1875 332.035156 197.375 331.652344 177.558594 C 331.242188 156.335938 330.925781 135.109375 330.839844 113.875 C 330.769531 96.707031 330.179688 79.390625 330.210938 62.113281 C 330.230469 50.609375 330.515625 39.125 331.425781 27.710938 C 331.476562 27.132812 331.042969 26.628906 330.464844 26.582031 C 329.898438 26.535156 329.394531 26.964844 329.347656 27.539062 Z M 329.347656 27.539062 " fill-opacity="0.6118" fill-rule="evenodd"/></g></g><g clip-path="url(#d68eca63c5)"><g clip-path="url(#cff10d656a)"><path fill="#c55e2e" d="M 333.578125 609.066406 C 336.078125 595.160156 338.34375 581.269531 340.210938 567.339844 C 342.074219 553.367188 343.527344 539.367188 344.417969 525.273438 C 345.636719 505.855469 346.203125 486.441406 346.597656 467.015625 C 346.988281 447.609375 347.226562 428.199219 347.8125 408.800781 C 348.332031 392.195312 349.097656 375.597656 350.472656 359.011719 C 351.925781 341.390625 352.121094 323.476562 353.859375 305.742188 C 355.015625 294.015625 356.839844 282.367188 360.15625 270.941406 C 360.304688 270.457031 360.03125 269.953125 359.539062 269.808594 C 359.058594 269.667969 358.558594 269.945312 358.410156 270.425781 C 355.007812 281.953125 353.101562 293.707031 351.886719 305.546875 C 350.070312 323.277344 349.785156 341.199219 348.253906 358.824219 C 346.824219 375.445312 345.980469 392.082031 345.417969 408.71875 C 344.773438 428.132812 344.496094 447.550781 344.105469 466.96875 C 343.710938 486.351562 343.210938 505.742188 342.035156 525.117188 C 341.191406 539.171875 339.777344 553.125 337.972656 567.039062 C 336.167969 580.945312 333.957031 594.808594 331.527344 608.699219 C 331.417969 609.269531 331.800781 609.8125 332.371094 609.910156 C 332.9375 610.015625 333.476562 609.632812 333.578125 609.066406 Z M 333.578125 609.066406 " fill-opacity="0.6118" fill-rule="evenodd"/></g></g><g clip-path="url(#04cc6eab18)"><g clip-path="url(#c4378c027d)"><path fill="#c55e2e" d="M 340.394531 368.449219 C 339.246094 373.730469 338.414062 379.070312 337.765625 384.425781 C 336.785156 392.449219 336.195312 400.511719 335.480469 408.507812 C 334.292969 422.152344 333.578125 435.824219 333.195312 449.5 C 332.613281 470 332.722656 490.511719 332.566406 511.007812 C 332.554688 511.511719 332.957031 511.925781 333.457031 511.9375 C 333.96875 511.945312 334.382812 511.539062 334.382812 511.035156 C 334.742188 490.550781 334.929688 470.054688 335.617188 449.574219 C 336.070312 435.945312 336.707031 422.316406 337.894531 408.710938 C 338.550781 400.738281 339.082031 392.691406 339.992188 384.695312 C 340.59375 379.390625 341.347656 374.113281 342.4375 368.882812 C 342.554688 368.320312 342.191406 367.765625 341.632812 367.644531 C 341.0625 367.523438 340.511719 367.886719 340.394531 368.449219 Z M 340.394531 368.449219 " fill-opacity="0.6118" fill-rule="evenodd"/></g></g><g clip-path="url(#112272ee7f)"><g clip-path="url(#0610fedc69)"><path fill="#c55e2e" d="M 318.101562 507.734375 C 318.359375 503.230469 318.660156 498.738281 318.925781 494.242188 C 319.101562 491.242188 319.269531 488.246094 319.40625 485.246094 C 319.730469 477.734375 319.886719 470.21875 319.945312 462.691406 C 319.957031 462.1875 319.554688 461.773438 319.054688 461.757812 C 318.554688 461.75 318.132812 462.148438 318.121094 462.652344 C 317.914062 468.046875 317.601562 473.4375 317.296875 478.832031 C 317.089844 482.425781 316.875 486.027344 316.699219 489.617188 C 316.40625 495.625 316.207031 501.628906 316.011719 507.636719 C 315.992188 508.214844 316.433594 508.699219 317.011719 508.726562 C 317.59375 508.75 318.074219 508.300781 318.101562 507.734375 Z M 318.101562 507.734375 " fill-opacity="0.6118" fill-rule="evenodd"/></g></g><g clip-path="url(#1c2996c15f)"><g clip-path="url(#0783298d49)"><path fill="#c55e2e" d="M 350.089844 41.382812 C 348.472656 74.789062 346.65625 108.183594 345.214844 141.59375 C 344.242188 163.875 343.457031 186.160156 342.886719 208.453125 C 342.289062 234.097656 343.046875 259.875 342.171875 285.5625 C 341.808594 296.550781 341.140625 307.523438 339.945312 318.460938 C 339.886719 318.960938 340.25 319.410156 340.75 319.46875 C 341.25 319.523438 341.699219 319.164062 341.757812 318.664062 C 343.027344 307.683594 343.75 296.671875 344.183594 285.636719 C 345.183594 259.949219 344.546875 234.160156 345.28125 208.519531 C 345.871094 186.238281 346.746094 163.96875 347.6875 141.699219 C 349.089844 108.292969 350.6875 74.886719 352.171875 41.480469 C 352.199219 40.90625 351.757812 40.414062 351.179688 40.386719 C 350.609375 40.363281 350.121094 40.808594 350.089844 41.382812 Z M 350.089844 41.382812 " fill-opacity="0.6118" fill-rule="evenodd"/></g></g><g clip-path="url(#0da27ea723)"><g clip-path="url(#4f5d97d046)"><path fill="#c55e2e" d="M 302.398438 40.066406 C 301.925781 44.191406 301.011719 48.734375 299.511719 53.152344 C 298.566406 55.929688 297.390625 58.660156 295.878906 61.199219 C 293.445312 65.296875 290.171875 68.921875 285.640625 71.390625 C 285.195312 71.625 285.023438 72.175781 285.253906 72.621094 C 285.488281 73.070312 286.039062 73.242188 286.484375 73.011719 C 292.726562 69.894531 297.015625 64.808594 299.820312 59.015625 C 300.964844 56.664062 301.84375 54.1875 302.527344 51.703125 C 303.601562 47.8125 304.167969 43.878906 304.472656 40.277344 C 304.53125 39.703125 304.113281 39.1875 303.539062 39.132812 C 302.96875 39.074219 302.457031 39.492188 302.398438 40.066406 Z M 302.398438 40.066406 " fill-opacity="0.6118" fill-rule="evenodd"/></g></g><g clip-path="url(#6293b526d3)"><g clip-path="url(#a5a4aa4763)"><path fill="#c55e2e" d="M 282.839844 68.714844 C 284.46875 67.882812 285.890625 66.738281 287.15625 65.445312 C 289.039062 63.515625 290.5625 61.246094 291.9375 59.261719 C 293.601562 56.828125 295.046875 54.289062 296.195312 51.652344 C 297.375 48.941406 298.25 46.140625 298.804688 43.308594 C 299.925781 37.5625 299.71875 31.667969 297.933594 25.972656 C 297.789062 25.492188 297.28125 25.214844 296.800781 25.359375 C 296.316406 25.503906 296.042969 26.011719 296.1875 26.492188 C 297.699219 31.902344 297.6875 37.445312 296.5 42.828125 C 295.914062 45.484375 295.03125 48.101562 293.910156 50.652344 C 292.8125 53.144531 291.5 55.582031 289.941406 57.90625 C 288.675781 59.824219 287.28125 62.015625 285.535156 63.898438 C 284.464844 65.054688 283.265625 66.101562 281.867188 66.867188 C 281.355469 67.136719 281.160156 67.769531 281.429688 68.277344 C 281.699219 68.789062 282.328125 68.984375 282.839844 68.714844 Z M 282.839844 68.714844 " fill-opacity="0.6118" fill-rule="evenodd"/></g></g><g clip-path="url(#9abed6a406)"><g clip-path="url(#b1ab2437f7)"><path fill="#c55e2e" d="M 351.757812 179.660156 C 350.757812 187.472656 350.304688 195.328125 350.21875 203.203125 C 350.140625 210.515625 350.363281 217.84375 350.667969 225.164062 C 351.121094 236.125 351.796875 247.074219 351.835938 257.972656 C 351.828125 258.472656 352.238281 258.886719 352.738281 258.886719 C 353.238281 258.890625 353.652344 258.484375 353.652344 257.980469 C 353.820312 247.058594 353.425781 236.066406 353.074219 225.074219 C 352.835938 217.785156 352.621094 210.496094 352.652344 203.21875 C 352.679688 195.429688 352.957031 187.652344 353.839844 179.910156 C 353.90625 179.335938 353.496094 178.816406 352.925781 178.746094 C 352.347656 178.675781 351.828125 179.085938 351.757812 179.660156 Z M 351.757812 179.660156 " fill-opacity="0.6118" fill-rule="evenodd"/></g></g><path fill="#ff5590" d="M 404.292969 151.351562 C 404.25 152.578125 403.257812 153.523438 402.035156 153.523438 L 282.941406 154.007812 L 283.292969 177.699219 L 402.402344 170.972656 C 403.324219 170.925781 404.136719 171.410156 404.550781 172.195312 C 404.6875 172.453125 404.777344 172.730469 404.800781 173.050781 L 406.902344 195.953125 L 452.265625 161.542969 L 405.402344 124.9375 Z M 404.292969 151.351562 " fill-opacity="1" fill-rule="nonzero"/><g clip-path="url(#76af1ab2ca)"><path fill="#231f20" d="M 458.058594 160.6875 C 458.035156 160.640625 458.035156 160.617188 458.015625 160.574219 C 457.894531 160.320312 457.738281 160.089844 457.507812 159.902344 C 457.480469 159.882812 457.4375 159.882812 457.414062 159.855469 C 457.386719 159.832031 457.386719 159.8125 457.367188 159.789062 L 404.707031 118.628906 C 404.042969 118.101562 403.140625 118.007812 402.355469 118.351562 C 401.59375 118.722656 401.085938 119.464844 401.042969 120.320312 L 399.84375 148.972656 L 280.636719 149.484375 C 280.59375 149.484375 280.566406 149.503906 280.542969 149.503906 C 280.335938 149.503906 280.128906 149.550781 279.945312 149.621094 C 279.875 149.640625 279.808594 149.640625 279.757812 149.667969 C 279.507812 149.78125 279.277344 149.917969 279.09375 150.128906 C 279.09375 150.128906 279.066406 150.152344 279.066406 150.152344 C 279.023438 150.199219 279 150.269531 278.949219 150.3125 C 278.859375 150.425781 278.742188 150.546875 278.652344 150.703125 L 269.792969 167.945312 C 269.585938 168.292969 269.515625 168.683594 269.515625 169.054688 L 270.207031 196.507812 C 270.230469 196.945312 270.34375 197.363281 270.601562 197.710938 C 270.691406 197.847656 270.808594 197.988281 270.921875 198.101562 C 271.359375 198.519531 271.960938 198.75 272.558594 198.726562 L 387.957031 194.449219 L 388.835938 221.511719 C 388.859375 222.34375 389.34375 223.105469 390.082031 223.476562 C 390.816406 223.847656 391.71875 223.777344 392.410156 223.3125 L 441.515625 188.835938 C 441.769531 188.652344 441.976562 188.441406 442.136719 188.167969 L 457.921875 162.792969 C 457.945312 162.746094 457.945312 162.722656 457.964844 162.675781 C 458.015625 162.609375 458.035156 162.515625 458.058594 162.445312 C 458.152344 162.214844 458.195312 162.007812 458.222656 161.773438 C 458.222656 161.730469 458.265625 161.683594 458.265625 161.613281 C 458.265625 161.566406 458.242188 161.542969 458.242188 161.496094 C 458.242188 161.195312 458.171875 160.945312 458.058594 160.6875 Z M 406.902344 195.953125 L 404.800781 173.050781 C 404.777344 172.75 404.6875 172.453125 404.550781 172.195312 C 404.15625 171.433594 403.324219 170.925781 402.402344 170.972656 L 283.292969 177.699219 L 282.941406 154.007812 L 402.035156 153.523438 C 403.257812 153.523438 404.25 152.554688 404.292969 151.351562 L 405.402344 124.9375 L 452.265625 161.542969 Z M 406.902344 195.953125 " fill-opacity="1" fill-rule="nonzero"/></g><g clip-path="url(#8018d65ebf)"><path fill="#efbc30" d="M 580.328125 98.214844 L 552.277344 98.214844 L 552.277344 113.484375 L 576.207031 113.484375 L 576.207031 123.390625 L 552.277344 127.519531 L 552.277344 213.390625 L 576.207031 213.390625 L 576.207031 226.1875 L 552.277344 226.1875 L 552.277344 255.085938 L 580.328125 255.085938 L 580.328125 98.207031 " fill-opacity="1" fill-rule="nonzero"/></g><g clip-path="url(#1e978b6187)"><path fill="#efbc30" d="M 187.199219 153.53125 L 91.902344 159.308594 L 101.398438 147.753906 Z M 130.265625 239.402344 L 131.925781 241.460938 L 121.199219 229.488281 L 271.769531 228.25 Z M 139.757812 255.085938 L 547.742188 255.085938 L 547.742188 226.1875 L 433.058594 218.347656 L 547.742188 213.390625 L 547.738281 127.9375 L 504.007812 127.9375 L 547.738281 113.484375 L 547.738281 98.214844 L 138.511719 98.214844 L 71.6875 178.300781 L 139.753906 255.085938 " fill-opacity="1" fill-rule="nonzero"/></g></svg>