<svg xmlns="http://www.w3.org/2000/svg" xmlns:xlink="http://www.w3.org/1999/xlink" width="869" zoomAndPan="magnify" viewBox="0 0 651.75 724.499978" height="966" preserveAspectRatio="xMidYMid meet" version="1.0"><defs><clipPath id="73c98e9db2"><path d="M 281 40.234375 L 306 40.234375 L 306 685.851562 L 281 685.851562 Z M 281 40.234375 " clip-rule="nonzero"/></clipPath><clipPath id="e47c3092a4"><path d="M 274.269531 681.046875 C 274.855469 655.8125 273.035156 630.492188 273.304688 605.25 C 273.964844 543.503906 277.378906 481.660156 279.246094 419.925781 C 279.992188 395.304688 281.804688 370.582031 280.277344 345.964844 C 278.257812 313.453125 272.660156 281.152344 271.46875 248.601562 C 269.808594 203.328125 272.226562 158.019531 271.199219 112.742188 C 270.84375 97.117188 263.957031 62.558594 266.871094 48.914062 C 269.285156 37.601562 333.9375 38.855469 338.875 48.1875 C 345.984375 61.589844 342.414062 80.558594 341.945312 94.636719 C 340.96875 124.890625 339.84375 155.039062 339.84375 185.308594 C 339.84375 297.464844 340.167969 409.582031 338.585938 521.734375 C 338.410156 534.316406 338.097656 546.886719 337.574219 559.46875 C 336.363281 588.789062 332.324219 617.949219 331.300781 647.289062 C 331 655.941406 332.390625 674.957031 323.660156 681.644531 C 317.863281 686.082031 303.683594 685.132812 296.464844 685.214844 " clip-rule="evenodd"/></clipPath><clipPath id="b2721bac0f"><path d="M 285 574 L 315 574 L 315 685.851562 L 285 685.851562 Z M 285 574 " clip-rule="nonzero"/></clipPath><clipPath id="83b5855988"><path d="M 274.269531 681.046875 C 274.855469 655.8125 273.035156 630.492188 273.304688 605.25 C 273.964844 543.503906 277.378906 481.660156 279.246094 419.925781 C 279.992188 395.304688 281.804688 370.582031 280.277344 345.964844 C 278.257812 313.453125 272.660156 281.152344 271.46875 248.601562 C 269.808594 203.328125 272.226562 158.019531 271.199219 112.742188 C 270.84375 97.117188 263.957031 62.558594 266.871094 48.914062 C 269.285156 37.601562 333.9375 38.855469 338.875 48.1875 C 345.984375 61.589844 342.414062 80.558594 341.945312 94.636719 C 340.96875 124.890625 339.84375 155.039062 339.84375 185.308594 C 339.84375 297.464844 340.167969 409.582031 338.585938 521.734375 C 338.410156 534.316406 338.097656 546.886719 337.574219 559.46875 C 336.363281 588.789062 332.324219 617.949219 331.300781 647.289062 C 331 655.941406 332.390625 674.957031 323.660156 681.644531 C 317.863281 686.082031 303.683594 685.132812 296.464844 685.214844 " clip-rule="evenodd"/></clipPath><clipPath id="6d5856c1c9"><path d="M 272 184 L 300 184 L 300 497 L 272 497 Z M 272 184 " clip-rule="nonzero"/></clipPath><clipPath id="393e367627"><path d="M 274.269531 681.046875 C 274.855469 655.8125 273.035156 630.492188 273.304688 605.25 C 273.964844 543.503906 277.378906 481.660156 279.246094 419.925781 C 279.992188 395.304688 281.804688 370.582031 280.277344 345.964844 C 278.257812 313.453125 272.660156 281.152344 271.46875 248.601562 C 269.808594 203.328125 272.226562 158.019531 271.199219 112.742188 C 270.84375 97.117188 263.957031 62.558594 266.871094 48.914062 C 269.285156 37.601562 333.9375 38.855469 338.875 48.1875 C 345.984375 61.589844 342.414062 80.558594 341.945312 94.636719 C 340.96875 124.890625 339.84375 155.039062 339.84375 185.308594 C 339.84375 297.464844 340.167969 409.582031 338.585938 521.734375 C 338.410156 534.316406 338.097656 546.886719 337.574219 559.46875 C 336.363281 588.789062 332.324219 617.949219 331.300781 647.289062 C 331 655.941406 332.390625 674.957031 323.660156 681.644531 C 317.863281 686.082031 303.683594 685.132812 296.464844 685.214844 " clip-rule="evenodd"/></clipPath><clipPath id="5d32e77736"><path d="M 272 346 L 289 346 L 289 461 L 272 461 Z M 272 346 " clip-rule="nonzero"/></clipPath><clipPath id="98717caef8"><path d="M 274.269531 681.046875 C 274.855469 655.8125 273.035156 630.492188 273.304688 605.25 C 273.964844 543.503906 277.378906 481.660156 279.246094 419.925781 C 279.992188 395.304688 281.804688 370.582031 280.277344 345.964844 C 278.257812 313.453125 272.660156 281.152344 271.46875 248.601562 C 269.808594 203.328125 272.226562 158.019531 271.199219 112.742188 C 270.84375 97.117188 263.957031 62.558594 266.871094 48.914062 C 269.285156 37.601562 333.9375 38.855469 338.875 48.1875 C 345.984375 61.589844 342.414062 80.558594 341.945312 94.636719 C 340.96875 124.890625 339.84375 155.039062 339.84375 185.308594 C 339.84375 297.464844 340.167969 409.582031 338.585938 521.734375 C 338.410156 534.316406 338.097656 546.886719 337.574219 559.46875 C 336.363281 588.789062 332.324219 617.949219 331.300781 647.289062 C 331 655.941406 332.390625 674.957031 323.660156 681.644531 C 317.863281 686.082031 303.683594 685.132812 296.464844 685.214844 " clip-rule="evenodd"/></clipPath><clipPath id="ab01ffc547"><path d="M 304 40.234375 L 316 40.234375 L 316 539 L 304 539 Z M 304 40.234375 " clip-rule="nonzero"/></clipPath><clipPath id="a58b80d8b4"><path d="M 274.269531 681.046875 C 274.855469 655.8125 273.035156 630.492188 273.304688 605.25 C 273.964844 543.503906 277.378906 481.660156 279.246094 419.925781 C 279.992188 395.304688 281.804688 370.582031 280.277344 345.964844 C 278.257812 313.453125 272.660156 281.152344 271.46875 248.601562 C 269.808594 203.328125 272.226562 158.019531 271.199219 112.742188 C 270.84375 97.117188 263.957031 62.558594 266.871094 48.914062 C 269.285156 37.601562 333.9375 38.855469 338.875 48.1875 C 345.984375 61.589844 342.414062 80.558594 341.945312 94.636719 C 340.96875 124.890625 339.84375 155.039062 339.84375 185.308594 C 339.84375 297.464844 340.167969 409.582031 338.585938 521.734375 C 338.410156 534.316406 338.097656 546.886719 337.574219 559.46875 C 336.363281 588.789062 332.324219 617.949219 331.300781 647.289062 C 331 655.941406 332.390625 674.957031 323.660156 681.644531 C 317.863281 686.082031 303.683594 685.132812 296.464844 685.214844 " clip-rule="evenodd"/></clipPath><clipPath id="f2069ccb4a"><path d="M 311 300 L 343.304688 300 L 343.304688 685.851562 L 311 685.851562 Z M 311 300 " clip-rule="nonzero"/></clipPath><clipPath id="499ac0e68a"><path d="M 274.269531 681.046875 C 274.855469 655.8125 273.035156 630.492188 273.304688 605.25 C 273.964844 543.503906 277.378906 481.660156 279.246094 419.925781 C 279.992188 395.304688 281.804688 370.582031 280.277344 345.964844 C 278.257812 313.453125 272.660156 281.152344 271.46875 248.601562 C 269.808594 203.328125 272.226562 158.019531 271.199219 112.742188 C 270.84375 97.117188 263.957031 62.558594 266.871094 48.914062 C 269.285156 37.601562 333.9375 38.855469 338.875 48.1875 C 345.984375 61.589844 342.414062 80.558594 341.945312 94.636719 C 340.96875 124.890625 339.84375 155.039062 339.84375 185.308594 C 339.84375 297.464844 340.167969 409.582031 338.585938 521.734375 C 338.410156 534.316406 338.097656 546.886719 337.574219 559.46875 C 336.363281 588.789062 332.324219 617.949219 331.300781 647.289062 C 331 655.941406 332.390625 674.957031 323.660156 681.644531 C 317.863281 686.082031 303.683594 685.132812 296.464844 685.214844 " clip-rule="evenodd"/></clipPath><clipPath id="5686f19b88"><path d="M 312 411 L 324 411 L 324 576 L 312 576 Z M 312 411 " clip-rule="nonzero"/></clipPath><clipPath id="73064f074c"><path d="M 274.269531 681.046875 C 274.855469 655.8125 273.035156 630.492188 273.304688 605.25 C 273.964844 543.503906 277.378906 481.660156 279.246094 419.925781 C 279.992188 395.304688 281.804688 370.582031 280.277344 345.964844 C 278.257812 313.453125 272.660156 281.152344 271.46875 248.601562 C 269.808594 203.328125 272.226562 158.019531 271.199219 112.742188 C 270.84375 97.117188 263.957031 62.558594 266.871094 48.914062 C 269.285156 37.601562 333.9375 38.855469 338.875 48.1875 C 345.984375 61.589844 342.414062 80.558594 341.945312 94.636719 C 340.96875 124.890625 339.84375 155.039062 339.84375 185.308594 C 339.84375 297.464844 340.167969 409.582031 338.585938 521.734375 C 338.410156 534.316406 338.097656 546.886719 337.574219 559.46875 C 336.363281 588.789062 332.324219 617.949219 331.300781 647.289062 C 331 655.941406 332.390625 674.957031 323.660156 681.644531 C 317.863281 686.082031 303.683594 685.132812 296.464844 685.214844 " clip-rule="evenodd"/></clipPath><clipPath id="76930dddfb"><path d="M 293 518 L 299 518 L 299 572 L 293 572 Z M 293 518 " clip-rule="nonzero"/></clipPath><clipPath id="bc604105fe"><path d="M 274.269531 681.046875 C 274.855469 655.8125 273.035156 630.492188 273.304688 605.25 C 273.964844 543.503906 277.378906 481.660156 279.246094 419.925781 C 279.992188 395.304688 281.804688 370.582031 280.277344 345.964844 C 278.257812 313.453125 272.660156 281.152344 271.46875 248.601562 C 269.808594 203.328125 272.226562 158.019531 271.199219 112.742188 C 270.84375 97.117188 263.957031 62.558594 266.871094 48.914062 C 269.285156 37.601562 333.9375 38.855469 338.875 48.1875 C 345.984375 61.589844 342.414062 80.558594 341.945312 94.636719 C 340.96875 124.890625 339.84375 155.039062 339.84375 185.308594 C 339.84375 297.464844 340.167969 409.582031 338.585938 521.734375 C 338.410156 534.316406 338.097656 546.886719 337.574219 559.46875 C 336.363281 588.789062 332.324219 617.949219 331.300781 647.289062 C 331 655.941406 332.390625 674.957031 323.660156 681.644531 C 317.863281 686.082031 303.683594 685.132812 296.464844 685.214844 " clip-rule="evenodd"/></clipPath><clipPath id="8f3177cd69"><path d="M 320 40.234375 L 335 40.234375 L 335 357 L 320 357 Z M 320 40.234375 " clip-rule="nonzero"/></clipPath><clipPath id="06e8206457"><path d="M 274.269531 681.046875 C 274.855469 655.8125 273.035156 630.492188 273.304688 605.25 C 273.964844 543.503906 277.378906 481.660156 279.246094 419.925781 C 279.992188 395.304688 281.804688 370.582031 280.277344 345.964844 C 278.257812 313.453125 272.660156 281.152344 271.46875 248.601562 C 269.808594 203.328125 272.226562 158.019531 271.199219 112.742188 C 270.84375 97.117188 263.957031 62.558594 266.871094 48.914062 C 269.285156 37.601562 333.9375 38.855469 338.875 48.1875 C 345.984375 61.589844 342.414062 80.558594 341.945312 94.636719 C 340.96875 124.890625 339.84375 155.039062 339.84375 185.308594 C 339.84375 297.464844 340.167969 409.582031 338.585938 521.734375 C 338.410156 534.316406 338.097656 546.886719 337.574219 559.46875 C 336.363281 588.789062 332.324219 617.949219 331.300781 647.289062 C 331 655.941406 332.390625 674.957031 323.660156 681.644531 C 317.863281 686.082031 303.683594 685.132812 296.464844 685.214844 " clip-rule="evenodd"/></clipPath><clipPath id="44ce5078ef"><path d="M 266 40.234375 L 281 40.234375 L 281 78 L 266 78 Z M 266 40.234375 " clip-rule="nonzero"/></clipPath><clipPath id="6b34c14717"><path d="M 274.269531 681.046875 C 274.855469 655.8125 273.035156 630.492188 273.304688 605.25 C 273.964844 543.503906 277.378906 481.660156 279.246094 419.925781 C 279.992188 395.304688 281.804688 370.582031 280.277344 345.964844 C 278.257812 313.453125 272.660156 281.152344 271.46875 248.601562 C 269.808594 203.328125 272.226562 158.019531 271.199219 112.742188 C 270.84375 97.117188 263.957031 62.558594 266.871094 48.914062 C 269.285156 37.601562 333.9375 38.855469 338.875 48.1875 C 345.984375 61.589844 342.414062 80.558594 341.945312 94.636719 C 340.96875 124.890625 339.84375 155.039062 339.84375 185.308594 C 339.84375 297.464844 340.167969 409.582031 338.585938 521.734375 C 338.410156 534.316406 338.097656 546.886719 337.574219 559.46875 C 336.363281 588.789062 332.324219 617.949219 331.300781 647.289062 C 331 655.941406 332.390625 674.957031 323.660156 681.644531 C 317.863281 686.082031 303.683594 685.132812 296.464844 685.214844 " clip-rule="evenodd"/></clipPath><clipPath id="682b6e716d"><path d="M 266 40.234375 L 276 40.234375 L 276 73 L 266 73 Z M 266 40.234375 " clip-rule="nonzero"/></clipPath><clipPath id="f2d18d88ca"><path d="M 274.269531 681.046875 C 274.855469 655.8125 273.035156 630.492188 273.304688 605.25 C 273.964844 543.503906 277.378906 481.660156 279.246094 419.925781 C 279.992188 395.304688 281.804688 370.582031 280.277344 345.964844 C 278.257812 313.453125 272.660156 281.152344 271.46875 248.601562 C 269.808594 203.328125 272.226562 158.019531 271.199219 112.742188 C 270.84375 97.117188 263.957031 62.558594 266.871094 48.914062 C 269.285156 37.601562 333.9375 38.855469 338.875 48.1875 C 345.984375 61.589844 342.414062 80.558594 341.945312 94.636719 C 340.96875 124.890625 339.84375 155.039062 339.84375 185.308594 C 339.84375 297.464844 340.167969 409.582031 338.585938 521.734375 C 338.410156 534.316406 338.097656 546.886719 337.574219 559.46875 C 336.363281 588.789062 332.324219 617.949219 331.300781 647.289062 C 331 655.941406 332.390625 674.957031 323.660156 681.644531 C 317.863281 686.082031 303.683594 685.132812 296.464844 685.214844 " clip-rule="evenodd"/></clipPath><clipPath id="6cc89e4c4f"><path d="M 332 197 L 337 197 L 337 289 L 332 289 Z M 332 197 " clip-rule="nonzero"/></clipPath><clipPath id="de84c28fec"><path d="M 274.269531 681.046875 C 274.855469 655.8125 273.035156 630.492188 273.304688 605.25 C 273.964844 543.503906 277.378906 481.660156 279.246094 419.925781 C 279.992188 395.304688 281.804688 370.582031 280.277344 345.964844 C 278.257812 313.453125 272.660156 281.152344 271.46875 248.601562 C 269.808594 203.328125 272.226562 158.019531 271.199219 112.742188 C 270.84375 97.117188 263.957031 62.558594 266.871094 48.914062 C 269.285156 37.601562 333.9375 38.855469 338.875 48.1875 C 345.984375 61.589844 342.414062 80.558594 341.945312 94.636719 C 340.96875 124.890625 339.84375 155.039062 339.84375 185.308594 C 339.84375 297.464844 340.167969 409.582031 338.585938 521.734375 C 338.410156 534.316406 338.097656 546.886719 337.574219 559.46875 C 336.363281 588.789062 332.324219 617.949219 331.300781 647.289062 C 331 655.941406 332.390625 674.957031 323.660156 681.644531 C 317.863281 686.082031 303.683594 685.132812 296.464844 685.214844 " clip-rule="evenodd"/></clipPath><clipPath id="fbba3b106c"><path d="M 37.632812 89.28125 L 69.621094 89.28125 L 69.621094 266.667969 L 37.632812 266.667969 Z M 37.632812 89.28125 " clip-rule="nonzero"/></clipPath><clipPath id="b93a8ff05f"><path d="M 74 89.28125 L 613.453125 89.28125 L 613.453125 266.667969 L 74 266.667969 Z M 74 89.28125 " clip-rule="nonzero"/></clipPath></defs><path fill="#fbc532" d="M 274.269531 681.046875 C 274.855469 655.8125 273.035156 630.496094 273.304688 605.25 C 273.964844 543.503906 277.378906 481.660156 279.246094 419.925781 C 279.992188 395.304688 281.804688 370.582031 280.277344 345.964844 C 278.257812 313.453125 272.660156 281.152344 271.46875 248.601562 C 269.808594 203.328125 272.226562 158.019531 271.199219 112.742188 C 270.84375 97.117188 263.957031 62.558594 266.871094 48.914062 C 269.285156 37.601562 333.9375 38.855469 338.875 48.1875 C 345.984375 61.589844 342.414062 80.558594 341.945312 94.636719 C 340.96875 124.890625 339.84375 155.039062 339.84375 185.308594 C 339.84375 297.464844 340.167969 409.582031 338.585938 521.734375 C 338.410156 534.316406 338.097656 546.886719 337.574219 559.46875 C 336.363281 588.789062 332.324219 617.949219 331.300781 647.289062 C 331 655.941406 332.390625 674.957031 323.660156 681.644531 C 317.863281 686.082031 303.683594 685.132812 296.464844 685.214844 " fill-opacity="1" fill-rule="evenodd"/><g clip-path="url(#73c98e9db2)"><g clip-path="url(#e47c3092a4)"><path fill="#c55e2e" d="M 288.535156 35.589844 C 286.242188 74.730469 283.972656 113.679688 283.527344 152.699219 C 283.226562 178.699219 283.75 204.734375 285.609375 230.871094 C 288.367188 269.5625 295.375 307.953125 299.503906 346.523438 C 301.261719 363.027344 302.507812 379.566406 302.628906 396.175781 C 302.785156 415.816406 301.304688 435.285156 299.058594 454.683594 C 293.808594 500.089844 284.386719 545.085938 281.882812 590.863281 C 281.300781 601.542969 281.683594 612.085938 282.578125 622.570312 C 284.652344 646.976562 289.503906 671.039062 291.257812 695.699219 C 291.304688 696.273438 291.792969 696.707031 292.359375 696.660156 C 292.9375 696.621094 293.363281 696.125 293.328125 695.554688 C 291.625 670.882812 286.84375 646.800781 284.828125 622.375 C 283.972656 612 283.617188 601.570312 284.230469 591 C 286.832031 545.273438 296.367188 500.347656 301.703125 454.988281 C 304.007812 435.488281 305.519531 415.910156 305.398438 396.15625 C 305.296875 379.453125 304.085938 362.820312 302.316406 346.222656 C 298.199219 307.683594 291.136719 269.328125 288.355469 230.675781 C 286.464844 204.613281 285.910156 178.65625 286.152344 152.726562 C 286.519531 113.746094 288.691406 74.832031 290.894531 35.726562 C 290.925781 35.074219 290.425781 34.511719 289.78125 34.476562 C 289.125 34.4375 288.566406 34.9375 288.535156 35.589844 Z M 288.535156 35.589844 " fill-opacity="0.6118" fill-rule="evenodd"/></g></g><g clip-path="url(#b2721bac0f)"><g clip-path="url(#83b5855988)"><path fill="#c55e2e" d="M 299.359375 596.027344 C 299.523438 596.3125 299.78125 596.773438 299.847656 597.113281 L 300.148438 599.078125 C 300.390625 601.273438 300.492188 603.5625 300.425781 605.839844 C 300.359375 608.101562 300.125 610.359375 299.691406 612.527344 C 299.589844 613.0625 299.3125 614.546875 298.757812 615.792969 C 298.558594 616.242188 298.324219 616.675781 298.011719 616.972656 C 297.84375 617.136719 297.65625 617.257812 297.410156 617.203125 C 296.753906 617.046875 296.277344 616.492188 295.875 615.875 C 295.0625 614.609375 294.609375 612.96875 294.308594 612.054688 C 293.261719 608.894531 292.828125 605.535156 292.894531 602.179688 C 292.972656 598.8125 293.574219 595.445312 294.609375 592.28125 C 294.898438 591.386719 295.6875 588.710938 297 587.050781 C 297.566406 586.34375 298.222656 585.78125 299.070312 586.195312 C 300.070312 586.683594 300.78125 587.578125 301.347656 588.582031 C 302.371094 590.410156 302.917969 592.613281 303.40625 594.125 C 304.851562 598.554688 305.730469 603.007812 305.855469 607.453125 C 305.988281 611.882812 305.375 616.308594 303.851562 620.71875 C 303.296875 622.285156 302.261719 625.816406 300.460938 628.207031 C 299.511719 629.449219 298.378906 630.417969 296.867188 630.1875 C 295.273438 629.949219 294.140625 629.007812 293.273438 627.820312 C 291.671875 625.613281 290.960938 622.597656 290.414062 620.625 C 288.914062 615.144531 287.957031 609.4375 287.84375 603.738281 C 287.734375 598.074219 288.457031 592.429688 290.335938 587.023438 C 291.125 584.746094 292.917969 580.597656 295.675781 578.4375 C 297.175781 577.277344 298.992188 576.757812 301.105469 577.765625 C 302.605469 578.484375 303.851562 579.515625 304.886719 580.6875 C 306.042969 581.988281 306.957031 583.457031 307.699219 584.867188 C 309.480469 588.25 310.582031 591.847656 311.160156 595.511719 C 311.761719 599.273438 311.816406 603.101562 311.527344 606.84375 C 311.214844 610.902344 310.660156 614.933594 309.949219 618.945312 C 307.101562 635.105469 301.816406 650.996094 299.878906 667.285156 C 299.457031 670.871094 298.933594 674.644531 298.746094 678.378906 C 298.613281 680.933594 298.625 683.480469 298.925781 685.953125 C 299 686.605469 299.589844 687.066406 300.238281 686.992188 C 300.882812 686.921875 301.347656 686.328125 301.269531 685.675781 C 301.003906 683.339844 301.003906 680.933594 301.148438 678.507812 C 301.359375 674.828125 301.894531 671.121094 302.328125 667.589844 C 304.332031 651.347656 309.691406 635.519531 312.59375 619.417969 C 313.328125 615.320312 313.90625 611.207031 314.242188 607.066406 C 314.5625 603.101562 314.507812 599.050781 313.886719 595.078125 C 313.261719 591.109375 312.09375 587.226562 310.171875 583.566406 C 309.324219 581.953125 308.289062 580.292969 306.988281 578.824219 C 305.710938 577.378906 304.164062 576.105469 302.304688 575.21875 C 299.046875 573.667969 296.242188 574.40625 293.953125 576.207031 C 290.738281 578.707031 288.578125 583.457031 287.667969 586.09375 C 285.675781 591.820312 284.898438 597.796875 285.03125 603.792969 C 285.152344 609.730469 286.164062 615.671875 287.746094 621.371094 C 288.355469 623.585938 289.246094 626.960938 291.058594 629.433594 C 292.359375 631.203125 294.097656 632.539062 296.464844 632.890625 C 298.445312 633.1875 300.125 632.4375 301.527344 631.09375 C 304.152344 628.539062 305.664062 623.621094 306.367188 621.582031 C 307.980469 616.863281 308.613281 612.113281 308.457031 607.371094 C 308.289062 602.6875 307.355469 597.992188 305.808594 593.332031 C 305.265625 591.699219 304.640625 589.320312 303.519531 587.355469 C 302.695312 585.890625 301.605469 584.65625 300.148438 583.953125 C 298.535156 583.179688 297.121094 583.566406 295.941406 584.597656 C 293.941406 586.332031 292.683594 590.316406 292.292969 591.535156 C 291.214844 594.917969 290.59375 598.527344 290.535156 602.132812 C 290.480469 605.757812 290.96875 609.382812 292.117188 612.792969 C 292.472656 613.828125 293.027344 615.679688 293.960938 617.121094 C 294.707031 618.253906 295.6875 619.128906 296.898438 619.40625 C 298.125 619.691406 299.144531 619.1875 299.925781 618.207031 C 301.136719 616.695312 301.703125 613.816406 301.871094 612.960938 C 302.316406 610.664062 302.550781 608.285156 302.605469 605.894531 C 302.660156 603.515625 302.539062 601.136719 302.273438 598.839844 L 301.925781 596.671875 C 301.738281 595.824219 301.328125 594.964844 300.847656 594.429688 C 300.414062 593.953125 299.914062 593.691406 299.445312 593.65625 C 298.734375 593.601562 297.765625 593.980469 297.222656 595.714844 C 296.964844 596.5625 296.777344 597.445312 296.65625 598.332031 C 296.464844 599.625 296.398438 600.933594 296.355469 602.207031 C 296.34375 602.777344 296.789062 603.257812 297.355469 603.277344 C 297.921875 603.292969 298.402344 602.851562 298.421875 602.28125 C 298.46875 601.082031 298.523438 599.84375 298.710938 598.636719 C 298.824219 597.863281 298.992188 597.085938 299.222656 596.347656 C 299.257812 596.238281 299.300781 596.128906 299.359375 596.027344 Z M 299.359375 596.027344 " fill-opacity="0.6118" fill-rule="evenodd"/></g></g><g clip-path="url(#6d5856c1c9)"><g clip-path="url(#393e367627)"><path fill="#c55e2e" d="M 276.367188 185.714844 C 274.460938 191.003906 273.484375 196.679688 273.011719 202.457031 C 272.308594 210.992188 272.710938 219.75 272.78125 227.773438 C 272.894531 240.402344 273.769531 252.894531 275.179688 265.328125 C 277.285156 283.910156 280.578125 302.359375 284.195312 320.953125 C 288.890625 344.808594 294.085938 369.152344 296.066406 393.523438 C 297.390625 409.792969 297.277344 426.070312 294.585938 442.230469 C 293.394531 449.460938 291.472656 456.621094 289.125 463.695312 C 285.621094 474.21875 281.175781 484.554688 276.722656 494.730469 C 276.492188 495.253906 276.726562 495.863281 277.246094 496.09375 C 277.769531 496.324219 278.378906 496.09375 278.609375 495.570312 C 283.148438 485.359375 287.679688 474.984375 291.25 464.414062 C 293.683594 457.238281 295.675781 449.980469 296.933594 442.628906 C 299.734375 426.277344 299.957031 409.792969 298.679688 393.316406 C 296.789062 368.835938 291.617188 344.378906 286.964844 320.410156 C 283.328125 301.894531 280.027344 283.519531 277.875 265.015625 C 276.441406 252.679688 275.511719 240.285156 275.351562 227.746094 C 275.246094 219.792969 274.800781 211.117188 275.453125 202.65625 C 275.882812 197.089844 276.785156 191.617188 278.597656 186.515625 C 278.816406 185.898438 278.496094 185.21875 277.882812 185 C 277.265625 184.777344 276.589844 185.097656 276.367188 185.714844 Z M 276.367188 185.714844 " fill-opacity="0.6118" fill-rule="evenodd"/></g></g><g clip-path="url(#5d32e77736)"><g clip-path="url(#98717caef8)"><path fill="#c55e2e" d="M 278.328125 348.324219 C 279.910156 352.34375 280.90625 356.621094 281.605469 360.964844 C 282.675781 367.609375 283.050781 374.425781 283.683594 380.800781 C 284.328125 387.148438 284.839844 393.605469 285.097656 400.078125 C 285.464844 409.703125 285.195312 419.375 283.574219 428.839844 C 281.800781 439.132812 278.457031 449.175781 272.621094 458.613281 C 272.316406 459.089844 272.460938 459.726562 272.945312 460.03125 C 273.425781 460.335938 274.0625 460.199219 274.371094 459.710938 C 280.507812 450.109375 284.128906 439.84375 286.074219 429.28125 C 287.855469 419.660156 288.265625 409.792969 287.910156 399.972656 C 287.6875 393.4375 287.097656 386.921875 286.421875 380.515625 C 285.71875 374.097656 285.273438 367.230469 284.117188 360.542969 C 283.328125 356.03125 282.226562 351.601562 280.523438 347.4375 C 280.28125 346.828125 279.589844 346.535156 278.984375 346.78125 C 278.378906 347.023438 278.085938 347.714844 278.328125 348.324219 Z M 278.328125 348.324219 " fill-opacity="0.6118" fill-rule="evenodd"/></g></g><g clip-path="url(#ab01ffc547)"><g clip-path="url(#a58b80d8b4)"><path fill="#c55e2e" d="M 308.914062 25.480469 C 307.835938 38.492188 307.457031 51.589844 307.398438 64.703125 C 307.3125 84.320312 307.933594 103.976562 307.957031 123.464844 C 308 147.574219 308.300781 171.679688 308.734375 195.777344 C 309.148438 218.269531 309.660156 240.757812 310.203125 263.246094 C 311.015625 296.96875 311.894531 330.6875 312.394531 364.421875 C 312.660156 381.734375 312.148438 398.980469 311.292969 416.195312 C 309.28125 456.527344 305.355469 496.695312 304.917969 537.101562 C 304.910156 537.671875 305.363281 538.140625 305.941406 538.152344 C 306.511719 538.160156 306.976562 537.699219 306.988281 537.128906 C 307.554688 496.75 311.628906 456.621094 313.761719 416.324219 C 314.675781 399.054688 315.242188 381.753906 315.019531 364.386719 C 314.585938 330.640625 313.820312 296.910156 313.027344 263.175781 C 312.507812 240.695312 311.960938 218.210938 311.527344 195.722656 C 311.058594 171.640625 310.703125 147.550781 310.605469 123.457031 C 310.527344 103.972656 309.859375 84.320312 309.890625 64.710938 C 309.914062 51.660156 310.238281 38.625 311.273438 25.671875 C 311.328125 25.019531 310.835938 24.445312 310.179688 24.394531 C 309.535156 24.339844 308.96875 24.828125 308.914062 25.480469 Z M 308.914062 25.480469 " fill-opacity="0.6118" fill-rule="evenodd"/></g></g><g clip-path="url(#f2069ccb4a)"><g clip-path="url(#499ac0e68a)"><path fill="#c55e2e" d="M 313.707031 685.40625 C 316.542969 669.625 319.113281 653.863281 321.226562 638.054688 C 323.339844 622.203125 324.988281 606.308594 326 590.316406 C 327.378906 568.285156 328.023438 546.25 328.46875 524.207031 C 328.914062 502.183594 329.179688 480.15625 329.847656 458.140625 C 330.4375 439.296875 331.304688 420.464844 332.863281 401.640625 C 334.507812 381.640625 334.730469 361.3125 336.699219 341.191406 C 338.011719 327.882812 340.082031 314.664062 343.84375 301.699219 C 344.007812 301.148438 343.699219 300.574219 343.140625 300.410156 C 342.597656 300.25 342.027344 300.566406 341.863281 301.113281 C 338.003906 314.191406 335.84375 327.53125 334.464844 340.964844 C 332.40625 361.085938 332.085938 381.425781 330.347656 401.425781 C 328.726562 420.292969 327.769531 439.167969 327.132812 458.050781 C 326.398438 480.082031 326.089844 502.117188 325.644531 524.152344 C 325.199219 546.148438 324.632812 568.15625 323.296875 590.140625 C 322.339844 606.089844 320.738281 621.925781 318.691406 637.714844 C 316.644531 653.496094 314.140625 669.230469 311.382812 684.992188 C 311.261719 685.636719 311.695312 686.257812 312.339844 686.367188 C 312.984375 686.488281 313.597656 686.054688 313.707031 685.40625 Z M 313.707031 685.40625 " fill-opacity="0.6118" fill-rule="evenodd"/></g></g><g clip-path="url(#5686f19b88)"><g clip-path="url(#73064f074c)"><path fill="#c55e2e" d="M 321.4375 412.351562 C 320.136719 418.34375 319.191406 424.402344 318.457031 430.480469 C 317.34375 439.585938 316.675781 448.734375 315.867188 457.808594 C 314.519531 473.292969 313.707031 488.808594 313.273438 504.332031 C 312.617188 527.589844 312.738281 550.871094 312.5625 574.132812 C 312.550781 574.703125 313.007812 575.171875 313.574219 575.183594 C 314.152344 575.191406 314.621094 574.730469 314.621094 574.160156 C 315.03125 550.917969 315.242188 527.65625 316.019531 504.414062 C 316.53125 488.945312 317.257812 473.480469 318.601562 458.039062 C 319.347656 448.992188 319.949219 439.859375 320.984375 430.785156 C 321.660156 424.769531 322.519531 418.777344 323.753906 412.84375 C 323.886719 412.203125 323.472656 411.574219 322.839844 411.4375 C 322.195312 411.300781 321.570312 411.710938 321.4375 412.351562 Z M 321.4375 412.351562 " fill-opacity="0.6118" fill-rule="evenodd"/></g></g><g clip-path="url(#76930dddfb)"><g clip-path="url(#bc604105fe)"><path fill="#c55e2e" d="M 296.164062 570.414062 C 296.453125 565.304688 296.800781 560.203125 297.101562 555.105469 C 297.300781 551.699219 297.488281 548.296875 297.644531 544.894531 C 298.011719 536.371094 298.191406 527.839844 298.257812 519.300781 C 298.269531 518.726562 297.8125 518.257812 297.246094 518.238281 C 296.675781 518.230469 296.199219 518.683594 296.1875 519.253906 C 295.953125 525.378906 295.597656 531.492188 295.253906 537.617188 C 295.019531 541.695312 294.773438 545.777344 294.574219 549.855469 C 294.242188 556.671875 294.019531 563.488281 293.796875 570.304688 C 293.773438 570.957031 294.273438 571.511719 294.929688 571.539062 C 295.585938 571.566406 296.132812 571.058594 296.164062 570.414062 Z M 296.164062 570.414062 " fill-opacity="0.6118" fill-rule="evenodd"/></g></g><g clip-path="url(#8f3177cd69)"><g clip-path="url(#06e8206457)"><path fill="#c55e2e" d="M 332.429688 41.191406 C 330.59375 79.097656 328.535156 116.996094 326.902344 154.910156 C 325.800781 180.195312 324.910156 205.488281 324.265625 230.785156 C 323.585938 259.886719 324.441406 289.136719 323.453125 318.289062 C 323.039062 330.757812 322.285156 343.210938 320.925781 355.621094 C 320.859375 356.1875 321.273438 356.703125 321.839844 356.765625 C 322.40625 356.832031 322.917969 356.421875 322.984375 355.851562 C 324.417969 343.394531 325.242188 330.894531 325.734375 318.371094 C 326.867188 289.21875 326.144531 259.957031 326.976562 230.855469 C 327.644531 205.574219 328.636719 180.300781 329.703125 155.03125 C 331.292969 117.117188 333.109375 79.210938 334.789062 41.300781 C 334.820312 40.644531 334.320312 40.089844 333.664062 40.058594 C 333.019531 40.027344 332.460938 40.535156 332.429688 41.191406 Z M 332.429688 41.191406 " fill-opacity="0.6118" fill-rule="evenodd"/></g></g><g clip-path="url(#44ce5078ef)"><g clip-path="url(#6b34c14717)"><path fill="#c55e2e" d="M 278.363281 39.695312 C 277.824219 44.375 276.789062 49.527344 275.085938 54.546875 C 274.019531 57.695312 272.6875 60.796875 270.972656 63.679688 C 268.210938 68.328125 264.503906 72.4375 259.367188 75.242188 C 258.863281 75.507812 258.664062 76.132812 258.929688 76.640625 C 259.191406 77.148438 259.816406 77.34375 260.320312 77.082031 C 267.398438 73.542969 272.257812 67.769531 275.441406 61.199219 C 276.734375 58.53125 277.730469 55.722656 278.507812 52.898438 C 279.722656 48.484375 280.367188 44.019531 280.714844 39.933594 C 280.78125 39.28125 280.308594 38.699219 279.65625 38.632812 C 279.007812 38.566406 278.425781 39.042969 278.363281 39.695312 Z M 278.363281 39.695312 " fill-opacity="0.6118" fill-rule="evenodd"/></g></g><g clip-path="url(#682b6e716d)"><g clip-path="url(#f2d18d88ca)"><path fill="#c55e2e" d="M 256.191406 72.207031 C 258.039062 71.261719 259.648438 69.960938 261.082031 68.492188 C 263.21875 66.304688 264.945312 63.730469 266.503906 61.476562 C 268.390625 58.71875 270.03125 55.832031 271.332031 52.84375 C 272.667969 49.769531 273.660156 46.589844 274.289062 43.371094 C 275.5625 36.851562 275.324219 30.164062 273.300781 23.703125 C 273.136719 23.152344 272.5625 22.839844 272.015625 23.003906 C 271.46875 23.167969 271.15625 23.742188 271.320312 24.289062 C 273.035156 30.429688 273.023438 36.722656 271.675781 42.828125 C 271.011719 45.84375 270.011719 48.8125 268.742188 51.707031 C 267.496094 54.539062 266.003906 57.304688 264.242188 59.941406 C 262.808594 62.117188 261.222656 64.605469 259.246094 66.738281 C 258.03125 68.050781 256.671875 69.238281 255.085938 70.109375 C 254.507812 70.414062 254.285156 71.132812 254.589844 71.710938 C 254.894531 72.289062 255.609375 72.511719 256.191406 72.207031 Z M 256.191406 72.207031 " fill-opacity="0.6118" fill-rule="evenodd"/></g></g><g clip-path="url(#6cc89e4c4f)"><g clip-path="url(#de84c28fec)"><path fill="#c55e2e" d="M 334.320312 198.109375 C 333.183594 206.976562 332.671875 215.890625 332.574219 224.824219 C 332.484375 233.121094 332.742188 241.4375 333.085938 249.746094 C 333.597656 262.1875 334.363281 274.609375 334.410156 286.976562 C 334.398438 287.546875 334.863281 288.015625 335.433594 288.019531 C 336 288.023438 336.46875 287.558594 336.46875 286.988281 C 336.65625 274.59375 336.210938 262.121094 335.8125 249.644531 C 335.542969 241.375 335.300781 233.101562 335.332031 224.84375 C 335.367188 216.003906 335.675781 207.179688 336.679688 198.390625 C 336.757812 197.742188 336.289062 197.148438 335.644531 197.070312 C 334.988281 196.992188 334.398438 197.457031 334.320312 198.109375 Z M 334.320312 198.109375 " fill-opacity="0.6118" fill-rule="evenodd"/></g></g><g clip-path="url(#fbba3b106c)"><path fill="#efbc30" d="M 37.632812 266.667969 L 69.386719 266.667969 L 69.386719 249.402344 L 42.300781 249.402344 L 42.300781 238.199219 L 69.386719 233.527344 L 69.386719 136.429688 L 42.300781 136.429688 L 42.300781 121.960938 L 69.386719 121.960938 L 69.386719 89.285156 L 37.632812 89.285156 L 37.632812 266.671875 " fill-opacity="1" fill-rule="nonzero"/></g><g clip-path="url(#b93a8ff05f)"><path fill="#efbc30" d="M 482.691406 204.117188 L 590.574219 197.582031 L 579.828125 210.652344 Z M 547.144531 107.023438 L 545.265625 104.691406 L 557.40625 118.230469 L 386.949219 119.628906 Z M 536.398438 89.285156 L 74.523438 89.285156 L 74.523438 121.960938 L 204.355469 130.828125 L 74.523438 136.429688 L 74.527344 233.054688 L 124.03125 233.054688 L 74.527344 249.402344 L 74.527344 266.667969 L 537.808594 266.667969 L 613.460938 176.109375 L 536.402344 89.285156 " fill-opacity="1" fill-rule="nonzero"/></g></svg>