<svg xmlns="http://www.w3.org/2000/svg" xmlns:xlink="http://www.w3.org/1999/xlink" width="869" zoomAndPan="magnify" viewBox="0 0 651.75 724.499978" height="966" preserveAspectRatio="xMidYMid meet" version="1.0"><defs><clipPath id="45ab4ca565"><path d="M 342 38 L 367 38 L 367 683.59375 L 342 683.59375 Z M 342 38 " clip-rule="nonzero"/></clipPath><clipPath id="b88ebeb6b6"><path d="M 373.535156 42.785156 C 372.953125 68.019531 374.769531 93.335938 374.5 118.578125 C 373.839844 180.328125 370.429688 242.167969 368.558594 303.902344 C 367.8125 328.523438 366 353.25 367.527344 377.863281 C 369.546875 410.378906 375.144531 442.675781 376.339844 475.226562 C 377.996094 520.5 375.578125 565.808594 376.609375 611.085938 C 376.960938 626.714844 383.847656 661.269531 380.933594 674.917969 C 378.519531 686.226562 313.867188 684.972656 308.929688 675.640625 C 301.820312 662.242188 305.390625 643.269531 305.859375 629.191406 C 306.839844 598.9375 307.960938 568.789062 307.960938 538.519531 C 307.960938 426.363281 307.640625 314.25 309.21875 202.09375 C 309.394531 189.515625 309.707031 176.941406 310.230469 164.363281 C 311.441406 135.042969 315.480469 105.878906 316.503906 76.539062 C 316.804688 67.890625 315.414062 48.871094 324.148438 42.183594 C 329.941406 37.746094 344.121094 38.699219 351.34375 38.613281 " clip-rule="evenodd"/></clipPath><clipPath id="e6fd8c5afc"><path d="M 333 38 L 363 38 L 363 150 L 333 150 Z M 333 38 " clip-rule="nonzero"/></clipPath><clipPath id="ae762b2296"><path d="M 373.535156 42.785156 C 372.953125 68.019531 374.769531 93.335938 374.5 118.578125 C 373.839844 180.328125 370.429688 242.167969 368.558594 303.902344 C 367.8125 328.523438 366 353.25 367.527344 377.863281 C 369.546875 410.378906 375.144531 442.675781 376.339844 475.226562 C 377.996094 520.5 375.578125 565.808594 376.609375 611.085938 C 376.960938 626.714844 383.847656 661.269531 380.933594 674.917969 C 378.519531 686.226562 313.867188 684.972656 308.929688 675.640625 C 301.820312 662.242188 305.390625 643.269531 305.859375 629.191406 C 306.839844 598.9375 307.960938 568.789062 307.960938 538.519531 C 307.960938 426.363281 307.640625 314.25 309.21875 202.09375 C 309.394531 189.515625 309.707031 176.941406 310.230469 164.363281 C 311.441406 135.042969 315.480469 105.878906 316.503906 76.539062 C 316.804688 67.890625 315.414062 48.871094 324.148438 42.183594 C 329.941406 37.746094 344.121094 38.699219 351.34375 38.613281 " clip-rule="evenodd"/></clipPath><clipPath id="c69b46ac90"><path d="M 348 227 L 376 227 L 376 539 L 348 539 Z M 348 227 " clip-rule="nonzero"/></clipPath><clipPath id="a6f7a69927"><path d="M 373.535156 42.785156 C 372.953125 68.019531 374.769531 93.335938 374.5 118.578125 C 373.839844 180.328125 370.429688 242.167969 368.558594 303.902344 C 367.8125 328.523438 366 353.25 367.527344 377.863281 C 369.546875 410.378906 375.144531 442.675781 376.339844 475.226562 C 377.996094 520.5 375.578125 565.808594 376.609375 611.085938 C 376.960938 626.714844 383.847656 661.269531 380.933594 674.917969 C 378.519531 686.226562 313.867188 684.972656 308.929688 675.640625 C 301.820312 662.242188 305.390625 643.269531 305.859375 629.191406 C 306.839844 598.9375 307.960938 568.789062 307.960938 538.519531 C 307.960938 426.363281 307.640625 314.25 309.21875 202.09375 C 309.394531 189.515625 309.707031 176.941406 310.230469 164.363281 C 311.441406 135.042969 315.480469 105.878906 316.503906 76.539062 C 316.804688 67.890625 315.414062 48.871094 324.148438 42.183594 C 329.941406 37.746094 344.121094 38.699219 351.34375 38.613281 " clip-rule="evenodd"/></clipPath><clipPath id="40b56e8121"><path d="M 359 263 L 376 263 L 376 378 L 359 378 Z M 359 263 " clip-rule="nonzero"/></clipPath><clipPath id="68554e99c3"><path d="M 373.535156 42.785156 C 372.953125 68.019531 374.769531 93.335938 374.5 118.578125 C 373.839844 180.328125 370.429688 242.167969 368.558594 303.902344 C 367.8125 328.523438 366 353.25 367.527344 377.863281 C 369.546875 410.378906 375.144531 442.675781 376.339844 475.226562 C 377.996094 520.5 375.578125 565.808594 376.609375 611.085938 C 376.960938 626.714844 383.847656 661.269531 380.933594 674.917969 C 378.519531 686.226562 313.867188 684.972656 308.929688 675.640625 C 301.820312 662.242188 305.390625 643.269531 305.859375 629.191406 C 306.839844 598.9375 307.960938 568.789062 307.960938 538.519531 C 307.960938 426.363281 307.640625 314.25 309.21875 202.09375 C 309.394531 189.515625 309.707031 176.941406 310.230469 164.363281 C 311.441406 135.042969 315.480469 105.878906 316.503906 76.539062 C 316.804688 67.890625 315.414062 48.871094 324.148438 42.183594 C 329.941406 37.746094 344.121094 38.699219 351.34375 38.613281 " clip-rule="evenodd"/></clipPath><clipPath id="8e2ea656aa"><path d="M 332 185 L 343 185 L 343 683.59375 L 332 683.59375 Z M 332 185 " clip-rule="nonzero"/></clipPath><clipPath id="b59c533e21"><path d="M 373.535156 42.785156 C 372.953125 68.019531 374.769531 93.335938 374.5 118.578125 C 373.839844 180.328125 370.429688 242.167969 368.558594 303.902344 C 367.8125 328.523438 366 353.25 367.527344 377.863281 C 369.546875 410.378906 375.144531 442.675781 376.339844 475.226562 C 377.996094 520.5 375.578125 565.808594 376.609375 611.085938 C 376.960938 626.714844 383.847656 661.269531 380.933594 674.917969 C 378.519531 686.226562 313.867188 684.972656 308.929688 675.640625 C 301.820312 662.242188 305.390625 643.269531 305.859375 629.191406 C 306.839844 598.9375 307.960938 568.789062 307.960938 538.519531 C 307.960938 426.363281 307.640625 314.25 309.21875 202.09375 C 309.394531 189.515625 309.707031 176.941406 310.230469 164.363281 C 311.441406 135.042969 315.480469 105.878906 316.503906 76.539062 C 316.804688 67.890625 315.414062 48.871094 324.148438 42.183594 C 329.941406 37.746094 344.121094 38.699219 351.34375 38.613281 " clip-rule="evenodd"/></clipPath><clipPath id="1455f5489f"><path d="M 304.5 38 L 337 38 L 337 424 L 304.5 424 Z M 304.5 38 " clip-rule="nonzero"/></clipPath><clipPath id="80806d1d88"><path d="M 373.535156 42.785156 C 372.953125 68.019531 374.769531 93.335938 374.5 118.578125 C 373.839844 180.328125 370.429688 242.167969 368.558594 303.902344 C 367.8125 328.523438 366 353.25 367.527344 377.863281 C 369.546875 410.378906 375.144531 442.675781 376.339844 475.226562 C 377.996094 520.5 375.578125 565.808594 376.609375 611.085938 C 376.960938 626.714844 383.847656 661.269531 380.933594 674.917969 C 378.519531 686.226562 313.867188 684.972656 308.929688 675.640625 C 301.820312 662.242188 305.390625 643.269531 305.859375 629.191406 C 306.839844 598.9375 307.960938 568.789062 307.960938 538.519531 C 307.960938 426.363281 307.640625 314.25 309.21875 202.09375 C 309.394531 189.515625 309.707031 176.941406 310.230469 164.363281 C 311.441406 135.042969 315.480469 105.878906 316.503906 76.539062 C 316.804688 67.890625 315.414062 48.871094 324.148438 42.183594 C 329.941406 37.746094 344.121094 38.699219 351.34375 38.613281 " clip-rule="evenodd"/></clipPath><clipPath id="f26bdb58f8"><path d="M 324 148 L 336 148 L 336 313 L 324 313 Z M 324 148 " clip-rule="nonzero"/></clipPath><clipPath id="7285e47d8b"><path d="M 373.535156 42.785156 C 372.953125 68.019531 374.769531 93.335938 374.5 118.578125 C 373.839844 180.328125 370.429688 242.167969 368.558594 303.902344 C 367.8125 328.523438 366 353.25 367.527344 377.863281 C 369.546875 410.378906 375.144531 442.675781 376.339844 475.226562 C 377.996094 520.5 375.578125 565.808594 376.609375 611.085938 C 376.960938 626.714844 383.847656 661.269531 380.933594 674.917969 C 378.519531 686.226562 313.867188 684.972656 308.929688 675.640625 C 301.820312 662.242188 305.390625 643.269531 305.859375 629.191406 C 306.839844 598.9375 307.960938 568.789062 307.960938 538.519531 C 307.960938 426.363281 307.640625 314.25 309.21875 202.09375 C 309.394531 189.515625 309.707031 176.941406 310.230469 164.363281 C 311.441406 135.042969 315.480469 105.878906 316.503906 76.539062 C 316.804688 67.890625 315.414062 48.871094 324.148438 42.183594 C 329.941406 37.746094 344.121094 38.699219 351.34375 38.613281 " clip-rule="evenodd"/></clipPath><clipPath id="51ab4d6bd3"><path d="M 349 152 L 355 152 L 355 206 L 349 206 Z M 349 152 " clip-rule="nonzero"/></clipPath><clipPath id="979d40a12c"><path d="M 373.535156 42.785156 C 372.953125 68.019531 374.769531 93.335938 374.5 118.578125 C 373.839844 180.328125 370.429688 242.167969 368.558594 303.902344 C 367.8125 328.523438 366 353.25 367.527344 377.863281 C 369.546875 410.378906 375.144531 442.675781 376.339844 475.226562 C 377.996094 520.5 375.578125 565.808594 376.609375 611.085938 C 376.960938 626.714844 383.847656 661.269531 380.933594 674.917969 C 378.519531 686.226562 313.867188 684.972656 308.929688 675.640625 C 301.820312 662.242188 305.390625 643.269531 305.859375 629.191406 C 306.839844 598.9375 307.960938 568.789062 307.960938 538.519531 C 307.960938 426.363281 307.640625 314.25 309.21875 202.09375 C 309.394531 189.515625 309.707031 176.941406 310.230469 164.363281 C 311.441406 135.042969 315.480469 105.878906 316.503906 76.539062 C 316.804688 67.890625 315.414062 48.871094 324.148438 42.183594 C 329.941406 37.746094 344.121094 38.699219 351.34375 38.613281 " clip-rule="evenodd"/></clipPath><clipPath id="ef2bd0d0f7"><path d="M 313 367 L 327 367 L 327 683.59375 L 313 683.59375 Z M 313 367 " clip-rule="nonzero"/></clipPath><clipPath id="aad8077549"><path d="M 373.535156 42.785156 C 372.953125 68.019531 374.769531 93.335938 374.5 118.578125 C 373.839844 180.328125 370.429688 242.167969 368.558594 303.902344 C 367.8125 328.523438 366 353.25 367.527344 377.863281 C 369.546875 410.378906 375.144531 442.675781 376.339844 475.226562 C 377.996094 520.5 375.578125 565.808594 376.609375 611.085938 C 376.960938 626.714844 383.847656 661.269531 380.933594 674.917969 C 378.519531 686.226562 313.867188 684.972656 308.929688 675.640625 C 301.820312 662.242188 305.390625 643.269531 305.859375 629.191406 C 306.839844 598.9375 307.960938 568.789062 307.960938 538.519531 C 307.960938 426.363281 307.640625 314.25 309.21875 202.09375 C 309.394531 189.515625 309.707031 176.941406 310.230469 164.363281 C 311.441406 135.042969 315.480469 105.878906 316.503906 76.539062 C 316.804688 67.890625 315.414062 48.871094 324.148438 42.183594 C 329.941406 37.746094 344.121094 38.699219 351.34375 38.613281 " clip-rule="evenodd"/></clipPath><clipPath id="ea1d5474a9"><path d="M 367 646 L 382 646 L 382 683.59375 L 367 683.59375 Z M 367 646 " clip-rule="nonzero"/></clipPath><clipPath id="64fa84afce"><path d="M 373.535156 42.785156 C 372.953125 68.019531 374.769531 93.335938 374.5 118.578125 C 373.839844 180.328125 370.429688 242.167969 368.558594 303.902344 C 367.8125 328.523438 366 353.25 367.527344 377.863281 C 369.546875 410.378906 375.144531 442.675781 376.339844 475.226562 C 377.996094 520.5 375.578125 565.808594 376.609375 611.085938 C 376.960938 626.714844 383.847656 661.269531 380.933594 674.917969 C 378.519531 686.226562 313.867188 684.972656 308.929688 675.640625 C 301.820312 662.242188 305.390625 643.269531 305.859375 629.191406 C 306.839844 598.9375 307.960938 568.789062 307.960938 538.519531 C 307.960938 426.363281 307.640625 314.25 309.21875 202.09375 C 309.394531 189.515625 309.707031 176.941406 310.230469 164.363281 C 311.441406 135.042969 315.480469 105.878906 316.503906 76.539062 C 316.804688 67.890625 315.414062 48.871094 324.148438 42.183594 C 329.941406 37.746094 344.121094 38.699219 351.34375 38.613281 " clip-rule="evenodd"/></clipPath><clipPath id="b9017a086b"><path d="M 372 651 L 382 651 L 382 683.59375 L 372 683.59375 Z M 372 651 " clip-rule="nonzero"/></clipPath><clipPath id="cc43c7c032"><path d="M 373.535156 42.785156 C 372.953125 68.019531 374.769531 93.335938 374.5 118.578125 C 373.839844 180.328125 370.429688 242.167969 368.558594 303.902344 C 367.8125 328.523438 366 353.25 367.527344 377.863281 C 369.546875 410.378906 375.144531 442.675781 376.339844 475.226562 C 377.996094 520.5 375.578125 565.808594 376.609375 611.085938 C 376.960938 626.714844 383.847656 661.269531 380.933594 674.917969 C 378.519531 686.226562 313.867188 684.972656 308.929688 675.640625 C 301.820312 662.242188 305.390625 643.269531 305.859375 629.191406 C 306.839844 598.9375 307.960938 568.789062 307.960938 538.519531 C 307.960938 426.363281 307.640625 314.25 309.21875 202.09375 C 309.394531 189.515625 309.707031 176.941406 310.230469 164.363281 C 311.441406 135.042969 315.480469 105.878906 316.503906 76.539062 C 316.804688 67.890625 315.414062 48.871094 324.148438 42.183594 C 329.941406 37.746094 344.121094 38.699219 351.34375 38.613281 " clip-rule="evenodd"/></clipPath><clipPath id="f826dc3b48"><path d="M 311 435 L 316 435 L 316 527 L 311 527 Z M 311 435 " clip-rule="nonzero"/></clipPath><clipPath id="926a3a7f25"><path d="M 373.535156 42.785156 C 372.953125 68.019531 374.769531 93.335938 374.5 118.578125 C 373.839844 180.328125 370.429688 242.167969 368.558594 303.902344 C 367.8125 328.523438 366 353.25 367.527344 377.863281 C 369.546875 410.378906 375.144531 442.675781 376.339844 475.226562 C 377.996094 520.5 375.578125 565.808594 376.609375 611.085938 C 376.960938 626.714844 383.847656 661.269531 380.933594 674.917969 C 378.519531 686.226562 313.867188 684.972656 308.929688 675.640625 C 301.820312 662.242188 305.390625 643.269531 305.859375 629.191406 C 306.839844 598.9375 307.960938 568.789062 307.960938 538.519531 C 307.960938 426.363281 307.640625 314.25 309.21875 202.09375 C 309.394531 189.515625 309.707031 176.941406 310.230469 164.363281 C 311.441406 135.042969 315.480469 105.878906 316.503906 76.539062 C 316.804688 67.890625 315.414062 48.871094 324.148438 42.183594 C 329.941406 37.746094 344.121094 38.699219 351.34375 38.613281 " clip-rule="evenodd"/></clipPath><clipPath id="458f2892e0"><path d="M 582 90.664062 L 613.835938 90.664062 L 613.835938 268.050781 L 582 268.050781 Z M 582 90.664062 " clip-rule="nonzero"/></clipPath><clipPath id="518396b69b"><path d="M 38.011719 90.664062 L 577 90.664062 L 577 268.050781 L 38.011719 268.050781 Z M 38.011719 90.664062 " clip-rule="nonzero"/></clipPath></defs><path fill="#fbc532" d="M 373.535156 42.785156 C 372.953125 68.019531 374.769531 93.335938 374.5 118.578125 C 373.839844 180.328125 370.429688 242.167969 368.558594 303.902344 C 367.816406 328.523438 366 353.25 367.527344 377.863281 C 369.546875 410.378906 375.144531 442.675781 376.339844 475.226562 C 377.996094 520.5 375.578125 565.808594 376.609375 611.085938 C 376.960938 626.714844 383.847656 661.269531 380.933594 674.917969 C 378.519531 686.226562 313.867188 684.972656 308.929688 675.640625 C 301.820312 662.242188 305.390625 643.269531 305.859375 629.191406 C 306.839844 598.9375 307.960938 568.789062 307.960938 538.519531 C 307.960938 426.363281 307.640625 314.25 309.21875 202.09375 C 309.394531 189.515625 309.707031 176.941406 310.230469 164.363281 C 311.441406 135.042969 315.480469 105.878906 316.503906 76.539062 C 316.804688 67.890625 315.414062 48.871094 324.148438 42.183594 C 329.941406 37.746094 344.121094 38.699219 351.34375 38.613281 " fill-opacity="1" fill-rule="evenodd"/><g clip-path="url(#45ab4ca565)"><g clip-path="url(#b88ebeb6b6)"><path fill="#c55e2e" d="M 359.269531 688.238281 C 361.5625 649.097656 363.832031 610.148438 364.277344 571.128906 C 364.578125 545.128906 364.054688 519.097656 362.195312 492.957031 C 359.4375 454.269531 352.429688 415.875 348.304688 377.304688 C 346.546875 360.800781 345.300781 344.265625 345.175781 327.65625 C 345.023438 308.015625 346.5 288.542969 348.75 269.148438 C 354 223.742188 363.421875 178.742188 365.921875 132.96875 C 366.503906 122.289062 366.121094 111.746094 365.226562 101.257812 C 363.152344 76.855469 358.304688 52.792969 356.546875 28.128906 C 356.5 27.558594 356.011719 27.125 355.445312 27.167969 C 354.867188 27.207031 354.445312 27.703125 354.476562 28.277344 C 356.179688 52.949219 360.960938 77.03125 362.976562 101.453125 C 363.832031 111.828125 364.1875 122.261719 363.578125 132.828125 C 360.972656 178.558594 351.441406 223.484375 346.101562 268.84375 C 343.796875 288.339844 342.285156 307.921875 342.40625 327.671875 C 342.507812 344.375 343.71875 361.007812 345.488281 377.605469 C 349.605469 416.148438 356.667969 454.5 359.449219 493.15625 C 361.339844 519.21875 361.898438 545.175781 361.652344 571.101562 C 361.285156 610.082031 359.117188 648.996094 356.914062 688.101562 C 356.878906 688.753906 357.378906 689.316406 358.027344 689.355469 C 358.683594 689.390625 359.238281 688.890625 359.269531 688.238281 Z M 359.269531 688.238281 " fill-opacity="0.6118" fill-rule="evenodd"/></g></g><g clip-path="url(#e6fd8c5afc)"><g clip-path="url(#ae762b2296)"><path fill="#c55e2e" d="M 348.449219 127.804688 C 348.28125 127.515625 348.023438 127.054688 347.957031 126.714844 L 347.65625 124.75 C 347.414062 122.554688 347.3125 120.265625 347.378906 117.988281 C 347.445312 115.730469 347.679688 113.46875 348.113281 111.304688 C 348.214844 110.769531 348.492188 109.28125 349.046875 108.039062 C 349.25 107.585938 349.480469 107.152344 349.792969 106.855469 C 349.960938 106.691406 350.148438 106.570312 350.394531 106.625 C 351.050781 106.785156 351.527344 107.335938 351.929688 107.953125 C 352.742188 109.21875 353.199219 110.859375 353.496094 111.773438 C 354.542969 114.9375 354.976562 118.292969 354.910156 121.652344 C 354.832031 125.015625 354.230469 128.382812 353.199219 131.546875 C 352.910156 132.441406 352.117188 135.117188 350.804688 136.777344 C 350.238281 137.488281 349.582031 138.050781 348.738281 137.632812 C 347.734375 137.144531 347.023438 136.25 346.457031 135.246094 C 345.433594 133.417969 344.886719 131.214844 344.398438 129.703125 C 342.953125 125.277344 342.074219 120.820312 341.953125 116.375 C 341.816406 111.949219 342.429688 107.519531 343.953125 103.113281 C 344.511719 101.542969 345.542969 98.011719 347.347656 95.625 C 348.292969 94.378906 349.425781 93.410156 350.941406 93.640625 C 352.53125 93.878906 353.664062 94.820312 354.53125 96.011719 C 356.132812 98.214844 356.847656 101.230469 357.390625 103.203125 C 358.894531 108.683594 359.851562 114.390625 359.960938 120.09375 C 360.070312 125.753906 359.347656 131.398438 357.46875 136.804688 C 356.679688 139.082031 354.886719 143.234375 352.128906 145.390625 C 350.628906 146.554688 348.816406 147.070312 346.703125 146.066406 C 345.199219 145.34375 343.953125 144.3125 342.917969 143.140625 C 341.761719 141.839844 340.851562 140.375 340.105469 138.960938 C 338.324219 135.578125 337.222656 131.980469 336.644531 128.320312 C 336.042969 124.554688 335.988281 120.730469 336.277344 116.984375 C 336.589844 112.925781 337.144531 108.894531 337.859375 104.882812 C 340.707031 88.726562 345.988281 72.832031 347.925781 56.546875 C 348.347656 52.957031 348.871094 49.183594 349.058594 45.449219 C 349.191406 42.894531 349.183594 40.347656 348.882812 37.878906 C 348.804688 37.222656 348.214844 36.761719 347.570312 36.835938 C 346.925781 36.910156 346.457031 37.5 346.535156 38.15625 C 346.800781 40.488281 346.800781 42.894531 346.65625 45.320312 C 346.445312 49 345.910156 52.707031 345.476562 56.242188 C 343.476562 72.484375 338.113281 88.308594 335.210938 104.414062 C 334.476562 108.507812 333.898438 112.621094 333.5625 116.761719 C 333.242188 120.730469 333.296875 124.777344 333.921875 128.753906 C 334.542969 132.71875 335.710938 136.601562 337.636719 140.261719 C 338.480469 141.878906 339.515625 143.539062 340.816406 145.003906 C 342.097656 146.453125 343.640625 147.726562 345.5 148.609375 C 348.757812 150.160156 351.5625 149.421875 353.855469 147.625 C 357.070312 145.125 359.226562 140.375 360.140625 137.734375 C 362.128906 132.007812 362.910156 126.03125 362.773438 120.035156 C 362.652344 114.097656 361.640625 108.15625 360.0625 102.457031 C 359.449219 100.246094 358.558594 96.867188 356.746094 94.398438 C 355.445312 92.625 353.710938 91.289062 351.339844 90.9375 C 349.359375 90.644531 347.679688 91.390625 346.277344 92.738281 C 343.652344 95.292969 342.140625 100.207031 341.441406 102.246094 C 339.828125 106.96875 339.191406 111.71875 339.347656 116.457031 C 339.515625 121.144531 340.449219 125.839844 341.996094 130.496094 C 342.542969 132.128906 343.164062 134.507812 344.289062 136.472656 C 345.109375 137.9375 346.199219 139.175781 347.65625 139.875 C 349.269531 140.652344 350.683594 140.261719 351.863281 139.230469 C 353.863281 137.496094 355.121094 133.511719 355.511719 132.292969 C 356.589844 128.910156 357.214844 125.304688 357.269531 121.695312 C 357.324219 118.074219 356.835938 114.449219 355.6875 111.035156 C 355.332031 110.003906 354.777344 108.148438 353.84375 106.710938 C 353.097656 105.574219 352.117188 104.699219 350.90625 104.421875 C 349.683594 104.136719 348.660156 104.644531 347.878906 105.621094 C 346.667969 107.132812 346.101562 110.011719 345.933594 110.871094 C 345.488281 113.164062 345.253906 115.546875 345.199219 117.933594 C 345.144531 120.3125 345.265625 122.691406 345.535156 124.988281 L 345.878906 127.15625 C 346.066406 128.003906 346.480469 128.863281 346.957031 129.398438 C 347.390625 129.878906 347.890625 130.136719 348.359375 130.171875 C 349.070312 130.230469 350.039062 129.851562 350.582031 128.117188 C 350.839844 127.269531 351.027344 126.382812 351.152344 125.496094 C 351.339844 124.207031 351.40625 122.894531 351.453125 121.625 C 351.460938 121.050781 351.015625 120.570312 350.449219 120.554688 C 349.882812 120.535156 349.40625 120.976562 349.382812 121.550781 C 349.335938 122.75 349.28125 123.984375 349.09375 125.191406 C 348.980469 125.96875 348.816406 126.742188 348.582031 127.480469 C 348.546875 127.589844 348.503906 127.703125 348.449219 127.804688 Z M 348.449219 127.804688 " fill-opacity="0.6118" fill-rule="evenodd"/></g></g><g clip-path="url(#c69b46ac90)"><g clip-path="url(#a6f7a69927)"><path fill="#c55e2e" d="M 371.4375 538.113281 C 373.34375 532.824219 374.320312 527.148438 374.796875 521.371094 C 375.496094 512.835938 375.09375 504.082031 375.023438 496.054688 C 374.914062 483.425781 374.035156 470.933594 372.625 458.503906 C 370.519531 439.921875 367.230469 421.46875 363.609375 402.875 C 358.914062 379.019531 353.71875 354.675781 351.742188 330.304688 C 350.417969 314.039062 350.527344 297.757812 353.21875 281.597656 C 354.410156 274.367188 356.335938 267.210938 358.683594 260.136719 C 362.1875 249.613281 366.628906 239.273438 371.085938 229.101562 C 371.316406 228.574219 371.078125 227.964844 370.558594 227.734375 C 370.035156 227.503906 369.425781 227.734375 369.195312 228.261719 C 364.65625 238.472656 360.128906 248.847656 356.558594 259.417969 C 354.121094 266.59375 352.128906 273.851562 350.871094 281.203125 C 348.070312 297.550781 347.847656 314.035156 349.125 330.511719 C 351.015625 354.992188 356.191406 379.453125 360.839844 403.421875 C 364.476562 421.9375 367.777344 440.3125 369.929688 458.8125 C 371.363281 471.152344 372.296875 483.546875 372.457031 496.082031 C 372.558594 504.039062 373.003906 512.714844 372.351562 521.175781 C 371.921875 526.742188 371.019531 532.210938 369.210938 537.3125 C 368.988281 537.929688 369.308594 538.609375 369.925781 538.832031 C 370.539062 539.050781 371.21875 538.730469 371.4375 538.113281 Z M 371.4375 538.113281 " fill-opacity="0.6118" fill-rule="evenodd"/></g></g><g clip-path="url(#40b56e8121)"><g clip-path="url(#68554e99c3)"><path fill="#c55e2e" d="M 369.476562 375.507812 C 367.894531 371.484375 366.902344 367.210938 366.203125 362.863281 C 365.132812 356.21875 364.753906 349.402344 364.121094 343.027344 C 363.476562 336.679688 362.964844 330.226562 362.707031 323.75 C 362.339844 314.125 362.609375 304.453125 364.234375 294.988281 C 366.003906 284.695312 369.347656 274.652344 375.183594 265.21875 C 375.488281 264.738281 375.34375 264.101562 374.863281 263.796875 C 374.378906 263.492188 373.742188 263.632812 373.4375 264.121094 C 367.296875 273.722656 363.675781 283.988281 361.730469 294.546875 C 359.949219 304.171875 359.539062 314.039062 359.894531 323.855469 C 360.117188 330.394531 360.707031 336.90625 361.386719 343.3125 C 362.085938 349.734375 362.53125 356.601562 363.6875 363.285156 C 364.476562 367.800781 365.578125 372.230469 367.28125 376.390625 C 367.527344 377 368.214844 377.292969 368.820312 377.050781 C 369.425781 376.804688 369.722656 376.113281 369.476562 375.507812 Z M 369.476562 375.507812 " fill-opacity="0.6118" fill-rule="evenodd"/></g></g><g clip-path="url(#8e2ea656aa)"><g clip-path="url(#b59c533e21)"><path fill="#c55e2e" d="M 338.890625 698.351562 C 339.972656 685.335938 340.347656 672.238281 340.40625 659.125 C 340.496094 639.511719 339.871094 619.855469 339.847656 600.367188 C 339.804688 576.253906 339.503906 552.152344 339.070312 528.050781 C 338.660156 505.558594 338.148438 483.070312 337.601562 460.582031 C 336.789062 426.863281 335.910156 393.140625 335.410156 359.40625 C 335.144531 342.097656 335.65625 324.847656 336.511719 307.632812 C 338.523438 267.300781 342.453125 227.136719 342.886719 186.730469 C 342.898438 186.15625 342.441406 185.6875 341.863281 185.679688 C 341.296875 185.667969 340.828125 186.128906 340.816406 186.703125 C 340.25 227.082031 336.179688 267.210938 334.042969 307.503906 C 333.128906 324.773438 332.5625 342.078125 332.785156 359.441406 C 333.21875 393.1875 333.988281 426.917969 334.777344 460.652344 C 335.300781 483.136719 335.84375 505.617188 336.277344 528.105469 C 336.746094 552.191406 337.101562 576.277344 337.203125 600.375 C 337.28125 619.859375 337.945312 639.507812 337.914062 659.117188 C 337.890625 672.167969 337.570312 685.203125 336.535156 698.15625 C 336.480469 698.8125 336.96875 699.382812 337.625 699.4375 C 338.269531 699.488281 338.835938 699.003906 338.890625 698.351562 Z M 338.890625 698.351562 " fill-opacity="0.6118" fill-rule="evenodd"/></g></g><g clip-path="url(#1455f5489f)"><g clip-path="url(#80806d1d88)"><path fill="#c55e2e" d="M 334.097656 38.421875 C 331.261719 54.203125 328.691406 69.964844 326.578125 85.773438 C 324.464844 101.628906 322.820312 117.519531 321.804688 133.511719 C 320.425781 155.546875 319.78125 177.578125 319.335938 199.625 C 318.890625 221.648438 318.625 243.671875 317.957031 265.6875 C 317.367188 284.53125 316.5 303.363281 314.941406 322.1875 C 313.296875 342.1875 313.074219 362.515625 311.105469 382.640625 C 309.792969 395.949219 307.722656 409.164062 303.964844 422.132812 C 303.796875 422.679688 304.109375 423.257812 304.664062 423.417969 C 305.210938 423.578125 305.777344 423.261719 305.945312 422.714844 C 309.804688 409.636719 311.960938 396.300781 313.339844 382.863281 C 315.398438 362.742188 315.722656 342.402344 317.457031 322.402344 C 319.082031 303.539062 320.039062 284.660156 320.671875 265.78125 C 321.40625 243.746094 321.71875 221.710938 322.164062 199.679688 C 322.605469 177.679688 323.175781 155.675781 324.507812 133.6875 C 325.464844 117.742188 327.066406 101.90625 329.113281 86.113281 C 331.160156 70.332031 333.664062 54.597656 336.421875 38.835938 C 336.546875 38.191406 336.113281 37.574219 335.464844 37.460938 C 334.820312 37.34375 334.210938 37.777344 334.097656 38.421875 Z M 334.097656 38.421875 " fill-opacity="0.6118" fill-rule="evenodd"/></g></g><g clip-path="url(#f26bdb58f8)"><g clip-path="url(#7285e47d8b)"><path fill="#c55e2e" d="M 326.367188 311.476562 C 327.667969 305.484375 328.613281 299.425781 329.347656 293.347656 C 330.460938 284.246094 331.128906 275.09375 331.941406 266.019531 C 333.285156 250.535156 334.097656 235.019531 334.53125 219.5 C 335.1875 196.238281 335.066406 172.960938 335.242188 149.699219 C 335.253906 149.125 334.800781 148.65625 334.230469 148.648438 C 333.652344 148.636719 333.1875 149.097656 333.1875 149.671875 C 332.773438 172.914062 332.5625 196.171875 331.785156 219.414062 C 331.273438 234.882812 330.550781 250.351562 329.203125 265.789062 C 328.457031 274.835938 327.859375 283.96875 326.824219 293.042969 C 326.144531 299.058594 325.289062 305.050781 324.054688 310.984375 C 323.917969 311.625 324.332031 312.253906 324.964844 312.390625 C 325.609375 312.527344 326.234375 312.117188 326.367188 311.476562 Z M 326.367188 311.476562 " fill-opacity="0.6118" fill-rule="evenodd"/></g></g><g clip-path="url(#51ab4d6bd3)"><g clip-path="url(#979d40a12c)"><path fill="#c55e2e" d="M 351.640625 153.414062 C 351.351562 158.523438 351.007812 163.625 350.707031 168.726562 C 350.503906 172.128906 350.316406 175.53125 350.160156 178.9375 C 349.792969 187.457031 349.617188 195.988281 349.550781 204.53125 C 349.539062 205.101562 349.992188 205.570312 350.5625 205.589844 C 351.128906 205.601562 351.605469 205.148438 351.617188 204.574219 C 351.851562 198.453125 352.207031 192.335938 352.550781 186.210938 C 352.785156 182.136719 353.03125 178.050781 353.230469 173.972656 C 353.566406 167.15625 353.789062 160.34375 354.007812 153.527344 C 354.03125 152.871094 353.53125 152.316406 352.875 152.289062 C 352.21875 152.261719 351.671875 152.769531 351.640625 153.414062 Z M 351.640625 153.414062 " fill-opacity="0.6118" fill-rule="evenodd"/></g></g><g clip-path="url(#ef2bd0d0f7)"><g clip-path="url(#aad8077549)"><path fill="#c55e2e" d="M 315.375 682.640625 C 317.210938 644.734375 319.269531 606.832031 320.90625 568.921875 C 322.007812 543.632812 322.894531 518.34375 323.542969 493.042969 C 324.21875 463.945312 323.363281 434.691406 324.355469 405.539062 C 324.765625 393.070312 325.523438 380.621094 326.878906 368.207031 C 326.945312 367.640625 326.535156 367.128906 325.964844 367.0625 C 325.398438 367 324.886719 367.410156 324.820312 367.976562 C 323.386719 380.433594 322.5625 392.933594 322.074219 405.457031 C 320.9375 434.609375 321.660156 463.871094 320.828125 492.972656 C 320.160156 518.257812 319.167969 543.527344 318.101562 568.800781 C 316.511719 606.710938 314.699219 644.621094 313.019531 682.53125 C 312.984375 683.183594 313.484375 683.738281 314.140625 683.769531 C 314.785156 683.800781 315.34375 683.292969 315.375 682.640625 Z M 315.375 682.640625 " fill-opacity="0.6118" fill-rule="evenodd"/></g></g><g clip-path="url(#ea1d5474a9)"><g clip-path="url(#64fa84afce)"><path fill="#c55e2e" d="M 369.445312 684.136719 C 369.980469 679.453125 371.015625 674.300781 372.71875 669.28125 C 373.785156 666.132812 375.121094 663.035156 376.832031 660.152344 C 379.59375 655.503906 383.300781 651.390625 388.4375 648.585938 C 388.945312 648.320312 389.140625 647.695312 388.878906 647.1875 C 388.613281 646.683594 387.992188 646.484375 387.484375 646.75 C 380.410156 650.289062 375.546875 656.058594 372.363281 662.628906 C 371.070312 665.300781 370.074219 668.109375 369.296875 670.929688 C 368.082031 675.347656 367.4375 679.808594 367.089844 683.898438 C 367.023438 684.550781 367.5 685.132812 368.148438 685.195312 C 368.800781 685.261719 369.378906 684.785156 369.445312 684.136719 Z M 369.445312 684.136719 " fill-opacity="0.6118" fill-rule="evenodd"/></g></g><g clip-path="url(#b9017a086b)"><g clip-path="url(#cc43c7c032)"><path fill="#c55e2e" d="M 391.617188 651.625 C 389.769531 652.566406 388.15625 653.867188 386.722656 655.335938 C 384.589844 657.527344 382.859375 660.101562 381.300781 662.351562 C 379.414062 665.113281 377.777344 667.996094 376.472656 670.988281 C 375.136719 674.0625 374.144531 677.238281 373.519531 680.457031 C 372.246094 686.976562 372.480469 693.667969 374.507812 700.128906 C 374.667969 700.675781 375.242188 700.988281 375.789062 700.824219 C 376.335938 700.664062 376.648438 700.085938 376.488281 699.539062 C 374.769531 693.398438 374.785156 687.109375 376.128906 681.003906 C 376.792969 677.984375 377.792969 675.019531 379.066406 672.125 C 380.308594 669.292969 381.800781 666.527344 383.5625 663.886719 C 385 661.710938 386.582031 659.226562 388.558594 657.089844 C 389.773438 655.777344 391.132812 654.589844 392.71875 653.722656 C 393.296875 653.417969 393.519531 652.699219 393.214844 652.117188 C 392.910156 651.539062 392.195312 651.320312 391.617188 651.625 Z M 391.617188 651.625 " fill-opacity="0.6118" fill-rule="evenodd"/></g></g><g clip-path="url(#f826dc3b48)"><g clip-path="url(#926a3a7f25)"><path fill="#c55e2e" d="M 313.484375 525.722656 C 314.621094 516.855469 315.132812 507.941406 315.230469 499.003906 C 315.320312 490.707031 315.066406 482.390625 314.71875 474.082031 C 314.207031 461.644531 313.441406 449.21875 313.398438 436.851562 C 313.40625 436.28125 312.941406 435.8125 312.375 435.8125 C 311.804688 435.808594 311.339844 436.269531 311.339844 436.839844 C 311.148438 449.238281 311.59375 461.710938 311.996094 474.183594 C 312.261719 482.457031 312.507812 490.726562 312.472656 498.984375 C 312.441406 507.824219 312.128906 516.648438 311.128906 525.4375 C 311.050781 526.089844 311.515625 526.679688 312.160156 526.757812 C 312.816406 526.835938 313.40625 526.371094 313.484375 525.722656 Z M 313.484375 525.722656 " fill-opacity="0.6118" fill-rule="evenodd"/></g></g><g clip-path="url(#458f2892e0)"><path fill="#efbc30" d="M 613.835938 90.664062 L 582.078125 90.664062 L 582.078125 107.929688 L 609.167969 107.929688 L 609.167969 119.132812 L 582.078125 123.804688 L 582.078125 220.902344 L 609.167969 220.902344 L 609.164062 235.371094 L 582.078125 235.371094 L 582.078125 268.046875 L 613.832031 268.046875 L 613.832031 90.660156 " fill-opacity="1" fill-rule="nonzero"/></g><g clip-path="url(#518396b69b)"><path fill="#efbc30" d="M 168.773438 153.214844 L 60.890625 159.75 L 71.640625 146.679688 Z M 104.320312 250.308594 L 106.203125 252.640625 L 94.058594 239.101562 L 264.515625 237.703125 Z M 115.070312 268.046875 L 576.945312 268.046875 L 576.941406 235.371094 L 447.113281 226.503906 L 576.941406 220.902344 L 576.9375 124.277344 L 527.433594 124.277344 L 576.9375 107.929688 L 576.9375 90.664062 L 113.65625 90.664062 L 38.007812 181.222656 L 115.0625 268.046875 " fill-opacity="1" fill-rule="nonzero"/></g></svg>