<svg xmlns="http://www.w3.org/2000/svg" xmlns:xlink="http://www.w3.org/1999/xlink" width="869" zoomAndPan="magnify" viewBox="0 0 651.75 253.499997" height="338" preserveAspectRatio="xMidYMid meet" version="1.0"><defs><clipPath id="e7fafa5372"><path d="M 187.492188 66.535156 L 400.902344 66.535156 L 400.902344 186.347656 L 187.492188 186.347656 Z M 187.492188 66.535156 " clip-rule="nonzero"/></clipPath><clipPath id="05d0ce217b"><path d="M 38.398438 37.863281 L 70.347656 37.863281 L 70.347656 215.023438 L 38.398438 215.023438 Z M 38.398438 37.863281 " clip-rule="nonzero"/></clipPath><clipPath id="17ff966197"><path d="M 75 37.863281 L 613.484375 37.863281 L 613.484375 215.023438 L 75 215.023438 Z M 75 37.863281 " clip-rule="nonzero"/></clipPath></defs><path fill="#ff5590" d="M 339.878906 104.441406 C 339.828125 105.824219 338.707031 106.894531 337.324219 106.894531 L 202.675781 107.445312 L 203.066406 134.191406 L 337.742188 126.597656 C 338.785156 126.546875 339.695312 127.09375 340.167969 127.980469 C 340.324219 128.269531 340.425781 128.582031 340.453125 128.945312 L 342.828125 154.808594 L 394.121094 115.949219 L 341.132812 74.613281 Z M 339.878906 104.441406 " fill-opacity="1" fill-rule="nonzero"/><g clip-path="url(#e7fafa5372)"><path fill="#231f20" d="M 400.667969 114.984375 C 400.640625 114.933594 400.640625 114.90625 400.617188 114.855469 C 400.484375 114.566406 400.304688 114.308594 400.042969 114.097656 C 400.015625 114.070312 399.964844 114.070312 399.9375 114.046875 C 399.910156 114.019531 399.910156 113.992188 399.886719 113.96875 L 340.347656 67.488281 C 339.59375 66.890625 338.574219 66.785156 337.6875 67.175781 C 336.828125 67.59375 336.253906 68.429688 336.203125 69.394531 L 334.84375 101.753906 L 200.066406 102.328125 C 200.015625 102.328125 199.988281 102.355469 199.960938 102.355469 C 199.726562 102.355469 199.492188 102.40625 199.285156 102.484375 C 199.207031 102.511719 199.128906 102.511719 199.074219 102.539062 C 198.789062 102.667969 198.527344 102.824219 198.320312 103.058594 C 198.320312 103.058594 198.292969 103.085938 198.292969 103.085938 C 198.242188 103.136719 198.214844 103.214844 198.164062 103.269531 C 198.058594 103.398438 197.925781 103.527344 197.824219 103.710938 L 187.804688 123.179688 C 187.570312 123.570312 187.492188 124.015625 187.492188 124.433594 L 188.273438 155.433594 C 188.300781 155.929688 188.429688 156.402344 188.71875 156.792969 C 188.824219 156.949219 188.953125 157.105469 189.082031 157.234375 C 189.578125 157.707031 190.257812 157.964844 190.9375 157.941406 L 321.410156 153.113281 L 322.398438 183.671875 C 322.425781 184.609375 322.972656 185.472656 323.808594 185.890625 C 324.644531 186.308594 325.660156 186.230469 326.445312 185.707031 L 381.960938 146.769531 C 382.25 146.5625 382.484375 146.328125 382.667969 146.015625 L 400.511719 117.359375 C 400.539062 117.308594 400.539062 117.28125 400.5625 117.230469 C 400.617188 117.152344 400.640625 117.046875 400.667969 116.96875 C 400.773438 116.707031 400.824219 116.472656 400.851562 116.210938 C 400.851562 116.160156 400.902344 116.109375 400.902344 116.03125 C 400.902344 115.976562 400.875 115.949219 400.875 115.898438 C 400.875 115.558594 400.796875 115.273438 400.667969 114.984375 Z M 342.828125 154.808594 L 340.453125 128.945312 C 340.425781 128.609375 340.324219 128.269531 340.167969 127.980469 C 339.722656 127.121094 338.785156 126.546875 337.742188 126.597656 L 203.066406 134.191406 L 202.675781 107.445312 L 337.324219 106.894531 C 338.707031 106.894531 339.828125 105.800781 339.878906 104.441406 L 341.132812 74.613281 L 394.121094 115.949219 Z M 342.828125 154.808594 " fill-opacity="1" fill-rule="nonzero"/></g><g clip-path="url(#05d0ce217b)"><path fill="#efbc30" d="M 38.398438 215.023438 L 70.109375 215.023438 L 70.109375 197.78125 L 43.058594 197.78125 L 43.058594 186.589844 L 70.113281 181.925781 L 70.113281 84.953125 L 43.058594 84.953125 L 43.058594 70.503906 L 70.113281 70.503906 L 70.113281 37.871094 L 38.398438 37.871094 L 38.398438 215.027344 " fill-opacity="1" fill-rule="nonzero"/></g><g clip-path="url(#17ff966197)"><path fill="#efbc30" d="M 482.886719 152.554688 L 590.632812 146.027344 L 579.898438 159.082031 Z M 547.257812 55.582031 L 545.378906 53.253906 L 557.507812 66.773438 L 387.269531 68.171875 Z M 536.523438 37.871094 L 75.242188 37.871094 L 75.242188 70.503906 L 204.90625 79.359375 L 75.242188 84.953125 L 75.246094 181.453125 L 124.6875 181.453125 L 75.246094 197.78125 L 75.246094 215.023438 L 537.933594 215.023438 L 613.488281 124.582031 L 536.527344 37.871094 " fill-opacity="1" fill-rule="nonzero"/></g></svg>