<svg xmlns="http://www.w3.org/2000/svg" xmlns:xlink="http://www.w3.org/1999/xlink" width="868" zoomAndPan="magnify" viewBox="0 0 651 253.499997" height="338" preserveAspectRatio="xMidYMid meet" version="1.0"><defs><clipPath id="0756801355"><path d="M 261.648438 60 L 474.976562 60 L 474.976562 179.539062 L 261.648438 179.539062 Z M 261.648438 60 " clip-rule="nonzero"/></clipPath><clipPath id="c13775746f"><path d="M 581 37.679688 L 612.933594 37.679688 L 612.933594 214.769531 L 581 214.769531 Z M 581 37.679688 " clip-rule="nonzero"/></clipPath><clipPath id="7942da8954"><path d="M 38.066406 37.679688 L 577 37.679688 L 577 214.769531 L 38.066406 214.769531 Z M 38.066406 37.679688 " clip-rule="nonzero"/></clipPath></defs><path fill="#ff5590" d="M 413.976562 97.664062 C 413.925781 99.046875 412.804688 100.117188 411.421875 100.117188 L 276.824219 100.664062 L 277.21875 127.40625 L 411.839844 119.8125 C 412.882812 119.761719 413.796875 120.308594 414.265625 121.195312 C 414.421875 121.484375 414.523438 121.796875 414.550781 122.160156 L 416.925781 148.011719 L 468.195312 109.167969 L 415.230469 67.847656 Z M 413.976562 97.664062 " fill-opacity="1" fill-rule="nonzero"/><g clip-path="url(#0756801355)"><path fill="#231f20" d="M 474.742188 108.203125 C 474.714844 108.152344 474.714844 108.125 474.691406 108.074219 C 474.558594 107.789062 474.378906 107.527344 474.117188 107.316406 C 474.089844 107.292969 474.039062 107.292969 474.011719 107.265625 C 473.984375 107.238281 473.984375 107.214844 473.960938 107.1875 L 414.445312 60.726562 C 413.691406 60.128906 412.671875 60.023438 411.785156 60.414062 C 410.925781 60.832031 410.351562 61.667969 410.300781 62.632812 L 408.945312 94.980469 L 274.21875 95.554688 C 274.167969 95.554688 274.140625 95.578125 274.113281 95.578125 C 273.878906 95.578125 273.644531 95.632812 273.4375 95.710938 C 273.359375 95.734375 273.28125 95.734375 273.226562 95.761719 C 272.941406 95.890625 272.679688 96.046875 272.472656 96.285156 C 272.472656 96.285156 272.445312 96.308594 272.445312 96.308594 C 272.394531 96.363281 272.367188 96.441406 272.3125 96.492188 C 272.210938 96.621094 272.078125 96.753906 271.976562 96.933594 L 261.960938 116.394531 C 261.726562 116.789062 261.648438 117.230469 261.648438 117.648438 L 262.429688 148.640625 C 262.457031 149.132812 262.585938 149.605469 262.875 149.996094 C 262.976562 150.152344 263.109375 150.308594 263.238281 150.4375 C 263.734375 150.910156 264.414062 151.167969 265.089844 151.144531 L 395.511719 146.316406 L 396.503906 176.863281 C 396.53125 177.804688 397.078125 178.664062 397.914062 179.082031 C 398.746094 179.5 399.765625 179.421875 400.546875 178.898438 L 456.042969 139.976562 C 456.332031 139.769531 456.566406 139.535156 456.746094 139.222656 L 474.585938 110.578125 C 474.613281 110.527344 474.613281 110.5 474.636719 110.449219 C 474.691406 110.371094 474.714844 110.265625 474.742188 110.1875 C 474.847656 109.925781 474.898438 109.691406 474.925781 109.429688 C 474.925781 109.378906 474.976562 109.328125 474.976562 109.25 C 474.976562 109.195312 474.949219 109.167969 474.949219 109.117188 C 474.949219 108.777344 474.871094 108.492188 474.742188 108.203125 Z M 416.925781 148.011719 L 414.550781 122.160156 C 414.523438 121.820312 414.421875 121.484375 414.265625 121.195312 C 413.820312 120.335938 412.882812 119.761719 411.839844 119.8125 L 277.21875 127.40625 L 276.824219 100.664062 L 411.421875 100.117188 C 412.804688 100.117188 413.925781 99.023438 413.976562 97.664062 L 415.230469 67.847656 L 468.195312 109.167969 Z M 416.925781 148.011719 " fill-opacity="1" fill-rule="nonzero"/></g><g clip-path="url(#c13775746f)"><path fill="#efbc30" d="M 612.933594 37.679688 L 581.230469 37.679688 L 581.230469 54.917969 L 608.273438 54.917969 L 608.273438 66.101562 L 581.230469 70.761719 L 581.230469 167.699219 L 608.273438 167.699219 L 608.273438 182.144531 L 581.230469 182.144531 L 581.230469 214.765625 L 612.933594 214.765625 L 612.933594 37.671875 " fill-opacity="1" fill-rule="nonzero"/></g><g clip-path="url(#7942da8954)"><path fill="#efbc30" d="M 168.613281 100.125 L 60.910156 106.648438 L 71.640625 93.601562 Z M 104.265625 197.058594 L 106.144531 199.386719 L 94.019531 185.871094 L 264.195312 184.472656 Z M 114.996094 214.765625 L 576.101562 214.765625 L 576.101562 182.144531 L 446.488281 173.292969 L 576.101562 167.699219 L 576.097656 71.234375 L 526.675781 71.234375 L 576.097656 54.917969 L 576.097656 37.679688 L 113.585938 37.679688 L 38.0625 128.085938 L 114.992188 214.765625 " fill-opacity="1" fill-rule="nonzero"/></g></svg>