<svg xmlns="http://www.w3.org/2000/svg" xmlns:xlink="http://www.w3.org/1999/xlink" width="868" zoomAndPan="magnify" viewBox="0 0 651 386.999991" height="516" preserveAspectRatio="xMidYMid meet" version="1.0"><defs><clipPath id="18b0e77ff0"><path d="M 272.703125 133.445312 L 486.453125 133.445312 L 486.453125 253.445312 L 272.703125 253.445312 Z M 272.703125 133.445312 " clip-rule="nonzero"/></clipPath><clipPath id="d90afe40ea"><path d="M 37.5 38 L 613.5 38 L 613.5 349 L 37.5 349 Z M 37.5 38 " clip-rule="nonzero"/></clipPath></defs><path fill="#ff5590" d="M 425.332031 171.410156 C 425.28125 172.796875 424.15625 173.867188 422.769531 173.867188 L 287.910156 174.417969 L 288.300781 201.210938 L 423.1875 193.601562 C 424.234375 193.550781 425.148438 194.101562 425.621094 194.988281 C 425.777344 195.277344 425.878906 195.589844 425.90625 195.957031 L 428.285156 221.859375 L 479.65625 182.9375 L 426.585938 141.535156 Z M 425.332031 171.410156 " fill-opacity="1" fill-rule="nonzero"/><g clip-path="url(#18b0e77ff0)"><path fill="#231f20" d="M 486.214844 181.972656 C 486.191406 181.917969 486.191406 181.894531 486.164062 181.839844 C 486.035156 181.554688 485.851562 181.292969 485.589844 181.082031 C 485.5625 181.058594 485.511719 181.058594 485.484375 181.03125 C 485.457031 181.003906 485.457031 180.980469 485.433594 180.953125 L 425.800781 134.402344 C 425.042969 133.800781 424.023438 133.695312 423.136719 134.085938 C 422.273438 134.503906 421.699219 135.339844 421.648438 136.308594 L 420.289062 168.71875 L 285.296875 169.292969 C 285.246094 169.292969 285.21875 169.320312 285.191406 169.320312 C 284.957031 169.320312 284.722656 169.375 284.511719 169.453125 C 284.433594 169.476562 284.355469 169.476562 284.304688 169.503906 C 284.015625 169.632812 283.753906 169.792969 283.546875 170.027344 C 283.546875 170.027344 283.519531 170.054688 283.519531 170.054688 C 283.46875 170.105469 283.441406 170.183594 283.390625 170.234375 C 283.285156 170.367188 283.152344 170.496094 283.050781 170.679688 L 273.015625 190.179688 C 272.78125 190.570312 272.703125 191.015625 272.703125 191.433594 L 273.484375 222.484375 C 273.511719 222.980469 273.640625 223.453125 273.929688 223.84375 C 274.035156 224 274.164062 224.160156 274.296875 224.289062 C 274.792969 224.757812 275.472656 225.019531 276.152344 224.996094 L 406.832031 220.160156 L 407.824219 250.765625 C 407.851562 251.707031 408.398438 252.570312 409.234375 252.988281 C 410.070312 253.40625 411.089844 253.328125 411.875 252.804688 L 467.480469 213.808594 C 467.769531 213.597656 468.003906 213.363281 468.1875 213.050781 L 486.058594 184.351562 C 486.085938 184.296875 486.085938 184.273438 486.113281 184.21875 C 486.164062 184.140625 486.191406 184.035156 486.214844 183.957031 C 486.320312 183.695312 486.375 183.460938 486.398438 183.199219 C 486.398438 183.148438 486.453125 183.097656 486.453125 183.015625 C 486.453125 182.964844 486.425781 182.9375 486.425781 182.886719 C 486.425781 182.546875 486.347656 182.257812 486.214844 181.972656 Z M 428.285156 221.859375 L 425.90625 195.957031 C 425.878906 195.617188 425.777344 195.277344 425.621094 194.988281 C 425.175781 194.125 424.234375 193.550781 423.1875 193.601562 L 288.300781 201.210938 L 287.910156 174.417969 L 422.769531 173.867188 C 424.15625 173.867188 425.28125 172.769531 425.332031 171.410156 L 426.585938 141.535156 L 479.65625 182.9375 Z M 428.285156 221.859375 " fill-opacity="1" fill-rule="nonzero"/></g><g clip-path="url(#d90afe40ea)"><path fill="#efbc30" d="M 613.582031 189.804688 L 359.195312 38.132812 L 358.683594 85.3125 L 37.5 85.3125 L 37.5 291.300781 L 356.386719 291.300781 L 355.742188 348.96875 Z M 613.582031 189.804688 " fill-opacity="1" fill-rule="nonzero"/></g></svg>